<?xml version="1.0" encoding="utf-8"?>
<!-- Generator: Adobe Illustrator 19.0.0, SVG Export Plug-In . SVG Version: 6.00 Build 0)  -->
<svg width="100%" height="200px" version="1.1" xmlns="http://www.w3.org/2000/svg" xmlns:xlink="http://www.w3.org/1999/xlink" x="0px" y="0px"
	 viewBox="0 0 10906.5 1306.8" style="enable-background:new 0 0 10906.5 1306.8;" xml:space="preserve">
<style type="text/css">
	.st0{fill:#FFFFFF;}
	.st1{fill:#1E284B;}
	.st2{font-family:'Furore';}
	.st3{font-size:1223.4152px;}
	.st4{fill:#43B3DF;}
	.st5{fill:#0098D3;}
	.st6{fill:#D4ECF8;}
	.st7{fill:#F08C95;}
	.st8{fill:#EC7083;}
	.st9{fill:#252C5D;}
	.st10{fill:#EF8135;}
	.st11{fill:#E95F79;}
	.st12{fill:#EB6C16;}
	.st13{fill:none;}
</style>
<g id="BACKGROUND">
	<rect x="2724.1" y="137.6" class="st0" width="500" height="500"/>
</g>
<g id="OBJECTS">
	<text transform="matrix(0.9994 0 0 1 -169.0791 824.9993)"><tspan x="0" y="0" class="st1 st2 st3">On Demand </tspan><tspan x="6447.3" y="0" class="st4 st2 st3">Car Wash</tspan></text>
	<g>
		<g>
			<g>
				<path class="st5" d="M-624.2,124.6c3.9-14.1,6.2-28.8,6.2-44.1c0-84.9-64.2-154.7-146.7-163.6c23.2-73,32.7-152.1,25.2-234.3
					c-26.9-295.2-275.7-528.2-571.9-536.5c-275.7-7.7-510.3,173.5-584.1,423.7c-17.4-13.1-37.1-23.2-58.4-29.9
					c36.6-33.1,43.8-89,14.8-130.6c-31.4-45.1-93.4-56.1-138.4-24.6c-45,31.4-56.1,93.5-24.6,138.5c5.8,8.4,12.7,15.6,20.4,21.5
					c-71.1,28.2-121.5,97.6-121.5,178.8c0,1,0.1,1.9,0.1,2.8c-13.4,1.2-26.4,3.5-39.5,5.6c-114.3-84.1-252.8-136.7-402.1-144.4
					c-115-6-224.5,14.5-323.5,55.1c-30.8-65.1-96.8-110.3-173.6-110.3c-43.3,0-83.2,14.5-115.3,38.7
					c-76.4-259-325.2-444-613.4-421.7c-284,21.9-515.6,250.5-541.5,534.4c-7.5,82.2,2,161.2,25.2,234.2
					c-82.4,8.9-146.6,78.6-146.6,163.4c0,6.7,0.6,13.2,1.4,19.6l-4.3-0.3c-221.9,0-401.7,180-401.7,402v2.6
					c0,64.7,15.4,125.8,42.5,180c19-24.7,48.8-40.6,82.3-40.6c26.8,0,51.2,10.2,69.6,26.9c51.6-59,127.4-96.4,212-96.4
					c87.7,0,166.1,40.2,217.7,103.1c1-1,1.9-2,2.9-3c182.1-184.3,586.8-461.6,586.8-461.6s6.9-29.3,40.5-40.6
					c33.5-11.3,319.8-159.2,759.5-159.2h272.8c322.6,0,588,76,628.9,92.2c-0.1-0.1-0.2-0.1-0.3-0.2c0.4,0.2,0.7,0.3,1.1,0.5
					c6.3,2.5,12.3,5.1,18.1,7.7c2.2,1,4.5,2,6.6,3.1c2.1,1,4.2,2.1,6.2,3.2c4.8,2.5,9.5,5,13.8,7.7c3.9,2.4,7.9,5.1,11.9,7.8
					c1.3,0.9,2.6,1.9,3.9,2.8c2.7,2,5.5,3.9,8.2,6c1.5,1.2,3.1,2.4,4.6,3.6c2.6,2,5.1,4.1,7.7,6.3c1.6,1.3,3.2,2.7,4.8,4.1
					c2.6,2.2,5.2,4.5,7.8,6.8c1.6,1.4,3.1,2.8,4.7,4.2c2.8,2.6,5.6,5.2,8.4,7.9c1.4,1.3,2.7,2.6,4.1,3.9c3.5,3.4,7.1,7,10.6,10.6
					c0.6,0.6,1.2,1.2,1.8,1.8c4.3,4.4,8.5,8.8,12.8,13.4c0.7,0.8,1.4,1.6,2.1,2.3c3.5,3.8,6.9,7.6,10.4,11.4
					c1.2,1.4,2.5,2.8,3.7,4.2c3,3.4,5.9,6.7,8.9,10.2c1.3,1.5,2.6,3.1,4,4.6c2.9,3.4,5.8,6.8,8.6,10.2c1.3,1.5,2.6,3.1,3.8,4.6
					c3,3.6,6,7.3,9,11c1.1,1.3,2.1,2.6,3.2,3.9c3.5,4.4,6.9,8.7,10.4,13.1c0.5,0.7,1.1,1.4,1.6,2c8.2,10.5,16.2,21,24,31.5
					c0.6,0.8,1.1,1.5,1.7,2.3c3.2,4.4,6.4,8.7,9.6,13.1c0.9,1.3,1.8,2.5,2.7,3.8c2.8,3.9,5.6,7.7,8.3,11.6c1,1.4,1.9,2.7,2.9,4.1
					c2.7,3.8,5.4,7.6,8.1,11.4c0.8,1.2,1.7,2.4,2.5,3.6c2.9,4.1,5.7,8.2,8.5,12.2c0.6,0.8,1.1,1.7,1.7,2.5
					c6.7,9.8,13.2,19.4,19.3,28.6c0.4,0.7,0.8,1.3,1.3,1.9c2.6,3.8,5,7.6,7.5,11.3c0.7,1.1,1.4,2.1,2.1,3.2c2.1,3.2,4.1,6.3,6.1,9.4
					c0.8,1.2,1.6,2.4,2.3,3.6c1.8,2.9,3.6,5.6,5.4,8.4c0.7,1.2,1.5,2.4,2.2,3.5c1.7,2.6,3.2,5.1,4.8,7.5c0.7,1.1,1.5,2.3,2.2,3.4
					c1.5,2.4,3,4.7,4.4,7c0.6,1,1.2,2,1.8,2.9c1.8,2.9,3.6,5.7,5.2,8.4c1.1,1.8,2.1,3.4,3.1,5.1c0.5,0.8,1,1.6,1.5,2.4
					c1.2,2,2.4,3.9,3.4,5.7c0.1,0.1,0.1,0.2,0.2,0.3c5.8,9.6,9.1,15.2,9.1,15.2c85.8,0,321.4,15.7,563.8,79.9
					c155.7,40.8,316,102.7,442,195.8c3.2,2.4,6.6,4.5,9.8,6.9c-0.3-0.2-0.7-0.4-1-0.6c1,0.7,2,1.4,2.9,2.1c0,0,2.6,0.7,7,2
					c0.4,0.1,0.7,0.2,1.2,0.3c1.9,0.6,4.2,1.2,6.7,2c0.7,0.2,1.3,0.4,2,0.6c2.8,0.8,5.8,1.7,9.1,2.7c0.6,0.2,1.2,0.4,1.8,0.5
					c3.6,1.1,7.4,2.2,11.5,3.5c0.3,0.1,0.6,0.2,0.9,0.3c4.2,1.3,8.5,2.6,13.1,4.1c0.3,0.1,0.7,0.2,1,0.3c4.6,1.5,9.4,3,14.3,4.6
					c0.7,0.2,1.3,0.4,2,0.6c4.9,1.6,9.8,3.2,14.9,4.9c0.3,0.1,0.7,0.2,1,0.3h0c31.3,10.6,65.2,23.2,91.5,35.9
					c119.3-66.2,202.4-189.9,204.7-334.4C-264.9,313.9-422.5,142.9-624.2,124.6z"/>
			</g>
			<path class="st5" d="M-720.2-599.1c29-20.3,36.1-60.2,15.9-89.2c-20.2-29-60.2-36.1-89.2-15.9c-29,20.3-36.1,60.2-15.9,89.2
				C-789.1-586-749.2-578.8-720.2-599.1z"/>
			<path class="st5" d="M-4491.8-455.2c67.8-47.3,84.4-140.7,37.1-208.6c-47.3-67.8-140.6-84.5-208.4-37.1
				c-67.8,47.3-84.4,140.7-37.1,208.5C-4652.9-424.4-4559.6-407.8-4491.8-455.2z"/>
			<path class="st5" d="M-1688.6-766c72.9-50.9,90.8-151.3,39.9-224.3c-50.9-73-151.2-90.8-224.1-39.9
				c-72.9,50.9-90.8,151.3-39.9,224.3C-1861.9-733-1761.5-715.1-1688.6-766z"/>
			<path class="st5" d="M-3181-635.2c35.1-24.5,43.7-72.9,19.2-108c-24.5-35.1-72.8-43.7-108-19.2c-35.1,24.5-43.7,72.9-19.2,108
				C-3264.5-619.3-3216.2-610.7-3181-635.2z"/>
			<path class="st5" d="M-4341.8-756.4c32.3-22.6,40.2-67.1,17.7-99.4c-22.5-32.3-67-40.2-99.3-17.7c-32.3,22.6-40.2,67.1-17.7,99.4
				C-4418.6-741.7-4374.2-733.8-4341.8-756.4z"/>
			<path class="st5" d="M-2896.3-941c0,117.9-133.2,204-133.2,204s133.2,86.1,133.2,204l0-204v204c0-117.9,133.2-204,133.2-204
				S-2896.3-823.1-2896.3-941z"/>
			<path class="st5" d="M-554.2-171c0,58.9-66.6,102-66.6,102s66.6,43,66.6,102V-69V33c0-58.9,66.6-102,66.6-102
				S-554.2-112.1-554.2-171z"/>
			<path class="st5" d="M-3787.5-1061.9c0,37-41.8,64-41.8,64s41.8,27,41.8,64v-64v64c0-37,41.8-64,41.8-64
				S-3787.5-1024.9-3787.5-1061.9z"/>
		</g>
		<g>
			<ellipse class="st0" cx="-3969.1" cy="411.6" rx="54.2" ry="54.3"/>
			<ellipse class="st0" cx="-1207.9" cy="13.8" rx="40.7" ry="40.7"/>
			<ellipse class="st0" cx="-1391.3" cy="136.3" rx="104" ry="104.1"/>
			<path class="st0" d="M-1391.3,354.3c-31.3,0-61.1,6.3-88.3,17.4c-13.5-90.6-91.4-160.1-185.6-160.1
				c-103.8,0-187.9,84.2-187.9,188c0,103.9,84.1,188,187.9,188c14.1,0,27.7-1.7,40.9-4.6c0,1.5-0.2,3.1-0.2,4.6
				c0,128.9,104.4,233.4,233.3,233.4c128.8,0,233.3-104.5,233.3-233.4S-1262.5,354.3-1391.3,354.3z"/>
			<path class="st0" d="M-3669.8-173.2c0,58.9-66.6,102-66.6,102s66.6,43,66.6,102c0-58.9,66.6-102,66.6-102
				S-3669.8-114.3-3669.8-173.2z"/>
			<path class="st0" d="M-1748.6,69.7c0-37,41.8-64,41.8-64s-41.8-27-41.8-64c0,37-41.8,64-41.8,64S-1748.6,32.7-1748.6,69.7z"/>
			<ellipse class="st0" cx="-4382.7" cy="417.3" rx="100.1" ry="100.2"/>
		</g>
		<g>
			<path class="st0" d="M-1650.5,673.3c3.2,5.7,5.3,11.8,6.5,18.1c0.1,0.3,0.2,0.6,0.3,0.9c-0.1-0.3-0.2-0.6-0.3-0.9
				c0.1,0.3,0.1,0.6,0.2,0.9h0.1c0.1,0.2,0.1,0.4,0.2,0.6c0.1,0.6,0.2,1.1,0.2,1.4v0c0-0.4-0.1-0.9-0.2-1.4c0-0.2-0.1-0.4-0.2-0.6
				l0,0c0,0,0,0,0,0c-0.1-0.3-0.2-0.6-0.3-0.9C-1645.2,685-1647.3,678.9-1650.5,673.3c-9.1-16.3-23.9-42.6-30.1-53.7
				c-6.5-11.5-13.7-24-21.4-37.2c7.8,13.2,14.9,25.7,21.4,37.2C-1674.4,630.7-1659.6,657-1650.5,673.3z"/>
			<path class="st0" d="M-2341.4,326c12,1.5,23.1,3.1,33.3,4.8C-2318.3,329.1-2329.4,327.5-2341.4,326z"/>
			<path class="st0" d="M-1481.7,1122.2c12.8-19.2,25.7-36.7,38.6-51.2c17.8-20,35.1-38.5,51.8-55.5c-16.7,17-34,35.4-51.8,55.5
				C-1456,1085.5-1468.9,1102.9-1481.7,1122.2z"/>
			<path class="st0" d="M-1922.8,269.2c-13.1-13.7-25.6-25.4-37.4-34.6c-2-1.5-3.9-3-5.8-4.4c1.9,1.4,3.8,2.8,5.8,4.4
				C-1948.5,243.7-1935.9,255.5-1922.8,269.2z"/>
			<path class="st0" d="M-1889.1,307.3c4.6,5.5,9.2,11.2,13.9,17.1C-1879.9,318.5-1884.5,312.8-1889.1,307.3
				c-6.9-8.3-13.7-16.2-20.4-23.7c-4.5-5-8.9-9.8-13.3-14.4c4.4,4.6,8.8,9.4,13.3,14.4C-1902.8,291-1896,299-1889.1,307.3z"/>
			<path class="st0" d="M-1462.2,1058.9c2.1-2.6,4.3-5.2,6.5-7.6c11.9-13.4,23.5-26,34.9-38c-11.4,12-23,24.6-34.9,38
				C-1458,1053.7-1460.1,1056.3-1462.2,1058.9z"/>
			<path class="st0" d="M-1784.3,450.8c4.5,6.8,9,13.6,13.4,20.4c2.2,3.4,4.4,6.8,6.6,10.2c-2.2-3.4-4.4-6.8-6.6-10.2
				C-1775.3,464.4-1779.8,457.6-1784.3,450.8c-4.5-6.8-9.1-13.6-13.7-20.4c-4.6-6.8-9.2-13.5-13.9-20.2c4.7,6.7,9.3,13.5,13.9,20.2
				C-1793.4,437.1-1788.9,443.9-1784.3,450.8z"/>
			<path class="st0" d="M-1543.7,1231.5c3.6-7.2,7.3-14.5,11-21.7c4.1-7.9,8.4-15.6,12.6-23.3c-4.2,7.7-8.5,15.5-12.6,23.3
				C-1536.4,1217.1-1540.1,1224.3-1543.7,1231.5z"/>
			<path class="st0" d="M-1664.6,1370.1c0,1.8-0.3,3.5-0.7,5.2C-1664.9,1373.6-1664.6,1371.9-1664.6,1370.1L-1664.6,1370.1z"/>
			<path class="st0" d="M-2733.5,323.5L-2733.5,323.5c0.4-1.7,1.3-3.3,2.7-4.8C-2732.2,320.2-2733.1,321.8-2733.5,323.5z"/>
			<path class="st0" d="M-372.7,1137.1C-372.7,1137.1-372.7,1137.1-372.7,1137.1C-372.7,1137.1-372.7,1137.1-372.7,1137.1
				C-376.4,1132.1-376.3,1132.1-372.7,1137.1z"/>
			<path class="st0" d="M-2446.3,316.5c-45.4-3.2-96.7-6.1-152.2-9.4c-6.6-0.4-14.2-0.8-22.5-1.1c8.3,0.3,16,0.7,22.5,1.1
				C-2542.9,310.4-2491.7,313.4-2446.3,316.5z"/>
			<path class="st0" d="M-2193.3,575.3L-2193.3,575.3c-0.9-3.4-2-8-3.2-13.5C-2195.3,567.3-2194.2,571.9-2193.3,575.3z"/>
			<path class="st0" d="M-2232.3,374c-0.8-4.3-1.5-7.7-2-9.9c-0.5-2.4-1.6-4.6-3.2-6.8c1.6,2.1,2.7,4.4,3.2,6.8
				C-2233.8,366.3-2233.2,369.7-2232.3,374z"/>
			<path class="st0" d="M-669.4,826.5c-2.9-0.9-6.3-1.8-10.3-2.9C-675.7,824.6-672.3,825.6-669.4,826.5z"/>
			<path class="st0" d="M-2079.8,575.3L-2079.8,575.3c-0.5-7.6-1.8-17.6-3.5-28.8C-2081.6,557.7-2080.3,567.7-2079.8,575.3z"/>
			<path class="st0" d="M-3766.5,718.5c20.8,3.4,40.9,7.9,60.3,13.3C-3725.7,726.4-3745.8,721.9-3766.5,718.5z"/>
			<path class="st0" d="M-3853.3,711c22.6,0.3,44.5,1.8,65.8,4.5C-3808.8,712.9-3830.7,711.3-3853.3,711z"/>
			<path class="st0" d="M-4349.3,971.4c7.6-6.9,15.3-13.9,23.2-20.7l0,0l0,0C-4334,957.6-4341.7,964.5-4349.3,971.4z"/>
			<path class="st0" d="M-3286.5,1117.9c10,19.7,19.2,39.1,27.6,58.2c4.2,9.5,8.2,18.9,12,28.2c-3.8-9.3-7.8-18.7-12-28.2
				C-3267.4,1157-3276.5,1137.6-3286.5,1117.9c-10-19.7-20.8-39.6-32.5-59.4c-5.8-9.9-11.9-19.8-18.2-29.7
				c6.3,9.9,12.3,19.8,18.2,29.7C-3307.3,1078.3-3296.5,1098.2-3286.5,1117.9z"/>
			<path class="st0" d="M-3185.8,1397.1c0-0.1-0.1-0.3-0.1-0.4c-1.3-6.3-2.9-13.6-4.8-21.6c1.9,8,3.5,15.3,4.8,21.6
				C-3185.9,1396.8-3185.9,1397-3185.8,1397.1z"/>
			<path class="st0" d="M-3203.2,1328.7c2,7,3.9,13.7,5.7,20c1.3,4.8,2.5,9.4,3.6,13.8c-1.1-4.4-2.3-9-3.6-13.8
				C-3199.3,1342.3-3201.1,1335.6-3203.2,1328.7c-4.1-14.2-8.9-29.5-14.4-45.8c-2.7-8.1-5.6-16.5-8.7-25.1c3.1,8.6,6,16.9,8.7,25.1
				C-3212.1,1299.2-3207.3,1314.5-3203.2,1328.7z"/>
			<path class="st0" d="M-3226.3,1257.8c-3.1-8.6-6.3-17.3-9.8-26.3c-3.4-8.9-7.1-18.1-10.9-27.3c3.8,9.3,7.4,18.4,10.9,27.3
				C-3232.6,1240.5-3229.4,1249.3-3226.3,1257.8z"/>
			<path class="st0" d="M-4157.2,803.8c-11.2,6.8-22.2,13.8-33,21.1c-8.7,5.8-17.2,11.7-25.7,17.8c8.4-6.1,17-12,25.7-17.8
				C-4179.4,817.7-4168.4,810.6-4157.2,803.8z"/>
			<path class="st0" d="M-4311.6,919.5L-4311.6,919.5c-15.5,13.8-30.5,27.7-44.8,41.5C-4342.1,947.2-4327.1,933.3-4311.6,919.5
				L-4311.6,919.5z"/>
			<path class="st0" d="M-4240.9,861.2c8.2-6.3,16.6-12.4,25-18.5C-4224.4,848.8-4232.7,855-4240.9,861.2
				c-8.2,6.3-16.3,12.6-24.3,19c-8,6.4-15.8,12.9-23.6,19.5c7.7-6.5,15.6-13,23.6-19.5C-4257.2,873.9-4249.1,867.5-4240.9,861.2z"/>
			<path class="st0" d="M-1643.3,1293.7c0,10,0.1,19.7,0.2,29.2C-1643.2,1313.4-1643.3,1303.6-1643.3,1293.7c0-10-0.1-20.1-0.1-30.5
				c-0.1-25.9-0.2-52.8-0.2-80.4c0,27.6,0.1,54.5,0.2,80.4C-1643.4,1273.5-1643.4,1283.7-1643.3,1293.7z"/>
			<path class="st0" d="M-3185.7,1397.4c0-0.1,0-0.1,0-0.2c0,0,0,0,0,0C-3185.8,1397.3-3185.8,1397.4-3185.7,1397.4L-3185.7,1397.4z
				"/>
			<path class="st0" d="M-2520.8,104.6c3,0.2,6,0.5,9,0.7C-2514.8,105.1-2517.8,104.8-2520.8,104.6c-4.5-0.4-9.1-0.7-13.7-1.1
				c-2.7-0.2-5.4-0.4-8.1-0.6c2.7,0.2,5.4,0.4,8.1,0.6C-2529.9,103.8-2525.3,104.2-2520.8,104.6z"/>
			<path class="st0" d="M-2598.8,99.1c-2.9-0.2-5.7-0.3-8.6-0.5c-3.8-0.2-7.7-0.4-11.6-0.6c3.9,0.2,7.7,0.4,11.6,0.6
				C-2604.5,98.8-2601.7,99-2598.8,99.1z"/>
			<path class="st0" d="M-2561.9,101.5c2.7,0.2,5.4,0.4,8,0.6C-2556.5,101.9-2559.2,101.7-2561.9,101.5c-5.7-0.4-11.5-0.8-17.2-1.1
				c-2.5-0.2-5-0.3-7.5-0.5c2.5,0.2,5,0.3,7.5,0.5C-2573.4,100.7-2567.6,101.1-2561.9,101.5z"/>
			<path class="st0" d="M-2490.6,107.2c3.7,0.3,7.4,0.7,11.1,1c2.5,0.2,5,0.5,7.5,0.7c5.6,0.5,11.2,1.1,16.8,1.7
				c-5.6-0.6-11.2-1.1-16.8-1.7c-2.5-0.2-5-0.5-7.5-0.7C-2483.2,107.8-2486.9,107.5-2490.6,107.2c-2.6-0.2-5.2-0.5-7.8-0.7
				c-4.4-0.4-8.9-0.8-13.4-1.1c4.5,0.4,8.9,0.8,13.4,1.1C-2495.8,106.7-2493.2,106.9-2490.6,107.2z"/>
			<path class="st0" d="M-2686.1,95.1c4.1,0.1,8.2,0.3,12.2,0.4c3,0.1,6,0.2,8.9,0.3c3.9,0.2,7.8,0.3,11.7,0.5
				c-3.9-0.2-7.8-0.3-11.7-0.5c-3-0.1-6-0.2-8.9-0.3C-2677.9,95.4-2682,95.3-2686.1,95.1c-2.6-0.1-5.1-0.2-7.7-0.3
				c-6.1-0.2-12.2-0.4-18.3-0.5c6.1,0.2,12.2,0.3,18.3,0.5C-2691.2,94.9-2688.6,95-2686.1,95.1z"/>
			<path class="st0" d="M-2732.5,93.9c-3-0.1-5.9-0.1-8.9-0.2c-4.6-0.1-9.3-0.1-13.9-0.2c4.6,0.1,9.3,0.1,13.9,0.2
				C-2738.4,93.8-2735.5,93.8-2732.5,93.9z"/>
			<path class="st0" d="M-2437.2,112.4c-3.9-0.4-7.9-0.8-11.8-1.2c-2.1-0.2-4.1-0.4-6.2-0.6c2.1,0.2,4.1,0.4,6.2,0.6
				C-2445,111.6-2441.1,112-2437.2,112.4z"/>
			<path class="st0" d="M-2712.1,94.3c-2.9-0.1-5.7-0.1-8.6-0.2c-3.9-0.1-7.9-0.2-11.8-0.3c3.9,0.1,7.9,0.2,11.8,0.3
				C-2717.8,94.2-2715,94.3-2712.1,94.3z"/>
			<path class="st0" d="M-2201.1,148c-4.4-0.9-8.9-1.8-13.5-2.7c-1.4-0.3-2.8-0.5-4.2-0.8c1.4,0.3,2.8,0.5,4.2,0.8
				C-2210,146.2-2205.5,147.1-2201.1,148z"/>
			<path class="st0" d="M-2765.8,93.4c3.5,0,7,0.1,10.6,0.1C-2758.8,93.4-2762.3,93.4-2765.8,93.4c-4.8-0.1-9.6-0.1-14.5-0.1
				c-3,0-5.9,0-8.9,0c3,0,5.9,0,8.9,0C-2775.5,93.3-2770.7,93.3-2765.8,93.4z"/>
			<path class="st0" d="M-2245.2,139.5c-1.3-0.2-2.5-0.5-3.8-0.7c-4.8-0.9-9.6-1.7-14.4-2.5c4.9,0.8,9.7,1.7,14.4,2.5
				C-2247.8,139.1-2246.5,139.3-2245.2,139.5z"/>
			<path class="st0" d="M-2268.7,135.4c1.8,0.3,3.5,0.6,5.3,0.9C-2265.2,136-2267,135.7-2268.7,135.4c-3.4-0.6-6.9-1.2-10.4-1.7
				c-1.9-0.3-3.8-0.6-5.7-0.9c1.9,0.3,3.8,0.6,5.7,0.9C-2275.6,134.2-2272.2,134.8-2268.7,135.4z"/>
			<path class="st0" d="M-2187.2,150.9c-3.3-0.7-6.5-1.4-9.8-2.1c-1.3-0.3-2.7-0.6-4-0.8c1.3,0.3,2.7,0.6,4,0.8
				C-2193.7,149.5-2190.5,150.2-2187.2,150.9z"/>
			<path class="st0" d="M-2418.5,114.5c-3.7-0.4-7.4-0.8-11.2-1.2c-2.5-0.3-5-0.5-7.5-0.8c2.5,0.3,5,0.5,7.5,0.8
				C-2425.9,113.6-2422.2,114.1-2418.5,114.5z"/>
			<path class="st0" d="M-2395.6,117.1c-5.4-0.6-10.8-1.3-16.3-1.9c-2.2-0.3-4.4-0.5-6.6-0.7c2.2,0.2,4.4,0.5,6.6,0.7
				C-2406.4,115.8-2401,116.5-2395.6,117.1z"/>
			<path class="st0" d="M-2302.5,129.9c1.6,0.2,3.2,0.5,4.7,0.7C-2299.4,130.4-2300.9,130.2-2302.5,129.9c-4.4-0.7-8.8-1.4-13.3-2
				c-2-0.3-4.1-0.6-6.1-0.9c2,0.3,4.1,0.6,6.1,0.9C-2311.4,128.6-2306.9,129.2-2302.5,129.9z"/>
			<path class="st0" d="M-2338.8,124.6c-5.2-0.7-10.4-1.5-15.7-2.2c-1.7-0.2-3.3-0.4-5-0.7c1.7,0.2,3.3,0.4,5,0.7
				C-2349.2,123.1-2343.9,123.8-2338.8,124.6z"/>
			<path class="st0" d="M-2809.9,93.2c2.9,0,5.8,0,8.7,0c4,0,8,0,12,0c-4,0-8,0-12,0C-2804.1,93.2-2807,93.2-2809.9,93.2
				c-6.2,0-12.5,0-18.7,0.1c-16,0.1-32.1,0.4-48.2,0.8c16.1-0.4,32.2-0.6,48.2-0.8C-2822.3,93.2-2816.1,93.2-2809.9,93.2z"/>
			<path class="st0" d="M-2156.9,157.7c1.3,0.3,2.5,0.6,3.7,0.9C-2154.4,158.3-2155.7,158-2156.9,157.7c-4.1-1-8.3-1.9-12.5-2.9
				c-0.9-0.2-1.8-0.4-2.6-0.6c0.9,0.2,1.8,0.4,2.6,0.6C-2165.2,155.8-2161,156.7-2156.9,157.7z"/>
			<path class="st0" d="M-613.2,1366.3c0,17.6-1.8,34.9-5.1,51.5C-615,1401.1-613.2,1383.9-613.2,1366.3
				c0-143.3-116.1-259.5-259.3-259.5c-16.8,0-33.2,1.6-49.1,4.6c15.9-3,32.3-4.6,49.1-4.6C-729.3,1106.8-613.2,1223-613.2,1366.3z"
				/>
			<path class="st0" d="M-4009.3,600c5.6-5.7,11.2-11.4,16.7-16.9c3.8-3.9,7.5-7.5,11.3-11.3c-3.8,3.8-7.5,7.4-11.3,11.3
				C-3998,588.6-4003.7,594.3-4009.3,600z"/>
			<path class="st0" d="M-1843.6,365.8c10.6,14.4,21.2,29.2,31.7,44.3C-1822.4,395-1833,380.2-1843.6,365.8z"/>
			<path class="st0" d="M-1977,223C-1977,223-1977,223-1977,223c3.6,2.1,7.2,4.5,11,7.2C-1969.7,227.5-1973.4,225.2-1977,223z"/>
			<path class="st0" d="M-4042.3,633.6c1.5-1.6,3.1-3.2,4.6-4.7c6.2-6.3,12.4-12.7,18.4-18.8c-6.1,6.2-12.2,12.5-18.4,18.8
				C-4039.2,630.5-4040.7,632-4042.3,633.6z"/>
			<path class="st0" d="M-3324,385.3c-12,4.7-24,9.6-36,14.4C-3348,394.9-3336,390-3324,385.3c145.9-56.7,310.8-89.2,468.5-83.5v0
				C-3013.2,296.1-3178.1,328.6-3324,385.3z"/>
			<path class="st0" d="M-1643.7,692.8c0,0.1,0,0.1,0,0.2c0,0,0.1-0.1,0.1-0.1C-1643.6,692.8-1643.7,692.8-1643.7,692.8z"/>
			<path class="st0" d="M-1643.8,1132.7c0-16.9,0-33.8,0-50.8l0,0C-1643.8,1098.8-1643.8,1115.8-1643.8,1132.7z"/>
			<path class="st0" d="M-2073,431L-2073,431c0-0.6,0.3-0.9,0.8-0.7C-2072.6,430.1-2072.9,430.3-2073,431z"/>
			<path class="st0" d="M-1859.5,491.2c2.4,6,4.4,11.4,5.9,16C-1855.1,502.6-1857.1,497.2-1859.5,491.2z"/>
			<path class="st0" d="M-1851.8,522.5c0.9-0.7,1.3-1.5,1.3-2.1c0-2.6-1.1-7.2-3.1-13.2c2,6.1,3.1,10.6,3.1,13.2
				C-1850.5,521-1851,521.7-1851.8,522.5z"/>
			<path class="st0" d="M-2011,348.8c1.1-0.6,3.5-1.3,6.7-2C-2007.5,347.6-2009.9,348.2-2011,348.8z"/>
			<path class="st0" d="M-2128,164.8c3.7,1,7.4,2,11,2.9C-2120.6,166.8-2124.3,165.8-2128,164.8c-0.2-0.1-0.5-0.1-0.7-0.2
				c-3.8-1-7.7-2-11.6-2.9c3.9,1,7.8,1.9,11.6,2.9C-2128.5,164.7-2128.3,164.8-2128,164.8z"/>
			<path class="st0" d="M-3224.9,123.5c32.1-5,64.7-9.3,97.6-13C-3160.2,114.2-3192.8,118.5-3224.9,123.5z"/>
			<path class="st0" d="M-3312,166.5c-13.7,3.8-27.5,8-41.4,12.4C-3339.5,174.5-3325.7,170.4-3312,166.5c13.7-3.9,27.4-7.4,41-10.7
				c3-0.7,5.9-1.3,8.9-2c-3,0.7-5.9,1.2-8.9,2C-3284.5,159.1-3298.2,162.7-3312,166.5z"/>
			<path class="st0" d="M-2843.8,110.4c14.3-0.3,28.6-0.5,42.9-0.7c0,0,0.1,0,0.1,0c0,0-0.1,0-0.1,0
				C-2815.1,109.9-2829.4,110.1-2843.8,110.4z"/>
			<path class="st0" d="M-2102.2,171.9c3.5,1,7,2.1,10.5,3.1c0.6,0.2,1.2,0.4,1.8,0.6c2.8,0.9,5.6,1.7,8.4,2.6c1,0.3,2,0.6,3,1
				c2.6,0.8,5.1,1.6,7.5,2.5c-2.5-0.8-5-1.7-7.5-2.5c-1-0.3-2-0.6-3-1c-2.7-0.9-5.5-1.7-8.4-2.6c-0.6-0.2-1.2-0.4-1.8-0.6
				C-2095.2,173.9-2098.7,172.9-2102.2,171.9c-1-0.3-2-0.6-3-0.9c-2.7-0.8-5.5-1.5-8.3-2.3c2.8,0.8,5.5,1.5,8.3,2.3
				C-2104.3,171.3-2103.2,171.6-2102.2,171.9z"/>
			<path class="st0" d="M-2051,188.7c0.8,0.3,1.7,0.6,2.5,1C-2049.3,189.3-2050.1,189-2051,188.7c-2.2-0.8-4.4-1.7-6.7-2.5
				c-0.7-0.2-1.3-0.5-2-0.7c0.7,0.2,1.4,0.5,2,0.7C-2055.4,187-2053.2,187.9-2051,188.7z"/>
			<path class="st0" d="M-2040.3,192.9c-0.4-0.2-0.9-0.3-1.3-0.5c-2.2-0.9-4.5-1.8-6.8-2.7c2.3,0.9,4.6,1.8,6.8,2.7
				C-2041.2,192.5-2040.8,192.7-2040.3,192.9z"/>
			<path class="st0" d="M-1970.2,335.4c1.7-3.1,2.3-6.4,2.4-9.8C-1967.8,329-1968.5,332.3-1970.2,335.4c-1.2,2.1-4.5,3.9-8.8,5.4
				C-1974.7,339.3-1971.3,337.5-1970.2,335.4z"/>
			<path class="st6" d="M-2014.5,134.1c54.2,34.1,113.8,99.8,165.4,165.6c19.9,25.3,38.5,50.7,55.3,74.4
				c13.4,18.9,25.6,36.7,36.1,52.5c26.4,39.5,42.6,66.3,42.6,66.3s17,30.5,33.5,31.2c-0.1-0.1-0.1-0.2-0.2-0.3
				c-1.1-1.8-2.2-3.7-3.4-5.8c-0.5-0.8-1-1.7-1.5-2.5c-1-1.7-2-3.3-3.1-5.2c-1.6-2.7-3.4-5.6-5.2-8.6c-0.6-1-1.2-2-1.8-3
				c-1.4-2.3-2.8-4.7-4.4-7.1c-0.7-1.1-1.4-2.3-2.2-3.5c-1.5-2.5-3.1-5.1-4.8-7.7c-0.7-1.2-1.5-2.4-2.2-3.6
				c-1.7-2.8-3.5-5.6-5.3-8.5c-0.8-1.2-1.5-2.4-2.3-3.7c-2-3.1-4-6.3-6.1-9.6c-0.7-1.1-1.4-2.2-2.1-3.3c-2.4-3.8-4.9-7.6-7.4-11.6
				c-0.4-0.7-0.8-1.3-1.3-2c-6.1-9.4-12.5-19.2-19.2-29.2c-0.6-0.8-1.1-1.7-1.7-2.5c-2.8-4.1-5.6-8.3-8.4-12.5
				c-0.8-1.2-1.7-2.5-2.5-3.7c-2.6-3.9-5.3-7.8-8-11.7c-1-1.4-1.9-2.8-2.9-4.2c-2.7-3.9-5.5-7.9-8.3-11.8c-0.9-1.3-1.8-2.6-2.7-3.9
				c-3.1-4.4-6.3-8.9-9.5-13.3c-0.6-0.8-1.1-1.6-1.7-2.4c-7.8-10.7-15.7-21.5-23.9-32.2c-0.5-0.7-1.1-1.4-1.6-2.1
				c-3.4-4.5-6.9-9-10.3-13.4c-1.1-1.3-2.1-2.7-3.2-4c-3-3.8-5.9-7.5-8.9-11.2c-1.3-1.6-2.5-3.2-3.8-4.7c-2.9-3.5-5.7-7-8.6-10.5
				c-1.3-1.6-2.6-3.2-3.9-4.7c-2.9-3.5-5.9-6.9-8.8-10.4c-1.2-1.4-2.4-2.9-3.7-4.3c-3.4-4-6.9-7.9-10.4-11.7
				c-0.7-0.8-1.4-1.6-2.1-2.4c-4.2-4.7-8.5-9.2-12.7-13.7c-0.6-0.6-1.2-1.2-1.8-1.9c-3.5-3.7-7-7.3-10.6-10.8c-1.3-1.3-2.7-2.6-4-4
				c-2.8-2.7-5.6-5.4-8.3-8.1c-1.6-1.5-3.1-2.9-4.6-4.3c-2.6-2.4-5.2-4.7-7.7-7c-1.6-1.4-3.2-2.8-4.8-4.2c-2.6-2.2-5.1-4.3-7.7-6.4
				c-1.5-1.3-3.1-2.5-4.6-3.7c-2.7-2.2-5.4-4.2-8.2-6.2c-1.3-1-2.6-2-3.9-2.9c-4-2.8-7.9-5.5-11.9-8c-4.2-2.7-8.9-5.3-13.7-7.8
				c-2-1.1-4.1-2.2-6.2-3.2c-2.1-1.1-4.4-2.1-6.6-3.1c-5.7-2.7-11.7-5.3-18-7.9c-0.2-0.1-0.5-0.2-0.8-0.3
				C-2021.4,130-2017.7,132-2014.5,134.1z"/>
			<path class="st6" d="M-2067.5,188.2c3.6,1,7,2.1,10.5,3.1c0.6,0.2,1.2,0.4,1.8,0.6c2.8,0.9,5.6,1.7,8.4,2.6c1,0.3,2,0.6,3,1
				c2.6,0.8,5.1,1.6,7.5,2.5c0.7,0.2,1.5,0.5,2.2,0.7c3.1,1,6.1,2.1,9,3.1c0.7,0.3,1.4,0.5,2,0.7c2.3,0.8,4.5,1.7,6.7,2.5
				c0.8,0.3,1.7,0.6,2.5,1c1,0.4,1.9,0.8,2.9,1.1c-2.1-1.3-4.2-2.6-6.3-3.6c-2.1-1.1-4.2-2.1-6.4-3.2c-0.6-0.3-1.3-0.6-2-0.9
				c-1.7-0.8-3.5-1.6-5.4-2.5c-0.6-0.3-1.3-0.6-1.9-0.9c-2.4-1.1-4.9-2.1-7.5-3.2c-0.4-0.2-0.9-0.3-1.3-0.5
				c-2.2-0.9-4.5-1.8-6.8-2.7c-0.8-0.3-1.7-0.6-2.5-1c-2.2-0.8-4.4-1.7-6.8-2.5c-0.7-0.2-1.3-0.5-2-0.7c-2.9-1.1-6-2.1-9-3.1
				c-0.7-0.2-1.5-0.5-2.2-0.7c-2.5-0.8-5-1.7-7.5-2.5c-1-0.3-2-0.6-3-1c-2.7-0.9-5.5-1.7-8.4-2.6c-0.6-0.2-1.2-0.4-1.8-0.6
				c-3.4-1-6.9-2.1-10.5-3.1c-1-0.3-2-0.6-3-0.9c-2.7-0.8-5.5-1.5-8.3-2.3c-1.1-0.3-2.3-0.6-3.4-0.9c-3.6-1-7.3-2-11-2.9
				c-0.2-0.1-0.5-0.1-0.7-0.2c-3.8-1-7.7-2-11.6-2.9c-1.2-0.3-2.5-0.6-3.8-0.9c-3-0.7-6-1.5-9.1-2.2c-1.2-0.3-2.5-0.6-3.7-0.9
				c-4.1-1-8.3-1.9-12.5-2.9c-0.9-0.2-1.8-0.4-2.6-0.6c-3.5-0.8-7-1.6-10.6-2.3c-1.5-0.3-3-0.7-4.6-1c-3.3-0.7-6.5-1.4-9.8-2.1
				c-1.3-0.3-2.7-0.6-4-0.8c-4.4-0.9-8.9-1.8-13.5-2.7c-1.4-0.3-2.8-0.5-4.2-0.8c-3.4-0.7-6.8-1.3-10.3-2c-1.7-0.3-3.4-0.6-5.1-1
				c-3.7-0.7-7.3-1.4-11.1-2c-1.3-0.2-2.5-0.5-3.8-0.7c-4.8-0.9-9.6-1.7-14.4-2.5c-1.7-0.3-3.5-0.6-5.3-0.9
				c-3.4-0.6-6.9-1.2-10.4-1.7c-1.9-0.3-3.8-0.6-5.7-0.9c-4.3-0.7-8.6-1.4-13-2.1c-1.6-0.2-3.2-0.5-4.7-0.7c-4.4-0.7-8.8-1.4-13.3-2
				c-2-0.3-4.1-0.6-6.1-0.9c-3.5-0.5-7.1-1-10.7-1.6c-2-0.3-4.1-0.6-6.1-0.9c-5.2-0.7-10.4-1.5-15.7-2.2c-1.7-0.2-3.3-0.4-5-0.7
				c-4-0.5-7.9-1-11.9-1.6c-2.3-0.3-4.5-0.6-6.8-0.9c-3.7-0.5-7.4-0.9-11.1-1.4c-2.1-0.3-4.2-0.5-6.3-0.8
				c-5.4-0.6-10.8-1.3-16.3-1.9c-2.2-0.3-4.4-0.5-6.6-0.7c-3.7-0.4-7.4-0.8-11.2-1.2c-2.5-0.3-5-0.5-7.5-0.8
				c-3.9-0.4-7.9-0.8-11.8-1.2c-2.1-0.2-4.1-0.4-6.2-0.6c-5.6-0.6-11.2-1.1-16.8-1.7c-2.5-0.2-5-0.5-7.5-0.7
				c-3.7-0.3-7.4-0.7-11.1-1c-2.6-0.2-5.2-0.5-7.8-0.7c-4.4-0.4-8.9-0.8-13.4-1.1c-3-0.2-6-0.5-9-0.7c-4.5-0.4-9.1-0.7-13.7-1.1
				c-2.7-0.2-5.4-0.4-8.1-0.6c-3.8-0.3-7.5-0.6-11.3-0.8c-2.7-0.2-5.4-0.4-8-0.6c-5.7-0.4-11.5-0.8-17.2-1.1c-2.5-0.2-5-0.3-7.5-0.5
				c-4.1-0.2-8.1-0.5-12.2-0.7c-2.9-0.2-5.7-0.3-8.6-0.5c-3.8-0.2-7.7-0.4-11.6-0.6c-2.7-0.1-5.4-0.3-8.1-0.4
				c-6-0.3-11.9-0.6-17.9-0.9c-2.7-0.1-5.4-0.2-8.1-0.3c-3.9-0.2-7.8-0.3-11.7-0.5c-3-0.1-6-0.2-8.9-0.3c-4.1-0.1-8.2-0.3-12.2-0.4
				c-2.6-0.1-5.1-0.2-7.7-0.3c-6.1-0.2-12.2-0.4-18.3-0.5c-2.9-0.1-5.7-0.1-8.6-0.2c-3.9-0.1-7.9-0.2-11.8-0.3
				c-3-0.1-5.9-0.1-8.9-0.2c-4.6-0.1-9.3-0.1-13.9-0.2c-3.5,0-7-0.1-10.6-0.1c-4.8-0.1-9.6-0.1-14.5-0.1c-3,0-5.9,0-8.9,0
				c-4,0-8,0-12,0c-2.9,0-5.8,0-8.7,0c-6.2,0-12.5,0-18.7,0.1c-16,0.1-32.1,0.4-48.2,0.8c-16.6,0.4-33.3,0.9-49.9,1.5
				c-18.3,0.7-36.5,1.6-54.8,2.6c-32.2,1.8-64.4,4.2-96.4,7.2c-16.5,1.5-33,3.2-49.5,5c-32.8,3.7-65.4,8-97.6,13
				c-13.3,2.1-26.6,4.5-39.9,7.2c-39.9,8.2-80,19.4-120.1,33.1c-40.1,13.8-80.3,30.2-120.3,49c-22.7,10.6-45.3,22-67.9,34.1
				c-22.6,12.1-45.1,24.9-67.5,38.3c-13,7.8-26,15.7-39,23.9c-21.1,13.3-42.2,27.1-63.2,41.5c-26,17.8-51.8,36.4-77.3,55.6
				c-12.8,9.6-25.5,19.4-38.2,29.3c-4.9,3.9-10.2,8.2-15.7,13.1c-5.5,4.8-11.4,10.1-17.5,15.8c-3.1,2.9-6.2,5.8-9.4,8.9
				c-49.5,47.6-114.6,119.7-185.4,198.6c-4.3,4.8-8.6,9.6-13,14.5c-48.4,54-99.1,110.7-149,164.6h0c8.2-8.8,16.5-17.7,24.8-26.7
				c20.4-21.9,41.2-44.1,61.9-66c0.9-0.9,1.7-1.8,2.6-2.7c8.9-9.4,17.7-18.8,26.6-28.1c1.1-1.2,2.2-2.3,3.3-3.5
				c8.6-9,17.2-18,25.7-27c1.5-1.6,3-3.1,4.5-4.7c7.4-7.7,14.7-15.4,22-23c0.7-0.7,1.3-1.3,2-2c2.5-2.6,5-5.1,7.5-7.7
				c6.9-7.2,13.8-14.3,20.6-21.3c1.5-1.6,3-3.1,4.5-4.6c1.5-1.6,3.1-3.2,4.6-4.7c6.2-6.3,12.4-12.7,18.4-18.8
				c3.4-3.4,6.6-6.7,10-10.1c5.6-5.7,11.2-11.4,16.7-16.9c3.8-3.9,7.5-7.5,11.3-11.3c4.8-4.8,9.7-9.7,14.4-14.4
				c3.9-3.9,7.7-7.5,11.5-11.3c4.4-4.3,8.8-8.7,13.1-12.8c3.9-3.8,7.6-7.3,11.5-11c3.9-3.8,7.9-7.7,11.7-11.3
				c4-3.8,7.8-7.3,11.7-10.9c3.3-3.1,6.8-6.4,10-9.4c3.9-3.6,7.5-6.8,11.2-10.1c2.9-2.6,6-5.5,8.8-8c4-3.5,7.6-6.6,11.3-9.8
				c2.2-1.9,4.6-4,6.7-5.8c5.7-4.8,11-9.2,16-13c17.4-13.6,35.1-27,53-39.9c125.3-90.6,261.7-163.4,395.6-211.1
				c13.9-5,27.8-9.7,41.6-14.1c13.8-4.4,27.6-8.6,41.4-12.4c13.7-3.9,27.4-7.4,41-10.7c3-0.7,5.9-1.3,8.9-2
				c24.2-5.6,48.2-10.4,71.8-14.1c9.1-1.4,18.3-2.7,27.5-4c17.6-2.5,35.4-4.8,53.2-7c5.6-0.7,11.2-1.4,16.8-2.1
				c62.9-7,126.8-11.7,190.5-14.4c2.8-0.1,5.7-0.3,8.5-0.4c11.9-0.5,23.9-0.8,35.8-1.1c4.7-0.1,9.4-0.3,14.1-0.4
				c14.3-0.3,28.6-0.5,42.9-0.7c0,0,0.1,0,0.1,0c2.2,0,4.4-0.1,6.7-0.1v0c0.1,0,0.1,0,0.2,0c6.2-0.1,12.5-0.1,18.7-0.1
				c2.9,0,5.8,0,8.7,0c4,0,8,0,12,0c3,0,5.9,0,8.9,0c4.8,0,9.6,0.1,14.5,0.1c3.5,0,7,0.1,10.6,0.1c4.6,0.1,9.3,0.1,13.9,0.2
				c3,0.1,5.9,0.1,8.9,0.2c3.9,0.1,7.9,0.2,11.8,0.3c2.9,0.1,5.7,0.1,8.6,0.2c6.1,0.2,12.2,0.3,18.3,0.5c2.6,0.1,5.1,0.2,7.7,0.3
				c4.1,0.1,8.2,0.3,12.2,0.4c3,0.1,6,0.2,8.9,0.3c3.9,0.2,7.8,0.3,11.7,0.5c2.7,0.1,5.4,0.2,8.1,0.4c6,0.3,12,0.6,17.9,0.9
				c2.7,0.1,5.4,0.3,8.1,0.4c3.9,0.2,7.7,0.4,11.6,0.6c2.9,0.2,5.7,0.3,8.6,0.5c4.1,0.2,8.1,0.5,12.2,0.7c2.5,0.2,5,0.3,7.5,0.5
				c5.8,0.4,11.5,0.8,17.2,1.1c2.7,0.2,5.4,0.4,8,0.6c3.8,0.3,7.6,0.5,11.3,0.8c2.7,0.2,5.4,0.4,8.1,0.6c4.6,0.3,9.1,0.7,13.7,1.1
				c3,0.2,6,0.5,9,0.7c4.5,0.4,8.9,0.8,13.4,1.1c2.6,0.2,5.2,0.5,7.8,0.7c3.7,0.3,7.4,0.7,11.1,1c2.5,0.2,5,0.5,7.5,0.7
				c5.6,0.5,11.2,1.1,16.8,1.7c2.1,0.2,4.1,0.4,6.2,0.6c4,0.4,7.9,0.8,11.8,1.2c2.5,0.3,5,0.5,7.5,0.8c3.7,0.4,7.5,0.8,11.2,1.3
				c2.2,0.2,4.4,0.5,6.6,0.7c5.5,0.6,10.9,1.3,16.3,1.9c2.1,0.3,4.2,0.5,6.3,0.8c3.7,0.5,7.4,0.9,11.1,1.4c2.3,0.3,4.6,0.6,6.8,0.9
				c4,0.5,8,1,11.9,1.6c1.7,0.2,3.3,0.4,5,0.7c5.3,0.7,10.5,1.4,15.7,2.2c2,0.3,4.1,0.6,6.1,0.9c3.6,0.5,7.1,1,10.7,1.5
				c2,0.3,4.1,0.6,6.1,0.9c4.5,0.7,8.9,1.3,13.3,2c1.6,0.2,3.2,0.5,4.7,0.7c4.4,0.7,8.7,1.4,13,2.1c1.9,0.3,3.8,0.6,5.7,0.9
				c3.5,0.6,6.9,1.2,10.4,1.7c1.8,0.3,3.5,0.6,5.3,0.9c4.9,0.8,9.7,1.7,14.4,2.5c1.3,0.2,2.5,0.5,3.8,0.7c3.7,0.7,7.4,1.3,11.1,2
				c1.7,0.3,3.4,0.6,5.1,1c3.5,0.7,6.9,1.3,10.3,2c1.4,0.3,2.8,0.5,4.2,0.8c4.6,0.9,9,1.8,13.5,2.7c1.3,0.3,2.7,0.6,4,0.8
				c3.3,0.7,6.6,1.4,9.8,2.1c1.5,0.3,3,0.7,4.6,1c3.6,0.8,7.1,1.6,10.6,2.3c0.9,0.2,1.8,0.4,2.6,0.6c4.2,1,8.4,1.9,12.5,2.9
				c1.3,0.3,2.5,0.6,3.7,0.9c3.1,0.7,6.1,1.5,9.1,2.2c1.3,0.3,2.5,0.6,3.8,0.9c3.9,1,7.8,1.9,11.6,2.9c0.2,0.1,0.5,0.1,0.7,0.2
				c3.7,1,7.4,2,11,2.9c1.2,0.3,2.3,0.6,3.4,0.9c2.8,0.8,5.5,1.5,8.3,2.3C-2069.5,187.7-2068.5,187.9-2067.5,188.2z"/>
			<path class="st7" d="M-1644,691.4C-1644,691.4-1644,691.4-1644,691.4c0.1,0.3,0.2,0.6,0.3,0.9
				C-1643.8,692-1643.9,691.6-1644,691.4z"/>
			<path class="st7" d="M-1643.7,693c0.1,0.6,0.3,1.2,0.3,1.8c0-0.2,0-0.3,0-0.5c0-0.4-0.1-0.9-0.2-1.4
				C-1643.6,692.9-1643.7,692.9-1643.7,693z"/>
			<path class="st8" d="M-1643.7,692.2h-0.1c0,0.2,0.1,0.4,0.1,0.5c0,0,0.1,0,0.1,0C-1643.6,692.6-1643.7,692.4-1643.7,692.2z"/>
			<path class="st9" d="M-1111.4,621.2c156.8,42.6,316.2,106.3,439.8,200C-796.9,726.2-956.5,662.9-1111.4,621.2z"/>
			<path class="st9" d="M-1576.5,1282.4c1.7-4.6,3.5-9.3,5.3-14.1c3.6-9.5,7.4-19.2,11.3-29c18.5-46,40.8-94.3,65.7-134.9
				c6.2-10.1,12.5-19.7,19-28.6c1.4-2,2.9-3.9,4.3-5.9c2.9-3.8,5.8-7.5,8.7-11c2.1-2.6,4.3-5.2,6.5-7.6c11.9-13.4,23.5-26,34.9-38
				c28.5-30,55.4-55.7,81.1-78c10.3-8.9,20.4-17.2,30.4-25c9.9-7.8,19.7-15.1,29.4-21.9c9.6-6.8,19.1-13.1,28.5-18.9
				c9.4-5.9,18.6-11.3,27.8-16.2c4.6-2.5,9.1-4.9,13.6-7.2c9.1-4.6,18-8.8,26.9-12.7c13.3-5.8,26.5-10.8,39.7-15.2
				c13.1-4.4,26.2-8.1,39.2-11.3c4.3-1.1,8.7-2.1,13-3c8.7-1.9,17.4-3.6,26.1-5.1c21.8-3.8,43.9-6.6,66.4-8.9
				c33-3.4,67.6-3.6,101.6-1.7c9.7,0.5,19.3,1.2,28.9,2.1c19.1,1.7,37.7,3.9,55.6,6.4c13.4,1.9,26.3,4,38.5,6.1
				c14.3,2.5,27.7,5.2,40,7.8c12.3,2.6,23.4,5.2,33,7.5c8.3,2,15.5,3.9,21.5,5.5c4,1.1,7.5,2.1,10.3,2.9c5.7,1.7,9,2.9,9.5,3.3
				c-0.9-0.7-2-1.4-2.9-2.1c0,0,0,0,0,0c-306-218.3-812.5-265.8-1001-272.1c-2.2-4.5-7-12-8.7-15.9l0,0c0,0-3.3-5.7-9.1-15.5
				c-16.5-0.7-33.5-31.2-33.5-31.2s-16.2-26.8-42.6-66.3c-10.5-15.8-22.7-33.6-36.1-52.5c-16.8-23.6-35.4-49-55.3-74.4
				c-51.6-65.9-111.2-131.5-165.4-165.6c-3.3-2.1-7-4-10.6-6c0.2,0.1,0.5,0.2,0.8,0.3c-0.4-0.2-0.7-0.3-1.1-0.5
				c0.1,0.1,0.2,0.1,0.3,0.2c-40.7-16.6-304.8-94.2-625.9-94.2h-271.5c-437.6,0-722.5,151.1-755.9,162.6
				c-33.4,11.5-40.3,41.4-40.3,41.4s-402.7,283.2-584,471.5c-70.9,73.6-113.6,134.7-139.4,182c-18.8,3.5-38.2,9.2-47.6,18.6
				c-1.4,1.4-2.7,3.2-4,5.2c-0.4,0.6-0.7,1.2-1.1,1.8c-1,1.7-1.9,3.5-2.8,5.5c-0.3,0.6-0.6,1.1-0.8,1.8c-1.1,2.6-2.2,5.4-3.3,8.4
				c-0.2,0.6-0.4,1.3-0.6,2c-0.8,2.5-1.6,5.1-2.4,7.8c-0.3,0.9-0.5,1.9-0.8,2.8c-0.8,3.1-1.6,6.2-2.4,9.4c-0.1,0.3-0.1,0.5-0.2,0.8
				c-0.8,3.6-1.6,7.2-2.4,10.9c-0.2,0.8-0.3,1.7-0.5,2.5c-0.6,3-1.2,6-1.7,9c-0.1,0.7-0.2,1.3-0.4,2c-0.6,3.7-1.2,7.3-1.8,10.8
				c-2,13.1-3.4,24.5-4.1,31.2c-0.4,3.9,1.5,7.8,4.9,9.8c1.7,1,3.7,2.1,5.6,3.2c-2.8,3.4-5.1,6.7-7.6,10.1
				c20.1,5.8,36.9,18.6,48.2,35.4c0.5-0.5,0.9-1,1.3-1.6c5-5.9,10.1-11.9,15.5-18c16.1-18.5,34-38.1,53.4-58.4
				c13-13.5,26.6-27.3,40.9-41.1s29.3-27.7,44.8-41.5l0,0c7.5-6.6,15.1-13.2,22.8-19.8c7.7-6.5,15.6-13,23.6-19.5
				c8-6.4,16.1-12.8,24.3-19c8.2-6.3,16.6-12.4,25-18.5c8.4-6.1,17-12,25.7-17.8c10.8-7.3,21.9-14.3,33-21.1
				c11.2-6.8,22.5-13.3,33.9-19.6c11.5-6.3,23.2-12.3,34.9-17.9c6.9-3.3,13.9-6.5,20.9-9.6c5.5-2.4,11-4.7,16.5-7
				c8.1-3.3,16.2-6.4,24.4-9.3c48.8-17.4,99.2-28.2,150.4-29.3c7.7-0.2,15.3-0.2,22.8-0.1c22.6,0.3,44.5,1.8,65.8,4.5
				c7.1,0.9,14.1,1.9,21,3c20.8,3.4,40.9,7.9,60.3,13.3c13,3.6,25.6,7.7,38,12.2c7,2.5,13.8,5.2,20.6,8
				c20.3,8.3,39.9,17.8,58.6,28.2c25,13.9,48.6,29.5,70.9,46.4c8.7,6.6,17.1,13.4,25.4,20.4c16.5,14,32.3,28.7,47.3,44
				c7.5,7.6,14.8,15.4,21.9,23.4c24.4,27.1,46.6,55.8,66.8,85c6.7,9.8,13.2,19.6,19.5,29.4c6.3,9.9,12.3,19.8,18.2,29.7
				c11.7,19.8,22.5,39.7,32.5,59.4c10,19.7,19.2,39.1,27.6,58.2c4.2,9.5,8.2,18.9,12,28.2c3.8,9.3,7.4,18.4,10.9,27.3
				c3.4,8.9,6.7,17.7,9.8,26.3c3.1,8.6,6,16.9,8.7,25.1c5.5,16.3,10.2,31.6,14.4,45.8c2,7,3.9,13.7,5.7,20c1.3,4.8,2.5,9.4,3.6,13.8
				c1.1,4.4,2.2,8.6,3.1,12.6c1.9,8,3.5,15.3,4.8,21.6c0,0.1,0.1,0.3,0.1,0.4c0,0,0,0.1,0,0.1c0,0,0,0,0,0s0,0,0,0c0,0,0,0,0,0
				c0,0.1,0,0.1,0,0.2v0v0l0,0c0-0.1,0-0.1,0-0.2c-16.7-65.3-53.4-175.3-117.5-286.6c-8-13.9-16.4-27.9-25.3-41.7
				c-8.9-13.9-18.2-27.7-28-41.4c-3.3-4.6-6.6-9.1-9.9-13.6c-13.4-18.1-27.7-35.8-42.8-53.1c-26.4-30.2-55.4-58.8-87.3-84.8
				c-9.1-7.4-18.4-14.6-28-21.6c-19.1-13.9-39.1-26.9-60.1-38.8c-10.5-5.9-21.2-11.5-32.2-16.8c-76.8-37.2-165.6-58.9-267.8-56.6
				c-20.5,0.5-40.9,2.4-61.2,5.7c-20.2,3.3-40.3,7.8-60.1,13.5c-12.6,3.6-25.1,7.9-37.5,12.4c-13.9,5.1-27.6,10.6-41.2,16.7
				c-22,9.8-43.6,20.6-64.7,32.5c-27.5,15.5-54.2,32.7-79.9,50.8c-34.3,24.2-66.7,50.3-97,76.8l0,0c-7.9,6.9-15.6,13.8-23.2,20.7
				c-22.7,20.8-44,41.6-63.8,61.9c-18.2,18.7-35,36.9-50.3,54.1c7.6,14.1,11.6,30.5,10.4,47.7c0,0.4-0.1,0.8-0.2,1.3
				c6,1,11.9,2.4,17.8,3.8c54.7-34.6,119.3-54.1,187.4-52.8c52.5,1,101.6,13.8,145.3,35.4c16.1-28.6,47.5-47,82.4-44.6
				c19.7,1.4,37.3,9.3,51.2,21.3c43-115.3,162-191.4,292.3-172.1c128.4,19,226.4,130.4,229.1,260.2c0.8,37.6-6.1,73.2-18.9,105.6
				c37.2,6.7,64.1,40.4,61.4,79c-0.2,3-0.7,6-1.3,8.9l2,0c76.7,5.4,138.9,57.3,161.2,126.2l121.8-0.1c37-20.1,80.4-28.7,125.2-21.7
				l2.1,0.5c0.1-3.2,0.3-6.4,0.8-9.7c5.6-35.7,33.8-62.2,67.8-67.4c-2.3-14.8-3.4-29.9-3.4-45.3c0-163.9,132.8-296.8,296.6-296.8
				c60.4,0,116.6,18.1,163.4,49.2c74.2,45.7,125,122.8,136.4,210.2c17.5-9.3,38-13.3,59.1-10c37.4,5.9,66.1,33,76.1,67.1
				c51.4-12.2,106.2-13.7,161.8-1.9c14.7,3.1,29,7.3,43,12.1l306.9-2.4c5.9,0,11.1-2.3,15-6.2c2.6-2.7,4.5-6,5.4-9.8
				c0.4-1.7,0.7-3.4,0.7-5.2l-0.1-9.1c-0.2-16.9-0.3-34.9-0.4-54c-0.1-9.5-0.1-19.3-0.2-29.2c0-10-0.1-20.1-0.1-30.5
				c-0.1-25.9-0.2-52.8-0.2-80.4c0-16.5-0.1-33.3-0.1-50.1c0-16.9,0-33.8,0-50.8c0-31.1,0-62.2,0-92.6c0-15.2,0-30.3,0-45.1
				c0-14.8,0-29.4,0.1-43.6c0-35.2,0.2-76.3,0.4-113.1c0-4.6,0-9.2,0.1-13.7c0.1-13.3,0.1-25.8,0.2-36.9c0.1-14.9,0.1-27.3,0.2-36.1
				c0-2.3-0.1-4.5-0.4-6.7c-0.6-4.5-1.7-8.8-3.3-13c-0.8-2.1-1.8-4.1-2.9-6.1c-2.3-4-4.9-8.8-7.8-13.8c-8.5-15.2-18.5-33-23.3-41.6
				c-13-23-28.7-49.9-46.3-78.7c-7.8-12.8-16-26-24.5-39.4c-4.2-6.7-8.5-13.4-12.9-20.2c-2.2-3.4-4.4-6.8-6.6-10.2
				c-4.4-6.8-8.9-13.6-13.4-20.4c-4.5-6.8-9.1-13.6-13.7-20.4c-4.6-6.8-9.2-13.5-13.9-20.2c-21-30.2-42.4-59.4-63.3-85.8
				c-4.6-5.8-9.3-11.6-13.9-17.1c-3.4-4.2-6.9-8.2-10.3-12.2c-3.4-4-6.8-7.8-10.1-11.6c-16-17.8-31.3-32.9-45.5-44.7c0,0,0,0,0,0
				c0,0,0,0,0,0c3.6,2.1,7.2,4.5,11,7.2c1.9,1.4,3.8,2.8,5.8,4.4c11.7,9.2,24.3,20.9,37.4,34.6c4.4,4.6,8.8,9.4,13.3,14.4
				c6.7,7.5,13.5,15.4,20.4,23.7c4.6,5.5,9.2,11.2,13.9,17.1c10.5,13.2,21.1,27,31.7,41.4c10.6,14.4,21.2,29.2,31.7,44.3
				c4.7,6.7,9.3,13.5,13.9,20.2c4.6,6.8,9.2,13.6,13.7,20.4c4.5,6.8,9,13.6,13.4,20.4c2.2,3.4,4.4,6.8,6.6,10.2
				c4.4,6.8,8.7,13.5,12.9,20.2c8.5,13.4,16.7,26.6,24.5,39.4c8.8,14.4,17.1,28.3,24.9,41.5c7.8,13.2,14.9,25.7,21.4,37.2
				c6.2,11.1,21,37.4,30.1,53.7c3.2,5.7,5.3,11.8,6.5,18.1c0.1,0.3,0.2,0.6,0.3,0.9c0,0,0,0,0,0l0,0c0,0.2,0.1,0.4,0.2,0.6
				c0.1,0.6,0.2,1.1,0.2,1.4v0c0,0.1,0,0.3,0,0.5c0.3,2.6,0.5,5.3,0.5,8c0,4.6-0.1,10-0.1,16.1c-0.2,43-0.6,121.2-0.7,181.6
				c-0.1,56.9-0.1,119.1-0.1,181.3c0,17,0,33.9,0,50.8c0,16.9,0,33.6,0.1,50.1c0,27.6,0.1,54.5,0.2,80.4c0,10.3,0.1,20.5,0.1,30.5
				c0,10,0.1,19.7,0.2,29.2c0.1,17,0.2,33.2,0.4,48.5c15.9-16,32.8-30.9,50.7-44.7c0-0.1,0.1-0.3,0.1-0.4
				C-1587.4,1312.6-1582.2,1297.9-1576.5,1282.4z M-3956,1045c-11.7,16.8-34.7,20.9-51.5,9.2c-16.7-11.7-20.8-34.7-9.2-51.5
				c11.7-16.8,34.7-20.9,51.5-9.2C-3948.5,1005.2-3944.4,1028.3-3956,1045z M-2001,294.4c0.5,2.7,0.8,5.6,1.1,8.5
				c0.3,2.9,0.4,5.9,0.5,8.8c0.2,5.8,0,11-0.4,14.5c-0.2,1.7-0.4,3-0.7,3.7c-0.6,1.3-4.7,3.4-10.6,5.6c-4.1,1.5-9.1,3.1-14.3,4.6
				c-0.8,0.2-1.7,0.5-2.5,0.7c-3,0.8-6.1,1.6-9.1,2.4c-2.3,0.6-4.6,1.1-6.7,1.5c-10.9,2.3-19.8,3.2-20.8,0.9
				c-2.4-5.6-4.7-24.5-4.8-36.8c0-2.2,0-4.3,0.1-5.9c0.2-2.5,0.6-4.3,1.2-4.9c0.3-0.3,0.8-0.6,1.3-1c1.1-0.7,2.7-1.5,4.6-2.4
				c1-0.4,2-0.9,3.1-1.3c1.4-0.6,3-1.1,4.6-1.7c1.9-0.7,4-1.4,6.1-2.1c1.8-0.6,3.6-1.2,5.5-1.7c6.1-1.8,12.5-3.5,18.5-4.8
				c1.5-0.3,3-0.6,4.4-0.9c2.8-0.6,5.5-1,7.9-1.3c1.2-0.2,2.3-0.3,3.4-0.4C-2004.8,280.2-2002.4,286.4-2001,294.4z M-3360.2,399.7
				c-7.3-0.7-14.7-1.2-22-1.6C-3374.9,398.5-3367.5,398.9-3360.2,399.7C-3360.2,399.7-3360.2,399.7-3360.2,399.7z M-2855.4,301.8
				v205.6c0,16.4-5.8,31.4-15.5,43.2c-12.5,15.1-31.3,24.7-52.4,24.7h-243.3c-10.7-13.5-20.4-28-29.5-43
				c-7.6-12.7-14.5-25.5-21.6-37.9c-3.5-6.2-7-12.3-10.7-18.2c-3.7-5.9-7.5-11.7-11.5-17.2c-4.1-5.5-8.4-10.8-13-15.7
				c-14-14.8-31.1-26.6-54.2-33.5c-8.6-2.6-17.3-4.6-26.1-6.2c-8.8-1.6-17.7-2.8-26.7-3.8c12-4.8,23.9-9.7,36-14.4
				C-3178.1,328.6-3013.2,296.1-2855.4,301.8L-2855.4,301.8z M-2794.1,1054.1l-21.1-290.4c-8.3-113.9-7.9-228.2,1-342l20.1-256.5
				V1054.1z M-2280.9,1287.9c-20.5,8.2-43.8-1.7-52-22.2c-8.2-20.5,1.7-43.8,22.2-52.1c20.5-8.2,43.8,1.7,52,22.2
				C-2250.4,1256.3-2260.4,1279.7-2280.9,1287.9z M-2193.3,575.3L-2193.3,575.3l-500.4,0c-21.9,0-39.7-17.8-39.7-39.8v0v-212v0
				c0.4-1.7,1.3-3.3,2.7-4.8c0.7-0.7,1.5-1.4,2.4-2.1c1.8-1.3,4-2.5,6.5-3.5c3.8-1.6,8.4-2.8,13.6-3.9c5.5-1.1,11.7-1.9,18.3-2.6
				c6.6-0.6,13.6-1,20.8-1.2c7.2-0.2,14.5-0.3,21.8-0.2c9.1,0.1,18,0.3,26.3,0.7c8.3,0.3,16,0.7,22.5,1.1
				c55.6,3.4,106.8,6.3,152.2,9.4c6.5,0.5,12.9,0.9,19.1,1.4c16.7,1.2,32.4,2.6,47.3,4c9.1,0.9,17.9,1.8,26.3,2.7
				c4.2,0.5,8.3,1,12.3,1.4c12,1.5,23.1,3.1,33.3,4.8c10.2,1.7,19.4,3.6,27.6,5.7c2.7,0.7,5.4,1.4,7.9,2.1c7.5,2.2,14,4.5,19.5,7.1
				c7.2,3.4,12.5,7.3,15.7,11.5c1.6,2.1,2.7,4.4,3.2,6.8c0.5,2.2,1.2,5.6,2,9.9c0.3,1.4,0.6,3,0.9,4.6c0.9,4.9,2,10.7,3.2,17.1
				c0.4,2.1,0.8,4.4,1.2,6.6c0.8,4.6,1.7,9.4,2.7,14.4c0.5,2.5,0.9,5.1,1.4,7.7c1,5.2,1.9,10.6,3,16.1c1,5.5,2,11.1,3.1,16.8
				c1,5.7,2.1,11.4,3.2,17.1c1.1,5.7,2.1,11.4,3.2,17c2.1,11.2,4.2,22.2,6.2,32.4c1.1,5.7,2.2,11.2,3.2,16.4c1,5.2,2,10,3,14.4
				c0.6,2.6,1.1,5,1.6,7.3C-2195.3,567.3-2194.2,571.9-2193.3,575.3L-2193.3,575.3z M-2079.8,575.3L-2079.8,575.3l-90.6,0
				c-3.6-16-7.7-35.4-12.2-56.8c-0.9-4.3-1.8-8.6-2.7-13.1c-1.8-8.8-3.7-18-5.5-27.2c-1.9-9.3-3.7-18.8-5.6-28.3
				c-3.7-19.1-7.4-38.6-10.8-57.6c-1.7-9.5-3.4-19-5-28.2c-0.3-1.9,0.9-3.1,3.3-3.6c1.2-0.3,2.7-0.4,4.4-0.3
				c5.2,0.1,12.5,1.5,20.9,3.7c2.8,0.7,5.7,1.6,8.6,2.5c5.9,1.9,12.1,4,18.1,6.4c6,2.4,12,5,17.4,7.7c5.4,2.7,10.4,5.5,14.5,8.3
				c6.1,4.2,10.4,8.3,11.5,12c0.7,2.5,2.3,8.6,4.3,17.3c1.4,5.8,2.9,12.7,4.7,20.3c1.7,7.7,3.6,16.1,5.4,24.9
				c3.2,14.9,6.5,31,9.4,46.5c2.5,13,4.7,25.6,6.5,36.8C-2081.6,557.7-2080.3,567.7-2079.8,575.3L-2079.8,575.3z M-2082.3,184.1
				c-3.6-1-7.3-2-11-2.9c-0.2-0.1-0.5-0.1-0.7-0.2c-3.8-1-7.7-2-11.6-2.9c-1.2-0.3-2.5-0.6-3.8-0.9c-3-0.7-6-1.5-9.1-2.2
				c-1.2-0.3-2.5-0.6-3.7-0.9c-4.1-1-8.3-1.9-12.5-2.9c-0.9-0.2-1.8-0.4-2.6-0.6c-3.5-0.8-7-1.6-10.6-2.3c-1.5-0.3-3-0.7-4.6-1
				c-3.2-0.7-6.5-1.4-9.8-2.1c-1.3-0.3-2.7-0.6-4-0.8c-4.4-0.9-8.9-1.8-13.5-2.7c-1.4-0.3-2.8-0.5-4.2-0.8c-3.4-0.7-6.8-1.3-10.3-2
				c-1.7-0.3-3.4-0.6-5.1-1c-3.7-0.7-7.3-1.4-11.1-2c-1.3-0.2-2.5-0.5-3.8-0.7c-4.8-0.9-9.6-1.7-14.4-2.5c-1.7-0.3-3.5-0.6-5.3-0.9
				c-3.4-0.6-6.9-1.2-10.4-1.7c-1.9-0.3-3.8-0.6-5.7-0.9c-4.3-0.7-8.6-1.4-13-2.1c-1.6-0.2-3.2-0.5-4.7-0.7c-4.4-0.7-8.8-1.4-13.3-2
				c-2-0.3-4.1-0.6-6.1-0.9c-3.5-0.5-7.1-1-10.7-1.5c-2-0.3-4.1-0.6-6.1-0.9c-5.2-0.7-10.4-1.5-15.7-2.2c-1.7-0.2-3.3-0.4-5-0.7
				c-4-0.5-7.9-1-11.9-1.6c-2.3-0.3-4.5-0.6-6.8-0.9c-3.7-0.5-7.4-0.9-11.1-1.4c-2.1-0.3-4.2-0.5-6.3-0.8
				c-5.4-0.6-10.8-1.3-16.3-1.9c-2.2-0.3-4.4-0.5-6.6-0.7c-3.7-0.4-7.4-0.8-11.2-1.3c-2.5-0.3-5-0.5-7.5-0.8
				c-3.9-0.4-7.9-0.8-11.8-1.2c-2.1-0.2-4.1-0.4-6.2-0.6c-5.6-0.6-11.2-1.1-16.8-1.7c-2.5-0.2-5-0.5-7.5-0.7
				c-3.7-0.3-7.4-0.7-11.1-1c-2.6-0.2-5.2-0.5-7.8-0.7c-4.4-0.4-8.9-0.8-13.4-1.1c-3-0.2-6-0.5-9-0.7c-4.5-0.4-9.1-0.7-13.7-1.1
				c-2.7-0.2-5.4-0.4-8.1-0.6c-3.8-0.3-7.5-0.6-11.3-0.8c-2.7-0.2-5.4-0.4-8-0.6c-5.7-0.4-11.5-0.8-17.2-1.1c-2.5-0.2-5-0.3-7.5-0.5
				c-4.1-0.2-8.1-0.5-12.2-0.7c-2.9-0.2-5.7-0.3-8.6-0.5c-3.8-0.2-7.7-0.4-11.6-0.6c-2.7-0.1-5.4-0.3-8.1-0.4
				c-6-0.3-11.9-0.6-17.9-0.9c-2.7-0.1-5.4-0.2-8.1-0.4c-3.9-0.2-7.8-0.3-11.7-0.5c-3-0.1-6-0.2-8.9-0.3c-4.1-0.1-8.2-0.3-12.2-0.4
				c-2.6-0.1-5.1-0.2-7.7-0.3c-6.1-0.2-12.2-0.4-18.3-0.5c-2.9-0.1-5.7-0.1-8.6-0.2c-3.9-0.1-7.9-0.2-11.8-0.3
				c-3-0.1-5.9-0.1-8.9-0.2c-4.6-0.1-9.3-0.1-13.9-0.2c-3.5,0-7-0.1-10.6-0.1c-4.8-0.1-9.6-0.1-14.5-0.1c-3,0-5.9,0-8.9,0
				c-4,0-8,0-12,0c-2.9,0-5.8,0-8.7,0c-6.2,0-12.5,0-18.7,0.1c-0.1,0-0.1,0-0.2,0v0c-2.2,0-4.4,0.1-6.7,0.1c0,0-0.1,0-0.1,0
				c-14.3,0.1-28.6,0.3-42.9,0.7c-4.7,0.1-9.4,0.3-14.1,0.4c-11.9,0.3-23.9,0.7-35.8,1.1c-2.8,0.1-5.7,0.3-8.5,0.4
				c-63.8,2.7-127.7,7.4-190.5,14.4c-5.6,0.6-11.2,1.4-16.8,2.1c-17.9,2.1-35.6,4.5-53.2,7c-9.2,1.3-18.4,2.5-27.5,4
				c-23.6,3.7-47.6,8.5-71.8,14.1c-3,0.7-5.9,1.2-8.9,2c-13.6,3.3-27.3,6.8-41,10.7c-13.7,3.8-27.5,8-41.4,12.4
				c-13.8,4.4-27.7,9.1-41.6,14.1c-133.9,47.8-270.3,120.5-395.6,211.1c-17.9,12.9-35.6,26.2-53,39.9c-5,3.9-10.3,8.2-16,13
				c-2.1,1.8-4.5,3.9-6.7,5.8c-3.7,3.2-7.3,6.3-11.3,9.8c-2.8,2.5-5.9,5.3-8.8,8c-3.7,3.3-7.3,6.5-11.2,10.1c-3.2,3-6.7,6.2-10,9.4
				c-3.9,3.6-7.6,7.1-11.7,10.9c-3.8,3.6-7.8,7.5-11.7,11.3c-3.8,3.7-7.5,7.2-11.5,11c-4.2,4.1-8.7,8.5-13.1,12.8
				c-3.8,3.8-7.6,7.4-11.5,11.3c-4.7,4.7-9.6,9.6-14.4,14.4c-3.8,3.8-7.5,7.4-11.3,11.3c-5.5,5.5-11.1,11.2-16.7,16.9
				c-3.3,3.4-6.6,6.6-10,10.1c-6.1,6.2-12.2,12.5-18.4,18.8c-1.5,1.6-3.1,3.2-4.6,4.7c-1.5,1.5-3,3.1-4.5,4.6
				c-6.8,7-13.7,14.2-20.6,21.3c-2.5,2.6-5,5.1-7.5,7.7c-0.7,0.7-1.3,1.3-2,2c-7.3,7.6-14.7,15.3-22,23c-1.5,1.6-3,3.1-4.5,4.7
				c-8.5,8.9-17.1,17.9-25.7,27c-1.1,1.2-2.2,2.3-3.3,3.5c-8.8,9.3-17.7,18.7-26.6,28.1c-0.9,0.9-1.7,1.8-2.6,2.7
				c-20.7,22-41.5,44.1-61.9,66c-8.3,8.9-16.6,17.8-24.8,26.7h0c49.9-53.9,100.6-110.6,149-164.6c4.4-4.9,8.7-9.7,13-14.5
				c70.8-78.9,135.9-151,185.4-198.6c3.2-3.1,6.3-6,9.4-8.9c6.1-5.7,11.9-11,17.5-15.8c5.5-4.8,10.8-9.2,15.7-13.1
				c12.7-9.9,25.4-19.7,38.2-29.3c25.6-19.2,51.4-37.8,77.3-55.6c20.9-14.4,42-28.1,63.2-41.5c13-8.2,26-16.2,39-23.9
				c22.4-13.4,44.9-26.2,67.5-38.3c22.6-12.1,45.2-23.5,67.9-34.1c40-18.8,80.2-35.2,120.3-49c40.1-13.8,80.2-25,120.1-33.1
				c13.3-2.7,26.6-5.1,39.9-7.2c32.1-5,64.7-9.3,97.6-13c16.4-1.8,32.9-3.5,49.5-5c32-3,64.2-5.3,96.4-7.2c18.3-1,36.5-1.9,54.8-2.6
				c16.7-0.6,33.3-1.2,49.9-1.5c16.1-0.4,32.2-0.6,48.2-0.8c6.2,0,12.5-0.1,18.7-0.1c2.9,0,5.8,0,8.7,0c4,0,8,0,12,0
				c3,0,5.9,0,8.9,0c4.8,0,9.6,0.1,14.5,0.1c3.5,0,7,0.1,10.6,0.1c4.6,0.1,9.3,0.1,13.9,0.2c3,0.1,5.9,0.1,8.9,0.2
				c3.9,0.1,7.9,0.2,11.8,0.3c2.9,0.1,5.7,0.1,8.6,0.2c6.1,0.2,12.2,0.3,18.3,0.5c2.6,0.1,5.1,0.2,7.7,0.3c4.1,0.1,8.2,0.3,12.2,0.4
				c3,0.1,6,0.2,8.9,0.3c3.9,0.2,7.8,0.3,11.7,0.5c2.7,0.1,5.4,0.2,8.1,0.3c6,0.3,12,0.6,17.9,0.9c2.7,0.1,5.4,0.3,8.1,0.4
				c3.9,0.2,7.7,0.4,11.6,0.6c2.9,0.2,5.7,0.3,8.6,0.5c4.1,0.2,8.1,0.5,12.2,0.7c2.5,0.2,5,0.3,7.5,0.5c5.8,0.4,11.5,0.8,17.2,1.1
				c2.7,0.2,5.4,0.4,8,0.6c3.8,0.3,7.6,0.5,11.3,0.8c2.7,0.2,5.4,0.4,8.1,0.6c4.6,0.4,9.1,0.7,13.7,1.1c3,0.2,6,0.5,9,0.7
				c4.5,0.4,8.9,0.8,13.4,1.1c2.6,0.2,5.2,0.5,7.8,0.7c3.7,0.3,7.4,0.7,11.1,1c2.5,0.2,5,0.5,7.5,0.7c5.6,0.5,11.3,1.1,16.8,1.7
				c2.1,0.2,4.1,0.4,6.2,0.6c4,0.4,7.9,0.8,11.8,1.2c2.5,0.3,5,0.5,7.5,0.8c3.7,0.4,7.5,0.8,11.2,1.2c2.2,0.2,4.4,0.5,6.6,0.7
				c5.5,0.6,10.9,1.3,16.3,1.9c2.1,0.3,4.2,0.5,6.3,0.8c3.7,0.5,7.4,0.9,11.1,1.4c2.3,0.3,4.6,0.6,6.8,0.9c4,0.5,8,1,11.9,1.6
				c1.7,0.2,3.3,0.4,5,0.7c5.3,0.7,10.5,1.4,15.7,2.2c2,0.3,4.1,0.6,6.1,0.9c3.6,0.5,7.1,1,10.7,1.6c2,0.3,4.1,0.6,6.1,0.9
				c4.5,0.7,8.9,1.3,13.3,2c1.6,0.2,3.2,0.5,4.7,0.7c4.4,0.7,8.7,1.4,13,2.1c1.9,0.3,3.8,0.6,5.7,0.9c3.5,0.6,6.9,1.2,10.4,1.7
				c1.8,0.3,3.5,0.6,5.3,0.9c4.9,0.8,9.7,1.7,14.4,2.5c1.3,0.2,2.5,0.5,3.8,0.7c3.7,0.7,7.4,1.3,11.1,2c1.7,0.3,3.4,0.6,5.1,1
				c3.5,0.7,6.9,1.3,10.3,2c1.4,0.3,2.8,0.5,4.2,0.8c4.6,0.9,9,1.8,13.5,2.7c1.3,0.3,2.7,0.6,4,0.8c3.3,0.7,6.6,1.4,9.8,2.1
				c1.5,0.3,3,0.7,4.6,1c3.6,0.8,7.1,1.6,10.6,2.3c0.9,0.2,1.8,0.4,2.6,0.6c4.2,1,8.4,1.9,12.5,2.9c1.3,0.3,2.5,0.6,3.7,0.9
				c3.1,0.7,6.1,1.5,9.1,2.2c1.3,0.3,2.5,0.6,3.8,0.9c3.9,1,7.8,1.9,11.6,2.9c0.2,0.1,0.5,0.1,0.7,0.2c3.7,1,7.4,2,11,2.9
				c1.2,0.3,2.3,0.6,3.4,0.9c2.8,0.8,5.5,1.5,8.3,2.3c1,0.3,2,0.6,3,0.9c3.5,1,7,2.1,10.5,3.1c0.6,0.2,1.2,0.4,1.8,0.6
				c2.8,0.9,5.6,1.7,8.4,2.6c1,0.3,2,0.6,3,1c2.6,0.8,5.1,1.6,7.5,2.5c0.7,0.2,1.5,0.5,2.2,0.7c3.1,1,6.1,2.1,9,3.1
				c0.7,0.2,1.4,0.5,2,0.7c2.3,0.8,4.5,1.7,6.8,2.5c0.8,0.3,1.7,0.6,2.5,1c2.3,0.9,4.6,1.8,6.8,2.7c0.4,0.2,0.9,0.3,1.3,0.5
				c2.6,1.1,5.1,2.1,7.5,3.2c0.6,0.3,1.3,0.6,1.9,0.9c1.8,0.8,3.6,1.6,5.4,2.5c0.7,0.3,1.3,0.6,2,0.9c2.2,1.1,4.4,2.1,6.4,3.2
				c2,1.1,4.2,2.3,6.3,3.6c-1-0.4-1.9-0.8-2.9-1.1c-0.8-0.3-1.7-0.6-2.5-1c-2.2-0.8-4.4-1.7-6.7-2.5c-0.7-0.2-1.3-0.5-2-0.7
				c-2.9-1.1-6-2.1-9-3.1c-0.7-0.3-1.5-0.5-2.2-0.7c-2.5-0.8-5-1.7-7.5-2.5c-1-0.3-2-0.6-3-1c-2.7-0.9-5.5-1.7-8.4-2.6
				c-0.6-0.2-1.2-0.4-1.8-0.6c-3.4-1-6.9-2.1-10.5-3.1c-1-0.3-2-0.6-3-0.9c-2.7-0.8-5.5-1.5-8.3-2.3
				C-2080,184.7-2081.1,184.4-2082.3,184.1z M-2026.9,542.3c-1.8,1.8-3.6,3.4-5.3,4.9c-2.2,1.9-4.2,3.5-6.1,4.9
				c-1.6,1.1-3.1,2.1-4.4,2.7c-2.4,1.1-4.1,1.1-4.6-0.6c-0.6-2.1-1.5-5.3-2.6-9.5c-0.5-2.1-1.1-4.4-1.7-6.9
				c-8-32.4-22.2-96.3-21.4-106.8l0,0c0-0.6,0.3-0.9,0.8-0.7c0.5,0.1,1.2,0.6,2.1,1.4c12.7,10.8,61.5,81,61.5,87
				C-2008.5,522-2017.5,533.1-2026.9,542.3z M-1970.2,335.4c1.7-3.1,2.3-6.4,2.4-9.8c0.2-8.4-3.3-16.6-3.3-19.8
				c0-0.6,0.1-1.1,0.4-1.3c9.3,7.7,18.3,15.9,27,24.7c2,2.6,4,5.6,6.2,8.9c6.1,9.2,13,20.8,20.1,33.5c3.9,6.9,7.8,14.2,11.7,21.7
				c3.9,7.5,7.9,15.1,11.7,22.8c5.8,11.5,11.4,23.1,16.5,34.2c5.8,12.4,11,24.2,15.3,34.5c0.9,2.1,1.7,4.2,2.5,6.2
				c2.4,6,4.4,11.4,5.9,16c2,6.1,3.1,10.6,3.1,13.2c0,0.6-0.5,1.4-1.3,2.1c-0.1,0.1-0.3,0.2-0.5,0.3c-1.5,1.1-3.9,2.3-6.9,3.4
				c-2.3,0.9-5,1.6-7.9,2.3c-2.7,0.6-5.6,1.1-8.5,1.4c-1.3,0.1-2.6,0.2-4,0.3c-5.3,0.2-10.7-0.3-15.3-1.9c-1.2-0.4-2.3-0.8-3.4-1.4
				c-1.1-0.5-3.9-4.5-7.9-10.7c-4.9-7.7-11.6-18.8-18.7-30.8c-1.4-2.4-2.8-4.8-4.3-7.3c-4.3-7.3-8.7-14.8-12.8-21.9
				c-4.1-7.1-8-13.7-11.4-19.3c-3.8-6.3-8.9-15.3-15.4-25.8c-10.8-17.6-25.2-39.6-43-61.3c-0.3-0.3,0-0.7,0.6-1
				c1.1-0.6,3.5-1.3,6.7-2c1.1-0.2,2.2-0.5,3.4-0.7c2.3-0.5,4.7-1,7.2-1.5c1.3-0.3,2.5-0.5,3.8-0.8c3.8-0.9,7.6-1.9,10.8-3
				C-1974.7,339.3-1971.3,337.5-1970.2,335.4z"/>
			<path class="st9" d="M-1683.9,1418.4c3-3.8,5.9-7.7,9-11.4l-31.8-0.2C-1698.5,1409.6-1690.9,1413.6-1683.9,1418.4z"/>
			<path class="st9" d="M-364.9,1024.3c-5.8-52.2-20.3-73.7-24.5-77.9c-4.2-4.2-44-9.4-44-9.4c0,0,0,0.1,0,0.1
				c20.4,43.4,43.3,125.1,57.8,187.4c0.9,4,0,0,0,0l-33-102.5c-10.7-27.7-25.7-69.9-34.4-85c-21.9-38-204.2-87.5-204.2-87.5
				c-2.5-2-75.3-23.2-166.3-35c-13.7-1.8-27.7-3.3-42-4.6c-9.5-0.8-19.2-1.5-28.9-2.1c-33.9-1.9-68.5-1.7-101.6,1.7
				c-20.5,2.1-40.5,4.6-60.3,7.9c-4.6,0.8-9.2,1.6-13.8,2.5c-14.1,2.6-28.2,5.8-42.3,9.6c-5,1.3-9.9,2.7-14.9,4.2
				c-6.5,2-13.1,4.1-19.7,6.4c-5.3,1.9-10.7,3.8-16,5.9c-16,6.2-32.1,13.5-48.6,22c-12.3,6.4-24.9,13.6-37.6,21.5
				c-4.2,2.7-8.5,5.4-12.8,8.3c-8.6,5.7-17.3,11.8-26.1,18.3c-8.8,6.5-17.8,13.4-26.9,20.7c-13.7,11-27.6,23-42,36.1
				c-14.3,13.1-29.1,27.3-44.2,42.7c-16.7,17-34,35.4-51.8,55.5c-12.9,14.5-25.8,31.9-38.6,51.2c-10.7,16.2-21.3,33.7-31.6,51.8
				c-2.3,4.1-4.5,8.4-6.8,12.6c-4.2,7.7-8.5,15.5-12.6,23.3c-3.7,7.2-7.4,14.4-11,21.7c-10.8,21.7-21,43.3-30.1,63.9
				c-3.9,8.8-7.5,17.2-11,25.5c84.5-62.9,189.3-100.1,302.7-100.1c62.2,0,121.7,11.2,176.8,31.7c10.9-22.3,24.7-42.9,41.3-61.1
				c5.5-6,11.2-11.7,17.2-17.2c11.5-10.5,24-19.9,37.2-28.2c13.3-8.3,27.3-15.4,42-21.2c14.7-5.8,30.1-10.3,46-13.4
				c15.9-3,32.3-4.6,49.1-4.6c143.2,0,259.3,116.2,259.3,259.5c0,17.6-1.8,34.9-5.1,51.5c-1.1,5.5-2.4,11-3.9,16.4
				c-2,7.2-4.2,14.3-6.8,21.3c-2.9,7.9-6.2,15.7-9.8,23.3c-12.7,26.5-29.8,50.4-50.4,71c-27.5,27.5-61.2,48.8-98.8,61.8
				c4.6,19.5,8.1,39.4,10.4,59.7c29.7-55.8,87.6-93.5,153.6-94.9c-1.3-6.5-1.9-13.3-1.4-20.2c2.7-38.6,34.1-68.3,71.9-69.7
				c-8.2-33.9-10-70.2-4-107.3c16.9-104.1,94.2-186.4,191.5-214.9c0-0.1-0.1-0.3-0.1-0.4c-0.5-1.9-1-3.8-1.5-5.7
				c-0.1-0.4-0.2-0.9-0.3-1.3c-0.5-1.9-1-3.9-1.4-5.8c-0.1-0.5-0.2-1-0.4-1.5c-0.5-1.9-0.9-3.8-1.4-5.6c-0.1-0.3-0.1-0.6-0.2-0.9
				c-0.5-2-1-3.9-1.4-5.9c0,0,0,0,0-0.1c-3.7-5-3.7-5,0,0c-1-4.3-2-8.5-3-12.6l7.9-0.4c0,0,2.7-14.9,4.1-37.2
				c0.1-1.8,0.2-3.6,0.3-5.5C-362.6,1064.9-362.7,1045-364.9,1024.3z M-522.6,1185.1c-28.6,11.5-61-2.4-72.5-30.9
				c-11.5-28.6,2.4-61.1,30.9-72.5c28.6-11.5,61,2.4,72.5,30.9C-480.2,1141.1-494,1173.6-522.6,1185.1z"/>
			<path class="st9" d="M-372.7,1137.1C-372.7,1137.1-372.7,1137.1-372.7,1137.1L-372.7,1137.1
				C-372.7,1137.1-372.7,1137.1-372.7,1137.1C-372.7,1137.1-372.7,1137.1-372.7,1137.1z"/>
			<path class="st9" d="M-1850.8,1482.8c6.5,0,13.1-0.1,19.7,0.3c0.1-0.5,0.1-0.9,0.1-1.4c5.8-36.4,31.6-64.6,64.4-75.3l-196.4-1.2
				C-1920.7,1424.1-1882.7,1450.5-1850.8,1482.8z"/>
			<path class="st6" d="M-1643.3,1293.7c0-10-0.1-20.1-0.1-30.5c-0.1-25.9-0.2-52.8-0.2-80.4c0-16.5-0.1-33.3-0.1-50.1
				c0-16.9,0-33.8,0-50.8l0,0c0-62.2,0-124.4,0.1-181.3c0.1-60.4,0.5-138.6,0.7-181.6c0-6.1,0.1-11.6,0.1-16.1c0-2.7-0.2-5.4-0.5-8
				c-0.1-0.6-0.2-1.2-0.3-1.8c0-0.1,0-0.1,0-0.2c0-0.2-0.1-0.4-0.1-0.5c-0.1-0.3-0.1-0.6-0.2-0.9c0,0,0,0,0,0
				c-1.2-6.3-3.3-12.4-6.5-18.1c-9.1-16.3-23.9-42.6-30.1-53.7c-6.5-11.5-13.7-24-21.4-37.2c-7.8-13.2-16.1-27.1-24.9-41.5
				c-7.8-12.8-16-26-24.5-39.4c-4.2-6.7-8.5-13.4-12.9-20.2c-2.2-3.4-4.4-6.8-6.6-10.2c-4.4-6.8-8.9-13.6-13.4-20.4
				c-4.5-6.8-9.1-13.6-13.7-20.4c-4.6-6.8-9.2-13.5-13.9-20.2c-10.5-15.1-21.1-30-31.7-44.3c-10.6-14.4-21.2-28.3-31.7-41.4
				c-4.7-5.8-9.3-11.6-13.9-17.1c-6.9-8.3-13.7-16.2-20.4-23.7c-4.5-5-8.9-9.8-13.3-14.4c-13.1-13.7-25.6-25.4-37.4-34.6
				c-2-1.5-3.9-3-5.8-4.4c-3.8-2.7-7.4-5.1-11-7.2c0,0,0,0,0,0c14.2,11.8,29.5,26.8,45.5,44.7c3.4,3.7,6.7,7.6,10.1,11.6
				c3.4,4,6.8,8,10.3,12.2c4.6,5.5,9.2,11.2,13.9,17.1c21,26.3,42.4,55.6,63.3,85.8c4.7,6.7,9.3,13.5,13.9,20.2
				c4.6,6.8,9.2,13.6,13.7,20.4c4.5,6.8,9,13.6,13.4,20.4c2.2,3.4,4.4,6.8,6.6,10.2c4.4,6.8,8.7,13.5,12.9,20.2
				c8.5,13.4,16.7,26.6,24.5,39.4c17.6,28.8,33.4,55.7,46.3,78.7c4.8,8.6,14.8,26.4,23.3,41.6c2.8,5.1,5.5,9.8,7.8,13.8
				c1.1,2,2.1,4,2.9,6.1c1.7,4.2,2.8,8.5,3.3,13c0.3,2.2,0.4,4.5,0.4,6.7c0,8.7-0.1,21.2-0.2,36.1c-0.1,11.1-0.1,23.6-0.2,36.9
				c0,4.5,0,9-0.1,13.7c-0.2,36.8-0.3,77.9-0.4,113.1c0,14.2,0,28.8-0.1,43.6c0,14.8,0,29.9,0,45.1c0,30.4,0,61.5,0,92.6
				c0,17,0,33.9,0,50.8c0,16.9,0,33.6,0.1,50.1c0,27.6,0.1,54.5,0.2,80.4c0,10.3,0.1,20.5,0.1,30.5c0,10,0.1,19.7,0.2,29.2
				c0.1,19,0.2,37.1,0.4,54l0.1,9.1v0c0,1.8-0.3,3.5-0.7,5.2c-0.9,3.8-2.8,7.1-5.4,9.8c-3.8,3.8-9.1,6.2-15,6.2l-306.9,2.4
				c10,3.5,19.9,7.3,29.5,11.5l196.4,1.2c13.8-4.5,28.8-6,44.1-3.6c5.4,0.9,10.7,2.2,15.7,3.9l31.8,0.2
				c10.2-12.4,20.9-24.3,32.1-35.6c-0.1-15.3-0.3-31.4-0.4-48.5C-1643.2,1313.4-1643.3,1303.6-1643.3,1293.7z"/>
			<path class="st10" d="M-573.9,857.1c-0.3-0.1-0.7-0.2-1-0.3C-574.6,856.9-574.3,857-573.9,857.1
				C-573.9,857.1-573.9,857.1-573.9,857.1z"/>
			<path class="st6" d="M-1663.8,555.5c188.5,6.3,695,53.8,1001,272.1c0,0,0,0,0,0c0.3,0.2,0.7,0.4,1,0.7c-3.1-2.5-6.6-4.6-9.7-7.1
				c-123.6-93.7-283-157.4-439.8-200c-241.3-65.6-475.7-81.6-561.1-81.6l0,0C-1670.8,543.6-1666,551-1663.8,555.5z"/>
			<path class="st6" d="M-3324,385.3c-12,4.7-24,9.6-36,14.4c9,0.9,17.9,2.1,26.7,3.8c8.8,1.6,17.5,3.7,26.1,6.2
				c23.2,6.9,40.3,18.8,54.2,33.5c4.7,4.9,9,10.2,13,15.7c4.1,5.5,7.9,11.3,11.5,17.2c3.7,5.9,7.2,12,10.7,18.2
				c7,12.4,13.9,25.3,21.6,37.9c9.1,15,18.8,29.6,29.5,43h243.3c21.1,0,39.9-9.6,52.4-24.7c9.7-11.7,15.5-26.8,15.5-43.2V301.8
				C-3013.2,296.1-3178.1,328.6-3324,385.3z"/>
			<path class="st11" d="M-3360.2,399.7C-3360.2,399.7-3360.2,399.7-3360.2,399.7c-7.3-0.8-14.6-1.2-22-1.6
				C-3374.9,398.5-3367.6,399-3360.2,399.7z"/>
			<path class="st6" d="M-638.8,1478.8c3.6-7.6,6.9-15.3,9.8-23.3c2.5-7,4.8-14,6.8-21.3c1.5-5.4,2.8-10.9,3.9-16.4
				c3.3-16.6,5.1-33.9,5.1-51.5c0-143.3-116.1-259.5-259.3-259.5c-16.8,0-33.2,1.6-49.1,4.6c-15.9,3-31.3,7.5-46,13.4
				c-14.7,5.8-28.8,12.9-42,21.2c-13.3,8.3-25.7,17.7-37.2,28.2c-6,5.5-11.7,11.2-17.2,17.2c-16.6,18.1-30.4,38.8-41.3,61.1
				c51.7,19.2,99.3,46.6,141.5,80.6c13.6-37.4,49.3-64.1,91.3-64.1c53.7,0,97.2,43.6,97.2,97.3c0,46.2-32.2,84.8-75.3,94.7
				c28.5,45.8,49.8,96.5,62.6,150.6c37.6-13,71.3-34.3,98.8-61.8C-668.6,1529.2-651.5,1505.2-638.8,1478.8z"/>
			<path class="st9" d="M-775.3,1366.3c0-53.7-43.5-97.3-97.2-97.3c-42,0-77.7,26.7-91.3,64.1c44.5,35.9,82.9,79.1,113.2,127.9
				C-807.5,1451.1-775.3,1412.5-775.3,1366.3z"/>
			<path class="st6" d="M-2089.8,509.6c-3-15.5-6.3-31.6-9.4-46.5c-1.9-8.8-3.7-17.2-5.4-24.9c-1.7-7.7-3.3-14.5-4.7-20.3
				c-2-8.7-3.6-14.8-4.3-17.3c-1.1-3.7-5.3-7.8-11.5-12c-4.1-2.8-9-5.6-14.5-8.3c-5.4-2.7-11.4-5.3-17.4-7.7
				c-6-2.4-12.2-4.6-18.1-6.4c-3-0.9-5.8-1.8-8.6-2.5c-8.3-2.2-15.7-3.6-20.9-3.7c-1.7,0-3.2,0.1-4.4,0.3c-2.4,0.5-3.6,1.7-3.3,3.6
				c1.6,9.3,3.2,18.7,5,28.2c3.4,19.1,7.1,38.5,10.8,57.6c1.9,9.6,3.7,19,5.6,28.3c1.9,9.3,3.7,18.4,5.5,27.2
				c0.9,4.4,1.8,8.8,2.7,13.1c4.5,21.4,8.6,40.8,12.2,56.8h90.6v0c-0.5-7.6-1.8-17.6-3.5-28.8
				C-2085.1,535.2-2087.3,522.6-2089.8,509.6z"/>
			<path class="st13" d="M-2198.1,554.4c-0.9-4.4-1.9-9.2-3-14.4c-1-5.2-2.1-10.6-3.2-16.4c-2-10.2-4.1-21.1-6.2-32.4
				c-1.1-5.6-2.1-11.3-3.2-17c-1.1-5.7-2.1-11.4-3.2-17.1c-1-5.7-2.1-11.3-3.1-16.8c-1-5.5-2-10.9-3-16.1c-0.5-2.6-1-5.2-1.4-7.7
				c-0.9-5-1.8-9.8-2.7-14.4c-0.4-2.3-0.8-4.5-1.2-6.6c-1.2-6.4-2.3-12.2-3.2-17.1c-0.3-1.6-0.6-3.2-0.9-4.6c-0.8-4.3-1.5-7.7-2-9.9
				c-0.5-2.4-1.6-4.6-3.2-6.8c-3.2-4.3-8.5-8.1-15.7-11.5c-5.4-2.6-11.9-4.9-19.5-7.1c-2.5-0.7-5.1-1.4-7.9-2.1
				c-8.2-2.1-17.4-3.9-27.6-5.7c-10.2-1.7-21.3-3.3-33.3-4.8c-4-0.5-8.1-1-12.3-1.4c-8.4-0.9-17.1-1.8-26.3-2.7
				c-14.8-1.4-30.6-2.7-47.3-4c-6.2-0.5-12.6-0.9-19.1-1.4c-45.4-3.2-96.7-6.1-152.2-9.4c-6.6-0.4-14.2-0.8-22.5-1.1
				c-8.3-0.3-17.2-0.6-26.3-0.7c-7.3-0.1-14.6,0-21.8,0.2c-7.2,0.2-14.2,0.6-20.8,1.2c-6.6,0.6-12.8,1.5-18.3,2.6
				c-5.2,1-9.8,2.3-13.6,3.9c-2.5,1-4.7,2.2-6.5,3.5c-0.9,0.7-1.7,1.3-2.4,2.1c-1.4,1.4-2.3,3-2.7,4.8v212v0
				c0,21.9,17.8,39.8,39.7,39.8h500.4v0c-0.9-3.4-2-8-3.2-13.5C-2197,559.5-2197.6,557.1-2198.1,554.4z"/>
			<path class="st6" d="M-2019.9,282.2c-1.4,0.3-2.9,0.6-4.4,0.9c-6,1.3-12.4,3-18.5,4.8c-1.9,0.6-3.7,1.1-5.5,1.7
				c-2.1,0.7-4.2,1.4-6.1,2.1c-1.6,0.6-3.2,1.2-4.6,1.7c-1.1,0.4-2.2,0.9-3.1,1.3c-1.9,0.8-3.5,1.6-4.6,2.4c-0.6,0.4-1,0.7-1.3,1
				c-0.6,0.6-1,2.4-1.2,4.9c-0.1,1.7-0.2,3.7-0.1,5.9c0.1,12.3,2.4,31.2,4.8,36.8c1,2.3,9.9,1.4,20.8-0.9c2.2-0.5,4.4-1,6.7-1.5
				c3-0.7,6.1-1.5,9.1-2.4c0.8-0.2,1.7-0.5,2.5-0.7c5.2-1.5,10.2-3.1,14.3-4.6c5.9-2.2,10-4.2,10.6-5.6c0.3-0.7,0.5-2,0.7-3.7
				c0.4-3.5,0.5-8.8,0.4-14.5c-0.1-2.9-0.3-5.9-0.5-8.8c-0.3-3-0.6-5.9-1.1-8.5c-1.4-8.1-3.8-14.2-7.6-13.9
				c-1.1,0.1-2.2,0.2-3.4,0.4C-2014.4,281.2-2017,281.6-2019.9,282.2z"/>
			<path class="st6" d="M-2070,431.6c-0.9-0.8-1.6-1.2-2.1-1.4c-0.5-0.1-0.8,0.1-0.8,0.7c-0.8,10.5,13.4,74.4,21.4,106.8
				c0.6,2.5,1.2,4.8,1.7,6.9c1.1,4.2,2,7.4,2.6,9.5c0.5,1.7,2.2,1.7,4.6,0.6c1.3-0.6,2.8-1.5,4.4-2.7c1.9-1.3,3.9-3,6.1-4.9
				c1.8-1.5,3.5-3.2,5.3-4.9c9.3-9.2,18.4-20.3,18.4-23.7C-2008.5,512.6-2057.3,442.4-2070,431.6z"/>
			<path class="st6" d="M-1979,340.8c-3.2,1.1-7,2.1-10.8,3c-1.3,0.3-2.5,0.6-3.8,0.8c-2.5,0.5-5,1-7.2,1.5
				c-1.2,0.3-2.4,0.5-3.4,0.7c-3.2,0.7-5.6,1.3-6.7,2c-0.6,0.3-0.8,0.7-0.6,1c17.7,21.7,32.2,43.7,43,61.3
				c6.5,10.5,11.6,19.5,15.4,25.8c3.4,5.7,7.3,12.3,11.4,19.3c4.1,7.1,8.5,14.5,12.8,21.9c1.4,2.4,2.9,4.9,4.3,7.3
				c7.1,12,13.7,23.1,18.7,30.8c4,6.2,6.8,10.2,7.9,10.7c1.1,0.5,2.2,1,3.4,1.4c4.7,1.6,10,2.1,15.3,1.9c1.3,0,2.7-0.1,4-0.3
				c2.9-0.3,5.8-0.8,8.5-1.4c2.9-0.6,5.6-1.4,7.9-2.3c3-1.1,5.4-2.3,6.9-3.4c0.1-0.1,0.3-0.2,0.5-0.3c0.9-0.7,1.3-1.5,1.3-2.1
				c0-2.6-1.1-7.2-3.1-13.2c-1.5-4.6-3.5-9.9-5.9-16c-0.8-2-1.6-4.1-2.5-6.2c-4.3-10.3-9.5-22.1-15.3-34.5
				c-5.1-11.1-10.7-22.7-16.5-34.2c-3.9-7.7-7.8-15.4-11.7-22.8c-3.9-7.5-7.9-14.8-11.7-21.7c-7.1-12.8-14-24.3-20.1-33.5
				c-2.2-3.3-4.2-6.3-6.2-8.9c-8.8-8.8-17.8-17-27-24.7c-0.3,0.2-0.4,0.6-0.4,1.3c0,3.2,3.5,11.5,3.3,19.8c-0.1,3.3-0.7,6.7-2.4,9.8
				C-1971.3,337.5-1974.7,339.3-1979,340.8z"/>
			<path class="st6" d="M-1543.7,1231.5c3.6-7.2,7.3-14.5,11-21.7c4.1-7.9,8.4-15.6,12.6-23.3c2.3-4.2,4.5-8.5,6.8-12.6
				c10.3-18.2,20.9-35.6,31.6-51.8c12.8-19.2,25.7-36.7,38.6-51.2c17.8-20,35.1-38.5,51.8-55.5c15.1-15.4,29.9-29.6,44.2-42.7
				c14.3-13.1,28.3-25.1,42-36.1c9.1-7.3,18.1-14.2,26.9-20.7c8.8-6.5,17.5-12.6,26.1-18.3c4.3-2.8,8.6-5.6,12.8-8.3
				c12.7-8,25.3-15.1,37.6-21.5c16.5-8.6,32.6-15.8,48.6-22c5.4-2.1,10.7-4,16-5.9c6.6-2.3,13.1-4.4,19.7-6.4c5-1.5,10-2.9,14.9-4.2
				c14.1-3.8,28.2-6.9,42.3-9.6c4.6-0.9,9.2-1.7,13.8-2.5c19.8-3.3,39.8-5.8,60.3-7.9c33-3.4,67.6-3.6,101.6-1.7
				c9.7,0.5,19.3,1.2,28.9,2.1c14.3,1.3,28.4,2.8,42,4.6c91.1,11.8,163.8,33,166.3,35c0,0,182.3,49.5,204.2,87.5
				c8.7,15.1,23.7,57.3,34.4,85l33,102.5c-14.5-62.2-37.4-144-57.8-187.4c-2.2-4.8-4.5-9.2-6.6-13c-12-20.9-77.5-47.4-133.8-67
				c-0.3-0.1-0.7-0.2-1-0.3c-5-1.7-10-3.4-14.8-5.1c-0.7-0.2-1.3-0.4-2-0.7c-4.9-1.6-9.7-3.2-14.2-4.7c-0.3-0.1-0.7-0.2-1-0.3
				c-4.5-1.5-8.9-2.9-13-4.2c-0.3-0.1-0.6-0.2-0.9-0.3c-4.1-1.3-7.9-2.5-11.4-3.6c-0.6-0.2-1.2-0.4-1.8-0.5c-3.3-1-6.3-1.9-9-2.8
				c-0.7-0.2-1.4-0.4-2-0.6c-2.5-0.8-4.8-1.4-6.7-2c-0.4-0.1-0.8-0.2-1.2-0.3c-4.4-1.3-7-2-7-2c-0.5-0.4-3.8-1.6-9.5-3.3
				c-2.9-0.9-6.3-1.8-10.3-2.9c-6-1.6-13.2-3.5-21.5-5.5c-9.7-2.4-20.8-4.9-33-7.5c-12.3-2.6-25.7-5.2-40-7.8
				c-12.2-2.2-25.1-4.2-38.5-6.1c-17.8-2.5-36.5-4.8-55.6-6.4c-9.5-0.8-19.2-1.5-28.9-2.1c-33.9-1.9-68.5-1.7-101.6,1.7
				c-22.6,2.3-44.6,5.1-66.4,8.9c-8.7,1.5-17.4,3.2-26.1,5.1c-4.3,1-8.7,2-13,3c-13,3.2-26.1,6.9-39.2,11.3
				c-13.1,4.4-26.3,9.4-39.7,15.2c-8.9,3.9-17.9,8.1-26.9,12.7c-4.5,2.3-9.1,4.7-13.6,7.2c-9.1,5-18.4,10.4-27.8,16.2
				c-9.4,5.9-18.9,12.1-28.5,18.9c-9.6,6.8-19.4,14.1-29.4,21.9c-9.9,7.8-20.1,16.1-30.4,25c-25.8,22.2-52.7,48-81.1,78
				c-11.4,12-23,24.6-34.9,38c-2.2,2.4-4.3,5-6.5,7.6c-2.9,3.6-5.8,7.2-8.7,11c-1.4,1.9-2.9,3.9-4.3,5.9c-6.5,9-12.8,18.5-19,28.6
				c-24.9,40.6-47.2,88.9-65.7,134.9c-4,9.8-7.7,19.5-11.3,29c-1.8,4.8-3.6,9.5-5.3,14.1c-5.7,15.5-10.9,30.2-15.5,43.8
				c0,0.1-0.1,0.3-0.1,0.4c2.4-1.9,4.8-3.8,7.3-5.7c3.5-8.3,7.1-16.8,11-25.5C-1564.7,1274.8-1554.5,1253.2-1543.7,1231.5z"/>
			<path class="st12" d="M-372.7,1137.1C-372.7,1137.1-372.7,1137.1-372.7,1137.1C-372.7,1137.1-372.7,1137.1-372.7,1137.1
				C-372.7,1137.1-372.7,1137.1-372.7,1137.1z"/>
			<path class="st12" d="M-372.7,1137.1C-372.7,1137.1-372.7,1137.1-372.7,1137.1C-372.7,1137.1-372.7,1137.1-372.7,1137.1
				C-372.7,1137.1-372.7,1137.1-372.7,1137.1C-372.7,1137.1-372.7,1137.1-372.7,1137.1C-372.7,1137.1-372.7,1137.1-372.7,1137.1z"/>
			<path class="st6" d="M-375.7,1124.5C-375.7,1124.5-374.7,1128.5-375.7,1124.5L-375.7,1124.5z"/>
			<path class="st6" d="M-3185.7,1397.5L-3185.7,1397.5c0-0.1,0-0.1,0-0.2c0,0,0,0,0,0C-3185.8,1397.3-3185.8,1397.4-3185.7,1397.5
				L-3185.7,1397.5z"/>
			<path class="st6" d="M-4349.3,971.4c7.6-6.9,15.3-13.9,23.2-20.7l0,0c30.3-26.5,62.8-52.6,97-76.8c25.7-18.2,52.4-35.3,79.9-50.8
				c21.1-11.9,42.7-22.7,64.7-32.5c13.6-6,27.3-11.6,41.2-16.7c12.4-4.5,24.9-8.8,37.5-12.4c19.8-5.7,39.9-10.3,60.1-13.5
				c20.2-3.3,40.6-5.2,61.2-5.7c102.2-2.3,191,19.4,267.8,56.6c11,5.3,21.7,10.9,32.2,16.8c21,11.8,41,24.8,60.1,38.8
				c9.5,7,18.9,14.2,28,21.6c31.8,26,60.8,54.6,87.3,84.8c15.1,17.3,29.3,35,42.8,53.1c3.4,4.5,6.7,9.1,9.9,13.6
				c9.8,13.7,19.1,27.5,28,41.4c8.9,13.9,17.3,27.8,25.3,41.7c64,111.3,100.8,221.2,117.5,286.6c0,0,0,0,0,0c0,0,0-0.1,0-0.1
				c0-0.1-0.1-0.3-0.1-0.4c-1.3-6.3-2.9-13.6-4.8-21.6c-1-4-2-8.2-3.1-12.6c-1.1-4.4-2.3-9-3.6-13.8c-1.7-6.4-3.6-13.1-5.7-20
				c-4.1-14.2-8.9-29.5-14.4-45.8c-2.7-8.1-5.6-16.5-8.7-25.1c-3.1-8.6-6.3-17.3-9.8-26.3c-3.4-8.9-7.1-18.1-10.9-27.3
				c-3.8-9.3-7.8-18.7-12-28.2c-8.4-19-17.6-38.5-27.6-58.2c-10-19.7-20.8-39.6-32.5-59.4c-5.8-9.9-11.9-19.8-18.2-29.7
				c-6.3-9.9-12.8-19.7-19.5-29.4c-20.2-29.3-42.4-57.9-66.8-85c-7.1-7.9-14.4-15.7-21.9-23.4c-15-15.3-30.7-30-47.3-44
				c-8.3-7-16.7-13.8-25.4-20.4c-22.3-17-45.9-32.5-70.9-46.4c-18.8-10.4-38.3-19.8-58.6-28.2c-6.8-2.8-13.7-5.4-20.6-8
				c-12.4-4.5-25-8.6-38-12.2c-19.4-5.5-39.5-9.9-60.3-13.3c-6.9-1.1-13.9-2.1-21-3c-21.2-2.7-43.1-4.2-65.8-4.5
				c-7.5-0.1-15.2-0.1-22.8,0.1c-51.2,1.2-101.6,11.9-150.4,29.3c-8.2,2.9-16.3,6-24.4,9.3c-5.5,2.2-11,4.6-16.5,7
				c-7,3.1-14,6.3-20.9,9.6c-11.8,5.6-23.4,11.6-34.9,17.9c-11.4,6.3-22.7,12.8-33.9,19.6c-11.2,6.8-22.2,13.8-33,21.1
				c-8.7,5.8-17.2,11.7-25.7,17.8c-8.4,6.1-16.8,12.2-25,18.5c-8.2,6.3-16.3,12.6-24.3,19c-8,6.4-15.8,12.9-23.6,19.5
				c-7.7,6.5-15.3,13.1-22.8,19.8l0,0c-15.5,13.8-30.5,27.7-44.8,41.5s-28,27.6-40.9,41.1c-19.5,20.3-37.3,40-53.4,58.4
				c-5.4,6.2-10.5,12.2-15.5,18c-0.5,0.5-0.9,1.1-1.3,1.6c1.6,2.3,3,4.7,4.3,7.2c15.3-17.2,32.1-35.3,50.3-54.1
				C-4393.3,1013.1-4372,992.2-4349.3,971.4z"/>
			<path class="st0" d="M-3965.2,993.5c-16.7-11.7-39.8-7.6-51.5,9.2c-11.7,16.8-7.6,39.8,9.2,51.5c16.7,11.7,39.8,7.6,51.5-9.2
				C-3944.4,1028.3-3948.5,1005.2-3965.2,993.5z"/>
			<path class="st0" d="M-354.3,983.4c-5.8-51.1-20.4-72.1-24.7-76.3c-4.2-4.1-44.2-9.2-44.2-9.2c0,0,0,0.1,0,0.1
				c-2.3-4.7-4.5-9-6.7-12.7c-5.4-9.2-21.7-19.5-43-29.7c-26.3-12.7-60.2-25.3-91.5-35.9h0c-0.3-0.1-0.7-0.2-1-0.3
				c-5-1.7-10-3.4-14.9-4.9c-0.7-0.2-1.3-0.4-2-0.6c-4.9-1.6-9.7-3.1-14.3-4.6c-0.3-0.1-0.7-0.2-1-0.3c-4.6-1.4-8.9-2.8-13.1-4.1
				c-0.3-0.1-0.6-0.2-0.9-0.3c-4.1-1.3-7.9-2.4-11.5-3.5c-0.6-0.2-1.2-0.4-1.8-0.5c-3.3-1-6.3-1.9-9.1-2.7c-0.7-0.2-1.4-0.4-2-0.6
				c-2.5-0.7-4.8-1.4-6.7-2c-0.4-0.1-0.8-0.2-1.2-0.3c-4.4-1.3-7-2-7-2c-0.9-0.7-2-1.4-2.9-2.1c0.3,0.2,0.7,0.4,1,0.6
				c-3.1-2.4-6.6-4.5-9.8-6.9c-126-93.1-286.3-155-442-195.8c-242.5-64.2-478-79.9-563.8-79.9c0,0-3.3-5.6-9.1-15.2
				c-0.1-0.1-0.1-0.2-0.2-0.3c-1.1-1.8-2.2-3.6-3.4-5.7c-0.5-0.8-1-1.6-1.5-2.4c-1-1.6-2-3.3-3.1-5.1c-1.6-2.6-3.4-5.4-5.2-8.4
				c-0.6-0.9-1.2-2-1.8-2.9c-1.4-2.3-2.9-4.6-4.4-7c-0.7-1.1-1.4-2.3-2.2-3.4c-1.6-2.5-3.1-5-4.8-7.5c-0.7-1.2-1.5-2.3-2.2-3.5
				c-1.7-2.7-3.5-5.5-5.4-8.4c-0.8-1.2-1.5-2.4-2.3-3.6c-2-3.1-4-6.2-6.1-9.4c-0.7-1.1-1.4-2.1-2.1-3.2c-2.4-3.7-4.9-7.5-7.5-11.3
				c-0.4-0.6-0.8-1.3-1.3-1.9c-6.1-9.2-12.6-18.8-19.3-28.6c-0.6-0.8-1.1-1.6-1.7-2.5c-2.8-4-5.6-8.1-8.5-12.2
				c-0.8-1.2-1.7-2.4-2.5-3.6c-2.7-3.8-5.3-7.6-8.1-11.4c-1-1.4-1.9-2.7-2.9-4.1c-2.7-3.9-5.5-7.7-8.3-11.6
				c-0.9-1.3-1.8-2.5-2.7-3.8c-3.2-4.3-6.4-8.7-9.6-13.1c-0.6-0.8-1.1-1.5-1.7-2.3c-7.8-10.5-15.8-21.1-24-31.5
				c-0.5-0.7-1.1-1.4-1.6-2c-3.4-4.4-6.9-8.8-10.4-13.1c-1.1-1.3-2.1-2.6-3.2-3.9c-3-3.7-6-7.4-9-11c-1.3-1.6-2.6-3.1-3.8-4.6
				c-2.9-3.4-5.7-6.9-8.6-10.2c-1.3-1.5-2.6-3.1-4-4.6c-2.9-3.4-5.9-6.8-8.9-10.2c-1.2-1.4-2.5-2.8-3.7-4.2
				c-3.5-3.9-6.9-7.7-10.4-11.4c-0.7-0.8-1.4-1.6-2.1-2.3c-4.2-4.6-8.5-9-12.8-13.4c-0.6-0.6-1.2-1.2-1.8-1.8
				c-3.5-3.6-7.1-7.1-10.6-10.6c-1.4-1.3-2.7-2.6-4.1-3.9c-2.8-2.7-5.6-5.3-8.4-7.9c-1.6-1.4-3.1-2.8-4.7-4.2
				c-2.6-2.3-5.2-4.6-7.8-6.8c-1.6-1.4-3.2-2.7-4.8-4.1c-2.6-2.2-5.1-4.2-7.7-6.3c-1.5-1.2-3.1-2.5-4.6-3.6c-2.7-2.1-5.5-4.1-8.2-6
				c-1.3-0.9-2.6-1.9-3.9-2.8c-4-2.8-8-5.4-11.9-7.8c-4.3-2.6-8.9-5.2-13.8-7.7c-2.1-1.1-4.1-2.1-6.2-3.2c-2.1-1-4.4-2-6.6-3.1
				c-5.8-2.6-11.8-5.2-18.1-7.7c-0.4-0.2-0.7-0.3-1.1-0.5c0.1,0.1,0.2,0.1,0.3,0.2c-40.9-16.3-306.3-92.2-628.9-92.2h-272.8
				c-439.7,0-726,147.9-759.5,159.2c-33.5,11.3-40.5,40.6-40.5,40.6s-404.7,277.3-586.8,461.6c-71.2,72.1-114.1,131.9-140.1,178.1
				c-18.8,3.4-38.4,9-47.8,18.2c-6.6,6.4-12,20-16.3,35.7c-7.4,27-11.6,60.2-13.1,73.8c-0.4,3.9,1.5,7.6,4.9,9.6c0,0,0,0,0,0h8.8
				c0,0,0,0,0,0c0.5-3.5,1.1-7.1,1.8-10.8c0.1-0.7,0.2-1.3,0.4-2c0.5-3,1.1-6,1.7-9c0.2-0.8,0.3-1.7,0.5-2.5
				c0.7-3.6,1.5-7.3,2.4-10.9c0.1-0.3,0.1-0.5,0.2-0.8c0.8-3.2,1.6-6.3,2.4-9.4c0.3-1,0.5-1.9,0.8-2.8c0.8-2.7,1.6-5.3,2.4-7.8
				c0.2-0.6,0.4-1.3,0.6-2c1-3,2.1-5.8,3.3-8.4c0.3-0.6,0.6-1.2,0.8-1.8c0.9-2,1.9-3.8,2.8-5.5c0.4-0.6,0.7-1.2,1.1-1.8
				c1.3-2,2.6-3.8,4-5.2c9.4-9.4,28.8-15.1,47.6-18.6c25.9-47.2,68.6-108.4,139.4-182c181.2-188.3,584-471.5,584-471.5
				s6.9-29.9,40.3-41.4c33.4-11.5,318.3-162.6,755.9-162.6h271.5c321.1,0,585.2,77.6,625.9,94.2c-0.1-0.1-0.2-0.1-0.3-0.2
				c0.4,0.2,0.7,0.3,1.1,0.5c6.3,2.6,12.2,5.2,18,7.9c2.2,1,4.5,2.1,6.6,3.1c2.1,1.1,4.2,2.1,6.2,3.2c4.8,2.6,9.5,5.1,13.7,7.8
				c3.9,2.5,7.9,5.2,11.9,8c1.3,0.9,2.6,1.9,3.9,2.9c2.7,2,5.4,4,8.2,6.2c1.5,1.2,3.1,2.5,4.6,3.7c2.6,2.1,5.1,4.2,7.7,6.4
				c1.6,1.4,3.2,2.8,4.8,4.2c2.6,2.3,5.2,4.6,7.7,7c1.5,1.4,3.1,2.8,4.6,4.3c2.8,2.6,5.6,5.3,8.3,8.1c1.3,1.3,2.7,2.6,4,4
				c3.5,3.5,7,7.1,10.6,10.8c0.6,0.6,1.2,1.2,1.8,1.9c4.2,4.5,8.5,9,12.7,13.7c0.7,0.8,1.4,1.6,2.1,2.4c3.5,3.8,6.9,7.7,10.4,11.7
				c1.2,1.4,2.5,2.8,3.7,4.3c2.9,3.4,5.9,6.9,8.8,10.4c1.3,1.6,2.6,3.2,3.9,4.7c2.9,3.5,5.7,6.9,8.6,10.5c1.3,1.6,2.6,3.2,3.8,4.7
				c3,3.7,6,7.5,8.9,11.2c1.1,1.3,2.1,2.7,3.2,4c3.5,4.5,6.9,8.9,10.3,13.4c0.5,0.7,1.1,1.4,1.6,2.1c8.1,10.7,16.1,21.5,23.9,32.2
				c0.6,0.8,1.1,1.6,1.7,2.4c3.2,4.5,6.4,8.9,9.5,13.3c0.9,1.3,1.8,2.6,2.7,3.9c2.8,4,5.6,7.9,8.3,11.8c1,1.4,1.9,2.8,2.9,4.2
				c2.7,3.9,5.4,7.8,8,11.7c0.8,1.2,1.7,2.5,2.5,3.7c2.9,4.2,5.7,8.4,8.4,12.5c0.6,0.8,1.1,1.7,1.7,2.5
				c6.7,10.1,13.1,19.8,19.2,29.2c0.4,0.7,0.8,1.3,1.3,2c2.5,3.9,5,7.8,7.4,11.6c0.7,1.1,1.4,2.2,2.1,3.3c2.1,3.3,4.1,6.4,6.1,9.6
				c0.8,1.2,1.5,2.5,2.3,3.7c1.8,2.9,3.6,5.8,5.3,8.5c0.7,1.2,1.5,2.4,2.2,3.6c1.6,2.6,3.2,5.2,4.8,7.7c0.7,1.2,1.5,2.4,2.2,3.5
				c1.5,2.5,2.9,4.8,4.4,7.1c0.6,1,1.2,2,1.8,3c1.8,3,3.6,5.9,5.2,8.6c1.1,1.8,2.1,3.5,3.1,5.2c0.5,0.8,1,1.7,1.5,2.5
				c1.2,2.1,2.4,4,3.4,5.8c0.1,0.1,0.1,0.2,0.2,0.3c5.8,9.8,9.1,15.5,9.1,15.5c85.4,0,319.8,16.1,561.1,81.6
				c155,41.7,314.5,105,439.8,200c3.2,2.4,6.6,4.6,9.7,7.1c-0.3-0.2-0.6-0.4-1-0.7c0.9,0.7,2,1.4,2.9,2.1c0,0,2.6,0.7,7,2
				c0.4,0.1,0.7,0.2,1.2,0.3c1.9,0.6,4.2,1.2,6.7,2c0.7,0.2,1.3,0.4,2,0.6c2.7,0.8,5.7,1.7,9,2.8c0.6,0.2,1.2,0.4,1.8,0.5
				c3.6,1.1,7.4,2.3,11.4,3.6c0.3,0.1,0.6,0.2,0.9,0.3c4.1,1.3,8.5,2.7,13,4.2c0.3,0.1,0.7,0.2,1,0.3c4.6,1.5,9.3,3.1,14.2,4.7
				c0.7,0.2,1.3,0.4,2,0.7c4.8,1.6,9.8,3.3,14.8,5.1c0.3,0.1,0.7,0.2,1,0.3c0,0,0,0,0,0c56.4,19.6,121.8,46.1,133.8,67
				c2.2,3.8,4.4,8.2,6.6,13c0,0,0-0.1,0-0.1c0,0,39.8,5.2,44,9.4c4.2,4.2,18.8,25.7,24.5,77.9c2.3,20.7,2.3,40.5,1.5,57.1l6.3-0.3
				C-357.1,1081.1-348.5,1034.5-354.3,983.4z"/>
			<path class="st0" d="M-564.2,1081.6c-28.6,11.5-42.4,44-30.9,72.5c11.5,28.6,43.9,42.4,72.5,30.9c28.6-11.5,42.4-44,30.9-72.5
				C-503.2,1084-535.6,1070.1-564.2,1081.6z"/>
			<path class="st0" d="M-2310.7,1213.6c-20.5,8.2-30.4,31.6-22.2,52.1c8.2,20.5,31.5,30.4,52,22.2c20.5-8.2,30.4-31.6,22.2-52.1
				C-2266.9,1215.3-2290.2,1205.4-2310.7,1213.6z"/>
			<path class="st6" d="M-2815.2,763.7l21.1,290.4v-889l-20.1,256.5C-2823.1,535.5-2823.5,649.8-2815.2,763.7z"/>
		</g>
	</g>
	<rect x="-4811.7" y="-1556.7" class="st13" width="15698.1" height="4029.2"/>
</g>
<g id="DESIGNED_BY_FREEPIK">
</g>
</svg>
