<?xml version="1.0" encoding="utf-8"?>
<!-- Generator: Adobe Illustrator 19.0.0, SVG Export Plug-In . SVG Version: 6.00 Build 0)  -->
<svg version="1.1" xmlns="http://www.w3.org/2000/svg" xmlns:xlink="http://www.w3.org/1999/xlink" x="0px" y="0px"
	 viewBox="0 0 16072.7 2566.6" style="enable-background:new 0 0 16072.7 2566.6;" xml:space="preserve">
<style type="text/css">
	.st0{fill:#FFFFFF;}
	.st1{fill:#1E284B;}
	.st2{font-family:'Furore';}
	.st3{font-size:1224px;}
	.st4{fill:#43B3DF;}
	.st5{fill:#0098D3;}
	.st6{fill:#D4ECF8;}
	.st7{fill:#F08C95;}
	.st8{fill:#EC7083;}
	.st9{fill:#252C5D;}
	.st10{fill:#EF8135;}
	.st11{fill:#E95F79;}
	.st12{fill:none;}
	.st13{fill:#EB6C16;}
</style>
<g id="BACKGROUND">
	<rect x="7742.2" y="1196.8" class="st0" width="500" height="500"/>
</g>
<g id="OBJECTS">
	<text transform="matrix(0.9994 0 0 1 4768.999 1805.2778)"><tspan x="0" y="0" class="st1 st2 st3">On Demand </tspan><tspan x="6450.4" y="0" class="st4 st2 st3">Car Wash</tspan></text>
	<g>
		<g>
			<g>
				<path class="st5" d="M4313.9,1198c3.9-14.1,6.2-28.8,6.2-44.1c0-84.9-64.2-154.7-146.7-163.6c23.2-73,32.7-152.1,25.2-234.3
					c-26.9-295.2-275.7-528.2-571.9-536.5c-275.7-7.7-510.3,173.5-584.1,423.7c-17.4-13.1-37.1-23.2-58.4-29.9
					c36.6-33.1,43.8-89,14.8-130.6c-31.4-45.1-93.4-56.1-138.4-24.6c-45,31.4-56.1,93.5-24.6,138.5c5.8,8.4,12.7,15.6,20.4,21.5
					c-71.1,28.2-121.5,97.6-121.5,178.8c0,1,0.1,1.9,0.1,2.8c-13.4,1.2-26.4,3.5-39.5,5.6c-114.3-84.1-252.8-136.7-402.1-144.4
					c-115-6-224.5,14.5-323.5,55.1c-30.8-65.1-96.8-110.3-173.6-110.3c-43.3,0-83.2,14.5-115.3,38.7
					c-76.4-259-325.2-444-613.4-421.7c-284,21.9-515.6,250.5-541.5,534.4c-7.5,82.2,2,161.2,25.2,234.2
					c-82.4,8.9-146.6,78.6-146.6,163.4c0,6.7,0.6,13.2,1.4,19.6l-4.3-0.3C179.9,1174,0,1354,0,1576v2.6c0,64.7,15.4,125.8,42.5,180
					c19-24.7,48.8-40.6,82.3-40.6c26.8,0,51.2,10.2,69.6,26.9c51.6-59,127.4-96.4,212-96.4c87.7,0,166.1,40.2,217.7,103.1
					c1-1,1.9-2,2.9-3c182.1-184.3,586.8-461.6,586.8-461.6s6.9-29.3,40.5-40.6c33.5-11.3,319.8-159.2,759.5-159.2h272.8
					c322.6,0,588,76,628.9,92.2c-0.1-0.1-0.2-0.1-0.3-0.2c0.4,0.2,0.7,0.3,1.1,0.5c6.3,2.5,12.3,5.1,18.1,7.7c2.2,1,4.5,2,6.6,3.1
					c2.1,1,4.2,2.1,6.2,3.2c4.8,2.5,9.5,5,13.8,7.7c3.9,2.4,7.9,5.1,11.9,7.8c1.3,0.9,2.6,1.9,3.9,2.8c2.7,2,5.5,3.9,8.2,6
					c1.5,1.2,3.1,2.4,4.6,3.6c2.6,2,5.1,4.1,7.7,6.3c1.6,1.3,3.2,2.7,4.8,4.1c2.6,2.2,5.2,4.5,7.8,6.8c1.6,1.4,3.1,2.8,4.7,4.2
					c2.8,2.6,5.6,5.2,8.4,7.9c1.4,1.3,2.7,2.6,4.1,3.9c3.5,3.4,7.1,7,10.6,10.6c0.6,0.6,1.2,1.2,1.8,1.8c4.3,4.4,8.5,8.8,12.8,13.4
					c0.7,0.8,1.4,1.6,2.1,2.3c3.5,3.8,6.9,7.6,10.4,11.4c1.2,1.4,2.5,2.8,3.7,4.2c3,3.4,5.9,6.7,8.9,10.2c1.3,1.5,2.6,3.1,4,4.6
					c2.9,3.4,5.8,6.8,8.6,10.2c1.3,1.5,2.6,3.1,3.8,4.6c3,3.6,6,7.3,9,11c1.1,1.3,2.1,2.6,3.2,3.9c3.5,4.4,6.9,8.7,10.4,13.1
					c0.5,0.7,1.1,1.4,1.6,2c8.2,10.5,16.2,21,24,31.5c0.6,0.8,1.1,1.5,1.7,2.3c3.2,4.4,6.4,8.7,9.6,13.1c0.9,1.3,1.8,2.5,2.7,3.8
					c2.8,3.9,5.6,7.7,8.3,11.6c1,1.4,1.9,2.7,2.9,4.1c2.7,3.8,5.4,7.6,8.1,11.4c0.8,1.2,1.7,2.4,2.5,3.6c2.9,4.1,5.7,8.2,8.5,12.2
					c0.6,0.8,1.1,1.7,1.7,2.5c6.7,9.8,13.2,19.4,19.3,28.6c0.4,0.7,0.8,1.3,1.3,1.9c2.6,3.8,5,7.6,7.5,11.3c0.7,1.1,1.4,2.1,2.1,3.2
					c2.1,3.2,4.1,6.3,6.1,9.4c0.8,1.2,1.6,2.4,2.3,3.6c1.8,2.9,3.6,5.6,5.4,8.4c0.7,1.2,1.5,2.4,2.2,3.5c1.7,2.6,3.2,5.1,4.8,7.5
					c0.7,1.1,1.5,2.3,2.2,3.4c1.5,2.4,3,4.7,4.4,7c0.6,1,1.2,2,1.8,2.9c1.8,2.9,3.6,5.7,5.2,8.4c1.1,1.8,2.1,3.4,3.1,5.1
					c0.5,0.8,1,1.6,1.5,2.4c1.2,2,2.4,3.9,3.4,5.7c0.1,0.1,0.1,0.2,0.2,0.3c5.8,9.6,9.1,15.2,9.1,15.2c85.8,0,321.4,15.7,563.8,79.9
					c155.7,40.8,316,102.7,442,195.8c3.2,2.4,6.6,4.5,9.8,6.9c-0.3-0.2-0.7-0.4-1-0.6c1,0.7,2,1.4,2.9,2.1c0,0,2.6,0.7,7,2
					c0.4,0.1,0.7,0.2,1.2,0.3c1.9,0.6,4.2,1.2,6.7,2c0.7,0.2,1.3,0.4,2,0.6c2.8,0.8,5.8,1.7,9.1,2.7c0.6,0.2,1.2,0.4,1.8,0.5
					c3.6,1.1,7.4,2.2,11.5,3.5c0.3,0.1,0.6,0.2,0.9,0.3c4.2,1.3,8.5,2.6,13.1,4.1c0.3,0.1,0.7,0.2,1,0.3c4.6,1.5,9.4,3,14.3,4.6
					c0.7,0.2,1.3,0.4,2,0.6c4.9,1.6,9.8,3.2,14.9,4.9c0.3,0.1,0.7,0.2,1,0.3h0c31.3,10.6,65.2,23.2,91.5,35.9
					c119.3-66.2,202.4-189.9,204.7-334.4C4673.2,1387.3,4515.6,1216.3,4313.9,1198z"/>
			</g>
			<path class="st5" d="M4217.9,474.3c29-20.3,36.1-60.2,15.9-89.2s-60.2-36.1-89.2-15.9c-29,20.3-36.1,60.2-15.9,89.2
				C4149,487.5,4188.9,494.6,4217.9,474.3z"/>
			<path class="st5" d="M446.3,618.2c67.8-47.3,84.4-140.7,37.1-208.6c-47.3-67.8-140.6-84.5-208.4-37.1
				c-67.8,47.3-84.4,140.7-37.1,208.5C285.2,649,378.5,665.6,446.3,618.2z"/>
			<path class="st5" d="M3249.5,307.4c72.9-50.9,90.8-151.3,39.9-224.3c-50.9-73-151.2-90.8-224.1-39.9
				c-72.9,50.9-90.8,151.3-39.9,224.3C3076.2,340.4,3176.5,358.3,3249.5,307.4z"/>
			<path class="st5" d="M1757,438.2c35.1-24.5,43.7-72.9,19.2-108c-24.5-35.1-72.8-43.7-108-19.2c-35.1,24.5-43.7,72.9-19.2,108
				C1673.6,454.1,1721.9,462.8,1757,438.2z"/>
			<path class="st5" d="M596.2,317.1c32.3-22.6,40.2-67.1,17.7-99.4c-22.5-32.3-67-40.2-99.3-17.7c-32.3,22.6-40.2,67.1-17.7,99.4
				C519.5,331.7,563.9,339.6,596.2,317.1z"/>
			<path class="st5" d="M2041.7,132.4c0,117.9-133.2,204-133.2,204s133.2,86.1,133.2,204l0-204v204c0-117.9,133.2-204,133.2-204
				S2041.7,250.3,2041.7,132.4z"/>
			<path class="st5" d="M4383.8,902.4c0,58.9-66.6,102-66.6,102s66.6,43,66.6,102v-102v102c0-58.9,66.6-102,66.6-102
				S4383.8,961.3,4383.8,902.4z"/>
			<path class="st5" d="M1150.5,11.6c0,37-41.8,64-41.8,64s41.8,27,41.8,64v-64v64c0-37,41.8-64,41.8-64S1150.5,48.5,1150.5,11.6z"
				/>
		</g>
		<g>
			<ellipse class="st0" cx="969" cy="1485" rx="54.2" ry="54.3"/>
			<ellipse class="st0" cx="3730.2" cy="1087.2" rx="40.7" ry="40.7"/>
			<ellipse class="st0" cx="3546.8" cy="1209.7" rx="104" ry="104.1"/>
			<path class="st0" d="M3546.8,1427.7c-31.3,0-61.1,6.3-88.3,17.4c-13.5-90.6-91.4-160.1-185.6-160.1
				c-103.8,0-187.9,84.2-187.9,188c0,103.9,84.1,188,187.9,188c14.1,0,27.7-1.7,40.9-4.6c0,1.5-0.2,3.1-0.2,4.6
				c0,128.9,104.4,233.4,233.3,233.4c128.8,0,233.3-104.5,233.3-233.4S3675.6,1427.7,3546.8,1427.7z"/>
			<path class="st0" d="M1268.3,900.2c0,58.9-66.6,102-66.6,102s66.6,43,66.6,102c0-58.9,66.6-102,66.6-102
				S1268.3,959.2,1268.3,900.2z"/>
			<path class="st0" d="M3189.5,1143.1c0-37,41.8-64,41.8-64s-41.8-27-41.8-64c0,37-41.8,64-41.8,64S3189.5,1106.1,3189.5,1143.1z"
				/>
			<ellipse class="st0" cx="555.4" cy="1490.7" rx="100.1" ry="100.2"/>
		</g>
		<g>
			<path class="st0" d="M3287.6,1746.7c3.2,5.7,5.3,11.8,6.5,18.1c0.1,0.3,0.2,0.6,0.3,0.9c-0.1-0.3-0.2-0.6-0.3-0.9
				c0.1,0.3,0.1,0.6,0.2,0.9h0.1c0.1,0.2,0.1,0.4,0.2,0.6c0.1,0.6,0.2,1.1,0.2,1.4v0c0-0.4-0.1-0.9-0.2-1.4c0-0.2-0.1-0.4-0.2-0.6
				l0,0c0,0,0,0,0,0c-0.1-0.3-0.2-0.6-0.3-0.9C3292.9,1758.5,3290.8,1752.3,3287.6,1746.7c-9.1-16.3-23.9-42.6-30.1-53.7
				c-6.5-11.5-13.7-24-21.4-37.2c7.8,13.2,14.9,25.7,21.4,37.2C3263.7,1704.1,3278.5,1730.4,3287.6,1746.7z"/>
			<path class="st0" d="M2596.7,1399.4c12,1.5,23.1,3.1,33.3,4.8C2619.8,1402.5,2608.7,1400.9,2596.7,1399.4z"/>
			<path class="st0" d="M3456.4,2195.6c12.8-19.2,25.7-36.7,38.6-51.2c17.8-20,35.1-38.5,51.8-55.5c-16.7,17-34,35.4-51.8,55.5
				C3482.1,2158.9,3469.1,2176.4,3456.4,2195.6z"/>
			<path class="st0" d="M3015.3,1342.6c-13.1-13.7-25.6-25.4-37.4-34.6c-2-1.5-3.9-3-5.8-4.4c1.9,1.4,3.8,2.8,5.8,4.4
				C2989.6,1317.2,3002.2,1328.9,3015.3,1342.6z"/>
			<path class="st0" d="M3048.9,1380.7c4.6,5.5,9.2,11.2,13.9,17.1C3058.2,1391.9,3053.5,1386.2,3048.9,1380.7
				c-6.9-8.3-13.7-16.2-20.4-23.7c-4.5-5-8.9-9.8-13.3-14.4c4.4,4.6,8.8,9.4,13.3,14.4C3035.2,1364.4,3042,1372.4,3048.9,1380.7z"/>
			<path class="st0" d="M3475.8,2132.3c2.1-2.6,4.3-5.2,6.5-7.6c11.9-13.4,23.5-26,34.9-38c-11.4,12-23,24.6-34.9,38
				C3480.1,2127.1,3478,2129.7,3475.8,2132.3z"/>
			<path class="st0" d="M3153.8,1524.2c4.5,6.8,9,13.6,13.4,20.4c2.2,3.4,4.4,6.8,6.6,10.2c-2.2-3.4-4.4-6.8-6.6-10.2
				C3162.7,1537.8,3158.3,1531,3153.8,1524.2c-4.5-6.8-9.1-13.6-13.7-20.4c-4.6-6.8-9.2-13.5-13.9-20.2c4.7,6.7,9.3,13.5,13.9,20.2
				C3144.7,1510.5,3149.2,1517.4,3153.8,1524.2z"/>
			<path class="st0" d="M3394.4,2305c3.6-7.2,7.3-14.5,11-21.7c4.1-7.9,8.4-15.6,12.6-23.3c-4.2,7.7-8.5,15.5-12.6,23.3
				C3401.7,2290.5,3398,2297.7,3394.4,2305z"/>
			<path class="st0" d="M3273.5,2443.5c0,1.8-0.3,3.5-0.7,5.2C3273.2,2447,3273.5,2445.3,3273.5,2443.5L3273.5,2443.5z"/>
			<path class="st0" d="M2204.6,1397L2204.6,1397c0.4-1.7,1.3-3.3,2.7-4.8C2205.9,1393.6,2205,1395.2,2204.6,1397z"/>
			<path class="st0" d="M4565.4,2210.5C4565.4,2210.5,4565.4,2210.5,4565.4,2210.5C4565.4,2210.5,4565.4,2210.5,4565.4,2210.5
				C4561.7,2205.5,4561.7,2205.5,4565.4,2210.5z"/>
			<path class="st0" d="M2491.8,1389.9c-45.4-3.2-96.7-6.1-152.2-9.4c-6.6-0.4-14.2-0.8-22.5-1.1c8.3,0.3,16,0.7,22.5,1.1
				C2395.2,1383.9,2446.4,1386.8,2491.8,1389.9z"/>
			<path class="st0" d="M2744.8,1648.7L2744.8,1648.7c-0.9-3.4-2-8-3.2-13.5C2742.8,1640.7,2743.9,1645.3,2744.8,1648.7z"/>
			<path class="st0" d="M2705.8,1447.4c-0.8-4.3-1.5-7.7-2-9.9c-0.5-2.4-1.6-4.6-3.2-6.8c1.6,2.1,2.7,4.4,3.2,6.8
				C2704.2,1439.7,2704.9,1443.1,2705.8,1447.4z"/>
			<path class="st0" d="M4268.7,1899.9c-2.9-0.9-6.3-1.8-10.3-2.9C4262.4,1898,4265.8,1899,4268.7,1899.9z"/>
			<path class="st0" d="M2858.3,1648.7L2858.3,1648.7c-0.5-7.6-1.8-17.6-3.5-28.8C2856.5,1631.1,2857.8,1641.1,2858.3,1648.7z"/>
			<path class="st0" d="M1171.5,1792c20.8,3.4,40.9,7.9,60.3,13.3C1212.4,1799.8,1192.3,1795.3,1171.5,1792z"/>
			<path class="st0" d="M1084.8,1784.4c22.6,0.3,44.5,1.8,65.8,4.5C1129.3,1786.3,1107.4,1784.7,1084.8,1784.4z"/>
			<path class="st0" d="M588.8,2044.8c7.6-6.9,15.3-13.9,23.2-20.7l0,0l0,0C604.1,2031,596.4,2037.9,588.8,2044.8z"/>
			<path class="st0" d="M1651.5,2191.3c10,19.7,19.2,39.1,27.6,58.2c4.2,9.5,8.2,18.9,12,28.2c-3.8-9.3-7.8-18.7-12-28.2
				C1670.7,2230.4,1661.5,2211,1651.5,2191.3c-10-19.7-20.8-39.6-32.5-59.4c-5.8-9.9-11.9-19.8-18.2-29.7
				c6.3,9.9,12.3,19.8,18.2,29.7C1630.7,2151.7,1641.5,2171.6,1651.5,2191.3z"/>
			<path class="st0" d="M1752.3,2470.5c0-0.1-0.1-0.3-0.1-0.4c-1.3-6.3-2.9-13.6-4.8-21.6c1.9,8,3.5,15.3,4.8,21.6
				C1752.2,2470.3,1752.2,2470.4,1752.3,2470.5z"/>
			<path class="st0" d="M1734.9,2402.1c2,7,3.9,13.7,5.7,20c1.3,4.8,2.5,9.4,3.6,13.8c-1.1-4.4-2.3-9-3.6-13.8
				C1738.8,2415.7,1736.9,2409.1,1734.9,2402.1c-4.1-14.2-8.9-29.5-14.4-45.8c-2.7-8.1-5.6-16.5-8.7-25.1c3.1,8.6,6,16.9,8.7,25.1
				C1726,2372.6,1730.8,2387.9,1734.9,2402.1z"/>
			<path class="st0" d="M1711.8,2331.3c-3.1-8.6-6.3-17.3-9.8-26.3c-3.4-8.9-7.1-18.1-10.9-27.3c3.8,9.3,7.4,18.4,10.9,27.3
				C1705.4,2313.9,1708.7,2322.7,1711.8,2331.3z"/>
			<path class="st0" d="M780.8,1877.3c-11.2,6.8-22.2,13.8-33,21.1c-8.7,5.8-17.2,11.7-25.7,17.8c8.4-6.1,17-12,25.7-17.8
				C758.7,1891.1,769.7,1884,780.8,1877.3z"/>
			<path class="st0" d="M626.5,1992.9L626.5,1992.9c-15.5,13.8-30.5,27.7-44.8,41.5C596,2020.6,610.9,2006.7,626.5,1992.9
				L626.5,1992.9z"/>
			<path class="st0" d="M697.2,1934.6c8.2-6.3,16.6-12.4,25-18.5C713.7,1922.2,705.4,1928.4,697.2,1934.6
				c-8.2,6.3-16.3,12.6-24.3,19c-8,6.4-15.8,12.9-23.6,19.5c7.7-6.5,15.6-13,23.6-19.5C680.8,1947.3,688.9,1940.9,697.2,1934.6z"/>
			<path class="st0" d="M3294.7,2367.1c0,10,0.1,19.7,0.2,29.2C3294.8,2386.8,3294.8,2377,3294.7,2367.1c0-10-0.1-20.1-0.1-30.5
				c-0.1-25.9-0.2-52.8-0.2-80.4c0,27.6,0.1,54.5,0.2,80.4C3294.7,2346.9,3294.7,2357.1,3294.7,2367.1z"/>
			<path class="st0" d="M1752.3,2470.8c0-0.1,0-0.1,0-0.2c0,0,0,0,0,0C1752.3,2470.7,1752.3,2470.8,1752.3,2470.8L1752.3,2470.8z"/>
			<path class="st0" d="M2417.3,1178c3,0.2,6,0.5,9,0.7C2423.3,1178.5,2420.3,1178.2,2417.3,1178c-4.5-0.4-9.1-0.7-13.7-1.1
				c-2.7-0.2-5.4-0.4-8.1-0.6c2.7,0.2,5.4,0.4,8.1,0.6C2408.2,1177.2,2412.8,1177.6,2417.3,1178z"/>
			<path class="st0" d="M2339.3,1172.5c-2.9-0.2-5.7-0.3-8.6-0.5c-3.8-0.2-7.7-0.4-11.6-0.6c3.9,0.2,7.7,0.4,11.6,0.6
				C2333.5,1172.2,2336.4,1172.4,2339.3,1172.5z"/>
			<path class="st0" d="M2376.2,1174.9c2.7,0.2,5.4,0.4,8,0.6C2381.6,1175.3,2378.9,1175.1,2376.2,1174.9
				c-5.7-0.4-11.5-0.8-17.2-1.1c-2.5-0.2-5-0.3-7.5-0.5c2.5,0.2,5,0.3,7.5,0.5C2364.7,1174.1,2370.5,1174.5,2376.2,1174.9z"/>
			<path class="st0" d="M2447.4,1180.6c3.7,0.3,7.4,0.7,11.1,1c2.5,0.2,5,0.5,7.5,0.7c5.6,0.5,11.2,1.1,16.8,1.7
				c-5.6-0.6-11.2-1.1-16.8-1.7c-2.5-0.2-5-0.5-7.5-0.7C2454.9,1181.2,2451.2,1180.9,2447.4,1180.6c-2.6-0.2-5.2-0.5-7.8-0.7
				c-4.4-0.4-8.9-0.8-13.4-1.1c4.5,0.4,8.9,0.8,13.4,1.1C2442.2,1180.1,2444.8,1180.3,2447.4,1180.6z"/>
			<path class="st0" d="M2252,1168.5c4.1,0.1,8.2,0.3,12.2,0.4c3,0.1,6,0.2,8.9,0.3c3.9,0.2,7.8,0.3,11.7,0.5
				c-3.9-0.2-7.8-0.3-11.7-0.5c-3-0.1-6-0.2-8.9-0.3C2260.2,1168.8,2256.1,1168.7,2252,1168.5c-2.6-0.1-5.1-0.2-7.7-0.3
				c-6.1-0.2-12.2-0.4-18.3-0.5c6.1,0.2,12.2,0.3,18.3,0.5C2246.9,1168.4,2249.4,1168.4,2252,1168.5z"/>
			<path class="st0" d="M2205.6,1167.3c-3-0.1-5.9-0.1-8.9-0.2c-4.6-0.1-9.3-0.1-13.9-0.2c4.6,0.1,9.3,0.1,13.9,0.2
				C2199.7,1167.2,2202.6,1167.2,2205.6,1167.3z"/>
			<path class="st0" d="M2500.9,1185.8c-3.9-0.4-7.9-0.8-11.8-1.2c-2.1-0.2-4.1-0.4-6.2-0.6c2.1,0.2,4.1,0.4,6.2,0.6
				C2493,1185,2497,1185.4,2500.9,1185.8z"/>
			<path class="st0" d="M2226,1167.8c-2.9-0.1-5.7-0.1-8.6-0.2c-3.9-0.1-7.9-0.2-11.8-0.3c3.9,0.1,7.9,0.2,11.8,0.3
				C2220.2,1167.6,2223.1,1167.7,2226,1167.8z"/>
			<path class="st0" d="M2737,1221.4c-4.4-0.9-8.9-1.8-13.5-2.7c-1.4-0.3-2.8-0.5-4.2-0.8c1.4,0.3,2.8,0.5,4.2,0.8
				C2728.1,1219.6,2732.6,1220.5,2737,1221.4z"/>
			<path class="st0" d="M2172.2,1166.8c3.5,0,7,0.1,10.6,0.1C2179.3,1166.9,2175.8,1166.8,2172.2,1166.8c-4.8-0.1-9.6-0.1-14.5-0.1
				c-3,0-5.9,0-8.9,0c3,0,5.9,0,8.9,0C2162.6,1166.7,2167.4,1166.7,2172.2,1166.8z"/>
			<path class="st0" d="M2692.8,1212.9c-1.3-0.2-2.5-0.5-3.8-0.7c-4.8-0.9-9.6-1.7-14.4-2.5c4.9,0.8,9.7,1.7,14.4,2.5
				C2690.3,1212.5,2691.6,1212.7,2692.8,1212.9z"/>
			<path class="st0" d="M2669.3,1208.8c1.8,0.3,3.5,0.6,5.3,0.9C2672.9,1209.4,2671.1,1209.1,2669.3,1208.8
				c-3.4-0.6-6.9-1.2-10.4-1.7c-1.9-0.3-3.8-0.6-5.7-0.9c1.9,0.3,3.8,0.6,5.7,0.9C2662.4,1207.7,2665.9,1208.2,2669.3,1208.8z"/>
			<path class="st0" d="M2750.9,1224.3c-3.3-0.7-6.5-1.4-9.8-2.1c-1.3-0.3-2.7-0.6-4-0.8c1.3,0.3,2.7,0.6,4,0.8
				C2744.3,1222.9,2747.6,1223.6,2750.9,1224.3z"/>
			<path class="st0" d="M2519.6,1187.9c-3.7-0.4-7.4-0.8-11.2-1.2c-2.5-0.3-5-0.5-7.5-0.8c2.5,0.3,5,0.5,7.5,0.8
				C2512.2,1187,2515.9,1187.5,2519.6,1187.9z"/>
			<path class="st0" d="M2542.5,1190.5c-5.4-0.6-10.8-1.3-16.3-1.9c-2.2-0.3-4.4-0.5-6.6-0.7c2.2,0.2,4.4,0.5,6.6,0.7
				C2531.6,1189.3,2537.1,1189.9,2542.5,1190.5z"/>
			<path class="st0" d="M2635.6,1203.3c1.6,0.2,3.2,0.5,4.7,0.7C2638.7,1203.8,2637.1,1203.6,2635.6,1203.3c-4.4-0.7-8.8-1.4-13.3-2
				c-2-0.3-4.1-0.6-6.1-0.9c2,0.3,4.1,0.6,6.1,0.9C2626.7,1202,2631.2,1202.6,2635.6,1203.3z"/>
			<path class="st0" d="M2599.3,1198c-5.2-0.7-10.4-1.5-15.7-2.2c-1.7-0.2-3.3-0.4-5-0.7c1.7,0.2,3.3,0.4,5,0.7
				C2588.9,1196.5,2594.1,1197.2,2599.3,1198z"/>
			<path class="st0" d="M2128.2,1166.6c2.9,0,5.8,0,8.7,0c4,0,8,0,12,0c-4,0-8,0-12,0C2134,1166.6,2131.1,1166.6,2128.2,1166.6
				c-6.2,0-12.5,0-18.7,0.1c-16,0.1-32.1,0.4-48.2,0.8c16.1-0.4,32.2-0.6,48.2-0.8C2115.7,1166.7,2122,1166.6,2128.2,1166.6z"/>
			<path class="st0" d="M2781.2,1231.1c1.3,0.3,2.5,0.6,3.7,0.9C2783.7,1231.7,2782.4,1231.4,2781.2,1231.1c-4.1-1-8.3-1.9-12.5-2.9
				c-0.9-0.2-1.8-0.4-2.6-0.6c0.9,0.2,1.8,0.4,2.6,0.6C2772.9,1229.2,2777.1,1230.1,2781.2,1231.1z"/>
			<path class="st0" d="M4324.8,2439.7c0,17.6-1.8,34.9-5.1,51.5C4323.1,2474.6,4324.8,2457.3,4324.8,2439.7
				c0-143.3-116.1-259.5-259.3-259.5c-16.8,0-33.2,1.6-49.1,4.6c15.9-3,32.3-4.6,49.1-4.6
				C4208.8,2180.3,4324.8,2296.4,4324.8,2439.7z"/>
			<path class="st0" d="M928.8,1673.4c5.6-5.7,11.2-11.4,16.7-16.9c3.8-3.9,7.5-7.5,11.3-11.3c-3.8,3.8-7.5,7.4-11.3,11.3
				C940.1,1662,934.4,1667.7,928.8,1673.4z"/>
			<path class="st0" d="M3094.5,1439.2c10.6,14.4,21.2,29.2,31.7,44.3C3115.7,1468.4,3105.1,1453.6,3094.5,1439.2z"/>
			<path class="st0" d="M2961.1,1296.5C2961.1,1296.5,2961.1,1296.5,2961.1,1296.5c3.6,2.1,7.2,4.5,11,7.2
				C2968.3,1300.9,2964.7,1298.6,2961.1,1296.5z"/>
			<path class="st0" d="M895.8,1707c1.5-1.6,3.1-3.2,4.6-4.7c6.2-6.3,12.4-12.7,18.4-18.8c-6.1,6.2-12.2,12.5-18.4,18.8
				C898.9,1703.9,897.4,1705.4,895.8,1707z"/>
			<path class="st0" d="M1614.1,1458.7c-12,4.7-24,9.6-36,14.4C1590.1,1468.3,1602.1,1463.4,1614.1,1458.7
				c145.9-56.7,310.8-89.2,468.5-83.5v0C1924.9,1369.5,1760,1402,1614.1,1458.7z"/>
			<path class="st0" d="M3294.3,1766.2c0,0.1,0,0.1,0,0.2c0,0,0.1-0.1,0.1-0.1C3294.5,1766.2,3294.4,1766.2,3294.3,1766.2z"/>
			<path class="st0" d="M3294.3,2206.1c0-16.9,0-33.8,0-50.8l0,0C3294.3,2172.2,3294.3,2189.2,3294.3,2206.1z"/>
			<path class="st0" d="M2865.1,1504.4L2865.1,1504.4c0-0.6,0.3-0.9,0.8-0.7C2865.5,1503.5,2865.2,1503.8,2865.1,1504.4z"/>
			<path class="st0" d="M3078.6,1564.6c2.4,6,4.4,11.4,5.9,16C3083,1576,3081,1570.6,3078.6,1564.6z"/>
			<path class="st0" d="M3086.2,1595.9c0.9-0.7,1.3-1.5,1.3-2.1c0-2.6-1.1-7.2-3.1-13.2c2,6.1,3.1,10.6,3.1,13.2
				C3087.6,1594.4,3087.1,1595.2,3086.2,1595.9z"/>
			<path class="st0" d="M2927.1,1422.2c1.1-0.6,3.5-1.3,6.7-2C2930.6,1421,2928.1,1421.6,2927.1,1422.2z"/>
			<path class="st0" d="M2810.1,1238.2c3.7,1,7.4,2,11,2.9C2817.5,1240.2,2813.8,1239.2,2810.1,1238.2c-0.2-0.1-0.5-0.1-0.7-0.2
				c-3.8-1-7.7-2-11.6-2.9c3.9,1,7.8,1.9,11.6,2.9C2809.6,1238.1,2809.8,1238.2,2810.1,1238.2z"/>
			<path class="st0" d="M1713.1,1196.9c32.1-5,64.7-9.3,97.6-13C1777.8,1187.6,1745.3,1191.9,1713.1,1196.9z"/>
			<path class="st0" d="M1626.1,1240c-13.7,3.8-27.5,8-41.4,12.4C1598.6,1247.9,1612.4,1243.8,1626.1,1240
				c13.7-3.9,27.4-7.4,41-10.7c3-0.7,5.9-1.3,8.9-2c-3,0.7-5.9,1.2-8.9,2C1653.5,1232.5,1639.9,1236.1,1626.1,1240z"/>
			<path class="st0" d="M2094.3,1183.9c14.3-0.3,28.6-0.5,42.9-0.7c0,0,0.1,0,0.1,0c0,0-0.1,0-0.1,0
				C2123,1183.3,2108.7,1183.5,2094.3,1183.9z"/>
			<path class="st0" d="M2835.8,1245.3c3.5,1,7,2.1,10.5,3.1c0.6,0.2,1.2,0.4,1.8,0.6c2.8,0.9,5.6,1.7,8.4,2.6c1,0.3,2,0.6,3,1
				c2.6,0.8,5.1,1.6,7.5,2.5c-2.5-0.8-5-1.7-7.5-2.5c-1-0.3-2-0.6-3-1c-2.7-0.9-5.5-1.7-8.4-2.6c-0.6-0.2-1.2-0.4-1.8-0.6
				C2842.9,1247.3,2839.4,1246.3,2835.8,1245.3c-1-0.3-2-0.6-3-0.9c-2.7-0.8-5.5-1.5-8.3-2.3c2.8,0.8,5.5,1.5,8.3,2.3
				C2833.8,1244.7,2834.8,1245,2835.8,1245.3z"/>
			<path class="st0" d="M2887.1,1262.1c0.8,0.3,1.7,0.6,2.5,1C2888.8,1262.8,2887.9,1262.4,2887.1,1262.1c-2.2-0.8-4.4-1.7-6.7-2.5
				c-0.7-0.2-1.3-0.5-2-0.7c0.7,0.2,1.4,0.5,2,0.7C2882.6,1260.4,2884.9,1261.3,2887.1,1262.1z"/>
			<path class="st0" d="M2897.7,1266.3c-0.4-0.2-0.9-0.3-1.3-0.5c-2.2-0.9-4.5-1.8-6.8-2.7c2.3,0.9,4.6,1.8,6.8,2.7
				C2896.9,1266,2897.3,1266.1,2897.7,1266.3z"/>
			<path class="st0" d="M2967.9,1408.8c1.7-3.1,2.3-6.4,2.4-9.8C2970.3,1402.4,2969.6,1405.7,2967.9,1408.8
				c-1.2,2.1-4.5,3.9-8.8,5.4C2963.4,1412.7,2966.7,1410.9,2967.9,1408.8z"/>
			<path class="st6" d="M2923.6,1207.5c54.2,34.1,113.8,99.8,165.4,165.6c19.9,25.3,38.5,50.7,55.3,74.4
				c13.4,18.9,25.6,36.7,36.1,52.5c26.4,39.5,42.6,66.3,42.6,66.3s17,30.5,33.5,31.2c-0.1-0.1-0.1-0.2-0.2-0.3
				c-1.1-1.8-2.2-3.7-3.4-5.8c-0.5-0.8-1-1.7-1.5-2.5c-1-1.7-2-3.3-3.1-5.2c-1.6-2.7-3.4-5.6-5.2-8.6c-0.6-1-1.2-2-1.8-3
				c-1.4-2.3-2.8-4.7-4.4-7.1c-0.7-1.1-1.4-2.3-2.2-3.5c-1.5-2.5-3.1-5.1-4.8-7.7c-0.7-1.2-1.5-2.4-2.2-3.6
				c-1.7-2.8-3.5-5.6-5.3-8.5c-0.8-1.2-1.5-2.4-2.3-3.7c-2-3.1-4-6.3-6.1-9.6c-0.7-1.1-1.4-2.2-2.1-3.3c-2.4-3.8-4.9-7.6-7.4-11.6
				c-0.4-0.7-0.8-1.3-1.3-2c-6.1-9.4-12.5-19.2-19.2-29.2c-0.6-0.8-1.1-1.7-1.7-2.5c-2.8-4.1-5.6-8.3-8.4-12.5
				c-0.8-1.2-1.7-2.5-2.5-3.7c-2.6-3.9-5.3-7.8-8-11.7c-1-1.4-1.9-2.8-2.9-4.2c-2.7-3.9-5.5-7.9-8.3-11.8c-0.9-1.3-1.8-2.6-2.7-3.9
				c-3.1-4.4-6.3-8.9-9.5-13.3c-0.6-0.8-1.1-1.6-1.7-2.4c-7.8-10.7-15.7-21.5-23.9-32.2c-0.5-0.7-1.1-1.4-1.6-2.1
				c-3.4-4.5-6.9-9-10.3-13.4c-1.1-1.3-2.1-2.7-3.2-4c-3-3.8-5.9-7.5-8.9-11.2c-1.3-1.6-2.5-3.2-3.8-4.7c-2.9-3.5-5.7-7-8.6-10.5
				c-1.3-1.6-2.6-3.2-3.9-4.7c-2.9-3.5-5.9-6.9-8.8-10.4c-1.2-1.4-2.4-2.9-3.7-4.3c-3.4-4-6.9-7.9-10.4-11.7
				c-0.7-0.8-1.4-1.6-2.1-2.4c-4.2-4.7-8.5-9.2-12.7-13.7c-0.6-0.6-1.2-1.2-1.8-1.9c-3.5-3.7-7-7.3-10.6-10.8c-1.3-1.3-2.7-2.6-4-4
				c-2.8-2.7-5.6-5.4-8.3-8.1c-1.6-1.5-3.1-2.9-4.6-4.3c-2.6-2.4-5.2-4.7-7.7-7c-1.6-1.4-3.2-2.8-4.8-4.2c-2.6-2.2-5.1-4.3-7.7-6.4
				c-1.5-1.3-3.1-2.5-4.6-3.7c-2.7-2.2-5.4-4.2-8.2-6.2c-1.3-1-2.6-2-3.9-2.9c-4-2.8-7.9-5.5-11.9-8c-4.2-2.7-8.9-5.3-13.7-7.8
				c-2-1.1-4.1-2.2-6.2-3.2c-2.1-1.1-4.4-2.1-6.6-3.1c-5.7-2.7-11.7-5.3-18-7.9c-0.2-0.1-0.5-0.2-0.8-0.3
				C2916.6,1203.4,2920.3,1205.4,2923.6,1207.5z"/>
			<path class="st6" d="M2870.6,1261.6c3.6,1,7,2.1,10.5,3.1c0.6,0.2,1.2,0.4,1.8,0.6c2.8,0.9,5.6,1.7,8.4,2.6c1,0.3,2,0.6,3,1
				c2.6,0.8,5.1,1.6,7.5,2.5c0.7,0.2,1.5,0.5,2.2,0.7c3.1,1,6.1,2.1,9,3.1c0.7,0.3,1.4,0.5,2,0.7c2.3,0.8,4.5,1.7,6.7,2.5
				c0.8,0.3,1.7,0.6,2.5,1c1,0.4,1.9,0.8,2.9,1.1c-2.1-1.3-4.2-2.6-6.3-3.6c-2.1-1.1-4.2-2.1-6.4-3.2c-0.6-0.3-1.3-0.6-2-0.9
				c-1.7-0.8-3.5-1.6-5.4-2.5c-0.6-0.3-1.3-0.6-1.9-0.9c-2.4-1.1-4.9-2.1-7.5-3.2c-0.4-0.2-0.9-0.3-1.3-0.5
				c-2.2-0.9-4.5-1.8-6.8-2.7c-0.8-0.3-1.7-0.6-2.5-1c-2.2-0.8-4.4-1.7-6.8-2.5c-0.7-0.2-1.3-0.5-2-0.7c-2.9-1.1-6-2.1-9-3.1
				c-0.7-0.2-1.5-0.5-2.2-0.7c-2.5-0.8-5-1.7-7.5-2.5c-1-0.3-2-0.6-3-1c-2.7-0.9-5.5-1.7-8.4-2.6c-0.6-0.2-1.2-0.4-1.8-0.6
				c-3.4-1-6.9-2.1-10.5-3.1c-1-0.3-2-0.6-3-0.9c-2.7-0.8-5.5-1.5-8.3-2.3c-1.1-0.3-2.3-0.6-3.4-0.9c-3.6-1-7.3-2-11-2.9
				c-0.2-0.1-0.5-0.1-0.7-0.2c-3.8-1-7.7-2-11.6-2.9c-1.2-0.3-2.5-0.6-3.8-0.9c-3-0.7-6-1.5-9.1-2.2c-1.2-0.3-2.5-0.6-3.7-0.9
				c-4.1-1-8.3-1.9-12.5-2.9c-0.9-0.2-1.8-0.4-2.6-0.6c-3.5-0.8-7-1.6-10.6-2.3c-1.5-0.3-3-0.7-4.6-1c-3.3-0.7-6.5-1.4-9.8-2.1
				c-1.3-0.3-2.7-0.6-4-0.8c-4.4-0.9-8.9-1.8-13.5-2.7c-1.4-0.3-2.8-0.5-4.2-0.8c-3.4-0.7-6.8-1.3-10.3-2c-1.7-0.3-3.4-0.6-5.1-1
				c-3.7-0.7-7.3-1.4-11.1-2c-1.3-0.2-2.5-0.5-3.8-0.7c-4.8-0.9-9.6-1.7-14.4-2.5c-1.7-0.3-3.5-0.6-5.3-0.9
				c-3.4-0.6-6.9-1.2-10.4-1.7c-1.9-0.3-3.8-0.6-5.7-0.9c-4.3-0.7-8.6-1.4-13-2.1c-1.6-0.2-3.2-0.5-4.7-0.7c-4.4-0.7-8.8-1.4-13.3-2
				c-2-0.3-4.1-0.6-6.1-0.9c-3.5-0.5-7.1-1-10.7-1.6c-2-0.3-4.1-0.6-6.1-0.9c-5.2-0.7-10.4-1.5-15.7-2.2c-1.7-0.2-3.3-0.4-5-0.7
				c-4-0.5-7.9-1-11.9-1.6c-2.3-0.3-4.5-0.6-6.8-0.9c-3.7-0.5-7.4-0.9-11.1-1.4c-2.1-0.3-4.2-0.5-6.3-0.8
				c-5.4-0.6-10.8-1.3-16.3-1.9c-2.2-0.3-4.4-0.5-6.6-0.7c-3.7-0.4-7.4-0.8-11.2-1.2c-2.5-0.3-5-0.5-7.5-0.8
				c-3.9-0.4-7.9-0.8-11.8-1.2c-2.1-0.2-4.1-0.4-6.2-0.6c-5.6-0.6-11.2-1.1-16.8-1.7c-2.5-0.2-5-0.5-7.5-0.7
				c-3.7-0.3-7.4-0.7-11.1-1c-2.6-0.2-5.2-0.5-7.8-0.7c-4.4-0.4-8.9-0.8-13.4-1.1c-3-0.2-6-0.5-9-0.7c-4.5-0.4-9.1-0.7-13.7-1.1
				c-2.7-0.2-5.4-0.4-8.1-0.6c-3.8-0.3-7.5-0.6-11.3-0.8c-2.7-0.2-5.4-0.4-8-0.6c-5.7-0.4-11.5-0.8-17.2-1.1c-2.5-0.2-5-0.3-7.5-0.5
				c-4.1-0.2-8.1-0.5-12.2-0.7c-2.9-0.2-5.7-0.3-8.6-0.5c-3.8-0.2-7.7-0.4-11.6-0.6c-2.7-0.1-5.4-0.3-8.1-0.4
				c-6-0.3-11.9-0.6-17.9-0.9c-2.7-0.1-5.4-0.2-8.1-0.3c-3.9-0.2-7.8-0.3-11.7-0.5c-3-0.1-6-0.2-8.9-0.3c-4.1-0.1-8.2-0.3-12.2-0.4
				c-2.6-0.1-5.1-0.2-7.7-0.3c-6.1-0.2-12.2-0.4-18.3-0.5c-2.9-0.1-5.7-0.1-8.6-0.2c-3.9-0.1-7.9-0.2-11.8-0.3
				c-3-0.1-5.9-0.1-8.9-0.2c-4.6-0.1-9.3-0.1-13.9-0.2c-3.5,0-7-0.1-10.6-0.1c-4.8-0.1-9.6-0.1-14.5-0.1c-3,0-5.9,0-8.9,0
				c-4,0-8,0-12,0c-2.9,0-5.8,0-8.7,0c-6.2,0-12.5,0-18.7,0.1c-16,0.1-32.1,0.4-48.2,0.8c-16.6,0.4-33.3,0.9-49.9,1.5
				c-18.3,0.7-36.5,1.6-54.8,2.6c-32.2,1.8-64.4,4.2-96.4,7.2c-16.5,1.5-33,3.2-49.5,5c-32.8,3.7-65.4,8-97.6,13
				c-13.3,2.1-26.6,4.5-39.9,7.2c-39.9,8.2-80,19.4-120.1,33.1c-40.1,13.8-80.3,30.2-120.3,49c-22.7,10.6-45.3,22-67.9,34.1
				c-22.6,12.1-45.1,24.9-67.5,38.3c-13,7.8-26,15.7-39,23.9c-21.2,13.3-42.2,27.1-63.2,41.5c-26,17.8-51.8,36.4-77.3,55.6
				c-12.8,9.6-25.5,19.4-38.2,29.3c-4.9,3.9-10.2,8.2-15.7,13.1c-5.5,4.8-11.4,10.1-17.5,15.8c-3.1,2.9-6.2,5.8-9.4,8.9
				c-49.5,47.6-114.6,119.7-185.4,198.6c-4.3,4.8-8.6,9.6-13,14.5c-48.4,54-99.1,110.7-149,164.6h0c8.2-8.8,16.5-17.7,24.8-26.7
				c20.4-21.9,41.2-44.1,61.9-66c0.9-0.9,1.7-1.8,2.6-2.7c8.9-9.4,17.7-18.8,26.6-28.1c1.1-1.2,2.2-2.3,3.3-3.5
				c8.6-9,17.2-18,25.7-27c1.5-1.6,3-3.1,4.5-4.7c7.4-7.7,14.7-15.4,22-23c0.7-0.7,1.3-1.3,2-2c2.5-2.6,5-5.1,7.5-7.7
				c6.9-7.2,13.8-14.3,20.6-21.3c1.5-1.6,3-3.1,4.5-4.6c1.5-1.6,3.1-3.2,4.6-4.7c6.2-6.3,12.4-12.7,18.4-18.8
				c3.4-3.4,6.6-6.7,10-10.1c5.6-5.7,11.2-11.4,16.7-16.9c3.8-3.9,7.5-7.5,11.3-11.3c4.8-4.8,9.7-9.7,14.4-14.4
				c3.9-3.9,7.7-7.5,11.5-11.3c4.4-4.3,8.8-8.7,13.1-12.8c3.9-3.8,7.6-7.3,11.5-11c3.9-3.8,7.9-7.7,11.7-11.3
				c4-3.8,7.8-7.3,11.7-10.9c3.3-3.1,6.8-6.4,10-9.4c3.9-3.6,7.5-6.8,11.2-10.1c2.9-2.6,6-5.5,8.8-8c4-3.5,7.6-6.6,11.3-9.8
				c2.2-1.9,4.6-4,6.7-5.8c5.7-4.8,11-9.2,16-13c17.4-13.6,35.1-27,53-39.9c125.3-90.6,261.7-163.4,395.6-211.1
				c13.9-5,27.8-9.7,41.6-14.1c13.8-4.4,27.6-8.6,41.4-12.4c13.7-3.9,27.4-7.4,41-10.7c3-0.7,5.9-1.3,8.9-2
				c24.2-5.6,48.2-10.4,71.8-14.1c9.1-1.4,18.3-2.7,27.5-4c17.6-2.5,35.4-4.8,53.2-7c5.6-0.7,11.2-1.4,16.8-2.1
				c62.9-7,126.8-11.7,190.5-14.4c2.8-0.1,5.7-0.3,8.5-0.4c11.9-0.5,23.9-0.8,35.8-1.1c4.7-0.1,9.4-0.3,14.1-0.4
				c14.3-0.3,28.6-0.5,42.9-0.7c0,0,0.1,0,0.1,0c2.2,0,4.4-0.1,6.7-0.1v0c0.1,0,0.1,0,0.2,0c6.2-0.1,12.5-0.1,18.7-0.1
				c2.9,0,5.8,0,8.7,0c4,0,8,0,12,0c3,0,5.9,0,8.9,0c4.8,0,9.6,0.1,14.5,0.1c3.5,0,7,0.1,10.6,0.1c4.6,0.1,9.3,0.1,13.9,0.2
				c3,0.1,5.9,0.1,8.9,0.2c3.9,0.1,7.9,0.2,11.8,0.3c2.9,0.1,5.7,0.1,8.6,0.2c6.1,0.2,12.2,0.3,18.3,0.5c2.6,0.1,5.1,0.2,7.7,0.3
				c4.1,0.1,8.2,0.3,12.2,0.4c3,0.1,6,0.2,8.9,0.3c3.9,0.2,7.8,0.3,11.7,0.5c2.7,0.1,5.4,0.2,8.1,0.4c6,0.3,12,0.6,17.9,0.9
				c2.7,0.1,5.4,0.3,8.1,0.4c3.9,0.2,7.7,0.4,11.6,0.6c2.9,0.2,5.7,0.3,8.6,0.5c4.1,0.2,8.1,0.5,12.2,0.7c2.5,0.2,5,0.3,7.5,0.5
				c5.8,0.4,11.5,0.8,17.2,1.1c2.7,0.2,5.4,0.4,8,0.6c3.8,0.3,7.6,0.5,11.3,0.8c2.7,0.2,5.4,0.4,8.1,0.6c4.6,0.3,9.1,0.7,13.7,1.1
				c3,0.2,6,0.5,9,0.7c4.5,0.4,8.9,0.8,13.4,1.1c2.6,0.2,5.2,0.5,7.8,0.7c3.7,0.3,7.4,0.7,11.1,1c2.5,0.2,5,0.5,7.5,0.7
				c5.6,0.5,11.2,1.1,16.8,1.7c2.1,0.2,4.1,0.4,6.2,0.6c4,0.4,7.9,0.8,11.8,1.2c2.5,0.3,5,0.5,7.5,0.8c3.7,0.4,7.5,0.8,11.2,1.3
				c2.2,0.2,4.4,0.5,6.6,0.7c5.5,0.6,10.9,1.3,16.3,1.9c2.1,0.3,4.2,0.5,6.3,0.8c3.7,0.5,7.4,0.9,11.1,1.4c2.3,0.3,4.6,0.6,6.8,0.9
				c4,0.5,8,1,11.9,1.6c1.7,0.2,3.3,0.4,5,0.7c5.3,0.7,10.5,1.4,15.7,2.2c2,0.3,4.1,0.6,6.1,0.9c3.6,0.5,7.1,1,10.7,1.5
				c2,0.3,4.1,0.6,6.1,0.9c4.5,0.7,8.9,1.3,13.3,2c1.6,0.2,3.2,0.5,4.7,0.7c4.4,0.7,8.7,1.4,13,2.1c1.9,0.3,3.8,0.6,5.7,0.9
				c3.5,0.6,6.9,1.2,10.4,1.7c1.8,0.3,3.5,0.6,5.3,0.9c4.9,0.8,9.7,1.7,14.4,2.5c1.3,0.2,2.5,0.5,3.8,0.7c3.7,0.7,7.4,1.3,11.1,2
				c1.7,0.3,3.4,0.6,5.1,1c3.5,0.7,6.9,1.3,10.3,2c1.4,0.3,2.8,0.5,4.2,0.8c4.6,0.9,9,1.8,13.5,2.7c1.3,0.3,2.7,0.6,4,0.8
				c3.3,0.7,6.6,1.4,9.8,2.1c1.5,0.3,3,0.7,4.6,1c3.6,0.8,7.1,1.6,10.6,2.3c0.9,0.2,1.8,0.4,2.6,0.6c4.2,1,8.4,1.9,12.5,2.9
				c1.3,0.3,2.5,0.6,3.7,0.9c3.1,0.7,6.1,1.5,9.1,2.2c1.3,0.3,2.5,0.6,3.8,0.9c3.9,1,7.8,1.9,11.6,2.9c0.2,0.1,0.5,0.1,0.7,0.2
				c3.7,1,7.4,2,11,2.9c1.2,0.3,2.3,0.6,3.4,0.9c2.8,0.8,5.5,1.5,8.3,2.3C2868.5,1261.1,2869.6,1261.4,2870.6,1261.6z"/>
			<path class="st7" d="M3294.1,1764.8C3294.1,1764.8,3294.1,1764.8,3294.1,1764.8c0.1,0.3,0.2,0.6,0.3,0.9
				C3294.3,1765.4,3294.2,1765.1,3294.1,1764.8z"/>
			<path class="st7" d="M3294.4,1766.4c0.1,0.6,0.3,1.2,0.3,1.8c0-0.2,0-0.3,0-0.5c0-0.4-0.1-0.9-0.2-1.4
				C3294.5,1766.3,3294.4,1766.3,3294.4,1766.4z"/>
			<path class="st8" d="M3294.3,1765.6h-0.1c0,0.2,0.1,0.4,0.1,0.5c0,0,0.1,0,0.1,0C3294.5,1766.1,3294.4,1765.8,3294.3,1765.6z"/>
			<path class="st9" d="M3826.6,1694.6c156.8,42.6,316.2,106.3,439.8,200C4141.1,1799.6,3981.6,1736.3,3826.6,1694.6z"/>
			<path class="st9" d="M3361.6,2355.8c1.7-4.6,3.5-9.3,5.3-14.1c3.6-9.5,7.4-19.2,11.3-29c18.5-46,40.8-94.3,65.7-134.9
				c6.2-10.1,12.5-19.7,19-28.6c1.4-2,2.9-3.9,4.3-5.9c2.9-3.8,5.8-7.5,8.7-11c2.1-2.6,4.3-5.2,6.5-7.6c11.9-13.4,23.5-26,34.9-38
				c28.5-30,55.4-55.7,81.1-78c10.3-8.9,20.4-17.2,30.4-25c9.9-7.8,19.7-15.1,29.4-21.9c9.6-6.8,19.1-13.1,28.5-18.9
				c9.4-5.9,18.6-11.3,27.8-16.2c4.6-2.5,9.1-4.9,13.6-7.2c9.1-4.6,18-8.8,26.9-12.7c13.3-5.8,26.5-10.8,39.7-15.2
				c13.1-4.4,26.2-8.1,39.2-11.3c4.3-1.1,8.7-2.1,13-3c8.7-1.9,17.4-3.6,26.1-5.1c21.8-3.8,43.9-6.6,66.4-8.9
				c33-3.4,67.6-3.6,101.6-1.7c9.7,0.5,19.3,1.2,28.9,2.1c19.1,1.7,37.7,3.9,55.6,6.4c13.4,1.9,26.3,4,38.5,6.1
				c14.3,2.5,27.7,5.2,40,7.8c12.3,2.6,23.4,5.2,33,7.5c8.3,2,15.5,3.9,21.5,5.5c4,1.1,7.5,2.1,10.3,2.9c5.7,1.7,9,2.9,9.5,3.3
				c-0.9-0.7-2-1.4-2.9-2.1c0,0,0,0,0,0c-306-218.3-812.5-265.8-1001-272.1c-2.2-4.5-7-12-8.7-15.9l0,0c0,0-3.3-5.7-9.1-15.5
				c-16.5-0.7-33.5-31.2-33.5-31.2s-16.2-26.8-42.6-66.3c-10.5-15.8-22.7-33.6-36.1-52.5c-16.8-23.6-35.4-49-55.3-74.4
				c-51.6-65.9-111.2-131.5-165.4-165.6c-3.3-2.1-7-4-10.6-6c0.2,0.1,0.5,0.2,0.8,0.3c-0.4-0.2-0.7-0.3-1.1-0.5
				c0.1,0.1,0.2,0.1,0.3,0.2c-40.7-16.6-304.8-94.2-625.9-94.2h-271.5c-437.6,0-722.5,151.1-755.9,162.6
				c-33.4,11.5-40.3,41.4-40.3,41.4s-402.7,283.2-584,471.5c-70.9,73.6-113.6,134.7-139.4,182c-18.8,3.5-38.2,9.2-47.6,18.6
				c-1.4,1.4-2.7,3.2-4,5.2c-0.4,0.6-0.7,1.2-1.1,1.8c-1,1.7-1.9,3.5-2.8,5.5c-0.3,0.6-0.6,1.1-0.8,1.8c-1.1,2.6-2.2,5.4-3.3,8.4
				c-0.2,0.6-0.4,1.3-0.6,2c-0.8,2.5-1.6,5.1-2.4,7.8c-0.3,0.9-0.5,1.9-0.8,2.8c-0.8,3.1-1.6,6.2-2.4,9.4c-0.1,0.3-0.1,0.5-0.2,0.8
				c-0.8,3.6-1.6,7.2-2.4,10.9c-0.2,0.8-0.3,1.7-0.5,2.5c-0.6,3-1.2,6-1.7,9c-0.1,0.7-0.2,1.3-0.4,2c-0.6,3.7-1.2,7.3-1.8,10.8
				c-2,13.1-3.4,24.5-4.1,31.2c-0.4,3.9,1.5,7.8,4.9,9.8c1.7,1,3.7,2.1,5.6,3.2c-2.8,3.4-5.1,6.7-7.6,10.1
				c20.1,5.8,36.9,18.6,48.2,35.4c0.5-0.5,0.9-1,1.3-1.6c5-5.9,10.1-11.9,15.5-18c16.1-18.5,34-38.1,53.4-58.4
				c13-13.5,26.6-27.3,40.9-41.1c14.3-13.8,29.3-27.7,44.8-41.5l0,0c7.5-6.6,15.1-13.2,22.8-19.8c7.7-6.5,15.6-13,23.6-19.5
				c8-6.4,16.1-12.8,24.3-19c8.2-6.3,16.6-12.4,25-18.5c8.4-6.1,17-12,25.7-17.8c10.8-7.3,21.9-14.3,33-21.1
				c11.2-6.8,22.5-13.3,33.9-19.6c11.5-6.3,23.2-12.3,34.9-17.9c6.9-3.3,13.9-6.5,20.9-9.6c5.5-2.4,11-4.7,16.5-7
				c8.1-3.3,16.2-6.4,24.4-9.3c48.8-17.4,99.2-28.2,150.4-29.3c7.7-0.2,15.3-0.2,22.8-0.1c22.6,0.3,44.5,1.8,65.8,4.5
				c7.1,0.9,14.1,1.9,21,3c20.8,3.4,40.9,7.9,60.3,13.3c13,3.6,25.6,7.7,38,12.2c7,2.5,13.8,5.2,20.6,8
				c20.3,8.3,39.9,17.8,58.6,28.2c25,13.9,48.6,29.5,70.9,46.4c8.7,6.6,17.1,13.4,25.4,20.4c16.5,14,32.3,28.7,47.3,44
				c7.5,7.6,14.8,15.4,21.9,23.4c24.4,27.1,46.6,55.8,66.8,85c6.7,9.8,13.2,19.6,19.5,29.4c6.3,9.9,12.3,19.8,18.2,29.7
				c11.7,19.8,22.5,39.7,32.5,59.4c10,19.7,19.2,39.1,27.6,58.2c4.2,9.5,8.2,18.9,12,28.2c3.8,9.3,7.4,18.4,10.9,27.3
				c3.4,8.9,6.7,17.7,9.8,26.3c3.1,8.6,6,16.9,8.7,25.1c5.5,16.3,10.2,31.6,14.4,45.8c2,7,3.9,13.7,5.7,20c1.3,4.8,2.5,9.4,3.6,13.8
				c1.1,4.4,2.2,8.6,3.1,12.6c1.9,8,3.5,15.3,4.8,21.6c0,0.1,0.1,0.3,0.1,0.4c0,0,0,0.1,0,0.1c0,0,0,0,0,0c0,0,0,0,0,0c0,0,0,0,0,0
				c0,0.1,0,0.1,0,0.2v0v0l0,0c0-0.1,0-0.1,0-0.2c-16.7-65.3-53.4-175.3-117.5-286.6c-8-13.9-16.4-27.9-25.3-41.7
				c-8.9-13.9-18.2-27.7-28-41.4c-3.3-4.6-6.6-9.1-9.9-13.6c-13.4-18.1-27.7-35.8-42.8-53.1c-26.4-30.2-55.4-58.8-87.3-84.8
				c-9.1-7.4-18.4-14.6-28-21.6c-19.1-13.9-39.1-26.9-60.1-38.8c-10.5-5.9-21.2-11.5-32.2-16.8c-76.8-37.2-165.6-58.9-267.8-56.6
				c-20.5,0.5-40.9,2.4-61.2,5.7c-20.2,3.3-40.3,7.8-60.1,13.5c-12.6,3.6-25.1,7.9-37.5,12.4c-13.9,5.1-27.6,10.6-41.2,16.7
				c-22,9.8-43.6,20.6-64.7,32.5c-27.5,15.5-54.2,32.7-79.9,50.8c-34.3,24.2-66.7,50.3-97,76.8l0,0c-7.9,6.9-15.6,13.8-23.2,20.7
				c-22.7,20.8-44,41.6-63.8,61.9c-18.2,18.7-35,36.9-50.3,54.1c7.6,14.1,11.6,30.5,10.4,47.7c0,0.4-0.1,0.8-0.2,1.3
				c6,1,11.9,2.4,17.8,3.8c54.7-34.6,119.3-54.1,187.4-52.8c52.5,1,101.6,13.8,145.3,35.4c16.1-28.6,47.5-47,82.4-44.6
				c19.7,1.4,37.3,9.3,51.2,21.3c43-115.3,162-191.4,292.3-172.1c128.4,19,226.4,130.4,229.1,260.2c0.8,37.6-6.1,73.2-18.9,105.6
				c37.2,6.7,64.1,40.4,61.4,79c-0.2,3-0.7,6-1.3,8.9l2,0c76.7,5.4,138.9,57.3,161.2,126.2l121.8-0.1c37-20.1,80.4-28.7,125.2-21.7
				l2.1,0.5c0.1-3.2,0.3-6.4,0.8-9.7c5.6-35.7,33.8-62.2,67.8-67.4c-2.3-14.8-3.4-29.9-3.4-45.3c0-163.9,132.8-296.8,296.6-296.8
				c60.4,0,116.6,18.1,163.4,49.2c74.2,45.7,125,122.8,136.4,210.2c17.5-9.3,38-13.3,59.1-10c37.4,5.9,66.1,33,76.1,67.1
				c51.4-12.2,106.2-13.7,161.8-1.9c14.7,3.1,29,7.3,43,12.1l306.9-2.4c5.9,0,11.1-2.3,15-6.2c2.6-2.7,4.5-6,5.4-9.8
				c0.4-1.7,0.7-3.4,0.7-5.2l-0.1-9.1c-0.2-16.9-0.3-34.9-0.4-54c-0.1-9.5-0.1-19.3-0.2-29.2c0-10-0.1-20.1-0.1-30.5
				c-0.1-25.9-0.2-52.8-0.2-80.4c0-16.5-0.1-33.3-0.1-50.1c0-16.9,0-33.8,0-50.8c0-31.1,0-62.2,0-92.6c0-15.2,0-30.3,0-45.1
				c0-14.8,0-29.4,0.1-43.6c0-35.2,0.2-76.3,0.4-113.1c0-4.6,0-9.2,0.1-13.7c0.1-13.3,0.1-25.8,0.2-36.9c0.1-14.9,0.1-27.3,0.2-36.1
				c0-2.3-0.1-4.5-0.4-6.7c-0.6-4.5-1.7-8.8-3.3-13c-0.8-2.1-1.8-4.1-2.9-6.1c-2.3-4-4.9-8.8-7.8-13.8c-8.5-15.2-18.5-33-23.3-41.6
				c-13-23-28.7-49.9-46.3-78.7c-7.8-12.8-16-26-24.5-39.4c-4.2-6.7-8.5-13.4-12.9-20.2c-2.2-3.4-4.4-6.8-6.6-10.2
				c-4.4-6.8-8.9-13.6-13.4-20.4c-4.5-6.8-9.1-13.6-13.7-20.4c-4.6-6.8-9.2-13.5-13.9-20.2c-21-30.2-42.4-59.4-63.3-85.8
				c-4.6-5.8-9.3-11.6-13.9-17.1c-3.4-4.2-6.9-8.2-10.3-12.2c-3.4-4-6.8-7.8-10.1-11.6c-16-17.8-31.3-32.9-45.5-44.7c0,0,0,0,0,0
				c0,0,0,0,0,0c3.6,2.1,7.2,4.5,11,7.2c1.9,1.4,3.8,2.8,5.8,4.4c11.7,9.2,24.3,20.9,37.4,34.6c4.4,4.6,8.8,9.4,13.3,14.4
				c6.7,7.5,13.5,15.4,20.4,23.7c4.6,5.5,9.2,11.2,13.9,17.1c10.5,13.2,21.1,27,31.7,41.4c10.6,14.4,21.2,29.2,31.7,44.3
				c4.7,6.7,9.3,13.5,13.9,20.2c4.6,6.8,9.2,13.6,13.7,20.4c4.5,6.8,9,13.6,13.4,20.4c2.2,3.4,4.4,6.8,6.6,10.2
				c4.4,6.8,8.7,13.5,12.9,20.2c8.5,13.4,16.7,26.6,24.5,39.4c8.8,14.4,17.1,28.3,24.9,41.5c7.8,13.2,14.9,25.7,21.4,37.2
				c6.2,11.1,21,37.4,30.1,53.7c3.2,5.7,5.3,11.8,6.5,18.1c0.1,0.3,0.2,0.6,0.3,0.9c0,0,0,0,0,0l0,0c0,0.2,0.1,0.4,0.2,0.6
				c0.1,0.6,0.2,1.1,0.2,1.4v0c0,0.1,0,0.3,0,0.5c0.3,2.6,0.5,5.3,0.5,8c0,4.6-0.1,10-0.1,16.1c-0.2,43-0.6,121.2-0.7,181.6
				c-0.1,56.9-0.1,119.1-0.1,181.3c0,17,0,33.9,0,50.8c0,16.9,0,33.6,0.1,50.1c0,27.6,0.1,54.5,0.2,80.4c0,10.3,0.1,20.5,0.1,30.5
				c0,10,0.1,19.7,0.2,29.2c0.1,17,0.2,33.2,0.4,48.5c15.9-16,32.8-30.9,50.7-44.7c0-0.1,0.1-0.3,0.1-0.4
				C3350.7,2386,3355.9,2371.3,3361.6,2355.8z M982,2118.4c-11.7,16.8-34.7,20.9-51.5,9.2c-16.7-11.7-20.8-34.7-9.2-51.5
				c11.7-16.8,34.7-20.9,51.5-9.2C989.6,2078.6,993.7,2101.7,982,2118.4z M2937.1,1367.8c0.5,2.7,0.8,5.6,1.1,8.5
				c0.3,2.9,0.4,5.9,0.5,8.8c0.2,5.8,0,11-0.4,14.5c-0.2,1.7-0.4,3-0.7,3.7c-0.6,1.3-4.7,3.4-10.6,5.6c-4.1,1.5-9.1,3.1-14.3,4.6
				c-0.8,0.2-1.7,0.5-2.5,0.7c-3,0.8-6.1,1.6-9.1,2.4c-2.3,0.6-4.6,1.1-6.7,1.5c-10.9,2.3-19.8,3.2-20.8,0.9
				c-2.4-5.6-4.7-24.5-4.8-36.8c0-2.2,0-4.3,0.1-5.9c0.2-2.5,0.6-4.3,1.2-4.9c0.3-0.3,0.8-0.6,1.3-1c1.1-0.7,2.7-1.5,4.6-2.4
				c1-0.4,2-0.9,3.1-1.3c1.4-0.6,3-1.1,4.6-1.7c1.9-0.7,4-1.4,6.1-2.1c1.8-0.6,3.6-1.2,5.5-1.7c6.1-1.8,12.5-3.5,18.5-4.8
				c1.5-0.3,3-0.6,4.4-0.9c2.8-0.6,5.5-1,7.9-1.3c1.2-0.2,2.3-0.3,3.4-0.4C2933.3,1353.6,2935.7,1359.8,2937.1,1367.8z
				 M1577.8,1473.1c-7.3-0.7-14.7-1.2-22-1.6C1563.2,1471.9,1570.6,1472.3,1577.8,1473.1C1577.9,1473.1,1577.9,1473.1,1577.8,1473.1
				z M2082.6,1375.2v205.6c0,16.4-5.8,31.4-15.5,43.2c-12.5,15.1-31.3,24.7-52.4,24.7h-243.3c-10.7-13.5-20.4-28-29.5-43
				c-7.6-12.7-14.5-25.5-21.6-37.9c-3.5-6.2-7-12.3-10.7-18.2c-3.7-5.9-7.5-11.7-11.5-17.2c-4.1-5.5-8.4-10.8-13-15.7
				c-14-14.8-31.1-26.6-54.2-33.5c-8.6-2.6-17.3-4.6-26.1-6.2c-8.8-1.6-17.7-2.8-26.7-3.8c12-4.8,23.9-9.7,36-14.4
				C1760,1402,1924.9,1369.5,2082.6,1375.2L2082.6,1375.2z M2144,2127.5l-21.1-290.4c-8.3-113.9-7.9-228.2,1-342l20.1-256.5V2127.5z
				 M2657.2,2361.3c-20.5,8.2-43.8-1.7-52-22.2c-8.2-20.5,1.7-43.8,22.2-52.1c20.5-8.2,43.8,1.7,52,22.2
				C2687.6,2329.8,2677.7,2353.1,2657.2,2361.3z M2744.8,1648.7L2744.8,1648.7l-500.4,0c-21.9,0-39.7-17.8-39.7-39.8v0v-212v0
				c0.4-1.7,1.3-3.3,2.7-4.8c0.7-0.7,1.5-1.4,2.4-2.1c1.8-1.3,4-2.5,6.5-3.5c3.8-1.6,8.4-2.8,13.6-3.9c5.5-1.1,11.7-1.9,18.3-2.6
				c6.6-0.6,13.6-1,20.8-1.2c7.2-0.2,14.5-0.3,21.8-0.2c9.1,0.1,18,0.3,26.3,0.7c8.3,0.3,16,0.7,22.5,1.1
				c55.6,3.4,106.8,6.3,152.2,9.4c6.5,0.5,12.9,0.9,19.1,1.4c16.7,1.2,32.4,2.6,47.3,4c9.1,0.9,17.9,1.8,26.3,2.7
				c4.2,0.5,8.3,1,12.3,1.4c12,1.5,23.1,3.1,33.3,4.8s19.4,3.6,27.6,5.7c2.7,0.7,5.4,1.4,7.9,2.1c7.5,2.2,14,4.5,19.5,7.1
				c7.2,3.4,12.5,7.3,15.7,11.5c1.6,2.1,2.7,4.4,3.2,6.8c0.5,2.2,1.2,5.6,2,9.9c0.3,1.4,0.6,3,0.9,4.6c0.9,4.9,2,10.7,3.2,17.1
				c0.4,2.1,0.8,4.4,1.2,6.6c0.8,4.6,1.7,9.4,2.7,14.4c0.5,2.5,0.9,5.1,1.4,7.7c1,5.2,1.9,10.6,3,16.1c1,5.5,2,11.1,3.1,16.8
				c1,5.7,2.1,11.4,3.2,17.1c1.1,5.7,2.1,11.4,3.2,17c2.1,11.2,4.2,22.2,6.2,32.4c1.1,5.7,2.2,11.2,3.2,16.4c1,5.2,2,10,3,14.4
				c0.6,2.6,1.1,5,1.6,7.3C2742.8,1640.7,2743.9,1645.3,2744.8,1648.7L2744.8,1648.7z M2858.3,1648.7L2858.3,1648.7l-90.6,0
				c-3.6-16-7.7-35.4-12.2-56.8c-0.9-4.3-1.8-8.6-2.7-13.1c-1.8-8.8-3.7-18-5.5-27.2c-1.9-9.3-3.7-18.8-5.6-28.3
				c-3.7-19.1-7.4-38.6-10.8-57.6c-1.7-9.5-3.4-19-5-28.2c-0.3-1.9,0.9-3.1,3.3-3.6c1.2-0.3,2.7-0.4,4.4-0.3
				c5.2,0.1,12.5,1.5,20.9,3.7c2.8,0.7,5.7,1.6,8.6,2.5c5.9,1.9,12.1,4,18.1,6.4c6,2.4,12,5,17.4,7.7c5.4,2.7,10.4,5.5,14.5,8.3
				c6.1,4.2,10.4,8.3,11.5,12c0.7,2.5,2.3,8.6,4.3,17.3c1.4,5.8,2.9,12.7,4.7,20.3c1.7,7.7,3.6,16.1,5.4,24.9
				c3.2,14.9,6.5,31,9.4,46.5c2.5,13,4.7,25.6,6.5,36.8C2856.5,1631.1,2857.8,1641.1,2858.3,1648.7L2858.3,1648.7z M2855.8,1257.5
				c-3.6-1-7.3-2-11-2.9c-0.2-0.1-0.5-0.1-0.7-0.2c-3.8-1-7.7-2-11.6-2.9c-1.2-0.3-2.5-0.6-3.8-0.9c-3-0.7-6-1.5-9.1-2.2
				c-1.2-0.3-2.5-0.6-3.7-0.9c-4.1-1-8.3-1.9-12.5-2.9c-0.9-0.2-1.8-0.4-2.6-0.6c-3.5-0.8-7-1.6-10.6-2.3c-1.5-0.3-3-0.7-4.6-1
				c-3.2-0.7-6.5-1.4-9.8-2.1c-1.3-0.3-2.7-0.6-4-0.8c-4.4-0.9-8.9-1.8-13.5-2.7c-1.4-0.3-2.8-0.5-4.2-0.8c-3.4-0.7-6.8-1.3-10.3-2
				c-1.7-0.3-3.4-0.6-5.1-1c-3.7-0.7-7.3-1.4-11.1-2c-1.3-0.2-2.5-0.5-3.8-0.7c-4.8-0.9-9.6-1.7-14.4-2.5c-1.7-0.3-3.5-0.6-5.3-0.9
				c-3.4-0.6-6.9-1.2-10.4-1.7c-1.9-0.3-3.8-0.6-5.7-0.9c-4.3-0.7-8.6-1.4-13-2.1c-1.6-0.2-3.2-0.5-4.7-0.7c-4.4-0.7-8.8-1.4-13.3-2
				c-2-0.3-4.1-0.6-6.1-0.9c-3.5-0.5-7.1-1-10.7-1.5c-2-0.3-4.1-0.6-6.1-0.9c-5.2-0.7-10.4-1.5-15.7-2.2c-1.7-0.2-3.3-0.4-5-0.7
				c-4-0.5-7.9-1-11.9-1.6c-2.3-0.3-4.5-0.6-6.8-0.9c-3.7-0.5-7.4-0.9-11.1-1.4c-2.1-0.3-4.2-0.5-6.3-0.8
				c-5.4-0.6-10.8-1.3-16.3-1.9c-2.2-0.3-4.4-0.5-6.6-0.7c-3.7-0.4-7.4-0.8-11.2-1.3c-2.5-0.3-5-0.5-7.5-0.8
				c-3.9-0.4-7.9-0.8-11.8-1.2c-2.1-0.2-4.1-0.4-6.2-0.6c-5.6-0.6-11.2-1.1-16.8-1.7c-2.5-0.2-5-0.5-7.5-0.7
				c-3.7-0.3-7.4-0.7-11.1-1c-2.6-0.2-5.2-0.5-7.8-0.7c-4.4-0.4-8.9-0.8-13.4-1.1c-3-0.2-6-0.5-9-0.7c-4.5-0.4-9.1-0.7-13.7-1.1
				c-2.7-0.2-5.4-0.4-8.1-0.6c-3.8-0.3-7.5-0.6-11.3-0.8c-2.7-0.2-5.4-0.4-8-0.6c-5.7-0.4-11.5-0.8-17.2-1.1c-2.5-0.2-5-0.3-7.5-0.5
				c-4.1-0.2-8.1-0.5-12.2-0.7c-2.9-0.2-5.7-0.3-8.6-0.5c-3.8-0.2-7.7-0.4-11.6-0.6c-2.7-0.1-5.4-0.3-8.1-0.4
				c-6-0.3-11.9-0.6-17.9-0.9c-2.7-0.1-5.4-0.2-8.1-0.4c-3.9-0.2-7.8-0.3-11.7-0.5c-3-0.1-6-0.2-8.9-0.3c-4.1-0.1-8.2-0.3-12.2-0.4
				c-2.6-0.1-5.1-0.2-7.7-0.3c-6.1-0.2-12.2-0.4-18.3-0.5c-2.9-0.1-5.7-0.1-8.6-0.2c-3.9-0.1-7.9-0.2-11.8-0.3
				c-3-0.1-5.9-0.1-8.9-0.2c-4.6-0.1-9.3-0.1-13.9-0.2c-3.5,0-7-0.1-10.6-0.1c-4.8-0.1-9.6-0.1-14.5-0.1c-3,0-5.9,0-8.9,0
				c-4,0-8,0-12,0c-2.9,0-5.8,0-8.7,0c-6.2,0-12.5,0-18.7,0.1c-0.1,0-0.1,0-0.2,0v0c-2.2,0-4.4,0.1-6.7,0.1c0,0-0.1,0-0.1,0
				c-14.3,0.1-28.6,0.3-42.9,0.7c-4.7,0.1-9.4,0.3-14.1,0.4c-11.9,0.3-23.9,0.7-35.8,1.1c-2.8,0.1-5.7,0.3-8.5,0.4
				c-63.8,2.7-127.7,7.4-190.5,14.4c-5.6,0.6-11.2,1.4-16.8,2.1c-17.9,2.1-35.6,4.5-53.2,7c-9.2,1.3-18.4,2.5-27.5,4
				c-23.6,3.7-47.6,8.5-71.8,14.1c-3,0.7-5.9,1.2-8.9,2c-13.6,3.3-27.3,6.8-41,10.7c-13.7,3.8-27.5,8-41.4,12.4
				c-13.8,4.4-27.7,9.1-41.6,14.1c-133.9,47.8-270.3,120.5-395.6,211.1c-17.9,12.9-35.6,26.2-53,39.9c-5,3.9-10.3,8.2-16,13
				c-2.1,1.8-4.5,3.9-6.7,5.8c-3.7,3.2-7.3,6.3-11.3,9.8c-2.8,2.5-5.9,5.3-8.8,8c-3.7,3.3-7.3,6.5-11.2,10.1c-3.2,3-6.7,6.2-10,9.4
				c-3.9,3.6-7.6,7.1-11.7,10.9c-3.8,3.6-7.8,7.5-11.7,11.3c-3.8,3.7-7.5,7.2-11.5,11c-4.2,4.1-8.7,8.5-13.1,12.8
				c-3.8,3.8-7.6,7.4-11.5,11.3c-4.7,4.7-9.6,9.6-14.4,14.4c-3.8,3.8-7.5,7.4-11.3,11.3c-5.5,5.5-11.1,11.2-16.7,16.9
				c-3.3,3.4-6.6,6.6-10,10.1c-6.1,6.2-12.2,12.5-18.4,18.8c-1.5,1.6-3.1,3.2-4.6,4.7c-1.5,1.5-3,3.1-4.5,4.6
				c-6.8,7-13.7,14.2-20.6,21.3c-2.5,2.6-5,5.1-7.5,7.7c-0.7,0.7-1.3,1.3-2,2c-7.3,7.6-14.7,15.3-22,23c-1.5,1.6-3,3.1-4.5,4.7
				c-8.5,8.9-17.1,17.9-25.7,27c-1.1,1.2-2.2,2.3-3.3,3.5c-8.8,9.3-17.7,18.7-26.6,28.1c-0.9,0.9-1.7,1.8-2.6,2.7
				c-20.7,22-41.5,44.1-61.9,66c-8.3,8.9-16.6,17.8-24.8,26.7h0c49.9-53.9,100.6-110.6,149-164.6c4.4-4.9,8.7-9.7,13-14.5
				c70.8-78.9,135.9-151,185.4-198.6c3.2-3.1,6.3-6,9.4-8.9c6.1-5.7,11.9-11,17.5-15.8c5.5-4.8,10.8-9.2,15.7-13.1
				c12.7-9.9,25.4-19.7,38.2-29.3c25.6-19.2,51.4-37.8,77.3-55.6c20.9-14.4,42-28.1,63.2-41.5c13-8.2,26-16.2,39-23.9
				c22.4-13.4,44.9-26.2,67.5-38.3c22.6-12.1,45.2-23.5,67.9-34.1c40-18.8,80.2-35.2,120.3-49c40.1-13.8,80.2-25,120.1-33.1
				c13.3-2.7,26.6-5.1,39.9-7.2c32.1-5,64.7-9.3,97.6-13c16.4-1.8,32.9-3.5,49.5-5c32-3,64.2-5.3,96.4-7.2c18.3-1,36.5-1.9,54.8-2.6
				c16.7-0.7,33.3-1.2,49.9-1.5c16.1-0.4,32.2-0.6,48.2-0.8c6.2,0,12.5-0.1,18.7-0.1c2.9,0,5.8,0,8.7,0c4,0,8,0,12,0
				c3,0,5.9,0,8.9,0c4.8,0,9.6,0.1,14.5,0.1c3.5,0,7,0.1,10.6,0.1c4.6,0.1,9.3,0.1,13.9,0.2c3,0.1,5.9,0.1,8.9,0.2
				c3.9,0.1,7.9,0.2,11.8,0.3c2.9,0.1,5.7,0.1,8.6,0.2c6.1,0.2,12.2,0.3,18.3,0.5c2.6,0.1,5.1,0.2,7.7,0.3c4.1,0.1,8.2,0.3,12.2,0.4
				c3,0.1,6,0.2,8.9,0.3c3.9,0.2,7.8,0.3,11.7,0.5c2.7,0.1,5.4,0.2,8.1,0.3c6,0.3,12,0.6,17.9,0.9c2.7,0.1,5.4,0.3,8.1,0.4
				c3.9,0.2,7.7,0.4,11.6,0.6c2.9,0.2,5.7,0.3,8.6,0.5c4.1,0.2,8.1,0.5,12.2,0.7c2.5,0.2,5,0.3,7.5,0.5c5.8,0.4,11.5,0.8,17.2,1.1
				c2.7,0.2,5.4,0.4,8,0.6c3.8,0.3,7.6,0.5,11.3,0.8c2.7,0.2,5.4,0.4,8.1,0.6c4.6,0.4,9.1,0.7,13.7,1.1c3,0.2,6,0.5,9,0.7
				c4.5,0.4,8.9,0.8,13.4,1.1c2.6,0.2,5.2,0.5,7.8,0.7c3.7,0.3,7.4,0.7,11.1,1c2.5,0.2,5,0.5,7.5,0.7c5.6,0.5,11.3,1.1,16.8,1.7
				c2.1,0.2,4.1,0.4,6.2,0.6c4,0.4,7.9,0.8,11.8,1.2c2.5,0.3,5,0.5,7.5,0.8c3.7,0.4,7.5,0.8,11.2,1.2c2.2,0.2,4.4,0.5,6.6,0.7
				c5.5,0.6,10.9,1.3,16.3,1.9c2.1,0.3,4.2,0.5,6.3,0.8c3.7,0.5,7.4,0.9,11.1,1.4c2.3,0.3,4.6,0.6,6.8,0.9c4,0.5,8,1,11.9,1.6
				c1.7,0.2,3.3,0.4,5,0.7c5.3,0.7,10.5,1.4,15.7,2.2c2,0.3,4.1,0.6,6.1,0.9c3.6,0.5,7.1,1,10.7,1.6c2,0.3,4.1,0.6,6.1,0.9
				c4.5,0.7,8.9,1.3,13.3,2c1.6,0.2,3.2,0.5,4.7,0.7c4.4,0.7,8.7,1.4,13,2.1c1.9,0.3,3.8,0.6,5.7,0.9c3.5,0.6,6.9,1.2,10.4,1.7
				c1.8,0.3,3.5,0.6,5.3,0.9c4.9,0.8,9.7,1.7,14.4,2.5c1.3,0.2,2.5,0.5,3.8,0.7c3.7,0.7,7.4,1.3,11.1,2c1.7,0.3,3.4,0.6,5.1,1
				c3.5,0.7,6.9,1.3,10.3,2c1.4,0.3,2.8,0.5,4.2,0.8c4.6,0.9,9,1.8,13.5,2.7c1.3,0.3,2.7,0.6,4,0.8c3.3,0.7,6.6,1.4,9.8,2.1
				c1.5,0.3,3,0.7,4.6,1c3.6,0.8,7.1,1.6,10.6,2.3c0.9,0.2,1.8,0.4,2.6,0.6c4.2,1,8.4,1.9,12.5,2.9c1.3,0.3,2.5,0.6,3.7,0.9
				c3.1,0.7,6.1,1.5,9.1,2.2c1.3,0.3,2.5,0.6,3.8,0.9c3.9,1,7.8,1.9,11.6,2.9c0.2,0.1,0.5,0.1,0.7,0.2c3.7,1,7.4,2,11,2.9
				c1.2,0.3,2.3,0.6,3.4,0.9c2.8,0.8,5.5,1.5,8.3,2.3c1,0.3,2,0.6,3,0.9c3.5,1,7,2.1,10.5,3.1c0.6,0.2,1.2,0.4,1.8,0.6
				c2.8,0.9,5.6,1.7,8.4,2.6c1,0.3,2,0.6,3,1c2.6,0.8,5.1,1.6,7.5,2.5c0.7,0.2,1.5,0.5,2.2,0.7c3.1,1,6.1,2.1,9,3.1
				c0.7,0.2,1.4,0.5,2,0.7c2.3,0.8,4.5,1.7,6.8,2.5c0.8,0.3,1.7,0.6,2.5,1c2.3,0.9,4.6,1.8,6.8,2.7c0.4,0.2,0.9,0.3,1.3,0.5
				c2.6,1.1,5.1,2.1,7.5,3.2c0.6,0.3,1.3,0.6,1.9,0.9c1.8,0.8,3.6,1.6,5.4,2.5c0.7,0.3,1.3,0.6,2,0.9c2.2,1.1,4.4,2.1,6.4,3.2
				c2,1.1,4.2,2.3,6.3,3.6c-1-0.4-1.9-0.8-2.9-1.1c-0.8-0.3-1.7-0.6-2.5-1c-2.2-0.8-4.4-1.7-6.7-2.5c-0.7-0.2-1.3-0.5-2-0.7
				c-2.9-1.1-6-2.1-9-3.1c-0.7-0.3-1.5-0.5-2.2-0.7c-2.5-0.8-5-1.7-7.5-2.5c-1-0.3-2-0.6-3-1c-2.7-0.9-5.5-1.7-8.4-2.6
				c-0.6-0.2-1.2-0.4-1.8-0.6c-3.4-1-6.9-2.1-10.5-3.1c-1-0.3-2-0.6-3-0.9c-2.7-0.8-5.5-1.5-8.3-2.3
				C2858.1,1258.1,2857,1257.8,2855.8,1257.5z M2911.2,1615.7c-1.8,1.8-3.6,3.4-5.3,4.9c-2.2,1.9-4.2,3.5-6.1,4.9
				c-1.6,1.1-3.1,2.1-4.4,2.7c-2.4,1.1-4.1,1.1-4.6-0.6c-0.6-2.1-1.5-5.3-2.6-9.5c-0.5-2.1-1.1-4.4-1.7-6.9
				c-8-32.4-22.2-96.3-21.4-106.8l0,0c0-0.6,0.3-0.9,0.8-0.7c0.5,0.1,1.2,0.6,2.1,1.4c12.7,10.8,61.5,81,61.5,87
				C2929.6,1595.4,2920.5,1606.5,2911.2,1615.7z M2967.9,1408.8c1.7-3.1,2.3-6.4,2.4-9.8c0.2-8.4-3.3-16.6-3.3-19.8
				c0-0.6,0.1-1.1,0.4-1.3c9.3,7.7,18.3,15.9,27,24.7c2,2.6,4,5.6,6.2,8.9c6.1,9.2,13,20.8,20.1,33.5c3.9,6.9,7.8,14.2,11.7,21.7
				c3.9,7.5,7.9,15.1,11.7,22.8c5.8,11.5,11.4,23.1,16.5,34.2c5.8,12.4,11,24.2,15.3,34.5c0.9,2.1,1.7,4.2,2.5,6.2
				c2.4,6,4.4,11.4,5.9,16c2,6.1,3.1,10.6,3.1,13.2c0,0.6-0.5,1.4-1.3,2.1c-0.1,0.1-0.3,0.2-0.5,0.3c-1.5,1.1-3.9,2.3-6.9,3.4
				c-2.3,0.9-5,1.6-7.9,2.3c-2.7,0.6-5.6,1.1-8.5,1.4c-1.3,0.1-2.6,0.2-4,0.3c-5.3,0.2-10.7-0.3-15.3-1.9c-1.2-0.4-2.3-0.8-3.4-1.4
				c-1.1-0.5-3.9-4.5-7.9-10.7c-4.9-7.7-11.6-18.8-18.7-30.8c-1.4-2.4-2.8-4.8-4.3-7.3c-4.3-7.3-8.7-14.8-12.8-21.9
				c-4.1-7.1-8-13.7-11.4-19.3c-3.8-6.3-8.9-15.3-15.4-25.8c-10.8-17.6-25.2-39.6-43-61.3c-0.3-0.3,0-0.7,0.6-1
				c1.1-0.6,3.5-1.3,6.7-2c1.1-0.2,2.2-0.5,3.4-0.7c2.3-0.5,4.7-1,7.2-1.5c1.3-0.3,2.5-0.5,3.8-0.8c3.8-0.9,7.6-1.9,10.8-3
				C2963.4,1412.7,2966.7,1410.9,2967.9,1408.8z"/>
			<path class="st9" d="M3254.1,2491.8c3-3.8,5.9-7.7,9-11.4l-31.8-0.2C3239.5,2483,3247.1,2487,3254.1,2491.8z"/>
			<path class="st9" d="M4573.1,2097.7c-5.8-52.2-20.3-73.7-24.5-77.9c-4.2-4.2-44-9.4-44-9.4c0,0,0,0.1,0,0.1
				c20.4,43.4,43.3,125.1,57.8,187.4c0.9,4,0,0,0,0l-33-102.5c-10.7-27.7-25.7-69.9-34.4-85c-21.9-38-204.2-87.5-204.2-87.5
				c-2.5-2-75.3-23.2-166.3-35c-13.7-1.8-27.7-3.3-42-4.6c-9.5-0.8-19.2-1.5-28.9-2.1c-33.9-1.9-68.5-1.7-101.6,1.7
				c-20.5,2.1-40.5,4.6-60.3,7.9c-4.6,0.8-9.2,1.6-13.8,2.5c-14.1,2.6-28.2,5.8-42.3,9.6c-5,1.3-9.9,2.7-14.9,4.2
				c-6.5,2-13.1,4.1-19.7,6.4c-5.3,1.9-10.7,3.8-16,5.9c-16,6.2-32.1,13.5-48.6,22c-12.3,6.4-24.9,13.6-37.6,21.5
				c-4.2,2.7-8.5,5.4-12.8,8.3c-8.6,5.7-17.3,11.8-26.1,18.3c-8.8,6.5-17.8,13.4-26.9,20.7c-13.7,11-27.6,23-42,36.1
				c-14.3,13.1-29.1,27.3-44.2,42.7c-16.7,17-34,35.4-51.8,55.5c-12.9,14.5-25.8,31.9-38.6,51.2c-10.7,16.2-21.3,33.7-31.6,51.8
				c-2.3,4.1-4.5,8.4-6.8,12.6c-4.2,7.7-8.5,15.5-12.6,23.3c-3.7,7.2-7.4,14.4-11,21.7c-10.8,21.7-21,43.3-30.1,63.9
				c-3.9,8.8-7.5,17.2-11,25.5c84.5-62.9,189.3-100.1,302.7-100.1c62.2,0,121.7,11.2,176.8,31.7c10.9-22.3,24.7-42.9,41.3-61.1
				c5.5-6,11.2-11.7,17.2-17.2c11.5-10.5,24-19.9,37.2-28.2c13.3-8.3,27.3-15.4,42-21.2c14.7-5.8,30.1-10.3,46-13.4
				c15.9-3,32.3-4.6,49.1-4.6c143.2,0,259.3,116.2,259.3,259.5c0,17.6-1.8,34.9-5.1,51.5c-1.1,5.5-2.4,11-3.9,16.4
				c-2,7.2-4.2,14.3-6.8,21.3c-2.9,7.9-6.2,15.7-9.8,23.3c-12.7,26.5-29.8,50.4-50.4,71c-27.5,27.5-61.2,48.8-98.8,61.8
				c4.6,19.5,8.1,39.4,10.4,59.7c29.7-55.8,87.6-93.5,153.6-94.9c-1.3-6.5-1.9-13.3-1.4-20.2c2.7-38.6,34.1-68.3,71.9-69.7
				c-8.2-33.9-10-70.2-4-107.3c16.9-104.1,94.2-186.4,191.5-214.9c0-0.1-0.1-0.3-0.1-0.4c-0.5-1.9-1-3.8-1.5-5.7
				c-0.1-0.4-0.2-0.9-0.3-1.3c-0.5-1.9-1-3.9-1.4-5.8c-0.1-0.5-0.2-1-0.4-1.5c-0.5-1.9-0.9-3.8-1.4-5.6c-0.1-0.3-0.1-0.6-0.2-0.9
				c-0.5-2-1-3.9-1.4-5.9c0,0,0,0,0-0.1c-3.7-5-3.7-5,0,0c-1-4.3-2-8.5-3-12.6l7.9-0.4c0,0,2.7-14.9,4.1-37.2
				c0.1-1.8,0.2-3.6,0.3-5.5C4575.4,2138.3,4575.4,2118.4,4573.1,2097.7z M4415.5,2258.5c-28.6,11.5-61-2.4-72.5-30.9
				c-11.5-28.6,2.4-61.1,30.9-72.5c28.6-11.5,61,2.4,72.5,30.9C4457.9,2214.5,4444,2247,4415.5,2258.5z"/>
			<path class="st9" d="M4565.4,2210.6C4565.4,2210.5,4565.4,2210.5,4565.4,2210.6L4565.4,2210.6
				C4565.4,2210.5,4565.4,2210.5,4565.4,2210.6C4565.4,2210.5,4565.4,2210.5,4565.4,2210.6z"/>
			<path class="st9" d="M3087.2,2556.2c6.5,0,13.1-0.1,19.7,0.3c0.1-0.5,0.1-0.9,0.1-1.4c5.8-36.4,31.6-64.6,64.4-75.3l-196.4-1.2
				C3017.4,2497.5,3055.3,2524,3087.2,2556.2z"/>
			<path class="st6" d="M3294.7,2367.1c0-10-0.1-20.1-0.1-30.5c-0.1-25.9-0.2-52.8-0.2-80.4c0-16.5-0.1-33.3-0.1-50.1
				c0-16.9,0-33.8,0-50.8l0,0c0-62.2,0-124.4,0.1-181.3c0.1-60.4,0.5-138.6,0.7-181.6c0-6.1,0.1-11.6,0.1-16.1c0-2.7-0.2-5.4-0.5-8
				c-0.1-0.6-0.2-1.2-0.3-1.8c0-0.1,0-0.1,0-0.2c0-0.2-0.1-0.4-0.1-0.5c-0.1-0.3-0.1-0.6-0.2-0.9c0,0,0,0,0,0
				c-1.2-6.3-3.3-12.4-6.5-18.1c-9.1-16.3-23.9-42.6-30.1-53.7c-6.5-11.5-13.7-24-21.4-37.2c-7.8-13.2-16.1-27.1-24.9-41.5
				c-7.8-12.8-16-26-24.5-39.4c-4.2-6.7-8.5-13.4-12.9-20.2c-2.2-3.4-4.4-6.8-6.6-10.2c-4.4-6.8-8.9-13.6-13.4-20.4
				c-4.5-6.8-9.1-13.6-13.7-20.4c-4.6-6.8-9.2-13.5-13.9-20.2c-10.5-15.1-21.1-30-31.7-44.3c-10.6-14.4-21.2-28.3-31.7-41.4
				c-4.7-5.8-9.3-11.6-13.9-17.1c-6.9-8.3-13.7-16.2-20.4-23.7c-4.5-5-8.9-9.8-13.3-14.4c-13.1-13.7-25.6-25.4-37.4-34.6
				c-2-1.5-3.9-3-5.8-4.4c-3.8-2.7-7.4-5.1-11-7.2c0,0,0,0,0,0c14.2,11.8,29.5,26.8,45.5,44.7c3.4,3.7,6.7,7.6,10.1,11.6
				c3.4,4,6.8,8,10.3,12.2c4.6,5.5,9.2,11.2,13.9,17.1c21,26.3,42.4,55.6,63.3,85.8c4.7,6.7,9.3,13.5,13.9,20.2
				c4.6,6.8,9.2,13.6,13.7,20.4c4.5,6.8,9,13.6,13.4,20.4c2.2,3.4,4.4,6.8,6.6,10.2c4.4,6.8,8.7,13.5,12.9,20.2
				c8.5,13.4,16.7,26.6,24.5,39.4c17.6,28.8,33.4,55.7,46.3,78.7c4.8,8.6,14.8,26.4,23.3,41.6c2.8,5.1,5.5,9.8,7.8,13.8
				c1.1,2,2.1,4,2.9,6.1c1.7,4.2,2.8,8.5,3.3,13c0.3,2.2,0.4,4.5,0.4,6.7c0,8.7-0.1,21.2-0.2,36.1c-0.1,11.1-0.1,23.6-0.2,36.9
				c0,4.5,0,9-0.1,13.7c-0.2,36.8-0.3,77.9-0.4,113.1c0,14.2,0,28.8-0.1,43.6c0,14.8,0,29.9,0,45.1c0,30.4,0,61.5,0,92.6
				c0,17,0,33.9,0,50.8c0,16.9,0,33.6,0.1,50.1c0,27.6,0.1,54.5,0.2,80.4c0,10.3,0.1,20.5,0.1,30.5c0,10,0.1,19.7,0.2,29.2
				c0.1,19,0.2,37.1,0.4,54l0.1,9.1v0c0,1.8-0.3,3.5-0.7,5.2c-0.9,3.8-2.8,7.1-5.4,9.8c-3.8,3.8-9.1,6.2-15,6.2l-306.9,2.4
				c10,3.5,19.9,7.3,29.5,11.5l196.4,1.2c13.8-4.5,28.8-6,44.1-3.6c5.4,0.9,10.7,2.2,15.7,3.9l31.8,0.2
				c10.2-12.4,20.9-24.3,32.1-35.6c-0.1-15.3-0.3-31.4-0.4-48.5C3294.8,2386.8,3294.8,2377,3294.7,2367.1z"/>
			<path class="st10" d="M4364.2,1930.5c-0.3-0.1-0.7-0.2-1-0.3C4363.5,1930.3,4363.8,1930.4,4364.2,1930.5
				C4364.1,1930.5,4364.1,1930.5,4364.2,1930.5z"/>
			<path class="st6" d="M3274.2,1628.9c188.5,6.3,695,53.8,1001,272.1c0,0,0,0,0,0c0.3,0.2,0.7,0.4,1,0.7c-3.1-2.5-6.6-4.6-9.7-7.1
				c-123.6-93.7-283-157.4-439.8-200c-241.3-65.6-475.7-81.6-561.1-81.6l0,0C3267.3,1617,3272.1,1624.4,3274.2,1628.9z"/>
			<path class="st6" d="M1614.1,1458.7c-12,4.7-24,9.6-36,14.4c9,0.9,17.9,2.1,26.7,3.8c8.8,1.6,17.5,3.7,26.1,6.2
				c23.2,6.9,40.3,18.8,54.2,33.5c4.7,4.9,9,10.2,13,15.7c4.1,5.5,7.9,11.3,11.5,17.2c3.7,5.9,7.2,12,10.7,18.2
				c7,12.4,13.9,25.3,21.6,37.9c9.1,15,18.8,29.6,29.5,43h243.3c21.1,0,39.9-9.6,52.4-24.7c9.7-11.7,15.5-26.8,15.5-43.2v-205.6
				C1924.9,1369.5,1760,1402,1614.1,1458.7z"/>
			<path class="st11" d="M1577.8,1473.1C1577.9,1473.1,1577.9,1473.1,1577.8,1473.1c-7.3-0.8-14.6-1.2-22-1.6
				C1563.2,1471.9,1570.5,1472.4,1577.8,1473.1z"/>
			<path class="st6" d="M4299.3,2552.2c3.6-7.6,6.9-15.3,9.8-23.3c2.5-7,4.8-14,6.8-21.3c1.5-5.4,2.8-10.9,3.9-16.4
				c3.3-16.6,5.1-33.9,5.1-51.5c0-143.3-116.1-259.5-259.3-259.5c-16.8,0-33.2,1.6-49.1,4.6c-15.9,3-31.3,7.5-46,13.4
				c-14.7,5.8-28.8,12.9-42,21.2c-13.3,8.3-25.7,17.7-37.2,28.2c-6,5.5-11.7,11.2-17.2,17.2c-16.6,18.1-30.4,38.8-41.3,61.1
				c51.7,19.2,99.3,46.6,141.5,80.6c13.6-37.4,49.3-64.1,91.3-64.1c53.7,0,97.2,43.6,97.2,97.3c0,46.2-32.2,84.8-75.3,94.7
				c28.5,45.8,49.8,96.5,62.6,150.6c37.6-13,71.3-34.3,98.8-61.8C4269.4,2602.6,4286.5,2578.7,4299.3,2552.2z"/>
			<path class="st9" d="M4162.8,2439.7c0-53.7-43.5-97.3-97.2-97.3c-42,0-77.7,26.7-91.3,64.1c44.5,35.9,82.9,79.1,113.2,127.9
				C4130.6,2524.5,4162.8,2485.9,4162.8,2439.7z"/>
			<path class="st6" d="M2848.3,1583.1c-3-15.5-6.3-31.6-9.4-46.5c-1.9-8.8-3.7-17.2-5.4-24.9c-1.7-7.7-3.3-14.5-4.7-20.3
				c-2-8.7-3.6-14.8-4.3-17.3c-1.1-3.7-5.3-7.8-11.5-12c-4.1-2.8-9-5.6-14.5-8.3c-5.4-2.7-11.4-5.3-17.4-7.7
				c-6-2.4-12.2-4.6-18.1-6.4c-3-0.9-5.8-1.8-8.6-2.5c-8.3-2.2-15.7-3.6-20.9-3.7c-1.7,0-3.2,0.1-4.4,0.3c-2.4,0.5-3.6,1.7-3.3,3.6
				c1.6,9.3,3.2,18.7,5,28.2c3.4,19.1,7.1,38.5,10.8,57.6c1.9,9.6,3.7,19,5.6,28.3c1.9,9.3,3.7,18.4,5.5,27.2
				c0.9,4.4,1.8,8.8,2.7,13.1c4.5,21.4,8.6,40.8,12.2,56.8h90.6v0c-0.5-7.6-1.8-17.6-3.5-28.8
				C2853,1608.6,2850.8,1596,2848.3,1583.1z"/>
			<path class="st12" d="M2740,1627.9c-0.9-4.4-1.9-9.2-3-14.4c-1-5.2-2.1-10.6-3.2-16.4c-2-10.2-4.1-21.1-6.2-32.4
				c-1.1-5.6-2.1-11.3-3.2-17c-1.1-5.7-2.1-11.4-3.2-17.1c-1-5.7-2.1-11.3-3.1-16.8c-1-5.5-2-10.9-3-16.1c-0.5-2.6-1-5.2-1.4-7.7
				c-0.9-5-1.8-9.8-2.7-14.4c-0.4-2.3-0.8-4.5-1.2-6.6c-1.2-6.4-2.3-12.2-3.2-17.1c-0.3-1.6-0.6-3.2-0.9-4.6c-0.8-4.3-1.5-7.7-2-9.9
				c-0.5-2.4-1.6-4.6-3.2-6.8c-3.2-4.3-8.5-8.1-15.7-11.5c-5.4-2.6-11.9-4.9-19.5-7.1c-2.5-0.7-5.1-1.4-7.9-2.1
				c-8.2-2.1-17.4-3.9-27.6-5.7c-10.2-1.7-21.3-3.3-33.3-4.8c-4-0.5-8.1-1-12.3-1.4c-8.4-0.9-17.1-1.8-26.3-2.7
				c-14.8-1.4-30.6-2.7-47.3-4c-6.2-0.5-12.6-0.9-19.1-1.4c-45.4-3.2-96.7-6.1-152.2-9.4c-6.6-0.4-14.2-0.8-22.5-1.1
				c-8.3-0.3-17.2-0.6-26.3-0.7c-7.3-0.1-14.6,0-21.8,0.2c-7.2,0.2-14.2,0.6-20.8,1.2c-6.6,0.6-12.8,1.5-18.3,2.6
				c-5.2,1-9.8,2.3-13.6,3.9c-2.5,1-4.7,2.2-6.5,3.5c-0.9,0.7-1.7,1.3-2.4,2.1c-1.4,1.4-2.3,3-2.7,4.8v212v0
				c0,21.9,17.8,39.8,39.7,39.8h500.4v0c-0.9-3.4-2-8-3.2-13.5C2741,1632.9,2740.5,1630.5,2740,1627.9z"/>
			<path class="st6" d="M2918.2,1355.6c-1.4,0.3-2.9,0.6-4.4,0.9c-6,1.3-12.4,3-18.5,4.8c-1.9,0.6-3.7,1.1-5.5,1.7
				c-2.1,0.7-4.2,1.4-6.1,2.1c-1.6,0.6-3.2,1.2-4.6,1.7c-1.1,0.4-2.2,0.9-3.1,1.3c-1.9,0.8-3.5,1.6-4.6,2.4c-0.6,0.4-1,0.7-1.3,1
				c-0.6,0.6-1,2.4-1.2,4.9c-0.1,1.7-0.2,3.7-0.1,5.9c0.1,12.3,2.4,31.2,4.8,36.8c1,2.3,9.9,1.4,20.8-0.9c2.2-0.5,4.4-1,6.7-1.5
				c3-0.7,6.1-1.5,9.1-2.4c0.8-0.2,1.7-0.5,2.5-0.7c5.2-1.5,10.2-3.1,14.3-4.6c5.9-2.2,10-4.2,10.6-5.6c0.3-0.7,0.5-2,0.7-3.7
				c0.4-3.5,0.5-8.8,0.4-14.5c-0.1-2.9-0.3-5.9-0.5-8.8c-0.3-3-0.6-5.9-1.1-8.5c-1.4-8.1-3.8-14.2-7.6-13.9
				c-1.1,0.1-2.2,0.2-3.4,0.4C2923.7,1354.6,2921.1,1355,2918.2,1355.6z"/>
			<path class="st6" d="M2868.1,1505c-0.9-0.8-1.6-1.2-2.1-1.4c-0.5-0.1-0.8,0.1-0.8,0.7c-0.8,10.5,13.4,74.4,21.4,106.8
				c0.6,2.5,1.2,4.8,1.7,6.9c1.1,4.2,2,7.4,2.6,9.5c0.5,1.7,2.2,1.7,4.6,0.6c1.3-0.6,2.8-1.5,4.4-2.7c1.9-1.3,3.9-3,6.1-4.9
				c1.8-1.5,3.5-3.2,5.3-4.9c9.3-9.2,18.4-20.3,18.4-23.7C2929.6,1586,2880.8,1515.8,2868.1,1505z"/>
			<path class="st6" d="M2959.1,1414.2c-3.2,1.1-7,2.1-10.8,3c-1.3,0.3-2.5,0.6-3.8,0.8c-2.5,0.5-5,1-7.2,1.5
				c-1.2,0.3-2.4,0.5-3.4,0.7c-3.2,0.7-5.6,1.3-6.7,2c-0.6,0.3-0.8,0.7-0.6,1c17.7,21.7,32.2,43.7,43,61.3
				c6.5,10.5,11.6,19.5,15.4,25.8c3.4,5.7,7.3,12.3,11.4,19.3c4.1,7.1,8.5,14.5,12.8,21.9c1.4,2.4,2.9,4.9,4.3,7.3
				c7.1,12,13.7,23.1,18.7,30.8c4,6.2,6.8,10.2,7.9,10.7c1.1,0.5,2.2,1,3.4,1.4c4.7,1.6,10,2.1,15.3,1.9c1.3,0,2.7-0.1,4-0.3
				c2.9-0.3,5.8-0.8,8.5-1.4c2.9-0.6,5.6-1.4,7.9-2.3c3-1.1,5.4-2.3,6.9-3.4c0.1-0.1,0.3-0.2,0.5-0.3c0.9-0.7,1.3-1.5,1.3-2.1
				c0-2.6-1.1-7.2-3.1-13.2c-1.5-4.6-3.5-9.9-5.9-16c-0.8-2-1.6-4.1-2.5-6.2c-4.3-10.3-9.5-22.1-15.3-34.5
				c-5.1-11.1-10.7-22.7-16.5-34.2c-3.9-7.7-7.8-15.4-11.7-22.8c-3.9-7.5-7.9-14.8-11.7-21.7c-7.1-12.8-14-24.3-20.1-33.5
				c-2.2-3.3-4.2-6.3-6.2-8.9c-8.8-8.8-17.8-17-27-24.7c-0.3,0.2-0.4,0.6-0.4,1.3c0,3.2,3.5,11.5,3.3,19.8c-0.1,3.3-0.7,6.7-2.4,9.8
				C2966.7,1410.9,2963.4,1412.7,2959.1,1414.2z"/>
			<path class="st6" d="M3394.4,2305c3.6-7.2,7.3-14.5,11-21.7c4.1-7.9,8.4-15.6,12.6-23.3c2.3-4.2,4.5-8.5,6.8-12.6
				c10.3-18.2,20.9-35.6,31.6-51.8c12.8-19.2,25.7-36.7,38.6-51.2c17.8-20,35.1-38.5,51.8-55.5c15.1-15.4,29.9-29.6,44.2-42.7
				c14.3-13.1,28.3-25.1,42-36.1c9.1-7.3,18.1-14.2,26.9-20.7c8.8-6.5,17.5-12.6,26.1-18.3c4.3-2.8,8.6-5.6,12.8-8.3
				c12.7-8,25.3-15.1,37.6-21.5c16.5-8.6,32.6-15.8,48.6-22c5.4-2.1,10.7-4,16-5.9c6.6-2.3,13.1-4.4,19.7-6.4c5-1.5,10-2.9,14.9-4.2
				c14.1-3.8,28.2-6.9,42.3-9.6c4.6-0.9,9.2-1.7,13.8-2.5c19.8-3.3,39.8-5.8,60.3-7.9c33-3.4,67.6-3.6,101.6-1.7
				c9.7,0.5,19.3,1.2,28.9,2.1c14.3,1.3,28.4,2.8,42,4.6c91.1,11.8,163.8,33,166.3,35c0,0,182.3,49.5,204.2,87.5
				c8.7,15.1,23.7,57.3,34.4,85l33,102.5c-14.5-62.2-37.4-144-57.8-187.4c-2.2-4.8-4.5-9.2-6.6-13c-12-20.9-77.5-47.4-133.8-67
				c-0.3-0.1-0.7-0.2-1-0.3c-5-1.7-10-3.4-14.8-5.1c-0.7-0.2-1.3-0.4-2-0.7c-4.9-1.6-9.7-3.2-14.2-4.7c-0.3-0.1-0.7-0.2-1-0.3
				c-4.5-1.5-8.9-2.9-13-4.2c-0.3-0.1-0.6-0.2-0.9-0.3c-4.1-1.3-7.9-2.5-11.4-3.6c-0.6-0.2-1.2-0.4-1.8-0.5c-3.3-1-6.3-1.9-9-2.8
				c-0.7-0.2-1.4-0.4-2-0.6c-2.5-0.8-4.8-1.4-6.7-2c-0.4-0.1-0.8-0.2-1.2-0.3c-4.4-1.3-7-2-7-2c-0.5-0.4-3.8-1.6-9.5-3.3
				c-2.9-0.9-6.3-1.8-10.3-2.9c-6-1.6-13.2-3.5-21.5-5.5c-9.7-2.4-20.8-4.9-33-7.5c-12.3-2.6-25.7-5.2-40-7.8
				c-12.2-2.2-25.1-4.2-38.5-6.1c-17.8-2.5-36.5-4.8-55.6-6.4c-9.5-0.8-19.2-1.5-28.9-2.1c-33.9-1.9-68.5-1.7-101.6,1.7
				c-22.6,2.3-44.6,5.1-66.4,8.9c-8.7,1.5-17.4,3.2-26.1,5.1c-4.3,1-8.7,2-13,3c-13,3.2-26.1,6.9-39.2,11.3
				c-13.1,4.4-26.3,9.4-39.7,15.2c-8.9,3.9-17.9,8.1-26.9,12.7c-4.5,2.3-9.1,4.7-13.6,7.2c-9.1,5-18.4,10.4-27.8,16.2
				c-9.4,5.9-18.9,12.1-28.5,18.9c-9.6,6.8-19.4,14.1-29.4,21.9c-9.9,7.8-20.1,16.1-30.4,25c-25.8,22.2-52.7,48-81.1,78
				c-11.4,12-23,24.6-34.9,38c-2.2,2.4-4.3,5-6.5,7.6c-2.9,3.6-5.8,7.2-8.7,11c-1.4,1.9-2.9,3.9-4.3,5.9c-6.5,9-12.8,18.5-19,28.6
				c-24.9,40.6-47.2,88.9-65.7,134.9c-4,9.8-7.7,19.5-11.3,29c-1.8,4.8-3.6,9.5-5.3,14.1c-5.7,15.5-10.9,30.2-15.5,43.8
				c0,0.1-0.1,0.3-0.1,0.4c2.4-1.9,4.8-3.8,7.3-5.7c3.5-8.3,7.1-16.8,11-25.5C3373.4,2348.3,3383.5,2326.6,3394.4,2305z"/>
			<path class="st13" d="M4565.4,2210.5C4565.4,2210.5,4565.4,2210.5,4565.4,2210.5C4565.4,2210.5,4565.4,2210.5,4565.4,2210.5
				C4565.4,2210.5,4565.4,2210.5,4565.4,2210.5z"/>
			<path class="st13" d="M4565.4,2210.6C4565.4,2210.5,4565.4,2210.5,4565.4,2210.6C4565.4,2210.5,4565.4,2210.5,4565.4,2210.6
				C4565.4,2210.5,4565.4,2210.5,4565.4,2210.6C4565.4,2210.5,4565.4,2210.5,4565.4,2210.6
				C4565.4,2210.5,4565.4,2210.5,4565.4,2210.6z"/>
			<path class="st6" d="M4562.4,2197.9C4562.4,2197.9,4563.4,2201.9,4562.4,2197.9L4562.4,2197.9z"/>
			<path class="st6" d="M1752.3,2470.9L1752.3,2470.9c0-0.1,0-0.1,0-0.2c0,0,0,0,0,0C1752.3,2470.7,1752.3,2470.8,1752.3,2470.9
				L1752.3,2470.9z"/>
			<path class="st6" d="M588.8,2044.8c7.6-6.9,15.3-13.9,23.2-20.7l0,0c30.3-26.5,62.8-52.6,97-76.8c25.7-18.2,52.4-35.3,79.9-50.8
				c21.1-11.9,42.7-22.7,64.7-32.5c13.6-6,27.3-11.6,41.2-16.7c12.4-4.5,24.9-8.8,37.5-12.4c19.8-5.7,39.9-10.3,60.1-13.5
				c20.2-3.3,40.6-5.2,61.2-5.7c102.2-2.3,191,19.4,267.8,56.6c11,5.3,21.7,10.9,32.2,16.8c21,11.8,41,24.8,60.1,38.8
				c9.5,7,18.9,14.2,28,21.6c31.8,26,60.8,54.6,87.3,84.8c15.1,17.3,29.3,35,42.8,53.1c3.4,4.5,6.7,9.1,9.9,13.6
				c9.8,13.7,19.1,27.5,28,41.4c8.9,13.9,17.3,27.8,25.3,41.7c64,111.3,100.8,221.2,117.5,286.6c0,0,0,0,0,0c0,0,0-0.1,0-0.1
				c0-0.1-0.1-0.3-0.1-0.4c-1.3-6.3-2.9-13.6-4.8-21.6c-1-4-2-8.2-3.1-12.6c-1.1-4.4-2.3-9-3.6-13.8c-1.7-6.4-3.6-13.1-5.7-20
				c-4.1-14.2-8.9-29.5-14.4-45.8c-2.7-8.1-5.6-16.5-8.7-25.1c-3.1-8.6-6.3-17.3-9.8-26.3c-3.4-8.9-7.1-18.1-10.9-27.3
				c-3.8-9.3-7.8-18.7-12-28.2c-8.4-19-17.6-38.5-27.6-58.2c-10-19.7-20.8-39.6-32.5-59.4c-5.8-9.9-11.9-19.8-18.2-29.7
				c-6.3-9.9-12.8-19.7-19.5-29.4c-20.2-29.3-42.4-57.9-66.8-85c-7.1-7.9-14.4-15.7-21.9-23.4c-15-15.3-30.7-30-47.3-44
				c-8.3-7-16.7-13.8-25.4-20.4c-22.3-17-45.9-32.5-70.9-46.4c-18.8-10.4-38.3-19.8-58.6-28.2c-6.8-2.8-13.7-5.4-20.6-8
				c-12.4-4.5-25-8.6-38-12.2c-19.4-5.5-39.5-9.9-60.3-13.3c-6.9-1.1-13.9-2.1-21-3c-21.2-2.7-43.1-4.2-65.8-4.5
				c-7.5-0.1-15.2-0.1-22.8,0.1c-51.2,1.2-101.6,11.9-150.4,29.3c-8.2,2.9-16.3,6-24.4,9.3c-5.5,2.2-11,4.6-16.5,7
				c-7,3.1-14,6.3-20.9,9.6c-11.8,5.6-23.4,11.6-34.9,17.9c-11.4,6.3-22.7,12.8-33.9,19.6c-11.2,6.8-22.2,13.8-33,21.1
				c-8.7,5.8-17.2,11.7-25.7,17.8c-8.4,6.1-16.8,12.2-25,18.5c-8.2,6.3-16.3,12.6-24.3,19c-8,6.4-15.8,12.9-23.6,19.5
				c-7.7,6.5-15.3,13.1-22.8,19.8l0,0c-15.5,13.8-30.5,27.7-44.8,41.5c-14.3,13.8-28,27.6-40.9,41.1c-19.5,20.3-37.3,40-53.4,58.4
				c-5.4,6.1-10.5,12.2-15.5,18c-0.5,0.5-0.9,1.1-1.3,1.6c1.6,2.3,3,4.7,4.3,7.2c15.3-17.2,32.1-35.3,50.3-54.1
				C544.8,2086.5,566.1,2065.6,588.8,2044.8z"/>
			<path class="st0" d="M972.9,2066.9c-16.7-11.7-39.8-7.6-51.5,9.2c-11.7,16.8-7.6,39.8,9.2,51.5c16.7,11.7,39.8,7.6,51.5-9.2
				C993.7,2101.7,989.6,2078.6,972.9,2066.9z"/>
			<path class="st0" d="M4583.8,2056.8c-5.8-51.1-20.4-72.1-24.7-76.3c-4.2-4.1-44.2-9.2-44.2-9.2c0,0,0,0.1,0,0.1
				c-2.3-4.7-4.5-9-6.7-12.7c-5.4-9.2-21.7-19.5-43-29.7c-26.3-12.7-60.2-25.3-91.5-35.9h0c-0.3-0.1-0.7-0.2-1-0.3
				c-5-1.7-10-3.4-14.9-4.9c-0.7-0.2-1.3-0.4-2-0.6c-4.9-1.6-9.7-3.1-14.3-4.6c-0.3-0.1-0.7-0.2-1-0.3c-4.6-1.4-8.9-2.8-13.1-4.1
				c-0.3-0.1-0.6-0.2-0.9-0.3c-4.1-1.3-7.9-2.4-11.5-3.5c-0.6-0.2-1.2-0.4-1.8-0.5c-3.3-1-6.3-1.9-9.1-2.7c-0.7-0.2-1.4-0.4-2-0.6
				c-2.5-0.7-4.8-1.4-6.7-2c-0.4-0.1-0.8-0.2-1.2-0.3c-4.4-1.3-7-2-7-2c-0.9-0.7-2-1.4-2.9-2.1c0.3,0.2,0.7,0.4,1,0.6
				c-3.1-2.4-6.6-4.5-9.8-6.9c-126-93.1-286.3-155-442-195.8c-242.5-64.2-478-79.9-563.8-79.9c0,0-3.3-5.6-9.1-15.2
				c-0.1-0.1-0.1-0.2-0.2-0.3c-1.1-1.8-2.2-3.6-3.4-5.7c-0.5-0.8-1-1.6-1.5-2.4c-1-1.6-2-3.3-3.1-5.1c-1.6-2.6-3.4-5.4-5.2-8.4
				c-0.6-0.9-1.2-2-1.8-2.9c-1.4-2.3-2.9-4.6-4.4-7c-0.7-1.1-1.4-2.3-2.2-3.4c-1.6-2.5-3.1-5-4.8-7.5c-0.7-1.2-1.5-2.3-2.2-3.5
				c-1.7-2.7-3.5-5.5-5.4-8.4c-0.8-1.2-1.5-2.4-2.3-3.6c-2-3.1-4-6.2-6.1-9.4c-0.7-1.1-1.4-2.1-2.1-3.2c-2.4-3.7-4.9-7.5-7.5-11.3
				c-0.4-0.6-0.8-1.3-1.3-1.9c-6.1-9.2-12.6-18.8-19.3-28.6c-0.6-0.8-1.1-1.6-1.7-2.5c-2.8-4-5.6-8.1-8.5-12.2
				c-0.8-1.2-1.7-2.4-2.5-3.6c-2.7-3.8-5.3-7.6-8.1-11.4c-1-1.4-1.9-2.7-2.9-4.1c-2.7-3.9-5.5-7.7-8.3-11.6
				c-0.9-1.3-1.8-2.5-2.7-3.8c-3.2-4.3-6.4-8.7-9.6-13.1c-0.6-0.8-1.1-1.5-1.7-2.3c-7.8-10.5-15.8-21.1-24-31.5
				c-0.5-0.7-1.1-1.4-1.6-2c-3.4-4.4-6.9-8.8-10.4-13.1c-1.1-1.3-2.1-2.6-3.2-3.9c-3-3.7-6-7.4-9-11c-1.3-1.6-2.6-3.1-3.8-4.6
				c-2.9-3.4-5.7-6.9-8.6-10.2c-1.3-1.5-2.6-3.1-4-4.6c-2.9-3.4-5.9-6.8-8.9-10.2c-1.2-1.4-2.5-2.8-3.7-4.2
				c-3.5-3.9-6.9-7.7-10.4-11.4c-0.7-0.8-1.4-1.6-2.1-2.3c-4.2-4.6-8.5-9-12.8-13.4c-0.6-0.6-1.2-1.2-1.8-1.8
				c-3.5-3.6-7.1-7.1-10.6-10.6c-1.4-1.3-2.7-2.6-4.1-3.9c-2.8-2.7-5.6-5.3-8.4-7.9c-1.6-1.4-3.1-2.8-4.7-4.2
				c-2.6-2.3-5.2-4.6-7.8-6.8c-1.6-1.4-3.2-2.7-4.8-4.1c-2.6-2.2-5.1-4.2-7.7-6.3c-1.5-1.2-3.1-2.5-4.6-3.6c-2.7-2.1-5.5-4.1-8.2-6
				c-1.3-0.9-2.6-1.9-3.9-2.8c-4-2.8-8-5.4-11.9-7.8c-4.3-2.6-8.9-5.2-13.8-7.7c-2.1-1.1-4.1-2.1-6.2-3.2c-2.1-1-4.4-2-6.6-3.1
				c-5.8-2.6-11.8-5.2-18.1-7.7c-0.4-0.2-0.7-0.3-1.1-0.5c0.1,0.1,0.2,0.1,0.3,0.2c-40.9-16.3-306.3-92.2-628.9-92.2h-272.8
				c-439.7,0-726,147.9-759.5,159.2c-33.5,11.3-40.5,40.6-40.5,40.6s-404.7,277.3-586.8,461.6c-71.2,72.1-114.1,131.9-140.1,178.1
				c-18.8,3.4-38.4,9-47.8,18.2c-6.6,6.4-12,20-16.3,35.7c-7.4,27-11.6,60.2-13.1,73.8c-0.4,3.9,1.5,7.6,4.9,9.6c0,0,0,0,0,0h8.8
				c0,0,0,0,0,0c0.5-3.5,1.1-7.1,1.8-10.8c0.1-0.6,0.2-1.3,0.4-2c0.5-3,1.1-6,1.7-9c0.2-0.8,0.3-1.7,0.5-2.5
				c0.7-3.6,1.5-7.3,2.4-10.9c0.1-0.3,0.1-0.5,0.2-0.8c0.8-3.2,1.6-6.3,2.4-9.4c0.3-1,0.5-1.9,0.8-2.8c0.8-2.7,1.6-5.3,2.4-7.8
				c0.2-0.6,0.4-1.3,0.6-2c1-3,2.1-5.8,3.3-8.4c0.3-0.6,0.6-1.2,0.8-1.8c0.9-2,1.9-3.8,2.8-5.5c0.4-0.6,0.7-1.2,1.1-1.8
				c1.3-2,2.6-3.8,4-5.2c9.4-9.4,28.8-15.1,47.6-18.6c25.9-47.2,68.6-108.4,139.4-182c181.2-188.3,584-471.5,584-471.5
				s6.9-29.9,40.3-41.4c33.4-11.5,318.3-162.6,755.9-162.6h271.5c321.1,0,585.2,77.6,625.9,94.2c-0.1-0.1-0.2-0.1-0.3-0.2
				c0.4,0.2,0.7,0.3,1.1,0.5c6.3,2.6,12.2,5.2,18,7.9c2.2,1,4.5,2.1,6.6,3.1c2.1,1.1,4.2,2.1,6.2,3.2c4.8,2.6,9.5,5.1,13.7,7.8
				c3.9,2.5,7.9,5.2,11.9,8c1.3,0.9,2.6,1.9,3.9,2.9c2.7,2,5.4,4,8.2,6.2c1.5,1.2,3.1,2.5,4.6,3.7c2.6,2.1,5.1,4.2,7.7,6.4
				c1.6,1.4,3.2,2.8,4.8,4.2c2.6,2.3,5.2,4.6,7.7,7c1.5,1.4,3.1,2.8,4.6,4.3c2.8,2.6,5.6,5.3,8.3,8.1c1.3,1.3,2.7,2.6,4,4
				c3.5,3.5,7,7.1,10.6,10.8c0.6,0.6,1.2,1.2,1.8,1.9c4.2,4.5,8.5,9,12.7,13.7c0.7,0.8,1.4,1.6,2.1,2.4c3.5,3.8,6.9,7.7,10.4,11.7
				c1.2,1.4,2.5,2.8,3.7,4.3c2.9,3.4,5.9,6.9,8.8,10.4c1.3,1.6,2.6,3.2,3.9,4.7c2.9,3.5,5.7,6.9,8.6,10.5c1.3,1.6,2.6,3.2,3.8,4.7
				c3,3.7,6,7.5,8.9,11.2c1.1,1.3,2.1,2.7,3.2,4c3.5,4.5,6.9,8.9,10.3,13.4c0.5,0.7,1.1,1.4,1.6,2.1c8.1,10.7,16.1,21.5,23.9,32.2
				c0.6,0.8,1.1,1.6,1.7,2.4c3.2,4.5,6.4,8.9,9.5,13.3c0.9,1.3,1.8,2.6,2.7,3.9c2.8,4,5.6,7.9,8.3,11.8c1,1.4,1.9,2.8,2.9,4.2
				c2.7,3.9,5.4,7.8,8,11.7c0.8,1.2,1.7,2.5,2.5,3.7c2.9,4.2,5.7,8.4,8.4,12.5c0.6,0.8,1.1,1.7,1.7,2.5
				c6.7,10.1,13.1,19.8,19.2,29.2c0.4,0.7,0.8,1.3,1.3,2c2.5,3.9,5,7.8,7.4,11.6c0.7,1.1,1.4,2.2,2.1,3.3c2.1,3.3,4.1,6.4,6.1,9.6
				c0.8,1.2,1.5,2.5,2.3,3.7c1.8,2.9,3.6,5.8,5.3,8.5c0.7,1.2,1.5,2.4,2.2,3.6c1.6,2.6,3.2,5.2,4.8,7.7c0.7,1.2,1.5,2.4,2.2,3.5
				c1.5,2.5,2.9,4.8,4.4,7.1c0.6,1,1.2,2,1.8,3c1.8,3,3.6,5.9,5.2,8.6c1.1,1.8,2.1,3.5,3.1,5.2c0.5,0.8,1,1.7,1.5,2.5
				c1.2,2.1,2.4,4,3.4,5.8c0.1,0.1,0.1,0.2,0.2,0.3c5.8,9.8,9.1,15.5,9.1,15.5c85.4,0,319.8,16.1,561.1,81.6
				c155,41.7,314.5,105,439.8,200c3.2,2.4,6.6,4.6,9.7,7.1c-0.3-0.2-0.6-0.4-1-0.7c0.9,0.7,2,1.4,2.9,2.1c0,0,2.6,0.7,7,2
				c0.4,0.1,0.7,0.2,1.2,0.3c1.9,0.6,4.2,1.2,6.7,2c0.7,0.2,1.3,0.4,2,0.6c2.7,0.8,5.7,1.7,9,2.8c0.6,0.2,1.2,0.4,1.8,0.5
				c3.6,1.1,7.4,2.3,11.4,3.6c0.3,0.1,0.6,0.2,0.9,0.3c4.1,1.3,8.5,2.7,13,4.2c0.3,0.1,0.7,0.2,1,0.3c4.6,1.5,9.3,3.1,14.2,4.7
				c0.7,0.2,1.3,0.4,2,0.7c4.8,1.6,9.8,3.3,14.8,5.1c0.3,0.1,0.7,0.2,1,0.3c0,0,0,0,0,0c56.4,19.6,121.8,46.1,133.8,67
				c2.2,3.8,4.4,8.2,6.6,13c0,0,0-0.1,0-0.1c0,0,39.8,5.2,44,9.4c4.2,4.2,18.8,25.7,24.5,77.9c2.3,20.7,2.3,40.5,1.5,57.1l6.3-0.3
				C4580.9,2154.5,4589.6,2107.9,4583.8,2056.8z"/>
			<path class="st0" d="M4373.9,2155c-28.6,11.5-42.4,44-30.9,72.5c11.5,28.6,43.9,42.4,72.5,30.9c28.6-11.5,42.4-44,30.9-72.5
				C4434.9,2157.4,4402.5,2143.5,4373.9,2155z"/>
			<path class="st0" d="M2627.4,2287.1c-20.5,8.2-30.4,31.6-22.2,52.1c8.2,20.5,31.5,30.4,52,22.2c20.5-8.2,30.4-31.6,22.2-52.1
				C2671.2,2288.7,2647.9,2278.8,2627.4,2287.1z"/>
			<path class="st6" d="M2122.9,1837.1l21.1,290.4v-889l-20.1,256.5C2114.9,1608.9,2114.6,1723.3,2122.9,1837.1z"/>
		</g>
	</g>
	<rect x="126.4" y="-483.3" class="st12" width="15698.1" height="4029.2"/>
</g>
<g id="DESIGNED_BY_FREEPIK">
</g>
</svg>
