<?xml version="1.0" encoding="utf-8"?>
<!-- Generator: Adobe Illustrator 19.0.0, SVG Export Plug-In . SVG Version: 6.00 Build 0)  -->
<svg version="1.1" id="Layer_1" xmlns="http://www.w3.org/2000/svg" xmlns:xlink="http://www.w3.org/1999/xlink" x="0px" y="0px"
	 viewBox="0 0 390.7 162.2" style="enable-background:new 0 0 390.7 162.2;" xml:space="preserve">
<style type="text/css">
	.st0{fill:#ABD3DD;}
	.st1{opacity:0.62;}
	.st2{fill:#FFFFFF;}
	.st3{fill:#24272B;}
	.st4{fill:#002E93;}
	.st5{fill:#0543CE;}
	.st6{fill:#D3A994;}
	.st7{fill:#D3E5F2;}
	.st8{fill:#A6DDFF;}
	.st9{fill:#D85700;}
	.st10{fill:#FF6903;}
	.st11{fill:#BED4EA;}
	.st12{fill:#353535;}
	.st13{fill:#C69320;}
	.st14{fill:#E5E5E5;}
	.st15{fill:#CC0000;}
	.st16{fill:#C3CAD1;}
	.st17{fill:#8FA4BC;}
	.st18{fill:#E5C0AE;}
	.st19{fill:#300901;}
	.st20{fill:#CCEEFF;}
	.st21{fill:#E4EEF4;}
	.st22{fill:#D3D3D3;}
	.st23{fill:#CE0000;}
	.st24{fill:url(#SVGID_1_);}
</style>
<polygon class="st0" points="422,162.2 -215,162.2 -172.5,131.7 422,131.7 "/>
<g class="st1">
	<polygon class="st2" points="-114.4,149.2 -132.2,149.2 -116.4,140.3 -99.9,140.3 	"/>
	<polygon class="st2" points="-73.6,149.2 -91.5,149.2 -78.8,140.3 -62.3,140.3 	"/>
	<polygon class="st2" points="-32.9,149.2 -50.7,149.2 -41.1,140.3 -24.7,140.3 	"/>
	<polygon class="st2" points="7.9,149.2 -10,149.2 -3.5,140.3 12.9,140.3 	"/>
	<polygon class="st2" points="48.6,149.2 30.8,149.2 34.1,140.3 50.5,140.3 	"/>
	<polygon class="st2" points="89.4,149.2 71.5,149.2 71.7,140.3 88.1,140.3 	"/>
	<polygon class="st2" points="130.1,149.2 112.3,149.2 109.3,140.3 125.7,140.3 	"/>
	<polygon class="st2" points="170.9,149.2 153,149.2 146.9,140.3 163.4,140.3 	"/>
	<polygon class="st2" points="211.6,149.2 193.8,149.2 184.5,140.3 201,140.3 	"/>
	<polygon class="st2" points="252.4,149.2 234.5,149.2 222.1,140.3 238.6,140.3 	"/>
	<polygon class="st2" points="293.1,149.2 275.3,149.2 259.7,140.3 276.2,140.3 	"/>
	<polygon class="st2" points="333.9,149.2 316,149.2 297.3,140.3 313.8,140.3 	"/>
	<polygon class="st2" points="374.6,149.2 356.8,149.2 334.9,140.3 351.4,140.3 	"/>
	<polygon class="st2" points="415.4,149.2 397.5,149.2 372.6,140.3 389,140.3 	"/>
</g>
<g>
	<g>
		<g>
			<path d="M353.4,128.9c0.8,5.2,1.4,7.8-1.4,8.3c-2.5,0.4-3.2-1-4.7-0.3c-3.9,1.9-5.4,1.6-6.6,1.6c-4.9,0-4.9-3.4-1.3-4.5
				c3.6-1.1,6.3-5.3,6.3-5.3L353.4,128.9z"/>
			<path class="st3" d="M350.3,129.6c-1,0.9-3.5,2.5-4.4,3.2c-0.9,0.7-3.7,2.5-7.1,2.7c-0.9,0-1.2-0.6-0.3-1.1
				c0.9-0.4,1.3-0.3,3.9-2c2.3-1.5,3.1-3.2,3.7-3.3c0.5-0.1,2,0.5,2,0.5L350.3,129.6z"/>
		</g>
		<path class="st4" d="M354.8,132.2c0,0,0.9-20-0.9-31.3c0.1-1.8-1.1-9-1.2-9.8c-0.5-2.8-0.2-6.9-0.8-14.3c-0.2-3.3-0.6-6.5-1.2-8.9
			c0,0-0.1-0.1-0.1-0.1c-0.7-2.8-1.7-5-3.2-6.4c-6.3-5.8-12.8,5.3-12.8,5.3c1.9,2.9,4.5,8.3,4.5,11.2c0,2.9,2.7,28.4,4.2,29.9
			c1.5,1.4-0.3,24.6-0.3,24.6L354.8,132.2z"/>
	</g>
	<g>
		<g>
			<path d="M369.9,128.7c1.5,4,2,8.3-0.8,9.2c-2.6,0.8-2.7-0.6-4.2,0.4c-3.8,2.5-5.7,2-7,2.2c-5.2,0.7-5.6-2.9-2-4.6
				c3.6-1.7,5.5-6.2,5.5-6.2L369.9,128.7z"/>
			<path class="st3" d="M366.7,129.9c-0.9,1.1-3.4,3.1-4.2,4c-0.8,0.9-3.5,3.1-7.1,3.8c-0.9,0.2-1.4-0.5-0.5-1.1
				c0.9-0.6,2.3-1.1,4.1-3.3c1.8-2.2,1.6-3.1,2.2-3.2c0.6-0.2,3.1,0.2,3.1,0.2L366.7,129.9z"/>
		</g>
		<g>
			<g>
				<path class="st4" d="M340.6,64.6c1.3,3.3,5.9,4.5,7.1,9.8c1.3,5.3,5.5,30.2,6.9,30.2c1.4,0,4.4,28.1,4.4,28.1s12.3,1.2,12.3,0.2
					c0.4-23.7-4.6-30.8-4.6-30.8s-1.6-10.4-2.5-18c-0.9-7.6-1.3-10.8-1.2-12.9c0.4-6.3-2.8-13.8-9.8-18.3
					C351.1,51.5,340.6,64.6,340.6,64.6z"/>
			</g>
		</g>
		<g>
			<path class="st5" d="M371.5,132.5c0.4-23.7-4.6-30.7-4.6-30.7s-1.6-10.4-2.5-18c-0.9-7.6-1.3-10.8-1.2-12.9
				c0.3-4.6-1.3-9.8-4.9-14c-1.5,2.1-2.6,3.7-2.6,3.7c1.6,3.7,3.6,10.8,3.2,16.5c-0.4,5.7,2.5,24.9,3.9,27.9
				c1.2,2.5,4,19.2,3.8,27.9C369.2,133,371.5,132.9,371.5,132.5z"/>
		</g>
	</g>
</g>
<g>
	<path class="st6" d="M309.9,57.4c1.1,7.6,6.7,7.8,7.9,6.9c1.3-0.9,6.9-14.3,6.9-14.3l-6.1-7.3l-4.4,13.9c0,0-1.7-0.8-3.2-1.6
		C309.4,54.3,309.9,57.4,309.9,57.4z"/>
	<path class="st7" d="M320.2,39.3c1.6,0,6.4,2.4,6.7,6.7c0.4,4.3-3.9,12.1-3.9,12.1s-9.3-3.4-9-4.2
		C316.2,49.8,316.9,39.3,320.2,39.3z"/>
	<g>
		<g>
			
				<rect x="302.4" y="48.1" transform="matrix(-0.9738 0.2274 -0.2274 -0.9738 609.6727 27.0371)" class="st5" width="1.7" height="1"/>
			<path class="st5" d="M303.4,48.5c1.3,2.2,2.5,4.9,2.9,4.4c0.4-0.5,0.3,0.1-0.5-1.5c-0.9-1.5,0.1-3.3,0.1-3.3L303.4,48.5z"/>
			<g>
				<path class="st2" d="M305.9,59.8l1-6.6c0.2-2.4-0.7-4.3-1.4-4.6l1.4-0.7l0,0h0.1l0.4-0.2l0,0.2l1.6,0c-0.5,0.6-0.4,2.8,0.9,4.9
					l3.7,5.3l0,0c0.1,0.1,0.2,0.2,0.2,0.3l1.8,7.6c0.1,0.3-0.1,0.6-0.4,0.7l-6.7,1.6c-0.3,0.1-0.6-0.1-0.7-0.4l-1.8-7.6
					C305.9,59.9,305.9,59.8,305.9,59.8z"/>
				<g>
					<path class="st8" d="M307.7,67.7l-1.8-7.6c-0.1-0.2,0-0.4,0-0.4l1-6.6c0.2-2.4-0.7-4.3-1.4-4.6l1.4-0.7l0,0h0.1l0.2-0.1
						l4.6,19.7l-3.4,0.8C308.1,68.2,307.8,68,307.7,67.7z"/>
				</g>
			</g>
			<g>
				<path class="st9" d="M303.2,48.7c0.1,0.6,2.1,0.6,2.7,0.5l3.7-0.9c0.5-0.1,0.5-0.6,0.4-1.2l0,0c-0.1-0.6-0.3-0.5-0.8-0.6
					l-4.1-0.3C304.4,46.3,303,48.1,303.2,48.7L303.2,48.7z"/>
				<g>
					<path class="st10" d="M305,46.2l4.1,0.3c0.4,0.1,0.5,0,0.7,0.5l-6.7,1.6C303.1,47.9,304.5,46.3,305,46.2z"/>
				</g>
			</g>
		</g>
		<g>
			<path class="st6" d="M306.3,51.9c0.2,0.3,3.1,2.4,2.5,2.8c-0.6,0.3-2.6,0.1-2.9-1.1C305.5,52.4,306.3,51.9,306.3,51.9z"/>
			<path class="st6" d="M305.9,53.4c-0.6,0.2-0.8,1.1-0.7,1.3c0.2,0.2,3.4,1.9,3.8,1.5c0.4-0.4,0-1-0.6-1.2
				C307.9,54.7,305.9,53.4,305.9,53.4z"/>
			<path class="st6" d="M305.6,54.9c-0.4,0.1-0.5,0.8-0.2,1.2c0.4,0.4,2.4,1.1,2.7,0.7c0.3-0.4-0.1-0.8-0.6-1.1
				C307,55.3,305.6,54.9,305.6,54.9z"/>
			<path class="st6" d="M305.4,56.1c-0.1,0.4,0,1.1,0.3,1.2c0.4,0.1,1.6,0.5,1.6,0.1c0-0.3-0.6-0.9-1-1.1
				C306,56.3,305.4,56.1,305.4,56.1z"/>
		</g>
	</g>
</g>
<path class="st4" d="M322.5,35.1c-3.2,2.5-3.4,3.6-4.2,5.4c-0.8,1.8,3.6,9.4,7.5,15c1.2,1.7,6.1,9.5,9.9,20.1c0.5,1.4,12.5-4,12.5-4
	s-4.5-6.8-7.6-13.2c-3.4-7.2-12.3-19.2-15.6-19.2C320.8,39,322.5,35.1,322.5,35.1z"/>
<g>
	<path d="M358.4,107c-1.6-10.1-8-24.6-8-24.6c-4.8-11-59.3-26.9-59.3-26.9l-33-29.6c-9.8-9.4-142.7-10-159.1,2.9
		c-3.4,0-18.7,33.1-23.5,67.1c-0.5,3.3-1.6,7.8-3.4,12.2c-0.9,2.3-5.9,1.3-4.8,4c3.9,9.6,20.5,12.3,20.5,12.3s13.7,0,17.4,0.1
		c-0.2-1.1-0.3-2.3-0.3-3.5c0-12.3,10-20.9,22.3-20.9c12.3,0,22.3,8.6,22.3,20.9c0,1.3-0.1,2.7-0.3,3.9c30.7-0.1,107.5,0,140.1,0.2
		c-0.3-1.6-0.3-2.5-0.3-4.2c0-12.3,10-20.9,22.3-20.9c12.3,0,22.3,8.6,22.3,20.9c0,1.7-0.2,3.4-0.6,5c12.3,0,18.8-0.2,20-0.9
		c3.7-2.5,9.5-7.3,10.4-11.9C363.6,111.3,358.7,108.9,358.4,107z"/>
	<g>
		<path d="M289.7,121.3c0-11.7,9.5-21.1,21.1-21.1c11.7,0,21.1,9.4,21.1,21.1c0,11.7-9.5,21.1-21.1,21.1
			C299.1,142.4,289.7,133,289.7,121.3z"/>
		<path class="st11" d="M296.5,121.3c0-7.9,6.4-14.3,14.3-14.3l0,0c7.9,0,14.3,6.4,14.3,14.3l0,0c0,7.9-6.4,14.3-14.3,14.3l0,0
			C302.9,135.6,296.5,129.2,296.5,121.3L296.5,121.3z M298.6,121.3c0,6.7,5.5,12.2,12.2,12.2l0,0c6.7,0,12.1-5.4,12.2-12.2l0,0
			c0-6.7-5.4-12.2-12.2-12.2l0,0C304.1,109.2,298.6,114.6,298.6,121.3L298.6,121.3L298.6,121.3z"/>
		<path class="st11" d="M323.5,124.2c-5.2-0.3-9-1.5-9-2.8c0-1.4,3.9-2.5,9.1-2.8c-0.3-1.5-0.9-2.9-1.7-4.2
			c-3.9,3.5-7.4,5.4-8.4,4.4c-1-1,0.9-4.5,4.4-8.4c-0.8-0.5-1.7-1-2.7-1.3c-0.5-0.2-1-0.3-1.5-0.4c-0.3,5.2-1.5,9.1-2.8,9.1
			c-1.4,0-2.5-3.9-2.8-9.1c-1.5,0.3-2.9,0.9-4.2,1.7c3.5,3.9,5.4,7.4,4.4,8.4c-1,1-4.5-1-8.4-4.4c-0.5,0.8-1,1.7-1.3,2.7
			c-0.2,0.5-0.3,1-0.4,1.5c5.2,0.3,9.1,1.5,9.1,2.8c0,1.4-3.9,2.5-9.1,2.8c0.3,1.5,0.9,2.9,1.7,4.2c3.9-3.5,7.4-5.4,8.4-4.4
			c1,1-0.9,4.5-4.4,8.4c0.8,0.5,1.7,1,2.7,1.3c0.5,0.2,1,0.3,1.5,0.4c0.3-5.2,1.5-9.1,2.8-9.1c1.4,0,2.5,3.9,2.8,9.1
			c1.5-0.3,2.9-0.9,4.2-1.7c-3.4-3.9-5.4-7.4-4.4-8.4c1-1,4.5,0.9,8.4,4.4c0.5-0.8,1-1.7,1.3-2.7
			C323.3,125.2,323.4,124.7,323.5,124.2z"/>
	</g>
	<g>
		<path d="M106,121.3c0-11.7,9.5-21.1,21.1-21.1c11.7,0,21.1,9.4,21.1,21.1c0,11.7-9.4,21.1-21.1,21.1
			C115.5,142.4,106,133,106,121.3z"/>
		<path class="st11" d="M112.8,121.3c0-7.9,6.4-14.3,14.3-14.3l0,0c7.9,0,14.3,6.4,14.3,14.3l0,0c0,7.9-6.4,14.3-14.3,14.3l0,0
			C119.3,135.6,112.8,129.2,112.8,121.3L112.8,121.3z M115,121.3c0,6.7,5.5,12.2,12.2,12.2l0,0c6.7,0,12.2-5.4,12.2-12.2l0,0
			c0-6.7-5.4-12.2-12.2-12.2l0,0C120.4,109.2,115,114.6,115,121.3L115,121.3L115,121.3z"/>
		<path class="st11" d="M139.9,124.2c-5.2-0.3-9-1.5-9-2.8c0-1.4,3.8-2.5,9-2.8c-0.3-1.5-0.9-2.9-1.7-4.2c-3.9,3.5-7.4,5.4-8.4,4.4
			c-1-1,0.9-4.5,4.4-8.4c-0.8-0.5-1.7-1-2.7-1.3c-0.5-0.2-1-0.3-1.5-0.4c-0.3,5.2-1.5,9.1-2.8,9.1c-1.4,0-2.5-3.9-2.8-9.1
			c-1.5,0.3-2.9,0.9-4.2,1.7c3.5,3.9,5.4,7.4,4.4,8.4c-1,1-4.5-1-8.4-4.4c-0.5,0.8-1,1.7-1.3,2.7c-0.2,0.5-0.3,1-0.4,1.5
			c5.2,0.3,9.1,1.5,9.1,2.8c0,1.4-3.9,2.5-9.1,2.8c0.3,1.5,0.9,2.9,1.7,4.2c3.9-3.5,7.4-5.4,8.4-4.4c1,1-0.9,4.5-4.4,8.4
			c0.8,0.5,1.7,1,2.7,1.3c0.5,0.2,1,0.3,1.5,0.4c0.3-5.2,1.5-9.1,2.8-9.1c1.4,0,2.5,3.9,2.8,9.1c1.5-0.3,2.9-0.9,4.2-1.7
			c-3.4-3.9-5.4-7.4-4.4-8.4c1-1,4.5,0.9,8.4,4.4c0.5-0.8,1-1.7,1.3-2.7C139.7,125.2,139.8,124.7,139.9,124.2z"/>
	</g>
	<g>
		<path class="st12" d="M131,100.1H74.6c-2.5,1.3-7.7,2.1-7.9,3.2c-0.1,0.6-0.2,1.2-0.2,1.7c-0.7,5.7,6.9,9.5,11.6,11.3h27.7
			c0-0.4,0-0.9,0-1.3C105.7,109.5,114.9,98.9,131,100.1z"/>
		<path class="st12" d="M309.5,100.1H128.9c12.6-0.1,17,9.1,19.8,14.9c0.2,0.4,1.6,0.9,1.6,1.3h139.5c0-0.4,0-0.9,0-1.3
			C289.7,109.5,297.7,100.4,309.5,100.1z"/>
		<path class="st12" d="M362.6,104.2c-1.3-1.5-4.6-3.7-6.6-4.1h-47.3c12.7-1.6,25.6,9.4,25.6,14.9c0,0.4,0,0.9,0,1.3h24.7
			c1.6-2.6,4.6-3.2,5.1-6.3C364.2,108.4,364,106.8,362.6,104.2z"/>
	</g>
	<path class="st12" d="M217.3,81.7c0,0.7-0.6,1.3-1.3,1.3h-10.2c-0.7,0-1.3-0.6-1.3-1.3l0,0c0-0.7,0.6-1.3,1.3-1.3H216
		C216.7,80.4,217.3,81,217.3,81.7L217.3,81.7z"/>
	<path class="st12" d="M195.6,81.7c0,0.7-0.6,1.3-1.3,1.3h-10.2c-0.7,0-1.3-0.6-1.3-1.3l0,0c0-0.7,0.6-1.3,1.3-1.3h10.2
		C195,80.4,195.6,81,195.6,81.7L195.6,81.7z"/>
	<g>
		<path class="st13" d="M329.6,99.6c0-3.7,0.6-12.1,4-12.1c3.4,0,18.3,0.2,18.3,0.2s5.2,11.4,3.7,11.4
			C351.2,99.1,329.6,99.6,329.6,99.6z"/>
		<path class="st14" d="M330.9,98.2c0-3,0.6-9.8,3.7-9.8c3.2,0,17.4,0.1,17.4,0.1s3.9,9.5,3.3,9.5C351.2,98,330.9,98.2,330.9,98.2z"
			/>
		<path class="st10" d="M340.1,97.7l-7.4,0.1c-1.5,0-1.1-2.2-0.6-4.6l0,0c0.4-2.2,1.3-3.9,2.6-3.9h5.6
			C340.6,89.2,340.5,97.7,340.1,97.7z"/>
	</g>
	<g>
		<path class="st12" d="M111.7,105.5H66.6c0,0.8-0.4,2.1-0.6,3.2c-0.1,0.6-0.2,1.2-0.2,1.7c-0.7,5.7,11,9.5,15.7,11.3h23.6
			c0-0.4,0-0.9,0-1.3C105,115,107.9,109.7,111.7,105.5z"/>
		<path class="st12" d="M295.7,105.5H142.6c4.5,4.7,7,9.5,7,14.9c0,0.4,0,0.9,0,1.3H289c0-0.4,0-0.8,0-1.3
			C289,115,291.4,109.5,295.7,105.5z"/>
		<path class="st12" d="M364.2,109.3c-0.1-0.9,0-3.4-2-3.8h-35.8c4.1,4.4,7.2,9.5,7.2,14.9c0,0.4,0,0.9,0,1.3h23.8
			c2.7-1.7,5.8-5.9,6.7-9C364.2,111.2,364.2,110.8,364.2,109.3z"/>
	</g>
	<g>
		<path class="st15" d="M79.2,82.7c1.6-0.8,3.6,0.9,4.1,5c0.5,4.1-0.6,10.7-0.6,10.7h-8.3C74.4,98.4,76.5,84.1,79.2,82.7z"/>
		<path class="st14" d="M84,98.8c0,0.8-1,1.5-2.3,1.5h-5.9c-1.3,0-2.3-0.7-2.3-1.5l0,0c0-0.8,1-1.5,2.3-1.5h5.9
			C83,97.3,84,97.9,84,98.8L84,98.8z"/>
	</g>
	<path class="st8" d="M143.6,64.9c-0.6,5-4.4,9.3-8.6,9.3h-34.3c-4.2,0-6.4-4.2-4.9-9.3l6.6-23.5c1.1-4,4.9-7.2,8.5-7.2h29.7
		c3.6,0,6.1,3.2,5.6,7.2L143.6,64.9z"/>
	<path class="st8" d="M194.3,64.9c0.4,5-2.7,9.3-6.8,9.3h-32.7c-4.2,0-7.2-4.2-6.7-9.3l2.2-23.5c0.4-4,3.6-7.2,7.1-7.2h28.1
		c3.6,0,6.7,3.2,7,7.2L194.3,64.9z"/>
	<path class="st8" d="M278.3,67c-2.1-3.5-24.3-28.5-31.1-31.6c-1.3-0.8-2.7-1.2-4.1-1.2h-38.2c-3.6,0-6.3,3.2-5.9,7.2l2.3,23.5
		c0.5,5,4.4,9.3,8.6,9.3l65-0.3C275,73.8,281.1,71.7,278.3,67z"/>
	<path class="st12" d="M284.8,70c0.7-4.1-28.8-33.5-34.3-37.6c-5.6-4.1-50.9-3.2-55.8-3.2c0,0,1.6,10.2,2.3,25.2
		c0.7,15,3.2,70.8,3.2,70.8h84.5C284.8,125.2,284.1,74.1,284.8,70z M283.6,123.3l-81.8,0c0,0-2.9-53.3-3.6-67.8
		c-0.7-14.4-2-25.3-2-25.3c4.7,0,48.2-1.1,53.5,2.9c5.3,3.9,34,33.1,33.9,37.1C283.4,76.2,283.6,123.3,283.6,123.3z"/>
	<g>
		<path d="M273.1,65.7c0,4.4-4,8-8.9,8c-2.4,0-2.7-3.6-2.7-8c0-4.4,0.2-8,2.7-8C269.1,57.7,273.1,61.3,273.1,65.7z"/>
		<path d="M280.6,69.9c0,2.7,0,4.8-1.6,4.1c-1.6-0.7-7-5.2-8.2-5.2c-1.1,0,1.4-5.7,1.4-5.7L280.6,69.9z"/>
	</g>
</g>
<path d="M135.6,76.4c3.1-0.7,6-2,6-1.2c0,0.8-1.6,3.3-2.7,3.1C137.9,78.2,135.6,76.4,135.6,76.4z"/>
<path d="M108.1,82.4c-0.2-1,3.2-1.8,4.6-1.4c1.4,0.3,1.8,5.7,1.4,6c0,0-4.5-2.1-4.9-3C108.8,83.2,108.1,82.4,108.1,82.4z"/>
<g>
	<g>
		<path class="st12" d="M198.8,142.1c-0.9,0.6-1,2.8-1,2.8s0.1,2.1,3.2,2.5c2.9,0.4,4.3,2,7.8,2.1c3.6,0.1,5-1.3,5-1.3l-0.8-4.7
			L198.8,142.1z"/>
		<path d="M206.2,138.4c0.8-1.2,4.9-1.2,5.1-0.2c0.2,1.1,0,1.9,0.9,3.2c0.9,1.4,1.5,4.7,0.3,5.3c-3.4,1.7-6.6,0.4-6.6,0.4
			s-2.3-1.2-5.1-1.7c-2.8-0.5-3.7-2-1.7-3.6c1.4-1.1,3.7-1.4,4.8-1.7C205,139.9,206.2,138.4,206.2,138.4z"/>
	</g>
	<g>
		<path class="st12" d="M232.7,139.6c8.3,4.5,8.2,4.8,9.8,5.3c0.9,0.3,0.5,1.6,0.5,1.6s-2.9,4.6-10.2-0.8c-2.5-1.8-2.9-0.6-4.6-1
			c-3.7-0.9-2.3-0.9-2.3-0.9l-0.1-2.9L232.7,139.6z"/>
		<path d="M233.6,134.7c-0.5-1.4-7-2.2-7.4-1.1c-0.4,1.1,0.3,1.1-0.2,2.3c-0.7,1.6-1.6,6.7-0.5,5.8c1.9-1.6,6.9-0.9,6.9-0.9
			s5,1.8,7.6,3.2c4.1,2.2,2.5,0.7,0.4-0.9c-1.8-1.4-2.2-2.4-3.7-4.2C236,138.1,233.6,134.7,233.6,134.7z"/>
		<path class="st12" d="M232.5,144.4c-4.1,1.7-5.5,1.1-6.9,0c-1.2-1-1.7-4,0.7-4.2C237,139.6,232.5,144.4,232.5,144.4z"/>
	</g>
	<g>
		<polygon class="st5" points="233.6,10.3 231,14.1 217.1,4.4 219.7,0.5 		"/>
		<path class="st16" d="M219.7,0.5c0.1,0.1-0.3,1-1.1,2.1c-0.7,1-1.4,1.8-1.6,1.7c-0.1-0.1,0.3-1,1.1-2.1
			C218.9,1.2,219.6,0.4,219.7,0.5z"/>
		<g>
			
				<rect x="217.3" y="1.7" transform="matrix(0.5699 -0.8217 0.8217 0.5699 91.987 180.0713)" class="st17" width="1.5" height="0.8"/>
			<polygon points="218.4,1.3 217.4,2.8 216.6,2.3 217.6,0.8 			"/>
		</g>
	</g>
	<g>
		<path class="st5" d="M238.6,139.7c1.2-0.9-8.4-34.4-8.8-35.8c-0.5-2.3-2.4-9-5.2-19.5c-2.3-8.7-6.2-18.3-8.1-21.3l-2.8,0
			c-0.1,0.1-0.2,0.2-0.2,0.2c4.1,8.1,12.6,36.2,14.1,48.5c0.6,4.5,3.8,17.2,3.7,25.4C232.6,137,238.1,140.1,238.6,139.7z"/>
	</g>
	<path class="st18" d="M228.6,10.3c-0.6-1.9-1.1-3.7-1.3-4.6c-0.4-2.1-3.1-4-3.1-4s-1.7-1.3-2-1.3c-0.3,0-0.1,0.5,0.1,1
		c-0.5-0.7-1.2-1.4-1.6-1.4c-0.4,0,0,1,0.4,1.7c-0.2-0.3-0.3-0.6-0.6-1c-0.9-1.6-0.7,1.1-0.7,1.1s1.1,2.8-0.2,2.8
		c-0.8-0.5-1.2-0.7-1.5-0.9c-0.3-0.5-0.7-1.1-0.9-1.4c-0.4-0.5-0.5,0.1-0.5,0.6c0,0.3,0.7,1.6,0.7,1.6l0,0c0.2,0.5,1.3,1,1.8,1.4
		c0.6,0.5,4,2.6,4,2.6s0.1,0.2,0.2,0.4c0.2,1.3,1.3,7.8,1.3,8.8c-3.9,2-9.5,3.1-9.5,3.1s1.1,4.8,1.9,8.6c2,1,10.1-1.2,14.3-6.2
		C232.2,19,230.2,14.4,228.6,10.3z"/>
	<path class="st4" d="M223.4,84.9c-1.8-8.9-5-18.6-6.8-21.7c0,0-25.8,0.7-25.9,4.5c-0.3,12.1,5.2,36.6,5.5,37.2
		c0.5,5.2,1.5,9.2,1.8,11.9c0.6,5.4,2.1,18.6,2.1,22.4c0,3.2,4.8,1.2,4.8,1.2s8.1,2.9,8.3,0.5c0.2-2.1-1.8-21.7-2.3-24.7l-4.4-35.5
		c1.2-0.5,7.5,19.2,8,20.7c1.2,3.6,9.4,37,10.1,36.1c2.1-3.5,10.6,1.6,11.2,1.3C237.4,137.9,225.5,95.5,223.4,84.9z"/>
	<path class="st6" d="M202.5,20.1c0.6,1.5,1.2,5.7,3.5,6.9c0.1,2.9-12.3,6.5-14.7,2.1c1.2-3.7,1.4-6.9,1.3-8
		C192.5,20.1,202.5,20.1,202.5,20.1z"/>
	<path class="st5" d="M207,82.7c0.4,3.2,1.7,21.1,3.5,29.4c1.4,6.8,4.6,26.8,3,28.7c-1.7,1.8-3.9,1.4-3.7,0.2
		c0.2-1.2-3.5-47.9-3.4-50.7C206.5,83.2,207,82.7,207,82.7z"/>
	<path class="st9" d="M209.9,22c1.9-0.4,10-2.7,10-2.7s2.6,13.6,2.6,14.2c0,0-8.6,1.5-9.6,1.4C211.8,34.7,209.9,22,209.9,22z"/>
	<path class="st15" d="M165.7,18.3c1.1-2.2,5.8-1.7,7.9-0.9c2.2,0.8,5.3,1.9,7.1,1.3c1.8-0.7,7.5-3.7,8.9-3.7c1.4,0,0.6,4.2,0.6,4.2
		s-6.4,0.5-8.9,1.4c-2.5,0.8-7.7-0.2-9.7,0.4c-3.5,1.1-9.7,7-9.7,7l-1.6-7.9L165.7,18.3z"/>
	<path class="st18" d="M183.8,31.4c0,0-10.6,4.2-10.4,2.8c0.2-1.2,2.9-7.5,3.6-9.2c0.6-0.8,1.1-0.9,1.1-0.9s3-0.8,3.6-1.4
		c0,0,1.6-1.3,2.1-1.8c0.5-0.5,0.2-0.5-0.5-0.5s-1.8,1.3-2,0.1c-0.1-0.5,1.2-1.1,1.8-1.6c0.5-0.5,1-0.1,1.4-0.1
		c0.4,0,0.1-0.5-0.5-0.8c-0.6-0.3-1.3-0.1-1.5,0c-0.2,0.1-1.8,0.7-1.8,0.7s1.6-0.9,1.9-1c0.3-0.1,0.7-0.2,0.7-0.2s-0.3-0.4-0.9-0.5
		c-0.6-0.1-3,1.1-3,1.1s2.5-1.3,2.1-1.3c-0.2,0-0.8,0.1-1.4,0.3c0.3-0.1,0.4-0.2,0.2-0.3c-0.6-0.2-3.6,1.2-3.6,1.2s-2.4,2.4-3.1,3.9
		c-0.6,1.4-10.4,11.1-7.7,19.9c0,0,13.8,0.4,18.8-1C194.6,38.1,183.8,31.4,183.8,31.4z M180,17.3c-0.6,0.2-1.2,0.4-1.4,0.6
		C178.7,17.6,179.5,17.4,180,17.3z"/>
	<path class="st9" d="M186.3,30.5c-1.2-0.5-9.4,3.1-10.1,3.1c0.9,3.1,3.1,10.6,3.1,10.6s8.9,1,9.4,0.3
		C189.2,43.8,187.4,30.9,186.3,30.5z"/>
	<g>
		<path class="st4" d="M221.7,61.4c-2.8-3.4-8.6-15.7-8.8-17.8c-0.2-2.7,1-5.9,0.5-10.4c-0.2-1.8-1-12.4-3.5-11.2
			c-3.8,1.8-6.5,0.7-5.9,2c0.3,0.8-4.3,3.5-7.3,4.1c-3.1,0.7-5.6-0.3-5.6-0.3s-3.7,1.4-7.9,3.1c-1.3,0.5,3.6,15.5,3.8,16.5
			c0.4,2,1.8,17.8,3.2,27.9c0.2,1.7,18.3-3.3,25.3-6.6C220.2,66.6,221.9,61.5,221.7,61.4z"/>
		<path class="st5" d="M213.4,32.9c-1.7,3.9-1.7,8.4-0.6,13.5c1.2,5.1,5.4,20.3,5.4,20.3s2.9-2.1,3.9-5.4c-2.1-3-8.6-18.2-8.9-21.8
			C213,36,213.4,32.9,213.4,32.9z"/>
	</g>
	<g>
		<g>
			<g>
				<path class="st18" d="M202.7,11.8c-1-3.5-3.8-5.6-8.8-4.2c-6.2,1.7-5.3,5.2-4,9.2c1.3,4.2,5.3,8.5,8.5,7.7
					c2.4-0.6,4.7-3.5,4.1-7.5c0.6-0.5,1-1.5,1.1-2.9C203.6,12.7,203.6,11.7,202.7,11.8z"/>
				<g>
					<path class="st6" d="M192.1,9c-3,1.4-4.2,3.3-3.1,6.5c-0.1,0,0.3,0.2,0.2,0.3c-1.1,0.2-1.9,0.8-1.3,2.3
						c0.5,1.2,2.4,2.3,3.2,2.3c1.8,3.9,4.9,4.8,7.2,4.2c0.1,0,0.2-0.1,0.3-0.1C198.7,24.4,195.2,25.1,192.1,9z"/>
				</g>
				<path class="st4" d="M193.3,5.9c-0.9-0.2-4.7,2.2-5.5,3.4c-0.7,1.1-0.7,3.1-0.2,4.9c0.4,1.9,1.3,6.2,3,7.4
					c2.1,1.4,6.8-0.6,6.8-0.6L193.3,5.9z"/>
				<path class="st5" d="M192.5,12.2c0.9,4.1,3.4,9.3,3.4,9.3c0.8,0.5,6.2,0,7.4-4.1c0.2-0.8-0.6-5.6-0.6-5.6s-0.7-2.3-2-4.4
					c-0.6-1-1.4-1.4-3.5-1.8c-1-0.2-4.2-0.1-4.5,0.5C192.5,6.4,191.7,8.8,192.5,12.2z"/>
			</g>
		</g>
		<path class="st4" d="M189.4,20.2c-0.2,1.5-0.5,5.3,1.1,6.4c2.5,1.8,14.3-2.9,14.5-4.9c0.2-1.9-2.1-6.6-2.1-6.6s-2.1,2.7-7.9,4.7
			C192,20.9,189.4,20.2,189.4,20.2z"/>
	</g>
</g>
<g>
	<path class="st6" d="M73.6,94.4C72.2,94.9,63.5,104.7,59,105c-4.5,0.4-14.9-5.6-16.2-8.1c-1.3-2.5,4.1-6.8,4.1-6.8
		c4.3,3.2,11.5,7.3,12.4,7.6c0.6,0.2,10.2-4.9,11.7-6.4c0,0,1.2-2.9,1.6-3.3l2.4-2.2c0,0,2-1.5,2.1-1c0.1,0.5,0.1,0.5-0.6,0.9
		c-0.7,0.5-1.8,2.4-1.8,2.4s2.9-3.5,3.3-3.2c0.5,0.3-0.8,1.8-1.2,2.1c-0.4,0.4-0.7,3.1-0.7,3.6C75.7,94.3,74.2,94.2,73.6,94.4z"/>
	<g>
		<path class="st7" d="M46.6,102.9l5.9,3.3c0,0,3.6-6.2,4.5-7.8c0.2-0.3-10.1-8.4-10.1-8.4L46.6,102.9z"/>
		<path class="st2" d="M50.6,91.6c2.1,1.1,7.8,5.5,7.8,5.5l-1.9,2c0,0-10.3-6.5-10.3-6.9C46.2,91.9,50.6,91.6,50.6,91.6z"/>
	</g>
	<path d="M21.3,132.8c-2.6,1.1-7,0.9-7.9,2.3c-0.9,1.4-1.4,1.8,0.3,4.4c1.7,2.6,0.7,6.4,2.7,8.9c2,2.6,8.2,1.7,8.9,0.9
		c1.8-1.9-1.6-3.5-2.2-5.5c-0.6-2,0.1-1.4,1.8-3.9C26.7,137.4,21.3,132.8,21.3,132.8z"/>
	<g>
		<path d="M39.9,137.3c-1.1,3-4.1,8.8-0.5,9.4c3.7,0.6,1.3-1.3,5.5,0.2c4.2,1.5,5.5,1.1,8.7,0.3c2.5-0.6,1.9-3.8-2.4-4.3
			c-3.1-0.4-3.7-2.3-5.6-4.2C43.6,136.8,39.9,137.3,39.9,137.3z"/>
		<path class="st4" d="M26.5,115.7c5.2-0.4,25.7-7,30.2-5.4c4.4,1.6,4.9,6.3,3.8,12.1c-0.3,1.6-11,19.2-11,19.2s-8.2-1.5-11-1.5
			c-2.8,0,8.7-14.6,7.8-14.6C29.9,125.5,26.5,115.7,26.5,115.7z"/>
	</g>
	<path class="st4" d="M32,105.6c-6.7-3.1-12.8,3.6-12.8,3.6c-4.2,5.9-8.6,15-3,18.9c0,0,4.9,3.8,22.5,1.7c0,0-11.6-1.5-20.4,2.8
		c1.6,4.4,5.4,9.9,5.4,9.9s31.7-6.2,33.5-9.1c2.6-4.2,1.8-6.4,1.2-8c-0.6-1.6-7.6-4-23.4-12.3C34,112.4,34.4,106.7,32,105.6z"/>
	<path class="st6" d="M47.9,94.7c3.4-5,6.5-5.9,6.5-5.9l-5.5-9.9c0,0-2.7,4.3-8.5,7.3C39.3,86.7,47.9,94.7,47.9,94.7z"/>
	<path class="st5" d="M41.6,84l2.7-1.3c0,0,2.8,9.5,4.9,11.3c-0.3,2.5-1.7,4.4-1.7,4.4S41,87.4,41.6,84z"/>
	<g>
		<path class="st6" d="M61.3,74.2c-1.1-4.3-13.3-8.1-14.8-1.5c-2.8,12.1,4.1,16.4,4.1,16.4c1.8,0.7,4.6,1.3,6.5,0.8
			c0.9-0.3,1.2-2.2,1.9-3.9c0.8-0.1,1.7-0.3,1.7-0.9c-0.4-0.8-0.5-3.5,0-4.6C61.2,77.8,62.5,78.5,61.3,74.2z"/>
		<g>
			<path class="st19" d="M47.3,69.5c1-1.1,3.7-2.5,6.9-1.9c3.1,0.6,3.3,1.1,5.4,3.3c1.8,1.9,0.7,1.4,0.7,1.4s1.3,4-1.9,2.4
				c-0.7-0.4-1.9-1.3-3.1-0.1c-1,1-1.9,4.7-1.9,4.7s-0.4,0.2-0.8-0.3c-0.2-0.2-0.2-0.8-1.5-0.8c-1.7,0-1.1,3.2-1.1,3.7
				c-0.3,2.3-4,3-4,3s-3.8-0.1-4.1-1.7c-0.1-0.4,1.5,0,1.4-1.8c-0.1-1.6-0.2-2.7-0.1-4C43.2,71.8,47,69.7,47.3,69.5z"/>
		</g>
		<g>
			<g>
				<g>
					<g>
						<path class="st5" d="M42.8,77.6c1.4,0,11.9-1.1,11.9-1.1s3.9,2.7,6.1,3c2.2,0.3,6.6-1,5.4-2.2c-1.9-1.2-4.1-2.3-4.1-2.3
							s-0.9-5.3-1.8-6.3c-1.5-1.7-5.8-2-7.4-1.8c-2.8,0.2-5.9,0.4-8,3.6C42.7,73.8,42.8,77.6,42.8,77.6z"/>
					</g>
				</g>
			</g>
			<g>
				<g>
					<path class="st4" d="M44.6,69.9c-1.3,1.4-1.9,7.8-1.9,7.8c1.2,0,7.3-0.5,9.3-0.9c-0.6-3,0-7.8,1.6-9.9c-0.1,0-0.5,0-0.6,0
						C51.4,66.9,47.3,67.1,44.6,69.9z"/>
				</g>
			</g>
		</g>
	</g>
	<path class="st4" d="M42.6,83.8c-7.7,2.1-19.2,6.1-29.3,34.7c0,0,16.1,2.5,19.9,1c3.7-1.5,7.8-7.1,10.3-9.8
		c4-4.3,4.9-13.3,4.9-13.3L42.6,83.8z"/>
	<path class="st10" d="M85.1,78.4c-2.4,0-4.9,1.7-7.5-0.7c-1.8-1.6-2.2,9.2-3,11.6c-0.8,2.4-0.9,2.6-1.3,5.9
		c-0.3,2.9-1.5,3.3-1.8,3.7c-1.1,1.1,5.8,4.9,6.7,4.5c2.3-1.1-2.4-11.5,0.8-17.7C81.6,80.6,85.1,78.4,85.1,78.4z"/>
	<path class="st6" d="M72.4,94.8c0.7-0.3,3.2-1.5,3.3-2.5c0.1-1,1-2.3,1.3-3.2c0.3-0.9,0.2-1.7-0.5-0.8c-0.7,0.9-2.2,1.9-2.9,2.3
		C73,90.9,72.4,94.8,72.4,94.8z"/>
	<g>
		<path class="st5" d="M57.5,133.2c2.6-4.2,1.8-6.4,1.2-8c-0.6-1.4-5.8-4.6-17.2-8.1c-1.9-0.1-3.9,0.6-4.7,0.6
			c2.1,0.3,11.9,2,17,6.6c0.8,0.8,2.3,2.5,1.3,5c-1.1,2.9-26.1,9-32.7,11c1,2.3,1.4,3.1,2.3,4.3C24.8,144.6,55.7,136,57.5,133.2z"/>
	</g>
	<g>
		<g>
			<path class="st18" d="M64.6,105.8c0.3-0.1,2.1,0.2,2.5,0.4c0.4,0.2,1.5,0.6,1.5,1c0,0.4-0.6,0.4-1.1,0.5
				c-0.5,0.2-2.4,0.3-2.4,0.3L64.6,105.8z"/>
			<g>
				
					<rect x="69.2" y="104.2" transform="matrix(0.989 0.1478 -0.1478 0.989 16.2485 -9.2217)" class="st5" width="1.8" height="1.1"/>
				<path class="st5" d="M70,104.6c-1.1,2.4-3,5-3.5,4.6c-1.4-1.1,0.1,0,0.8-1.7c0.8-1.7,0-3,0-3L70,104.6z"/>
				<g>
					<path class="st20" d="M68.3,116.7l-1.6-6.9c-0.4-2.5,0.4-4.6,1.1-5l-1.5-0.6l0,0l-0.1,0l-0.4-0.2l0,0.2l-1.6,0.2
						c0.6,0.6,0.7,2.9-0.5,5.2l-3.4,5.9l0,0c-0.1,0.1-0.2,0.2-0.2,0.3l-1.2,8.2c0,0.3,0.2,0.6,0.5,0.7l7.2,1.1
						c0.3,0,0.6-0.2,0.7-0.5l1.2-8.2C68.4,116.8,68.3,116.7,68.3,116.7z"/>
					<g>
						<path class="st2" d="M67.2,125.3l1.2-8.2c0-0.3,0-0.4,0-0.4l-1.6-6.9c-0.4-2.5,0.4-4.6,1.1-5l-1.5-0.6l0,0l-0.1,0l-0.3-0.1
							l-3.1,21.2l3.7,0.5C66.8,125.8,67.1,125.6,67.2,125.3z"/>
					</g>
				</g>
				<g>
					<path class="st9" d="M70.3,104.7c-0.1,0.6-2.2,0.9-2.8,0.8l-4-0.6c-0.6-0.1-0.6-0.6-0.5-1.3l0,0c0.1-0.6,0.3-0.6,0.8-0.8
						l4.3-0.7C68.7,102.3,70.4,104.1,70.3,104.7L70.3,104.7z"/>
					<g>
						<path class="st10" d="M68.1,102.3l-4.3,0.7c-0.4,0.1-0.5,0-0.7,0.6l7.2,1.1C70.2,104,68.6,102.3,68.1,102.3z"/>
					</g>
				</g>
			</g>
			<path class="st18" d="M42.8,118.1c5.6,2.1,18-4.6,18.3-4.7c1.2-0.3,2.8-0.2,4.5,0.2c0.9,0.2,2.7-0.9,2.9-1.1
				c0.5-0.7-1.6-0.1-1.6-0.1s2.2-0.2,2.5-1.6c0.1-0.7-1.2,0-1.2,0s2.2-0.9,1.3-1.9c-0.2-0.2-1.5,0.4-1.5,0.4s0.2,0.1,1.1-0.6
				c0.8-0.6,0.3-1.1-0.5-1.3c-0.2-0.1-0.3,0.8-1.3,0.6c-2.7-0.5-2.4-1.1-2.4-1.1s-0.3-0.6-0.5-1c-0.1-0.2-0.5-0.1-0.9,0
				c-1.3,0.5-2.1,1.6-3.4,2c0,0-8.9,4-12,3c0,0-2.7-10.4-4.4-15.5c-0.2-0.6-10,3.4-10,5.2C33.8,106,42.8,118.1,42.8,118.1z"/>
		</g>
		<g>
			<path class="st7" d="M38.7,89c-2.1-1.1-7.3,1.6-7.1,5.6c0.2,4,3.3,14.9,3.7,15.1c2.1-0.2,10.8-3.9,11.5-4.2
				C47.6,105.2,41.3,90.3,38.7,89z"/>
			<path class="st2" d="M36.5,88.9c1.8-0.3,5.2-0.6,6.7,3.1c1.5,3.7,4.3,13.3,4.3,13.3l-3.2,1.3c0,0-3.2-10.5-4.5-13.7
				C38.5,89.6,36.5,88.9,36.5,88.9z"/>
		</g>
	</g>
</g>
<g>
	<path class="st10" d="M306.8,61.9c1.3,0,9.2-0.1,10.7,1.4c1.5,1.5,1.5,2.7,2.6,4c1.1,1.3,5,7.4,5,7.4l-9.9,5.5c0,0-0.7-6.7-0.8-9.8
		C314.1,62.8,306.8,61.9,306.8,61.9z"/>
	<g>
		<path class="st18" d="M325.5,24.4c1.1,1.4,1.7,3.3,4.2,4.9c2.2,1.4,2.5,0.9,2.5,0.9L327.9,41c0,0-3,1.8-3.3,0.8
			c-0.2-0.6-4.4-7.5-4.6-7.5C319.2,34.6,325.5,24.4,325.5,24.4z"/>
		<path class="st4" d="M323.7,39c7.5-1.9,6.9-9.6,6.9-9.6c5.9,1.3,9,1.4,11.7,3.3c3.3,2.3,6.5,10.1,7,10.9
			c3.9,6.3,10.2,11.9,13.6,17.3c0.7,1.1-3.8,4.2-5.5,5.2c-5.5,3.4-14.9,6.4-16.3,6.4c0,0-3.3-9.2-4.7-11c-2.1-2.7-6.3-5-8.8-12.2
			C325,47.1,323,39.2,323.7,39z"/>
		<g>
			<path class="st18" d="M310.8,27.8c-0.1-2.6,1.9-5.7,5-7.4c4-2.3,8.8-0.2,11.2,4c0.3,0.4-0.4,2.3-0.2,2.7
				c2.6,5.4-0.6,9.6-2.9,11.2c0,0-1.5,1.5-4.4-0.2c-0.8-0.5-2.8-1.8-4.3-3.2C314.1,33.7,310.4,28.3,310.8,27.8z"/>
			<path class="st19" d="M314.6,24.7c0.8,1,3.3-0.4,5-0.5c1.7-0.1,4.1,0.8,4.5,1.1c0.3,0.4,0.5-1.7,1.7-1.2c1.2,0.5,1.4,3.4,0.9,3.9
				c-0.5,0.5,1.6,2.7,1.6,2.7s1.6-5-2.5-9.5c-4.1-4.5-10.1-3.1-11.7-1.6C311.9,21.9,314.6,24.7,314.6,24.7z"/>
			<g>
				<path class="st5" d="M326.8,22.4c-3.5,1.6-8,3.4-8,3.4l-4.2-7.2c0,0,4.6-1.8,7.9-0.8C324.5,18.5,326.8,22.4,326.8,22.4z"/>
				<path class="st4" d="M319.7,25.1l-8.2,5.9c0,0-3.5-3.8-3-6.2c0.4-2.4,5.2-6.5,6.4-6.3C316.2,18.8,319.7,25.1,319.7,25.1z"/>
				<path class="st5" d="M321.1,24.1c-0.7,0.6-1.4,5.7-2.2,6.1c-0.7,0.4-8.3,6-8.7,5.4c-0.5-0.6,1.5-4.9,1.5-4.9L321.1,24.1z"/>
			</g>
		</g>
		<g>
			<path class="st5" d="M362.9,60.7c-3.5-5.4-9.7-11-13.6-17.3c-0.5-0.8-3.7-8.6-7-10.9c-2.7-1.9-5.9-2.5-11.7-3.3
				c0,0,0.1,1.4-0.3,3.1c2.2,0.8,7.1,0.5,8.1,1.7c1.1,1.3,4.4,8.5,6.1,11.7c1.7,3.2,10.8,20.2,12.9,20.2
				C359.1,64.9,363.6,61.8,362.9,60.7z"/>
		</g>
		<g>
			<path class="st18" d="M343.1,38.2l-7.4-1.5c0,0-2.5,12.7-3.3,17.9c-0.9,0.5-6,5-8.9,7.3c-1,0.5-6,3.2-6.4,3.6
				c-0.6,0.5-1.2,1.9-1.3,2.2c-0.3,0.8-0.2,0.7-0.4,1.7c-0.1,0.8,0.7,0.5,1-0.2c0.3-0.6,0.6-1.3,0.6-1.3l0.5-0.5c0,0-0.9,2-1,2.2
				c-0.1,0.2-0.3,1.5-0.4,1.8c-0.1,0.4,0.6,0.9,1,0.3c0.4-0.6,0.8-2,1-2.4c0.2-0.4,0.3-0.5,0.3-0.5c-0.5,1.2-1.1,2.7-1.1,3.2
				c0.1,0.5,0.9,0.4,1.2-0.3c0.3-0.7,1.2-1.9,1.2-1.9l-1.1,1.9c0,0,0.2,0.2,0.5,0.1c0.5-0.2,1.3-0.9,2-1.6c1-1.1,1.4-1.4,2.2-2.4
				c0.3-0.3,1.3-0.8,2.2-1.3c11.9-6.4,13.2-9.3,13.2-9.3C342.9,50,343.1,38.2,343.1,38.2z"/>
			<g>
				<path class="st7" d="M334.5,33.6c1.2-1.8,6.7-2.2,8.7,2.4c2.3,5.3,0.9,14.7,0.9,14.7s-10.4-1.6-11.1-2.3
					C332.3,47.8,333.2,35.5,334.5,33.6z"/>
				<g>
					<path class="st2" d="M343.2,36.1c-0.9-2-2.4-3-3.9-3.4c3,2.4,3.5,11.1,1.4,17.6c1.9,0.3,3.4,0.6,3.4,0.6S345.5,41.4,343.2,36.1
						z"/>
				</g>
			</g>
		</g>
	</g>
</g>
<g>
	<path class="st14" d="M159.3,114.8c-1.5,0-2.7,0.8-2.7,2.3V130h2.3v-11.1c0-1.2,0.9-1.7,2.1-1.7L159.3,114.8z"/>
	<g>
		
			<rect x="187.9" y="121.7" transform="matrix(0.9084 0.418 -0.418 0.9084 68.4436 -67.8274)" class="st2" width="2.2" height="1.3"/>
		<path class="st2" d="M188.9,122.1c-2.2,2.5-4.5,5.5-4.8,4.8c-0.4-0.7-0.5,0,1-1.7c1.5-1.7,0.7-4.1,0.7-4.1L188.9,122.1z"/>
		<g>
			<path class="st21" d="M182.8,135.7l0.5-8.6c0.3-3,2-5.2,2.9-5.5l-1.6-1.3l0,0l-0.1,0l-0.4-0.4l-0.1,0.3l-2-0.4
				c0.4,0.9-0.2,3.7-2.4,5.9l-6,5.7l0,0c-0.1,0.1-0.3,0.2-0.3,0.3l-4.2,9.1c-0.2,0.4,0,0.8,0.4,1l8,3.7c0.4,0.2,0.8,0,1-0.3l4.2-9.1
				C182.8,135.8,182.8,135.7,182.8,135.7z"/>
			<g>
				<path class="st2" d="M178.5,145.3l4.2-9.1c0.1-0.3,0.1-0.4,0.1-0.4l0.5-8.6c0.3-3,2-5.2,2.9-5.5l-1.6-1.3l0,0l-0.1,0l-0.3-0.2
					l-10.9,23.6l4.1,1.9C177.9,145.8,178.3,145.6,178.5,145.3z"/>
			</g>
		</g>
		<g>
			<path class="st9" d="M189.2,122.4c-0.3,0.7-2.9,0.3-3.5,0l-4.4-2c-0.6-0.3-0.5-0.9-0.2-1.6l0,0c0.3-0.7,0.6-0.6,1.2-0.6l5.3,0.7
				C188.2,119.1,189.5,121.7,189.2,122.4L189.2,122.4z"/>
			<g>
				<path class="st10" d="M187.5,118.8l-5.3-0.7c-0.5,0-0.6-0.2-1,0.4l8,3.7C189.4,121.5,188.1,119,187.5,118.8z"/>
			</g>
		</g>
	</g>
	<g>
		<g>
			<path class="st10" d="M145.8,148.8c0,0.2,0.3,0.4,0.6,0.4h5.9c0.3,0,0.6-0.2,0.6-0.4v-33.1c0-0.2-0.3-0.4-0.6-0.4h-5.9
				c-0.3,0-0.6,0.2-0.6,0.4V148.8z"/>
			<path class="st22" d="M145.9,115.5h6.9c0.3,0-0.8-0.7-0.8-0.7c-0.2-0.1-0.3-0.1-0.5-0.1l-4.6,0c-0.1,0-0.4,0-0.5,0.1
				C146.5,114.8,145.7,115.5,145.9,115.5z"/>
			<rect x="148.3" y="113.8" class="st22" width="2" height="1.1"/>
			<path class="st23" d="M147.8,113.8c0,0.2,0.2,0.4,0.4,0.4h2c0.2,0,0.4-0.2,0.4-0.4v-1.5c0-0.2-0.2-0.4-0.4-0.4h-2
				c-0.3,0-0.4,0.2-0.4,0.4V113.8z"/>
		</g>
		<g>
			<rect x="154.1" y="123.2" class="st4" width="5.4" height="26.5"/>
			<path class="st22" d="M154.1,123.1c0,0.2,1.2,0.4,2.7,0.4c1.5,0,2.7-0.2,2.7-0.4c0-0.2-1.2-0.4-2.7-0.4
				C155.3,122.8,154.1,123,154.1,123.1z"/>
			<g>
				<rect x="156" y="122.1" class="st22" width="1.7" height="1"/>
				<rect x="155.8" y="121.3" class="st4" width="2.1" height="1.1"/>
			</g>
		</g>
		<g>
			<rect x="160.8" y="121.6" class="st4" width="5.4" height="27.5"/>
			<path class="st22" d="M160.8,121.6c0,0.2,1.2,0.4,2.7,0.4c1.5,0,2.7-0.2,2.7-0.4c0-0.2-1.2-0.4-2.7-0.4
				C162,121.2,160.8,121.4,160.8,121.6z"/>
			<g>
				<rect x="162.6" y="120.5" class="st22" width="1.7" height="1"/>
				<rect x="162.4" y="119.7" class="st4" width="2.1" height="1.1"/>
			</g>
		</g>
	</g>
	<g>
		<path class="st23" d="M181.4,131.2h-34.7c-2.9,0-5.3,0.7-5.3,3.3l3.1,14.3c0,2.6,2.3,4.7,5.2,4.7h28.5c2.9,0,5.2-2.1,5.2-4.7
			l3.1-14.3C186.5,131.9,184.3,131.2,181.4,131.2z M149.5,149.7c-0.2,0-0.4-0.2-0.5-0.4l-3.3-13c-0.1-0.3,0.1-0.6,0.3-0.6
			c0.3,0,0.5,0.3,0.6,0.6l3.1,13C149.9,149.5,149.7,149.7,149.5,149.7z M151.4,149.7c-0.2,0-0.4-0.2-0.4-0.4l-2.9-13
			c-0.1-0.3,0.1-0.6,0.4-0.6c0.3,0,0.5,0.3,0.6,0.6l2.7,13C151.7,149.5,151.6,149.7,151.4,149.7z M153.2,149.7
			c-0.2,0-0.4-0.2-0.4-0.4l-2.5-13c0-0.3,0.1-0.6,0.4-0.6c0.3,0,0.5,0.3,0.5,0.6l2.3,13C153.5,149.5,153.4,149.7,153.2,149.7z
			 M155,149.7c-0.2,0-0.4-0.2-0.4-0.4l-2.1-13c0-0.3,0.1-0.6,0.4-0.6c0.3,0,0.5,0.3,0.5,0.6l1.9,13
			C155.3,149.5,155.2,149.7,155,149.7z M156.8,149.7c-0.2,0-0.4-0.2-0.4-0.4l-1.7-13c0-0.3,0.1-0.6,0.4-0.6c0.3,0,0.5,0.3,0.5,0.6
			l1.5,13C157.2,149.5,157,149.7,156.8,149.7z M158.6,149.7c-0.2,0-0.4-0.2-0.4-0.4l-1.3-13c0-0.3,0.2-0.6,0.4-0.6
			c0.3,0,0.5,0.3,0.5,0.6l1.2,13C159,149.5,158.8,149.7,158.6,149.7z M160.4,149.7c-0.2,0-0.4-0.2-0.4-0.4l-0.9-13
			c0-0.3,0.2-0.6,0.4-0.6c0.3,0,0.5,0.3,0.5,0.6l0.8,13C160.8,149.5,160.7,149.7,160.4,149.7z M162.3,149.7c-0.2,0-0.4-0.2-0.4-0.4
			l-0.5-13c0-0.3,0.2-0.6,0.4-0.6c0.3,0,0.5,0.3,0.5,0.6l0.4,13C162.6,149.5,162.5,149.7,162.3,149.7z M164.5,149.3
			c0,0.2-0.2,0.4-0.4,0.4c-0.2,0-0.4-0.2-0.4-0.4l-0.2-13c0-0.3,0.2-0.6,0.5-0.6c0.3,0,0.5,0.3,0.5,0.6L164.5,149.3z M166.3,149.3
			c0,0.2-0.2,0.4-0.4,0.4c-0.2,0-0.4-0.2-0.4-0.4l0.2-13c0-0.3,0.2-0.6,0.5-0.6c0.3,0,0.5,0.3,0.4,0.6L166.3,149.3z M168.1,149.3
			c0,0.2-0.2,0.4-0.4,0.4c-0.2,0-0.4-0.2-0.4-0.4l0.6-13c0-0.3,0.2-0.6,0.5-0.6c0.3,0,0.4,0.3,0.4,0.6L168.1,149.3z M169.5,149.7
			c-0.2,0-0.4-0.2-0.3-0.4l1-13c0-0.3,0.2-0.6,0.5-0.6c0.3,0,0.4,0.3,0.4,0.6l-1.2,13C169.9,149.5,169.7,149.7,169.5,149.7z
			 M171.4,149.7c-0.2,0-0.4-0.2-0.3-0.4l1.4-13c0-0.3,0.3-0.6,0.5-0.6c0.3,0,0.4,0.3,0.4,0.6l-1.5,13
			C171.8,149.5,171.6,149.7,171.4,149.7z M173.2,149.7c-0.2,0-0.4-0.2-0.3-0.4l1.8-13c0-0.3,0.3-0.6,0.5-0.6c0.3,0,0.4,0.3,0.4,0.6
			l-1.9,13C173.6,149.5,173.4,149.7,173.2,149.7z M175,149.7c-0.2,0-0.4-0.2-0.3-0.4l2.2-13c0-0.3,0.3-0.6,0.5-0.6
			c0.3,0,0.4,0.3,0.4,0.6l-2.3,13C175.4,149.5,175.2,149.7,175,149.7z M177.3,149.3c0,0.2-0.2,0.4-0.4,0.4c-0.2,0-0.3-0.2-0.3-0.4
			l2.6-13c0.1-0.3,0.3-0.6,0.6-0.6s0.4,0.3,0.4,0.6L177.3,149.3z M182.2,136.3l-3.1,13c0,0.2-0.2,0.4-0.5,0.4
			c-0.2,0-0.3-0.2-0.3-0.4l2.9-13c0.1-0.3,0.3-0.6,0.6-0.6C182.1,135.7,182.2,136,182.2,136.3z"/>
		<g>
			<linearGradient id="SVGID_1_" gradientUnits="userSpaceOnUse" x1="164.1658" y1="153.7581" x2="164.0304" y2="130.2561">
				<stop  offset="0.1978" style="stop-color:#FFFFFF"/>
				<stop  offset="0.3244" style="stop-color:#FAFAFA"/>
				<stop  offset="0.4733" style="stop-color:#ECECEC"/>
				<stop  offset="0.6333" style="stop-color:#D4D4D4"/>
				<stop  offset="0.8012" style="stop-color:#B3B3B3"/>
				<stop  offset="0.9737" style="stop-color:#898989"/>
				<stop  offset="1" style="stop-color:#828282"/>
			</linearGradient>
			<path class="st24" d="M144.6,148.8c0,0.5,0.1,1.1,0.3,1.6h17.7l24-15.8l-1.2-2.6h-43c-0.6,0.7-0.9,1.7-0.9,2.6L144.6,148.8z"/>
		</g>
	</g>
	<path class="st23" d="M189,133.2c0,1.5-1.4,1.9-3.1,1.9h-43.8c-1.7,0-3.1-0.3-3.1-1.9v-1.4c0-1.5,1.4-1.8,3.1-1.8h43.8
		c1.7,0,3.1,0.2,3.1,1.8V133.2z"/>
	<path class="st14" d="M166.4,114.1l-7.1,0.7c-1.5,0-2.7,0.8-2.7,2.3l2.3,1.7c0-1.2,0.9-1.7,2.1-1.7l3-0.4c1.2,0,1.9,0.7,1.9,1.9v14
		h0c0,0.6,0.5,1,1.1,1h1.1c0.6,0,1-0.5,1.1-1h0v-15.7C169.2,115.3,167.9,114.1,166.4,114.1z"/>
</g>
</svg>
