<?xml version="1.0" encoding="utf-8"?>
<!-- Generator: Adobe Illustrator 19.0.0, SVG Export Plug-In . SVG Version: 6.00 Build 0)  -->
<svg version="1.1" id="Layer_1" xmlns="http://www.w3.org/2000/svg" xmlns:xlink="http://www.w3.org/1999/xlink" x="0px" y="0px"
	 viewBox="0 0 151.8 125.7" style="enable-background:new 0 0 151.8 125.7;" xml:space="preserve">
<style type="text/css">
	.st0{fill:#FFFFFF;}
	.st1{opacity:0;fill:#FFFFFF;}
	.st2{opacity:4.761905e-002;fill:#FCFCFC;}
	.st3{opacity:9.523810e-002;fill:#FAFAFA;}
	.st4{opacity:0.1429;fill:#F7F7F7;}
	.st5{opacity:0.1905;fill:#F4F5F5;}
	.st6{opacity:0.2381;fill:#F2F2F2;}
	.st7{opacity:0.2857;fill:#EFEFF0;}
	.st8{opacity:0.3333;fill:#ECEDED;}
	.st9{opacity:0.381;fill:#E9EAEB;}
	.st10{opacity:0.4286;fill:#E7E7E8;}
	.st11{opacity:0.4762;fill:#E4E5E6;}
	.st12{opacity:0.5238;fill:#E1E2E3;}
	.st13{opacity:0.5714;fill:#DFE0E1;}
	.st14{opacity:0.619;fill:#DCDDDE;}
	.st15{opacity:0.6667;fill:#D9DADC;}
	.st16{opacity:0.7143;fill:#D7D8D9;}
	.st17{opacity:0.7619;fill:#D4D5D7;}
	.st18{opacity:0.8095;fill:#D1D3D4;}
	.st19{opacity:0.8571;fill:#CED0D2;}
	.st20{opacity:0.9048;fill:#CCCDCF;}
	.st21{opacity:0.9524;fill:#C9CBCD;}
	.st22{fill:#BFBFBF;}
	.st23{fill:#10303E;}
	.st24{fill:#FFB137;}
	.st25{fill:#5BB9FF;}
	.st26{fill:#525B66;}
	.st27{fill:#0891FF;}
	.st28{fill:#FA7500;}
	.st29{fill:#A9D5E9;}
</style>
<rect x="-127.7" y="-131.2" class="st0" width="450" height="450"/>
<g>
	<g>
		<path class="st1" d="M151.8,116.1c0,8.7-69.4,11.4-115.5,8.5C9,122.9,0,119.3,0,116.1s9-6.8,36.4-8.5
			C82.4,104.7,151.8,107.4,151.8,116.1z"/>
		<path class="st2" d="M149,116.1c0,8.3-66.4,10.9-110.7,8.2c-26.5-1.6-35.4-5.1-35.4-8.2c0-3.1,8.9-6.5,35.4-8.2
			C82.5,105.2,149,107.8,149,116.1z"/>
		<path class="st3" d="M146.1,116.1c0,8-63.5,10.4-106,7.8c-25.6-1.6-34.4-4.8-34.4-7.8c0-3,8.9-6.2,34.4-7.8
			C82.6,105.7,146.1,108.2,146.1,116.1z"/>
		<path class="st4" d="M143.3,116.1c0,7.6-60.5,10-101.3,7.5c-24.7-1.5-33.5-4.6-33.5-7.5s8.8-6,33.5-7.5
			C82.8,106.2,143.3,108.5,143.3,116.1z"/>
		<path class="st5" d="M140.5,116.1c0,7.2-57.6,9.5-96.6,7.1c-23.8-1.4-32.5-4.4-32.5-7.1s8.7-5.7,32.5-7.1
			C82.9,106.6,140.5,108.9,140.5,116.1z"/>
		<path class="st6" d="M137.6,116.1c0,6.8-54.6,9-91.8,6.8c-23-1.3-31.6-4.2-31.6-6.8c0-2.6,8.6-5.5,31.6-6.8
			C83,107.1,137.6,109.3,137.6,116.1z"/>
		<path class="st7" d="M134.8,116.1c0,6.4-51.7,8.5-87.1,6.4c-22.1-1.2-30.6-3.9-30.6-6.4s8.5-5.2,30.6-6.4
			C83.1,107.6,134.8,109.7,134.8,116.1z"/>
		<path class="st8" d="M131.9,116.1c0,6.1-48.7,8-82.4,6.1c-21.2-1.2-29.6-3.7-29.6-6.1s8.4-5,29.6-6.1
			C83.2,108.1,131.9,110.1,131.9,116.1z"/>
		<path class="st9" d="M129.1,116.1c0,5.7-45.7,7.6-77.7,5.8c-20.3-1.1-28.7-3.5-28.7-5.8c0-2.3,8.4-4.7,28.7-5.8
			C83.3,108.6,129.1,110.4,129.1,116.1z"/>
		<path class="st10" d="M126.2,116.1c0,5.3-42.8,7-72.9,5.4c-19.5-1-27.7-3.3-27.7-5.4c0-2.1,8.3-4.4,27.7-5.4
			C83.5,109,126.2,110.8,126.2,116.1z"/>
		<path class="st11" d="M123.4,116.1c0,4.9-39.8,6.5-68.2,5.1c-18.6-1-26.8-3.1-26.8-5.1s8.2-4.2,26.8-5.1
			C83.6,109.5,123.4,111.2,123.4,116.1z"/>
		<path class="st12" d="M120.6,116.1c0,4.5-36.9,6.1-63.5,4.7c-17.7-0.9-25.8-2.8-25.8-4.7c0-1.9,8.1-3.9,25.8-4.7
			C83.7,110,120.6,111.6,120.6,116.1z"/>
		<path class="st13" d="M117.7,116.1c0,4.2-33.9,5.6-58.8,4.4c-16.8-0.8-24.9-2.6-24.9-4.4c0-1.8,8-3.7,24.9-4.4
			C83.8,110.5,117.7,112,117.7,116.1z"/>
		<path class="st14" d="M114.9,116.1c0,3.8-30.9,5.1-54,4.1c-16-0.7-23.9-2.4-23.9-4.1s7.9-3.4,23.9-4.1
			C83.9,111,114.9,112.3,114.9,116.1z"/>
		<path class="st15" d="M112,116.1c0,3.4-28,4.6-49.3,3.7c-15.1-0.6-22.9-2.2-22.9-3.7s7.9-3.1,22.9-3.7
			C84.1,111.4,112,112.7,112,116.1z"/>
		<path class="st16" d="M109.2,116.1c0,3-25,4.1-44.6,3.4c-14.2-0.5-22-1.9-22-3.4c0-1.4,7.8-2.9,22-3.4
			C84.2,111.9,109.2,113.1,109.2,116.1z"/>
		<path class="st17" d="M106.4,116.1c0,2.6-22.1,3.7-39.9,3c-13.3-0.5-21-1.7-21-3s7.7-2.6,21-3C84.3,112.4,106.4,113.5,106.4,116.1
			z"/>
		<path class="st18" d="M103.5,116.1c0,2.3-19.1,3.2-35.1,2.7c-12.5-0.4-20.1-1.5-20.1-2.7s7.6-2.4,20.1-2.7
			C84.4,112.9,103.5,113.9,103.5,116.1z"/>
		<path class="st19" d="M100.7,116.1c0,1.9-16.1,2.7-30.4,2.4c-11.6-0.3-19.1-1.3-19.1-2.4c0-1.1,7.5-2.1,19.1-2.4
			C84.5,113.4,100.7,114.2,100.7,116.1z"/>
		<path class="st20" d="M97.8,116.1c0,1.5-13.2,2.2-25.7,2c-10.7-0.2-18.2-1-18.2-2c0-1,7.4-1.8,18.2-2
			C84.6,113.8,97.8,114.6,97.8,116.1z"/>
		<path class="st21" d="M95,116.1c0,1.1-10.2,1.8-21,1.7c-9.8-0.1-17.2-0.8-17.2-1.7s7.4-1.6,17.2-1.7C84.8,114.3,95,115,95,116.1z"
			/>
		<ellipse class="st22" cx="75.9" cy="116.1" rx="16.2" ry="1.3"/>
	</g>
	<g>
		<g>
			<path class="st23" d="M32,57.7c0,0-0.9-4.3-1.9-5.3c-1-1-8.6-0.1-10.7,1.9c-2,2-1.6,4.3,0,5c1.6,0.7,11.2,2.4,11.2,2.4L32,57.7z"
				/>
			<path class="st23" d="M114.5,114.9h9.1c0.9,0,1.7-0.7,1.7-1.7V90h-12.4v23.2C112.8,114.1,113.6,114.9,114.5,114.9z"/>
			<path class="st23" d="M37.3,114.9h-9.1c-0.9,0-1.7-0.7-1.7-1.7V90H39v23.2C39,114.1,38.3,114.9,37.3,114.9z"/>
			<path class="st24" d="M125.2,78.4c-0.5-10.3-2.9-14-4.2-17.4c-1.4-3.5-7.3-23.2-12.6-27.3c-3.6-2.8-19.9-3.4-32.4-3.4
				c-12.5,0-28.8,0.7-32.4,3.4C38.2,37.8,32.3,57.5,30.9,61c-1.3,3.4-3.8,7-4.2,17.4c-0.6,13.3,3.1,22.3,6.9,22.3
				c3.8,0,42.4,0,42.4,0s38.6,0,42.4,0S125.8,91.7,125.2,78.4z"/>
			<path class="st23" d="M119.8,57.7c0,0,0.9-4.3,1.9-5.3c1-1,8.6-0.1,10.7,1.9c2,2,1.6,4.3,0,5c-1.6,0.7-11.2,2.4-11.2,2.4
				L119.8,57.7z"/>
			<path class="st25" d="M116.9,58.5c-0.4-2.2-8.2-19.7-10.2-21.7c-2-2-21.6-2.6-30.9-2.6c-9.3,0-28.8,0.6-30.9,2.6
				c-2,2-9.8,19.6-10.2,21.7c-0.3,1.5,1.1,2.2,2.9,2c2.5-0.3,17.2-2.5,38.2-2.5c21,0,35.7,2.3,38.2,2.5
				C115.9,60.7,117.2,60,116.9,58.5z"/>
			<path class="st23" d="M97.2,53.4c-3.8,0-7.2,1.9-9.2,4.9c1,0,1.9,0.1,2.8,0.1c1.6-1.7,3.8-2.7,6.3-2.7c3,0,5.6,1.5,7.2,3.7
				c1,0.1,1.9,0.2,2.8,0.3C105.5,56,101.6,53.4,97.2,53.4z"/>
			<path class="st26" d="M126.1,83.5H75.9H25.7c-4.3,0-1.7,17.3,3.7,17.3h46.5h46.5C127.8,100.8,130.4,83.5,126.1,83.5z"/>
			<path class="st26" d="M42.8,78.4c-2.9,0-5.8-0.2-7.2-0.5c-1.3-0.3-2.2-1.4-2.4-3.2c-0.4-2.4,0.4-5.9,1.9-6.8
				c0.4-0.2,1.1-0.3,2-0.3c4.6,0,13.5,2.5,14.5,8.6c0,0.3,0,0.6-0.2,0.8C50.3,78.1,46.1,78.4,42.8,78.4z"/>
			<path class="st0" d="M50.9,76.3c0.3,1.9-12,1.7-15.3,1.1c-3.3-0.7-2.2-7.9-0.4-8.9C37,67.4,49.8,69.2,50.9,76.3z"/>
			<path class="st26" d="M109.1,78.4c-3.3,0-7.5-0.2-8.5-1.3c-0.2-0.2-0.3-0.5-0.2-0.8c1-6.1,9.9-8.6,14.5-8.6c1,0,1.6,0.1,2,0.3
				c1.5,0.9,2.3,4.4,1.9,6.8c-0.3,1.8-1.1,2.9-2.4,3.2C114.9,78.2,112,78.4,109.1,78.4L109.1,78.4z"/>
			<path class="st0" d="M100.9,76.3c-0.3,1.9,12,1.7,15.3,1.1c3.3-0.7,2.2-7.9,0.4-8.9C114.8,67.4,102,69.2,100.9,76.3z"/>
			<path class="st23" d="M119,89.9c-0.2-0.3-0.5-0.4-0.8-0.4l-84.6,0c-0.3,0-0.6,0.1-0.8,0.4c-0.2,0.3-0.2,0.6-0.1,0.9l0.8,2.4
				c0.8,2.3,2.9,3.9,5.4,3.9l74.1,0c2.4,0,4.6-1.6,5.4-3.9l0.8-2.4C119.2,90.5,119.2,90.2,119,89.9z"/>
			<rect x="74.6" y="89.5" class="st26" width="2.5" height="7.6"/>
			<rect x="48.4" y="92.6" class="st26" width="55.1" height="1.4"/>
			<rect x="84.6" y="89.5" class="st26" width="2.5" height="7.6"/>
			<path class="st27" d="M88,58.3c0,0-5-13.5-11.4-21.3c-0.8-1-1.7-1.9-2.5-2.8c-9.8,0.1-27.1,0.7-29,2.6c-2,2-9.8,19.6-10.2,21.7
				c-0.3,1.5,1.1,2.2,2.9,2c2.5-0.3,17.2-2.5,38.2-2.5C80.2,58,84.3,58.1,88,58.3z"/>
			<rect x="64.7" y="89.5" class="st26" width="2.5" height="7.6"/>
			<circle class="st0" cx="44.4" cy="93.3" r="3.8"/>
			<circle class="st0" cx="107.4" cy="93.3" r="3.8"/>
			<path class="st26" d="M75.5,84c-7.7,0-17.2-0.4-19.1-2.3c-1.6-1.6-4.6-7.2-4.3-9.5c0.1-1,0.7-1.5,1.1-1.7
				c2.4-1.4,16.4-1.8,22.3-2c6,0.1,20.1,0.6,22.4,2c0.3,0.2,0.9,0.7,1.1,1.7c0.3,2.3-2.8,7.9-4.3,9.5C92.6,83.6,83.1,84,75.5,84z"/>
			<path class="st0" d="M75.5,83.4c-6.2,0-16.8-0.3-18.7-2.2c-1.6-1.6-4.5-7.1-4.2-9c0.1-0.8,0.6-1.1,0.8-1.3
				c2.3-1.3,17.5-1.8,22.1-1.9c4.7,0.1,19.8,0.6,22.1,1.9c0.3,0.1,0.7,0.5,0.8,1.3c0.3,2-2.6,7.4-4.2,9
				C92.3,83.1,81.6,83.4,75.5,83.4z"/>
			<path class="st23" d="M96.9,72.1c-2.2-1.3-21.4-1.7-21.4-1.7S56.2,70.9,54,72.1c-0.8,0.5,1.9,6.4,3.7,8.1
				C59.5,82,75.5,82,75.5,82s16,0,17.8-1.8C95,78.5,97.7,72.6,96.9,72.1z"/>
			<path class="st0" d="M97,72.8H53.9c0.1,0.4,0.2,0.8,0.4,1.4h42.3C96.8,73.7,96.9,73.2,97,72.8z"/>
			<path class="st0" d="M55.6,77.2h39.6c0.2-0.5,0.5-0.9,0.7-1.4h-41C55.2,76.3,55.4,76.7,55.6,77.2z"/>
			<path class="st0" d="M74.3,83.2h2.2c0-4.4,0-8.9,0-13.4h-2.3C74.3,74.2,74.3,78.8,74.3,83.2z"/>
			<path class="st0" d="M57.6,80.1h35.7c0.3-0.4,0.7-0.8,1-1.4H56.5C56.9,79.3,57.3,79.8,57.6,80.1z"/>
			<path class="st23" d="M80.6,37h-9.3c-0.5,0-0.8,0.8-0.8,1.7c0,0.9,0.4,1.7,0.8,1.7h9.3c0.5,0,0.8-0.8,0.8-1.7
				C81.4,37.8,81,37,80.6,37z"/>
			<path class="st28" d="M116.4,82.4h-12c-0.3,0-0.6-0.3-0.6-0.6V80c0-0.3,0.3-0.6,0.6-0.6h12c0.3,0,0.6,0.3,0.6,0.6v1.7
				C117,82.1,116.7,82.4,116.4,82.4z"/>
			<path class="st28" d="M35.5,82.4h12c0.3,0,0.6-0.3,0.6-0.6V80c0-0.3-0.3-0.6-0.6-0.6h-12c-0.3,0-0.6,0.3-0.6,0.6v1.7
				C34.8,82.1,35.1,82.4,35.5,82.4z"/>
		</g>
		<g>
			<g>
				<circle class="st29" cx="73" cy="3.7" r="2.1"/>
				<circle class="st29" cx="41.1" cy="12.9" r="2.2"/>
				<circle class="st29" cx="82.8" cy="5.3" r="2.2"/>
				<circle class="st29" cx="62.8" cy="3.7" r="2.2"/>
				<circle class="st29" cx="87.2" cy="4.5" r="1.4"/>
				<circle class="st29" cx="109.3" cy="12.2" r="0.8"/>
				<path class="st29" d="M123.7,23.8c0-2.1-1.7-3.7-3.7-3.7c-0.3,0-0.7,0.1-1,0.1c0.1-0.3,0.1-0.6,0.1-1c0-2.1-1.7-3.7-3.7-3.7
					c-0.8,0-1.5,0.2-2.1,0.6c0.1-0.2,0.1-0.4,0.1-0.6c0-1-0.8-1.8-1.8-1.8c-1,0-1.8,0.8-1.8,1.8c0,0.1,0.1,0.3,0.1,0.4
					c-0.7-0.9-1.8-1.5-3-1.5c-0.3,0-0.6,0-0.9,0.1c-0.2-1.1-0.8-2.1-1.8-2.7c0.4-0.3,0.7-0.8,0.7-1.4c0-1-0.8-1.8-1.8-1.8
					s-1.8,0.8-1.8,1.8c0,0.3,0.1,0.6,0.3,0.9c-0.2,0-0.4,0.1-0.7,0.2c-0.4-2.2-2.3-3.9-4.6-3.9c-2.2,0-4.1,1.6-4.6,3.7
					c-0.2,0-0.4-0.1-0.6-0.1c0,0,0,0,0,0c-0.2-2.2-2.1-3.9-4.3-3.9c-1.6,0-3,0.9-3.8,2.2c-0.3-0.1-0.7-0.2-1-0.2c0,0,0,0,0,0
					c-0.1-1.5-1.4-2.7-3-2.7c-1.4,0-2.5,0.9-2.9,2.2c-1-0.9-2.3-1.4-3.7-1.4c-0.1,0-0.1,0-0.2,0c-0.5-1.5-1.9-2.6-3.6-2.6
					c-2.1,0-3.7,1.7-3.7,3.7c0,0.1,0,0.3,0,0.4c-0.3,0.1-0.5,0.1-0.7,0.2c-0.8-1.5-2.3-2.5-4.1-2.5c-2,0-3.6,1.2-4.3,2.9
					c-0.1,0-0.2-0.1-0.3-0.1c-0.5,0-0.8,0.4-0.8,0.8c0,0.5,0.4,0.8,0.8,0.8c0,0,0,0,0,0c0,0,0,0.1,0,0.1c0,0.2,0,0.4,0.1,0.7
					c-0.5,0.1-0.9,0.3-1.3,0.6c-0.5-1.6-1.9-2.7-3.6-2.7c-1.3,0-2.5,0.7-3.2,1.8c-0.3-0.4-0.8-0.6-1.3-0.6c-0.9,0-1.7,0.8-1.7,1.7
					c0,0.9,0.8,1.7,1.7,1.7c0.3,0,0.5-0.1,0.8-0.2c0,0.1,0.1,0.3,0.1,0.4c-1,0.2-1.9,0.9-2.4,1.8c-0.2,0-0.3-0.1-0.5-0.1
					c-1.3,0-2.5,0.4-3.4,1.2c-0.7-0.9-1.8-1.6-3-1.6c-2.1,0-3.7,1.7-3.7,3.7c0,0.5,0.1,1,0.3,1.4c-1.4,0.5-2.4,1.9-2.4,3.5
					c0,1.2,0.6,2.3,1.5,3c0.2,1.6,1.1,3.1,2.4,4C35.3,32,35,32.5,35,33.1c0,0.1,0,0.1,0,0.2c0,0,0,0,0,0c-2,0-3.7,1.7-3.7,3.7
					c0,2,1.7,3.7,3.7,3.7c0.5,0,1-0.1,1.5-0.3c0,0.1,0,0.2,0.1,0.3c-0.1,0-0.2-0.1-0.3-0.1c-1.4,0-2.5,1.1-2.5,2.5
					c0,1.4,1.1,2.5,2.5,2.5s2.5-1.1,2.5-2.5c0-0.3-0.1-0.5-0.2-0.8c0.1,0,0.2,0.1,0.3,0.1c1.4,0,2.5-1.1,2.5-2.5c0,0,0,0,0,0
					c0.1,0,0.3,0,0.4,0c1.6,0,3-1.1,3.5-2.5c0.6,0.3,1.2,0.5,1.9,0.5c0.7,0,1.3-0.2,1.9-0.5c1.1,0.1,2.3-0.1,3.6-1
					c0.7,0.7,1.7,1.2,2.7,1.2c0.7,0,1.3-0.2,1.8-0.5c1.8,2.3,4.1,3.7,7.3,0.8c1.7,1.2,3.9,1.4,6,0.3c1.9,3.5,7.6,2.6,9,0.1
					c3.2,4.1,10.1,2.1,10.2-1.3c0.8,1.9,4.6,1.2,4.7-0.7c2.4,1.4,5.1,1.4,6.7,0.3c0.6,0.4,1.3,0.7,2.1,0.7c0.7,0,1.3-0.2,1.9-0.5
					c0.4,0.7,1,1.2,1.8,1.3c0.5,1.4,1.9,2.4,3.4,2.4c0.5,0,0.9-0.1,1.3-0.3c0,0.2-0.1,0.3-0.1,0.5c0,1.4,1.1,2.5,2.5,2.5
					s2.5-1.1,2.5-2.5c0-1-0.6-1.8-1.4-2.2c0.2-0.3,0.4-0.6,0.4-1c0-0.3-0.1-0.6-0.3-0.8c0.7-0.4,1.3-1.2,1.3-2.1
					c0-0.7-0.3-1.3-0.7-1.8c0-0.1,0.1-0.2,0.2-0.3c0.4-0.2,0.7-0.3,1-0.5c0.3,0.1,0.6,0.1,0.9,0.1c2.1,0,3.7-1.7,3.7-3.7
					c0-0.3,0-0.6-0.1-0.9c0-0.1,0.1-0.2,0.1-0.3C122.8,26.6,123.7,25.3,123.7,23.8z M110.5,16.8C110.5,16.8,110.5,16.8,110.5,16.8
					C110.4,16.8,110.4,16.8,110.5,16.8C110.5,16.8,110.5,16.8,110.5,16.8z"/>
				<circle class="st29" cx="28.2" cy="36.7" r="2.5"/>
				<circle class="st29" cx="118" cy="34.8" r="1.5"/>
				<circle class="st29" cx="118" cy="43.8" r="1.5"/>
			</g>
			<path class="st0" d="M92.3,22.8c-1.1,0-2.2,0.6-3,1.2c0.8-1.3,2.2-2.3,3.9-2.3c2.1,0,3.8,1.4,4.3,3.2
				C96.2,23.7,94.4,22.8,92.3,22.8z"/>
			<path class="st0" d="M47.2,28.9c-1.1,0-2.2,0.6-3,1.2c0.8-1.3,2.2-2.3,3.9-2.3c2.1,0,3.8,1.4,4.3,3.2
				C51.1,29.7,49.3,28.9,47.2,28.9z"/>
			<path class="st0" d="M82.6,31.1c-1,0-1.9,0.5-2.7,1.1c0.7-1.2,2-2,3.4-2c1.8,0,3.3,1.2,3.8,2.8C86,31.9,84.4,31.1,82.6,31.1z"/>
			<path class="st0" d="M108.6,32.8c-1,0-1.9,0.5-2.7,1.1c0.7-1.2,2-2,3.4-2c1.8,0,3.3,1.2,3.8,2.8C112,33.6,110.4,32.8,108.6,32.8z
				"/>
			<path class="st0" d="M103.9,29.9c-0.6,0-1.2,0.3-1.7,0.7c0.4-0.7,1.2-1.3,2.2-1.3c1.1,0,2.1,0.8,2.4,1.8
				C106,30.4,105,29.9,103.9,29.9z"/>
			<path class="st0" d="M110.1,19.2c-1,0-1.9,0.5-2.7,1.1c0.7-1.2,2-2,3.4-2c1.8,0,3.3,1.2,3.8,2.8
				C113.5,19.9,111.9,19.2,110.1,19.2z"/>
			<path class="st0" d="M69,10.4c-1,0-1.9,0.5-2.7,1.1c0.7-1.2,2-2,3.4-2c1.8,0,3.3,1.2,3.8,2.8C72.4,11.1,70.8,10.4,69,10.4z"/>
			<path class="st0" d="M67.1,32c-1,0-1.9,0.5-2.7,1.1c0.7-1.2,2-2,3.4-2c1.8,0,3.3,1.2,3.8,2.8C70.5,32.8,68.9,32,67.1,32z"/>
			<path class="st0" d="M61,29.2c-1.2,0-2.4,0.7-3.4,1.4c0.9-1.5,2.5-2.5,4.3-2.5c2.3,0,4.2,1.5,4.8,3.6
				C65.2,30.1,63.3,29.2,61,29.2z"/>
			<path class="st0" d="M73.4,24.3c-0.9,0-1.7,0.5-2.4,1c0.6-1.1,1.8-1.8,3.1-1.8c1.7,0,3,1.1,3.5,2.6C76.5,25,75.1,24.3,73.4,24.3z
				"/>
			<path class="st0" d="M51.4,19.1c-1.6,0-3.2,0.9-4.4,1.8c1.2-2,3.3-3.3,5.7-3.3c3,0,5.5,2,6.3,4.7C57,20.3,54.4,19.1,51.4,19.1z"
				/>
			<path class="st0" d="M56.6,16.5c-1.2,0-2.3,0.6-3.2,1.3c0.8-1.4,2.4-2.4,4.2-2.4c2.2,0,4,1.5,4.6,3.5
				C60.7,17.4,58.8,16.5,56.6,16.5z"/>
			<path class="st0" d="M45,20.8c-1.2,0-2.3,0.6-3.2,1.3c0.8-1.4,2.4-2.4,4.2-2.4c2.2,0,4,1.5,4.6,3.5C49.1,21.7,47.2,20.8,45,20.8z
				"/>
			<path class="st0" d="M98.5,20.7c-1.4,0-2.7,0.7-3.8,1.5c1-1.7,2.8-2.8,4.8-2.8c2.5,0,4.7,1.7,5.4,4
				C103.2,21.7,101,20.7,98.5,20.7z"/>
			<path class="st0" d="M37.1,23.6c-1.1,0-2.2,0.6-3,1.2c0.8-1.3,2.2-2.3,3.9-2.3c2.1,0,3.8,1.4,4.3,3.2
				C40.9,24.4,39.1,23.6,37.1,23.6z"/>
			<path class="st0" d="M117.3,25.4c-0.7,0-1.4,0.4-1.9,0.8c0.5-0.8,1.4-1.4,2.5-1.4c1.3,0,2.4,0.9,2.7,2
				C119.8,26,118.6,25.4,117.3,25.4z"/>
			<path class="st0" d="M72.9,17.4c-0.7,0-1.5,0.4-2.1,0.8c0.5-0.9,1.5-1.5,2.7-1.5c1.4,0,2.6,0.9,2.9,2.2
				C75.5,18,74.3,17.4,72.9,17.4z"/>
			<path class="st0" d="M69.4,16.3c-0.6,0-1.1,0.3-1.6,0.6c0.4-0.7,1.2-1.2,2-1.2c1.1,0,2,0.7,2.2,1.7
				C71.4,16.7,70.4,16.3,69.4,16.3z"/>
			<path class="st0" d="M86.6,21.5c-0.6,0-1.1,0.3-1.6,0.6c0.4-0.7,1.2-1.2,2-1.2c1.1,0,2,0.7,2.2,1.7
				C88.6,21.9,87.7,21.5,86.6,21.5z"/>
			<path class="st0" d="M42.2,34.5c-0.6,0-1.1,0.3-1.6,0.6c0.4-0.7,1.2-1.2,2-1.2c1.1,0,2,0.7,2.2,1.7
				C44.2,34.9,43.2,34.5,42.2,34.5z"/>
			<path class="st0" d="M38.4,37.5c-0.6,0-1.1,0.3-1.6,0.6c0.4-0.7,1.2-1.2,2-1.2c1.1,0,2,0.7,2.2,1.7C40.3,38,39.4,37.5,38.4,37.5z
				"/>
			<path class="st0" d="M85.8,11.4c-0.6,0-1.1,0.3-1.6,0.6c0.4-0.7,1.2-1.2,2-1.2c1.1,0,2,0.7,2.2,1.7
				C87.8,11.9,86.9,11.4,85.8,11.4z"/>
			<circle class="st29" cx="24.7" cy="26.3" r="1.5"/>
			<circle class="st29" cx="117" cy="10.9" r="1.5"/>
			<circle class="st29" cx="96" cy="1.5" r="1.5"/>
			<ellipse class="st29" cx="48" cy="3.1" rx="1.4" ry="1.4"/>
		</g>
	</g>
</g>
</svg>
