<?xml version="1.0" encoding="utf-8"?>
<!-- Generator: Adobe Illustrator 19.0.0, SVG Export Plug-In . SVG Version: 6.00 Build 0)  -->
<svg version="1.1" id="Layer_1" xmlns="http://www.w3.org/2000/svg" xmlns:xlink="http://www.w3.org/1999/xlink" x="0px" y="0px"
	 viewBox="0 0 141.2 113.6" style="enable-background:new 0 0 141.2 113.6;" xml:space="preserve">
<style type="text/css">
	.st0{fill:#FFFFFF;}
	.st1{opacity:0;fill:#FFFFFF;}
	.st2{opacity:4.761905e-002;fill:#FCFCFC;}
	.st3{opacity:9.523810e-002;fill:#FAFAFA;}
	.st4{opacity:0.1429;fill:#F7F7F7;}
	.st5{opacity:0.1905;fill:#F4F5F5;}
	.st6{opacity:0.2381;fill:#F2F2F2;}
	.st7{opacity:0.2857;fill:#EFEFF0;}
	.st8{opacity:0.3333;fill:#ECEDED;}
	.st9{opacity:0.381;fill:#E9EAEB;}
	.st10{opacity:0.4286;fill:#E7E7E8;}
	.st11{opacity:0.4762;fill:#E4E5E6;}
	.st12{opacity:0.5238;fill:#E1E2E3;}
	.st13{opacity:0.5714;fill:#DFE0E1;}
	.st14{opacity:0.619;fill:#DCDDDE;}
	.st15{opacity:0.6667;fill:#D9DADC;}
	.st16{opacity:0.7143;fill:#D7D8D9;}
	.st17{opacity:0.7619;fill:#D4D5D7;}
	.st18{opacity:0.8095;fill:#D1D3D4;}
	.st19{opacity:0.8571;fill:#CED0D2;}
	.st20{opacity:0.9048;fill:#CCCDCF;}
	.st21{opacity:0.9524;fill:#C9CBCD;}
	.st22{fill:#BFBFBF;}
	.st23{fill:#FA7500;}
	.st24{fill:#5BB9FF;}
	.st25{fill:#5F84C3;}
	.st26{fill:#0891FF;}
	.st27{fill:#0081EF;}
	.st28{fill:#FFB137;}
	.st29{fill:#A9D5E9;}
</style>
<rect x="-150.7" y="-158.5" class="st0" width="450" height="450"/>
<g>
	<g>
		<path class="st1" d="M141.2,104.6c0,8.1-64.5,10.6-107.4,7.9C8.4,110.9,0,107.6,0,104.6c0-3,8.4-6.3,33.8-7.9
			C76.6,94,141.2,96.5,141.2,104.6z"/>
		<path class="st2" d="M138.5,104.6c0,7.8-61.8,10.2-103,7.6c-24.6-1.5-32.9-4.7-32.9-7.6c0-2.9,8.3-6.1,32.9-7.6
			C76.7,94.5,138.5,96.9,138.5,104.6z"/>
		<path class="st3" d="M135.9,104.6c0,7.4-59,9.7-98.6,7.3c-23.8-1.5-32-4.5-32-7.3c0-2.8,8.2-5.8,32-7.3
			C76.8,94.9,135.9,97.2,135.9,104.6z"/>
		<path class="st4" d="M133.2,104.6c0,7-56.3,9.3-94.2,6.9c-23-1.4-31.1-4.3-31.1-6.9c0-2.7,8.2-5.6,31.1-6.9
			C77,95.4,133.2,97.6,133.2,104.6z"/>
		<path class="st5" d="M130.6,104.6c0,6.7-53.5,8.8-89.8,6.6c-22.2-1.3-30.2-4.1-30.2-6.6c0-2.5,8.1-5.3,30.2-6.6
			C77.1,95.8,130.6,97.9,130.6,104.6z"/>
		<path class="st6" d="M128,104.6c0,6.3-50.8,8.4-85.4,6.3c-21.3-1.2-29.3-3.9-29.3-6.3c0-2.4,8-5.1,29.3-6.3
			C77.2,96.2,128,98.3,128,104.6z"/>
		<path class="st7" d="M125.3,104.6c0,6-48,7.9-81,6c-20.5-1.1-28.5-3.7-28.5-6c0-2.3,7.9-4.8,28.5-6
			C77.3,96.7,125.3,98.6,125.3,104.6z"/>
		<path class="st8" d="M122.7,104.6c0,5.6-45.3,7.5-76.6,5.7c-19.7-1.1-27.6-3.5-27.6-5.7c0-2.2,7.8-4.6,27.6-5.7
			C77.4,97.1,122.7,99,122.7,104.6z"/>
		<path class="st9" d="M120,104.6c0,5.3-42.5,7-72.2,5.4c-18.9-1-26.7-3.3-26.7-5.4c0-2.1,7.8-4.4,26.7-5.4
			C77.5,97.6,120,99.3,120,104.6z"/>
		<path class="st10" d="M117.4,104.6c0,4.9-39.8,6.5-67.8,5c-18.1-1-25.8-3-25.8-5c0-2,7.7-4.1,25.8-5
			C77.6,98,117.4,99.7,117.4,104.6z"/>
		<path class="st11" d="M114.7,104.6c0,4.6-37,6.1-63.4,4.7c-17.3-0.9-24.9-2.8-24.9-4.7c0-1.9,7.6-3.9,24.9-4.7
			C77.7,98.5,114.7,100,114.7,104.6z"/>
		<path class="st12" d="M112.1,104.6c0,4.2-34.3,5.6-59,4.4c-16.5-0.8-24-2.6-24-4.4c0-1.8,7.5-3.6,24-4.4
			C77.8,98.9,112.1,100.4,112.1,104.6z"/>
		<path class="st13" d="M109.5,104.6c0,3.9-31.5,5.2-54.6,4.1c-15.7-0.7-23.1-2.4-23.1-4.1c0-1.7,7.5-3.4,23.1-4.1
			C77.9,99.4,109.5,100.8,109.5,104.6z"/>
		<path class="st14" d="M106.8,104.6c0,3.5-28.8,4.7-50.2,3.8c-14.8-0.7-22.2-2.2-22.2-3.8c0-1.6,7.4-3.2,22.2-3.8
			C78,99.8,106.8,101.1,106.8,104.6z"/>
		<path class="st15" d="M104.2,104.6c0,3.2-26,4.3-45.9,3.5c-14-0.6-21.3-2-21.3-3.5c0-1.4,7.3-2.9,21.3-3.5
			C78.2,100.3,104.2,101.5,104.2,104.6z"/>
		<path class="st16" d="M101.5,104.6c0,2.8-23.3,3.8-41.5,3.1c-13.2-0.5-20.4-1.8-20.4-3.1c0-1.3,7.2-2.7,20.4-3.1
			C78.3,100.7,101.5,101.8,101.5,104.6z"/>
		<path class="st17" d="M98.9,104.6c0,2.4-20.5,3.4-37.1,2.8c-12.4-0.4-19.6-1.6-19.6-2.8c0-1.2,7.1-2.4,19.6-2.8
			C78.4,101.2,98.9,102.2,98.9,104.6z"/>
		<path class="st18" d="M96.3,104.6c0,2.1-17.8,3-32.7,2.5c-11.6-0.4-18.7-1.4-18.7-2.5c0-1.1,7.1-2.2,18.7-2.5
			C78.5,101.6,96.3,102.5,96.3,104.6z"/>
		<path class="st19" d="M93.6,104.6c0,1.7-15,2.5-28.3,2.2c-10.8-0.3-17.8-1.2-17.8-2.2c0-1,7-2,17.8-2.2
			C78.6,102,93.6,102.9,93.6,104.6z"/>
		<path class="st20" d="M91,104.6c0,1.4-12.3,2.1-23.9,1.9c-10-0.2-16.9-1-16.9-1.9c0-0.9,6.9-1.7,16.9-1.9
			C78.7,102.5,91,103.2,91,104.6z"/>
		<path class="st21" d="M88.3,104.6c0,1-9.5,1.7-19.5,1.6c-9.2-0.1-16-0.8-16-1.6c0-0.8,6.8-1.5,16-1.6
			C78.8,102.9,88.3,103.6,88.3,104.6z"/>
		<ellipse class="st22" cx="70.6" cy="104.6" rx="15.1" ry="1.2"/>
	</g>
	<g>
		<rect x="107.4" y="23.9" class="st23" width="4" height="4.4"/>
		<rect x="29.8" y="23.9" class="st23" width="4" height="4.4"/>
		<path class="st24" d="M36.1,21.6c0-4.6,15.5-8.4,34.5-8.4c19.1,0,34.5,3.7,34.5,8.4c0,0.1,0,0.2-0.1,0.3h3.3c0,0,0,0,0,0
			c0-5.7-16.9-10.3-37.8-10.3c-20.9,0-37.8,4.6-37.8,10.3c0,0,0,0,0,0h3.3C36.1,21.8,36.1,21.7,36.1,21.6z"/>
		<path class="st25" d="M70.6,32.2c20.8,0,37.7-4.6,37.8-10.3H105c-0.7,4.5-15.8,8-34.4,8c-18.6,0-33.8-3.6-34.4-8h-3.3
			C32.9,27.6,49.8,32.2,70.6,32.2z"/>
		<path class="st26" d="M70.6,31.8c-18.1,0-33.3-4.3-37.6-8.9l6.8,69.3c0.4,5.2,13.4,11,30.8,11c17.4,0,30.4-5.8,30.8-11l6.8-69.3
			C103.9,27.5,88.7,31.8,70.6,31.8z"/>
		<path class="st27" d="M33.7,29.8l0.3,3.1c6.1,4.8,21.4,7.2,36.6,7.2s30.5-2.5,36.6-7.2l0.3-3.1c-5,4.3-19.6,8.3-36.9,8.3
			S38.7,34.1,33.7,29.8z"/>
		<path class="st27" d="M39.5,88.8c8.1,5.7,19.1,9,31.1,9c12,0,23-3.3,31.1-9l0.3-3.5c-8.3,5.9-19.2,9.9-31.5,9.9
			c-12.3,0-23.2-4-31.5-9.9L39.5,88.8z"/>
		<path class="st24" d="M70.6,32.2c20.8,0,37.7-4.6,37.8-10.3H105c-0.7,4.5-15.8,8-34.4,8c-18.6,0-33.8-3.6-34.4-8h-3.3
			C32.9,27.6,49.8,32.2,70.6,32.2z"/>
		<path class="st27" d="M70.6,64.3c-14.4,0-27.1-2.6-34.8-13.5l0.9,9c7.9,8.9,19.7,15,34,15c14.2,0,26-6.1,34-15l0.9-9
			C97.7,61.7,85,64.3,70.6,64.3z"/>
		<path class="st28" d="M113.4,23h-1.7H110c0,0,2.1,11-2.8,21.2c-6.8,14.4-20.6,17.6-36.6,17.6c-16,0-29.8-3.2-36.6-17.6
			C29.1,34,31.2,23,31.2,23h-1.8h-1.7c0,0-2,15.5,5.2,28c7,12.3,20.5,19,37.6,19c17.1,0,30.6-6.7,37.6-19
			C115.4,38.6,113.4,23,113.4,23z"/>
		<g>
			<g>
				<circle class="st29" cx="73.2" cy="2.7" r="2.7"/>
				<circle class="st29" cx="99.2" cy="10.9" r="1.7"/>
				<circle class="st29" cx="66.4" cy="4.9" r="1.7"/>
				<circle class="st29" cx="82.1" cy="3.6" r="1.7"/>
				<circle class="st29" cx="63" cy="4.3" r="1.1"/>
				<circle class="st29" cx="45.7" cy="10.4" r="0.6"/>
				<path class="st29" d="M106.5,20.1c0-1.3-0.8-2.3-1.9-2.7c0.1-0.3,0.2-0.7,0.2-1.1c0-1.6-1.3-2.9-2.9-2.9c-1,0-1.8,0.5-2.4,1.2
					c-0.7-0.6-1.7-0.9-2.7-0.9c-0.1,0-0.3,0-0.4,0c-0.4-0.7-1.1-1.2-1.9-1.4c0-0.1,0.1-0.2,0.1-0.3c0.2,0.1,0.4,0.2,0.6,0.2
					c0.7,0,1.3-0.6,1.3-1.3c0-0.7-0.6-1.3-1.3-1.3c-0.4,0-0.8,0.2-1,0.5c-0.5-0.8-1.4-1.4-2.5-1.4c-1.3,0-2.4,0.9-2.8,2.1
					c-0.3-0.2-0.7-0.4-1-0.5c0-0.2,0.1-0.3,0.1-0.5c0,0,0-0.1,0-0.1c0,0,0,0,0,0c0.4,0,0.6-0.3,0.6-0.6c0-0.4-0.3-0.6-0.6-0.6
					c-0.1,0-0.2,0-0.3,0.1C87.2,7,85.9,6,84.3,6c-1.4,0-2.6,0.8-3.2,2c-0.2-0.1-0.4-0.1-0.6-0.2c0-0.1,0-0.2,0-0.3
					c0-1.6-1.3-2.9-2.9-2.9c-1.3,0-2.4,0.9-2.8,2.1c0,0-0.1,0-0.1,0c-1.1,0-2.1,0.4-2.9,1.1c-0.3-1-1.2-1.7-2.3-1.7
					c-1.2,0-2.2,0.9-2.3,2.1c0,0,0,0,0,0c-0.3,0-0.6,0.1-0.8,0.1c-0.6-1-1.7-1.8-3-1.8c-1.8,0-3.2,1.3-3.4,3.1c0,0,0,0,0,0
					c-0.2,0-0.3,0-0.4,0c-0.4-1.6-1.8-2.9-3.6-2.9c-1.8,0-3.3,1.3-3.6,3.1c-0.2-0.1-0.3-0.1-0.5-0.2c0.1-0.2,0.2-0.4,0.2-0.7
					c0-0.8-0.6-1.4-1.4-1.4c-0.8,0-1.4,0.6-1.4,1.4c0,0.4,0.2,0.8,0.5,1.1c-0.7,0.4-1.3,1.2-1.4,2.1C48,12.1,47.8,12,47.5,12
					c-1,0-1.8,0.5-2.3,1.2c0-0.1,0.1-0.2,0.1-0.3c0-0.8-0.6-1.4-1.4-1.4s-1.4,0.6-1.4,1.4c0,0.2,0,0.3,0.1,0.5
					c-0.5-0.3-1-0.5-1.6-0.5c-1.6,0-2.9,1.3-2.9,2.9c0,0.3,0,0.5,0.1,0.8c-0.2-0.1-0.5-0.1-0.8-0.1c-1.6,0-2.9,1.3-2.9,2.9
					c0,1.2,0.7,2.2,1.7,2.7c0,0.1,0,0.2,0.1,0.3C36,22.6,36,22.8,36,23c0,1.6,1.3,2.9,2.9,2.9c0.2,0,0.5,0,0.7-0.1
					c0.3,0.1,0.5,0.3,0.8,0.4c0.4,1.1,1.5,1.8,2.7,1.8c0.5,0,0.9-0.1,1.4-0.3c0.4,0.1,0.8,0.2,1.1,0.3c0.6,0.3,1.2,0.4,1.8,0.5
					c0.2,0,0.3,0.1,0.5,0.1c0.5,0.8,1.4,1.3,2.4,1.3c0.6,0,1.2-0.2,1.7-0.5c1.7,0.3,3.4,0.5,5.3,0.7c0.4,0.2,0.9,0.4,1.4,0.4
					c0.3,0,0.6-0.1,0.9-0.1c1.3,0.1,2.7,0.2,4.1,0.3c0.9,0.3,1.9,0.6,2.9,0.6c0.9,0,1.7-0.2,2.5-0.4c0.5,0,1,0,1.5,0
					c1.9,0,3.7,0,5.5-0.1c0.6,0.3,1.3,0.6,2.1,0.6c1,0,1.8-0.3,2.6-0.8c2-0.2,3.9-0.4,5.7-0.6c0.4,0.2,0.9,0.4,1.5,0.4
					c0.9,0,1.6-0.4,2.2-1c2.6-0.5,4.9-1,6.9-1.6c0.3-0.1,0.6-0.1,0.9-0.3c0.3,0.1,0.7,0.2,1,0.2c1,0,1.9-0.5,2.4-1.2
					c2.1-0.2,3.8-1.8,4-3.9C106.1,21.9,106.5,21,106.5,20.1z M44.8,14C44.7,14,44.7,14,44.8,14C44.7,14,44.8,13.9,44.8,14
					C44.8,13.9,44.8,14,44.8,14z"/>
			</g>
		</g>
		<path class="st0" d="M59,18.7c0.9,0,1.7,0.5,2.4,1c-0.6-1.1-1.8-1.8-3.1-1.8c-1.6,0-3,1.1-3.4,2.5C56,19.3,57.4,18.7,59,18.7z"/>
		<path class="st0" d="M94.4,23.4c0.9,0,1.7,0.5,2.4,1c-0.6-1.1-1.8-1.8-3.1-1.8c-1.6,0-3,1.1-3.4,2.5
			C91.4,24.1,92.8,23.4,94.4,23.4z"/>
		<path class="st0" d="M66.6,25.2c0.7,0,1.5,0.4,2.1,0.9c-0.5-0.9-1.5-1.6-2.7-1.6c-1.4,0-2.6,0.9-3,2.2
			C64,25.8,65.2,25.2,66.6,25.2z"/>
		<path class="st0" d="M45,15.8c0.7,0,1.5,0.4,2.1,0.9c-0.5-0.9-1.5-1.6-2.7-1.6c-1.4,0-2.6,0.9-3,2.2C42.4,16.4,43.6,15.8,45,15.8z
			"/>
		<path class="st0" d="M77.3,8.9c0.7,0,1.5,0.4,2.1,0.9c-0.5-0.9-1.5-1.6-2.7-1.6c-1.4,0-2.6,0.9-3,2.2C74.7,9.5,75.9,8.9,77.3,8.9z
			"/>
		<path class="st0" d="M78.7,25.9c0.7,0,1.5,0.4,2.1,0.9c-0.5-0.9-1.5-1.6-2.7-1.6c-1.4,0-2.6,0.9-3,2.2
			C76.1,26.5,77.3,25.9,78.7,25.9z"/>
		<path class="st0" d="M83.6,23.7c0.9,0,1.9,0.5,2.6,1.1c-0.7-1.2-1.9-2-3.4-2c-1.8,0-3.3,1.2-3.8,2.8
			C80.2,24.4,81.8,23.7,83.6,23.7z"/>
		<path class="st0" d="M91.1,15.8c1.2,0,2.5,0.7,3.5,1.4c-0.9-1.5-2.6-2.6-4.5-2.6c-2.3,0-4.3,1.6-5,3.7
			C86.7,16.7,88.8,15.8,91.1,15.8z"/>
		<path class="st0" d="M87,13.7c0.9,0,1.8,0.5,2.5,1c-0.7-1.1-1.9-1.9-3.3-1.9c-1.7,0-3.2,1.1-3.6,2.7C83.8,14.5,85.3,13.7,87,13.7z
			"/>
		<path class="st0" d="M96.2,17.1c0.9,0,1.8,0.5,2.5,1c-0.7-1.1-1.9-1.9-3.3-1.9c-1.7,0-3.2,1.1-3.6,2.7
			C92.9,17.8,94.4,17.1,96.2,17.1z"/>
		<path class="st0" d="M54.2,17c1.1,0,2.1,0.6,3,1.2c-0.8-1.3-2.2-2.2-3.8-2.2c-2,0-3.7,1.3-4.2,3.1C50.4,17.8,52.2,17,54.2,17z"/>
		<path class="st0" d="M102.4,19.3c0.9,0,1.7,0.5,2.4,1c-0.6-1.1-1.8-1.8-3.1-1.8c-1.6,0-3,1.1-3.4,2.5
			C99.3,19.9,100.8,19.3,102.4,19.3z"/>
		<path class="st0" d="M39.4,20.7c0.5,0,1.1,0.3,1.5,0.6c-0.4-0.7-1.1-1.1-1.9-1.1c-1,0-1.9,0.7-2.1,1.6
			C37.5,21.1,38.3,20.7,39.4,20.7z"/>
		<path class="st0" d="M74.3,14.4c0.6,0,1.2,0.3,1.6,0.7c-0.4-0.7-1.2-1.2-2.1-1.2c-1.1,0-2,0.7-2.3,1.7
			C72.2,14.9,73.2,14.4,74.3,14.4z"/>
		<path class="st0" d="M77,13.5c0.4,0,0.9,0.2,1.2,0.5c-0.3-0.5-0.9-0.9-1.6-0.9c-0.8,0-1.5,0.6-1.8,1.3
			C75.4,13.9,76.2,13.5,77,13.5z"/>
		<path class="st0" d="M63.5,17.6c0.4,0,0.9,0.2,1.2,0.5c-0.3-0.5-0.9-0.9-1.6-0.9c-0.8,0-1.5,0.6-1.8,1.3
			C61.9,18,62.6,17.6,63.5,17.6z"/>
		<path class="st0" d="M64.1,9.7c0.4,0,0.9,0.2,1.2,0.5c-0.3-0.5-0.9-0.9-1.6-0.9c-0.8,0-1.5,0.6-1.8,1.3
			C62.5,10.1,63.2,9.7,64.1,9.7z"/>
	</g>
</g>
</svg>
