<?xml version="1.0" encoding="utf-8"?>
<!-- Generator: Adobe Illustrator 19.0.0, SVG Export Plug-In . SVG Version: 6.00 Build 0)  -->
<svg version="1.1" id="Layer_1" xmlns="http://www.w3.org/2000/svg" xmlns:xlink="http://www.w3.org/1999/xlink" x="0px" y="0px"
	 viewBox="0 0 146.8 110.5" style="enable-background:new 0 0 146.8 110.5;" xml:space="preserve">
<style type="text/css">
	.st0{fill:#FFFFFF;}
	.st1{opacity:0;fill:#FFFFFF;}
	.st2{opacity:4.761905e-002;fill:#FCFCFC;}
	.st3{opacity:9.523810e-002;fill:#FAFAFA;}
	.st4{opacity:0.1429;fill:#F7F7F7;}
	.st5{opacity:0.1905;fill:#F4F5F5;}
	.st6{opacity:0.2381;fill:#F2F2F2;}
	.st7{opacity:0.2857;fill:#EFEFF0;}
	.st8{opacity:0.3333;fill:#ECEDED;}
	.st9{opacity:0.381;fill:#E9EAEB;}
	.st10{opacity:0.4286;fill:#E7E7E8;}
	.st11{opacity:0.4762;fill:#E4E5E6;}
	.st12{opacity:0.5238;fill:#E1E2E3;}
	.st13{opacity:0.5714;fill:#DFE0E1;}
	.st14{opacity:0.619;fill:#DCDDDE;}
	.st15{opacity:0.6667;fill:#D9DADC;}
	.st16{opacity:0.7143;fill:#D7D8D9;}
	.st17{opacity:0.7619;fill:#D4D5D7;}
	.st18{opacity:0.8095;fill:#D1D3D4;}
	.st19{opacity:0.8571;fill:#CED0D2;}
	.st20{opacity:0.9048;fill:#CCCDCF;}
	.st21{opacity:0.9524;fill:#C9CBCD;}
	.st22{fill:#BFBFBF;}
	.st23{fill:#0081EF;}
	.st24{fill:#0FA6E4;}
	.st25{fill:#FA7500;}
	.st26{fill:#FFB137;}
</style>
<rect x="-148.9" y="-158.9" class="st0" width="450" height="450"/>
<g>
	<g>
		<path class="st1" d="M146.8,101.2c0,8.4-67.1,11-111.6,8.2C8.7,107.7,0,104.3,0,101.2c0-3.1,8.7-6.5,35.1-8.2
			C79.7,90.1,146.8,92.7,146.8,101.2z"/>
		<path class="st2" d="M144,101.2c0,8.1-64.2,10.6-107,7.9c-25.6-1.6-34.2-4.9-34.2-7.9c0-3,8.6-6.3,34.2-7.9
			C79.8,90.6,144,93.1,144,101.2z"/>
		<path class="st3" d="M141.3,101.2c0,7.7-61.4,10.1-102.5,7.5c-24.7-1.5-33.3-4.7-33.3-7.5c0-2.9,8.6-6,33.3-7.5
			C79.9,91.1,141.3,93.5,141.3,101.2z"/>
		<path class="st4" d="M138.5,101.2c0,7.3-58.5,9.6-97.9,7.2c-23.9-1.4-32.4-4.5-32.4-7.2c0-2.8,8.5-5.8,32.4-7.2
			C80,91.5,138.5,93.8,138.5,101.2z"/>
		<path class="st5" d="M135.8,101.2c0,7-55.7,9.2-93.3,6.9c-23-1.4-31.4-4.2-31.4-6.9c0-2.6,8.4-5.5,31.4-6.9
			C80.1,92,135.8,94.2,135.8,101.2z"/>
		<path class="st6" d="M133,101.2c0,6.6-52.8,8.7-88.8,6.6c-22.2-1.3-30.5-4-30.5-6.6c0-2.5,8.3-5.3,30.5-6.6
			C80.2,92.5,133,94.6,133,101.2z"/>
		<path class="st7" d="M130.3,101.2c0,6.2-49.9,8.2-84.2,6.2c-21.3-1.2-29.6-3.8-29.6-6.2c0-2.4,8.2-5,29.6-6.2
			C80.3,92.9,130.3,94.9,130.3,101.2z"/>
		<path class="st8" d="M127.5,101.2c0,5.9-47.1,7.8-79.6,5.9c-20.5-1.1-28.7-3.6-28.7-5.9c0-2.3,8.2-4.8,28.7-5.9
			C80.5,93.4,127.5,95.3,127.5,101.2z"/>
		<path class="st9" d="M124.8,101.2c0,5.5-44.2,7.3-75.1,5.6c-19.7-1-27.7-3.4-27.7-5.6c0-2.2,8.1-4.5,27.7-5.6
			C80.6,93.9,124.8,95.7,124.8,101.2z"/>
		<path class="st10" d="M122,101.2c0,5.1-41.3,6.8-70.5,5.2c-18.8-1-26.8-3.2-26.8-5.2c0-2.1,8-4.3,26.8-5.2
			C80.7,94.3,122,96,122,101.2z"/>
		<path class="st11" d="M119.3,101.2c0,4.8-38.5,6.3-65.9,4.9c-18-0.9-25.9-2.9-25.9-4.9c0-2,7.9-4,25.9-4.9
			C80.8,94.8,119.3,96.4,119.3,101.2z"/>
		<path class="st12" d="M116.5,101.2c0,4.4-35.6,5.8-61.4,4.6c-17.1-0.8-25-2.7-25-4.6c0-1.8,7.8-3.8,25-4.6
			C80.9,95.2,116.5,96.8,116.5,101.2z"/>
		<path class="st13" d="M113.8,101.2c0,4-32.8,5.4-56.8,4.3c-16.3-0.8-24-2.5-24-4.3c0-1.7,7.8-3.5,24-4.3
			C81,95.7,113.8,97.1,113.8,101.2z"/>
		<path class="st14" d="M111,101.2c0,3.6-29.9,4.9-52.2,3.9c-15.4-0.7-23.1-2.3-23.1-3.9c0-1.6,7.7-3.3,23.1-3.9
			C81.1,96.2,111,97.5,111,101.2z"/>
		<path class="st15" d="M108.3,101.2c0,3.3-27,4.5-47.7,3.6c-14.6-0.6-22.2-2.1-22.2-3.6c0-1.5,7.6-3,22.2-3.6
			C81.3,96.6,108.3,97.9,108.3,101.2z"/>
		<path class="st16" d="M105.6,101.2c0,2.9-24.2,4-43.1,3.3c-13.7-0.5-21.3-1.9-21.3-3.3c0-1.4,7.5-2.8,21.3-3.3
			C81.4,97.1,105.6,98.2,105.6,101.2z"/>
		<path class="st17" d="M102.8,101.2c0,2.5-21.3,3.5-38.5,2.9c-12.9-0.4-20.3-1.7-20.3-2.9c0-1.3,7.4-2.5,20.3-2.9
			C81.5,97.6,102.8,98.6,102.8,101.2z"/>
		<path class="st18" d="M100.1,101.2c0,2.2-18.5,3.1-34,2.6c-12-0.4-19.4-1.4-19.4-2.6c0-1.2,7.4-2.3,19.4-2.6
			C81.6,98,100.1,99,100.1,101.2z"/>
		<path class="st19" d="M97.3,101.2c0,1.8-15.6,2.6-29.4,2.3c-11.2-0.3-18.5-1.2-18.5-2.3c0-1.1,7.3-2,18.5-2.3
			C81.7,98.5,97.3,99.4,97.3,101.2z"/>
		<path class="st20" d="M94.6,101.2c0,1.4-12.7,2.2-24.8,1.9c-10.4-0.2-17.5-1-17.5-1.9c0-0.9,7.2-1.8,17.5-1.9
			C81.8,99,94.6,99.7,94.6,101.2z"/>
		<path class="st21" d="M91.8,101.2c0,1.1-9.9,1.7-20.3,1.6c-9.5-0.1-16.6-0.8-16.6-1.6c0-0.8,7.1-1.5,16.6-1.6
			C81.9,99.4,91.8,100.1,91.8,101.2z"/>
		<ellipse class="st22" cx="73.4" cy="101.2" rx="15.7" ry="1.3"/>
	</g>
	<g>
		<g>
			<path class="st23" d="M54,91.2c-2.9-4-5-9.1-7-13.9c-1.9-4.7-3.8-9.1-6.2-12.5c-2.5-3.4-6.1-6.5-9.9-9.8c-4-3.4-8.1-7-11-11
				c-1.6-2.3-2.8-4.5-3.4-6.8C12.7,24.6,26.9,14.3,33,9.9C39,5.5,53.2-4.8,64.1,2.6c2,1.3,3.7,3.1,5.4,5.4c2.9,4,5,9.1,7,13.9
				c1.9,4.7,3.8,9.1,6.2,12.5c2.5,3.4,6.1,6.5,9.9,9.8c4,3.4,8.1,7,11,11c1.6,2.3,2.8,4.5,3.4,6.8c3.7,12.7-10.6,23-16.6,27.4
				c-6.1,4.4-20.3,14.7-31.2,7.3C57.4,95.2,55.6,93.5,54,91.2L54,91.2z"/>
			<path class="st24" d="M104.2,63.4c-3.3-10.8-17.5-18.2-24-27.2c-6.5-9-9.2-24.7-18.4-31.3c-9.5-6.7-21.7,1.8-27.9,6.3
				c-6.2,4.5-18.1,13.5-14.7,24.6C22.6,46.6,36.7,54,43.2,63c6.5,9,9.2,24.7,18.4,31.3c9.5,6.7,21.7-1.8,27.9-6.3
				C95.8,83.5,107.7,74.5,104.2,63.4z"/>
			<g>
				<ellipse transform="matrix(0.5869 0.8096 -0.8096 0.5869 97.4179 -38.974)" class="st23" cx="86.9" cy="76" rx="1.3" ry="1.3"/>
				<ellipse transform="matrix(0.5869 0.8096 -0.8096 0.5869 29.3387 -45.8483)" class="st23" cx="59.6" cy="5.8" rx="1" ry="0.9"/>
				<ellipse transform="matrix(0.5869 0.8096 -0.8096 0.5869 29.6603 -40.1004)" class="st23" cx="54.1" cy="9" rx="1.5" ry="1.5"/>
				
					<ellipse transform="matrix(0.5869 0.8097 -0.8097 0.5869 99.7859 -34.0613)" class="st23" cx="83.3" cy="80.8" rx="1.3" ry="1.3"/>
				<ellipse transform="matrix(0.5869 0.8097 -0.8097 0.5869 26.4616 -33.4405)" class="st23" cx="46" cy="9.2" rx="1" ry="0.9"/>
				
					<ellipse transform="matrix(0.5869 0.8097 -0.8097 0.5869 32.1338 -26.0082)" class="st23" cx="41.6" cy="18.5" rx="1.3" ry="1.3"/>
				<ellipse transform="matrix(0.5869 0.8097 -0.8097 0.5869 26.8781 -20.0048)" class="st23" cx="33" cy="16.3" rx="1.1" ry="1"/>
				
					<ellipse transform="matrix(0.5869 0.8097 -0.8097 0.5869 32.097 -45.4349)" class="st23" cx="60.6" cy="8.7" rx="0.9" ry="0.9"/>
				
					<ellipse transform="matrix(0.5869 0.8097 -0.8097 0.5869 33.9887 -43.8764)" class="st23" cx="60" cy="11.4" rx="1.5" ry="1.5"/>
				
					<ellipse transform="matrix(0.5869 0.8097 -0.8097 0.5869 26.4616 -35.3136)" class="st23" cx="47.8" cy="8.3" rx="1.4" ry="1.3"/>
				
					<ellipse transform="matrix(0.5869 0.8097 -0.8097 0.5869 36.5279 -32.4336)" class="st23" cx="50" cy="19.6" rx="0.8" ry="0.7"/>
				
					<ellipse transform="matrix(0.5869 0.8097 -0.8097 0.5869 28.6106 -27.5898)" class="st23" cx="41.3" cy="14.2" rx="1.5" ry="1.5"/>
				
					<ellipse transform="matrix(0.5869 0.8096 -0.8096 0.5869 26.7233 -30.6054)" class="st23" cx="43.4" cy="10.9" rx="1.4" ry="1.4"/>
				
					<ellipse transform="matrix(0.5869 0.8096 -0.8096 0.5869 35.5167 -20.3476)" class="st23" cx="37.7" cy="24.6" rx="1.4" ry="1.4"/>
				<circle class="st23" cx="57.8" cy="4.8" r="1.5"/>
				
					<ellipse transform="matrix(0.5869 0.8097 -0.8097 0.5869 26.8039 -44.1365)" class="st23" cx="56.7" cy="4.2" rx="0.7" ry="0.6"/>
				
					<ellipse transform="matrix(0.5869 0.8097 -0.8097 0.5869 39.9865 -43.8905)" class="st23" cx="63" cy="17.2" rx="1.5" ry="1.5"/>
				
					<ellipse transform="matrix(0.5869 0.8096 -0.8096 0.5869 38.1575 -34.4958)" class="st23" cx="52.9" cy="20.1" rx="1.1" ry="1"/>
				
					<ellipse transform="matrix(0.5869 0.8097 -0.8097 0.5869 37.2515 -33.7364)" class="st23" cx="51.7" cy="19.6" rx="1.3" ry="1.2"/>
				
					<ellipse transform="matrix(0.5869 0.8096 -0.8096 0.5869 37.2518 -30.3353)" class="st23" cx="48.4" cy="21.3" rx="0.9" ry="0.9"/>
				<ellipse transform="matrix(0.5869 0.8096 -0.8096 0.5869 36.7677 -24.11)" class="st23" cx="42" cy="24" rx="1" ry="0.9"/>
				<ellipse transform="matrix(0.5869 0.8097 -0.8097 0.5869 33.442 -46.345)" class="st23" cx="62.1" cy="9.6" rx="1" ry="0.9"/>
				
					<ellipse transform="matrix(0.5869 0.8097 -0.8097 0.5869 32.8588 -41.5049)" class="st23" cx="57.1" cy="11.4" rx="1.2" ry="1.2"/>
				
					<ellipse transform="matrix(0.5869 0.8096 -0.8096 0.5869 43.2899 -38.4032)" class="st23" cx="59.3" cy="23.2" rx="1.5" ry="1.5"/>
				
					<ellipse transform="matrix(0.5869 0.8097 -0.8097 0.5869 43.1063 -38.0184)" class="st23" cx="58.8" cy="23.2" rx="0.8" ry="0.7"/>
				
					<ellipse transform="matrix(0.5869 0.8097 -0.8097 0.5869 34.7964 -35.5077)" class="st23" cx="52.2" cy="16.3" rx="0.8" ry="0.7"/>
				
					<ellipse transform="matrix(0.5869 0.8097 -0.8097 0.5869 43.1497 -31.8835)" class="st23" cx="52.8" cy="26.3" rx="0.7" ry="0.6"/>
				
					<ellipse transform="matrix(0.5869 0.8097 -0.8097 0.5869 35.0764 -19.7185)" class="st23" cx="36.9" cy="24.5" rx="1" ry="0.9"/>
				
					<ellipse transform="matrix(0.5868 0.8097 -0.8097 0.5868 39.7459 -47.7934)" class="st23" cx="66.7" cy="15.1" rx="0.9" ry="0.8"/>
				
					<ellipse transform="matrix(0.5869 0.8097 -0.8097 0.5869 41.8068 -45.5344)" class="st23" cx="65.5" cy="18.2" rx="1.1" ry="1.1"/>
				
					<ellipse transform="matrix(0.5869 0.8097 -0.8097 0.5869 37.364 -40.2987)" class="st23" cx="58.2" cy="16.5" rx="1.1" ry="1.1"/>
				
					<ellipse transform="matrix(0.5869 0.8096 -0.8096 0.5869 49.5447 -41.3917)" class="st23" cx="65.3" cy="27.9" rx="1.4" ry="1.3"/>
				
					<ellipse transform="matrix(0.5869 0.8096 -0.8096 0.5869 50.5659 -35.7929)" class="st23" cx="60.4" cy="31.7" rx="1.4" ry="1.3"/>
				
					<ellipse transform="matrix(0.5869 0.8097 -0.8097 0.5869 40.9793 -36.3865)" class="st23" cx="56.1" cy="22" rx="0.7" ry="0.6"/>
				
					<ellipse transform="matrix(0.5869 0.8096 -0.8096 0.5869 46.81 -31.8849)" class="st23" cx="54.7" cy="29.9" rx="0.9" ry="0.8"/>
				
					<ellipse transform="matrix(0.5869 0.8097 -0.8097 0.5869 51.5059 -27.377)" class="st23" cx="52.6" cy="36.8" rx="1.3" ry="1.3"/>
				<ellipse transform="matrix(0.5869 0.8097 -0.8097 0.5869 89.0789 -40.5372)" class="st23" cx="84.3" cy="67" rx="1" ry="1"/>
				
					<ellipse transform="matrix(0.5869 0.8097 -0.8097 0.5869 43.6128 -47.292)" class="st23" cx="68.2" cy="19.1" rx="0.9" ry="0.8"/>
				<ellipse transform="matrix(0.5869 0.8097 -0.8097 0.5869 44.9237 -42.3941)" class="st23" cx="64" cy="22.8" rx="1" ry="0.9"/>
				
					<ellipse transform="matrix(0.5869 0.8097 -0.8097 0.5869 45.6578 -37.9225)" class="st23" cx="60" cy="25.8" rx="0.9" ry="0.8"/>
				
					<ellipse transform="matrix(0.5869 0.8097 -0.8097 0.5869 54.8649 -37.3139)" class="st23" cx="64" cy="35.1" rx="1.3" ry="1.3"/>
				
					<ellipse transform="matrix(0.5869 0.8096 -0.8096 0.5869 41.3095 -27.399)" class="st23" cx="47.5" cy="26.8" rx="1.3" ry="1.3"/>
				<circle class="st23" cx="53.1" cy="39.2" r="1.5"/>
				<circle class="st23" cx="44.8" cy="32.9" r="1.5"/>
				<circle class="st23" cx="48.7" cy="28.2" r="1.5"/>
				<circle class="st23" cx="60.2" cy="30.5" r="1.5"/>
				<ellipse transform="matrix(0.5869 0.8097 -0.8097 0.5869 93.2235 -40.7555)" class="st23" cx="86.6" cy="71" rx="1.1" ry="1"/>
				
					<ellipse transform="matrix(0.5869 0.8097 -0.8097 0.5869 46.3962 -43.3528)" class="st23" cx="65.7" cy="23.8" rx="0.7" ry="0.6"/>
				
					<ellipse transform="matrix(0.5869 0.8097 -0.8097 0.5869 55.4213 -46.763)" class="st23" cx="73.5" cy="30.9" rx="1.4" ry="1.4"/>
				
					<ellipse transform="matrix(0.5869 0.8096 -0.8096 0.5869 59.7215 -38.0168)" class="st23" cx="67.1" cy="39.5" rx="0.9" ry="0.9"/>
				<ellipse transform="matrix(0.5869 0.8097 -0.8097 0.5869 54 -30.423)" class="st23" cx="56.8" cy="37.7" rx="1" ry="0.9"/>
				<ellipse transform="matrix(0.5869 0.8097 -0.8097 0.5869 50.837 -33.1679)" class="st23" cx="57.9" cy="33.2" rx="1" ry="0.9"/>
				
					<ellipse transform="matrix(0.5869 0.8097 -0.8097 0.5869 53.7463 -31.7953)" class="st23" cx="58" cy="36.8" rx="1.3" ry="1.2"/>
				
					<ellipse transform="matrix(0.5869 0.8097 -0.8097 0.5869 48.9048 -24.5298)" class="st23" cx="48.5" cy="35.7" rx="1.2" ry="1.2"/>
				
					<ellipse transform="matrix(0.5869 0.8097 -0.8097 0.5869 49.8022 -47.7944)" class="st23" cx="71.7" cy="24.9" rx="0.8" ry="0.7"/>
				
					<ellipse transform="matrix(0.5869 0.8097 -0.8097 0.5869 58.1856 -47.5789)" class="st23" cx="75.7" cy="33.2" rx="0.7" ry="0.5"/>
				
					<ellipse transform="matrix(0.5869 0.8097 -0.8097 0.5869 52.541 -45.553)" class="st23" cx="70.9" cy="28.7" rx="1.3" ry="1.2"/>
				
					<ellipse transform="matrix(0.5869 0.8096 -0.8096 0.5869 58.8924 -39.8656)" class="st23" cx="68.5" cy="37.8" rx="1" ry="0.9"/>
				
					<ellipse transform="matrix(0.5869 0.8096 -0.8096 0.5869 62.745 -37.4521)" class="st23" cx="68.1" cy="42.8" rx="1.4" ry="1.4"/>
				
					<ellipse transform="matrix(0.5869 0.8097 -0.8097 0.5869 56.9104 -29.8438)" class="st23" cx="57.7" cy="40.9" rx="1.5" ry="1.5"/>
				
					<ellipse transform="matrix(0.5869 0.8096 -0.8096 0.5869 55.4953 -20.8389)" class="st23" cx="48.2" cy="44" rx="0.7" ry="0.6"/>
				
					<ellipse transform="matrix(0.5869 0.8096 -0.8096 0.5869 105.4425 -40.6768)" class="st23" cx="92.6" cy="83" rx="1.2" ry="1.2"/>
				
					<ellipse transform="matrix(0.5869 0.8097 -0.8097 0.5869 66.8118 -46.0821)" class="st23" cx="78.6" cy="42.4" rx="1.2" ry="1.1"/>
				
					<ellipse transform="matrix(0.5869 0.8097 -0.8097 0.5869 58.3934 -43.8879)" class="st23" cx="72.2" cy="35.3" rx="0.9" ry="0.8"/>
				
					<ellipse transform="matrix(0.5869 0.8097 -0.8097 0.5869 67.454 -38.699)" class="st23" cx="71.6" cy="46.7" rx="0.7" ry="0.5"/>
				
					<ellipse transform="matrix(0.5869 0.8096 -0.8096 0.5869 58.7246 -31.2354)" class="st23" cx="60" cy="41.9" rx="0.8" ry="0.7"/>
				
					<ellipse transform="matrix(0.5869 0.8097 -0.8097 0.5869 30.652 -21.7938)" class="st23" cx="36.7" cy="19.1" rx="0.8" ry="0.7"/>
				
					<ellipse transform="matrix(0.5869 0.8096 -0.8096 0.5869 63.1886 -34.0127)" class="st23" cx="64.9" cy="44.9" rx="1.1" ry="1"/>
				
					<ellipse transform="matrix(0.5869 0.8097 -0.8097 0.5869 71.298 -24.2676)" class="st23" cx="59.4" cy="57.7" rx="0.7" ry="0.6"/>
				
					<ellipse transform="matrix(0.5869 0.8096 -0.8096 0.5869 63.0673 -45.1554)" class="st23" cx="75.8" cy="39.2" rx="0.7" ry="0.6"/>
				
					<ellipse transform="matrix(0.5869 0.8097 -0.8097 0.5869 72.7891 -47.2258)" class="st23" cx="82.7" cy="47.7" rx="1.4" ry="1.4"/>
				
					<ellipse transform="matrix(0.5869 0.8097 -0.8097 0.5869 74.1845 -45.104)" class="st23" cx="81.3" cy="50.1" rx="1.3" ry="1.3"/>
				
					<ellipse transform="matrix(0.5868 0.8097 -0.8097 0.5868 61.7269 -37.3173)" class="st23" cx="67.4" cy="41.8" rx="1" ry="0.9"/>
				<circle class="st23" cx="73.2" cy="55.2" r="1.5"/>
				
					<ellipse transform="matrix(0.5869 0.8097 -0.8097 0.5869 65.4737 -27.9869)" class="st23" cx="60.2" cy="50.2" rx="0.8" ry="0.7"/>
				<circle class="st23" cx="63.5" cy="61.5" r="1.5"/>
				
					<ellipse transform="matrix(0.5869 0.8096 -0.8096 0.5869 81.2491 -46.3139)" class="st23" cx="86" cy="56.5" rx="1.3" ry="1.2"/>
				
					<ellipse transform="matrix(0.587 0.8096 -0.8096 0.587 68.4692 -46.3755)" class="st23" cx="79.7" cy="43.9" rx="0.8" ry="0.7"/>
				
					<ellipse transform="matrix(0.5869 0.8096 -0.8096 0.5869 74.7308 -47.8096)" class="st23" cx="84.2" cy="49.3" rx="0.9" ry="0.9"/>
				
					<ellipse transform="matrix(0.5869 0.8097 -0.8097 0.5869 79.9365 -40.5511)" class="st23" cx="79.7" cy="58.1" rx="1.2" ry="1.2"/>
				
					<ellipse transform="matrix(0.5869 0.8096 -0.8096 0.5869 79.1983 -40.4177)" class="st23" cx="79.2" cy="57.4" rx="1" ry="0.9"/>
				
					<ellipse transform="matrix(0.5869 0.8097 -0.8097 0.5869 70.1749 -32.4941)" class="st23" cx="66.9" cy="52.5" rx="1.1" ry="1"/>
				
					<ellipse transform="matrix(0.5869 0.8097 -0.8097 0.5869 75.0983 -31.6488)" class="st23" cx="68.6" cy="57.8" rx="1.3" ry="1.3"/>
				<ellipse transform="matrix(0.587 0.8096 -0.8096 0.587 90.229 -49.6511)" class="st23" cx="93.8" cy="63.6" rx="0.8" ry="0.7"/>
				
					<ellipse transform="matrix(0.5869 0.8097 -0.8097 0.5869 70.1366 -46.0383)" class="st23" cx="80.2" cy="45.7" rx="1.2" ry="1.1"/>
				
					<ellipse transform="matrix(0.5869 0.8096 -0.8096 0.5869 69.2315 -38.4942)" class="st23" cx="72.3" cy="48.6" rx="1.2" ry="1.1"/>
				
					<ellipse transform="matrix(0.5869 0.8096 -0.8096 0.5869 69.8944 -49.7377)" class="st23" cx="83.7" cy="43.6" rx="0.8" ry="0.7"/>
				
					<ellipse transform="matrix(0.5869 0.8097 -0.8097 0.5869 80.3337 -42.166)" class="st23" cx="81.5" cy="57.6" rx="1.2" ry="1.1"/>
				
					<ellipse transform="matrix(0.5869 0.8096 -0.8096 0.5869 75.1007 -34.6621)" class="st23" cx="71.5" cy="56.3" rx="0.7" ry="0.6"/>
				
					<ellipse transform="matrix(0.5869 0.8096 -0.8096 0.5869 80.4284 -32.1546)" class="st23" cx="71.7" cy="62.7" rx="0.8" ry="0.7"/>
				<ellipse transform="matrix(0.5869 0.8097 -0.8097 0.5869 78.8053 -30.7126)" class="st23" cx="69.5" cy="61.9" rx="1" ry="1"/>
				
					<ellipse transform="matrix(0.5869 0.8097 -0.8097 0.5869 97.3458 -47.378)" class="st23" cx="95.1" cy="71.7" rx="1.1" ry="1.1"/>
				
					<ellipse transform="matrix(0.5869 0.8096 -0.8096 0.5869 85.8333 -55.2634)" class="st23" cx="97.1" cy="56.5" rx="1.1" ry="1"/>
				
					<ellipse transform="matrix(0.5869 0.8096 -0.8096 0.5869 77.5805 -48.9701)" class="st23" cx="86.8" cy="51.5" rx="0.9" ry="0.8"/>
				
					<ellipse transform="matrix(0.5869 0.8097 -0.8097 0.5869 88.0859 -43.3608)" class="st23" cx="86.5" cy="64.6" rx="1.1" ry="1.1"/>
				
					<ellipse transform="matrix(0.5869 0.8097 -0.8097 0.5869 98.4982 -22.1724)" class="st23" cx="71" cy="85.4" rx="0.9" ry="0.9"/>
				
					<ellipse transform="matrix(0.5869 0.8097 -0.8097 0.5869 28.6032 -13.7075)" class="st23" cx="27.7" cy="21.2" rx="0.8" ry="0.7"/>
				
					<ellipse transform="matrix(0.5869 0.8096 -0.8096 0.5869 28.7029 -9.5582)" class="st23" cx="23.7" cy="23.4" rx="1.2" ry="1.1"/>
				<ellipse transform="matrix(0.5869 0.8097 -0.8097 0.5869 33.2477 -5.2237)" class="st23" cx="21.7" cy="30" rx="1.5" ry="1.5"/>
				
					<ellipse transform="matrix(0.5869 0.8097 -0.8097 0.5869 37.8653 -15.7691)" class="st23" cx="34.4" cy="29.2" rx="1.1" ry="1"/>
				
					<ellipse transform="matrix(0.5869 0.8097 -0.8097 0.5869 28.9407 -12.8777)" class="st23" cx="27.1" cy="21.9" rx="0.9" ry="0.8"/>
				<ellipse transform="matrix(0.5869 0.8097 -0.8097 0.5869 33.3972 -9.4786)" class="st23" cx="26" cy="28" rx="0.9" ry="0.8"/>
				
					<ellipse transform="matrix(0.5869 0.8097 -0.8097 0.5869 36.9025 -2.867)" class="st23" cx="21.3" cy="34.7" rx="1.2" ry="1.1"/>
				
					<ellipse transform="matrix(0.5869 0.8096 -0.8096 0.5869 33.5992 -19.1939)" class="st23" cx="35.6" cy="23.3" rx="1.2" ry="1.2"/>
				
					<ellipse transform="matrix(0.5869 0.8097 -0.8097 0.5869 37.0132 -16.7023)" class="st23" cx="34.9" cy="27.9" rx="0.9" ry="0.8"/>
				
					<ellipse transform="matrix(0.5869 0.8097 -0.8097 0.5869 35.3448 -12.8117)" class="st23" cx="30.2" cy="28.2" rx="1.3" ry="1.2"/>
				
					<ellipse transform="matrix(0.5869 0.8096 -0.8096 0.5869 37.9423 -7.5918)" class="st23" cx="26.4" cy="33.4" rx="1.2" ry="1.1"/>
				
					<ellipse transform="matrix(0.5869 0.8097 -0.8097 0.5869 46.6186 -17.3256)" class="st23" cx="40.3" cy="37" rx="1.4" ry="1.4"/>
				<ellipse transform="matrix(0.5869 0.8097 -0.8097 0.5869 46.9418 -19.764)" class="st23" cx="42.8" cy="36.1" rx="1" ry="0.9"/>
				
					<ellipse transform="matrix(0.5869 0.8097 -0.8097 0.5869 50.5162 -9.3234)" class="st23" cx="34.4" cy="44.8" rx="0.8" ry="0.7"/>
				
					<ellipse transform="matrix(0.5869 0.8097 -0.8097 0.5869 69.5901 -25.0414)" class="st23" cx="59.3" cy="55.7" rx="0.8" ry="0.7"/>
				
					<ellipse transform="matrix(0.5869 0.8097 -0.8097 0.5869 47.8634 -7.9452)" class="st23" cx="31.7" cy="42.9" rx="1.2" ry="1.1"/>
				<circle class="st23" cx="39.1" cy="31" r="1.5"/>
				
					<ellipse transform="matrix(0.5869 0.8096 -0.8096 0.5869 43.7681 -18.729)" class="st23" cx="40.2" cy="33.5" rx="1.3" ry="1.3"/>
				
					<ellipse transform="matrix(-0.5869 -0.8096 0.8096 -0.5869 26.1929 200.2583)" class="st23" cx="64.2" cy="93.4" rx="1" ry="0.9"/>
				
					<ellipse transform="matrix(-0.5869 -0.8096 0.8096 -0.5869 37.4587 199.6295)" class="st23" cx="69.7" cy="90.3" rx="1.5" ry="1.5"/>
				
					<ellipse transform="matrix(-0.5869 -0.8096 0.8096 -0.5869 50.5144 205.9063)" class="st23" cx="77.8" cy="90.1" rx="1" ry="0.9"/>
				
					<ellipse transform="matrix(-0.5869 -0.8097 0.8097 -0.5869 65.0769 194.7838)" class="st23" cx="82.2" cy="80.8" rx="1.3" ry="1.3"/>
				
					<ellipse transform="matrix(-0.5869 -0.8097 0.8097 -0.5869 76.8447 205.0846)" class="st23" cx="90.7" cy="82.9" rx="1.1" ry="1"/>
				
					<ellipse transform="matrix(-0.5869 -0.8097 0.8097 -0.5869 27.0011 194.8572)" class="st23" cx="63.2" cy="90.5" rx="0.9" ry="0.9"/>
				
					<ellipse transform="matrix(-0.5869 -0.8097 0.8097 -0.5869 30.055 191.1487)" class="st23" cx="63.8" cy="87.9" rx="1.5" ry="1.5"/>
				
					<ellipse transform="matrix(-0.5869 -0.8096 0.8096 -0.5869 46.8419 205.9044)" class="st23" cx="75.9" cy="91" rx="1.4" ry="1.3"/>
				
					<ellipse transform="matrix(-0.5869 -0.8096 0.8096 -0.5869 52.4877 186.1781)" class="st23" cx="73.7" cy="79.7" rx="0.8" ry="0.7"/>
				
					<ellipse transform="matrix(-0.5869 -0.8097 0.8097 -0.5869 61.9779 201.6886)" class="st23" cx="82.4" cy="85" rx="1.5" ry="1.5"/>
				
					<ellipse transform="matrix(-0.5869 -0.8097 0.8097 -0.5869 56.0671 205.3873)" class="st23" cx="80.4" cy="88.4" rx="1.4" ry="1.4"/>
				
					<ellipse transform="matrix(-0.5869 -0.8096 0.8096 -0.5869 76.1745 188.1512)" class="st23" cx="86.1" cy="74.6" rx="1.4" ry="1.4"/>
				
					<ellipse transform="matrix(-0.5869 -0.8097 0.8097 -0.5869 66.5447 189.4242)" class="st23" cx="81.6" cy="77.7" rx="1.4" ry="1.4"/>
				<circle class="st23" cx="66" cy="94.4" r="1.5"/>
				
					<ellipse transform="matrix(-0.5869 -0.8097 0.8097 -0.5869 29.5455 205.2308)" class="st23" cx="67.1" cy="95.1" rx="0.7" ry="0.6"/>
				
					<ellipse transform="matrix(-0.5869 -0.8097 0.8097 -0.5869 24.5918 180.1033)" class="st23" cx="58.2" cy="83.8" rx="1.5" ry="1.5"/>
				
					<ellipse transform="matrix(-0.5869 -0.8096 0.8096 -0.5869 48.4435 182.9752)" class="st23" cx="70.9" cy="79.1" rx="1.1" ry="1"/>
				
					<ellipse transform="matrix(-0.5869 -0.8097 0.8097 -0.5869 55.6923 167.3624)" class="st23" cx="70.5" cy="69.5" rx="1.3" ry="1.2"/>
				
					<ellipse transform="matrix(-0.5869 -0.8096 0.8096 -0.5869 56.5977 184.7498)" class="st23" cx="75.4" cy="77.9" rx="0.9" ry="0.9"/>
				<ellipse transform="matrix(-0.5869 -0.8096 0.8096 -0.5869 68.8 185.6994)" class="st23" cx="81.8" cy="75.3" rx="1" ry="0.9"/>
				
					<ellipse transform="matrix(-0.5869 -0.8096 0.8096 -0.5869 25.2214 192.223)" class="st23" cx="61.6" cy="89.7" rx="1" ry="0.9"/>
				
					<ellipse transform="matrix(-0.5869 -0.8096 0.8096 -0.5869 34.7064 193.366)" class="st23" cx="66.7" cy="87.8" rx="1.2" ry="1.2"/>
				
					<ellipse transform="matrix(-0.5869 -0.8097 0.8097 -0.5869 46.4563 189.567)" class="st23" cx="71.6" cy="82.9" rx="0.8" ry="0.7"/>
				
					<ellipse transform="matrix(-0.5869 -0.8097 0.8097 -0.5869 72.4494 180.561)" class="st23" cx="82.3" cy="71.8" rx="1" ry="0.9"/>
				
					<ellipse transform="matrix(-0.5869 -0.8097 0.8097 -0.5869 37.0673 184.5337)" class="st23" cx="65.6" cy="82.8" rx="1.1" ry="1.1"/>
				
					<ellipse transform="matrix(-0.587 -0.8096 0.8096 -0.587 44.748 177.4552)" class="st23" cx="67.6" cy="77.3" rx="0.7" ry="0.6"/>
				
					<ellipse transform="matrix(-0.5869 -0.8097 0.8097 -0.5869 89.1851 201.7039)" class="st23" cx="96" cy="78.1" rx="0.8" ry="0.7"/>
				
					<ellipse transform="matrix(-0.5869 -0.8097 0.8097 -0.5869 97.3159 201.5062)" class="st23" cx="100.1" cy="75.9" rx="1.2" ry="1.1"/>
				
					<ellipse transform="matrix(-0.5869 -0.8097 0.8097 -0.5869 105.8092 192.6025)" class="st23" cx="102" cy="69.3" rx="1.5" ry="1.5"/>
				
					<ellipse transform="matrix(-0.5869 -0.8097 0.8097 -0.5869 85.1396 183.5507)" class="st23" cx="89.4" cy="70.1" rx="1.1" ry="1"/>
				
					<ellipse transform="matrix(-0.5869 -0.8096 0.8096 -0.5869 90.8194 201.0443)" class="st23" cx="96.7" cy="77.4" rx="0.9" ry="0.8"/>
				
					<ellipse transform="matrix(-0.5869 -0.8097 0.8097 -0.5869 97.467 192.3075)" class="st23" cx="97.8" cy="71.3" rx="0.9" ry="0.8"/>
				
					<ellipse transform="matrix(-0.5869 -0.8097 0.8097 -0.5869 110.4306 185.4382)" class="st23" cx="102.5" cy="64.5" rx="1.2" ry="1.1"/>
				
					<ellipse transform="matrix(-0.5869 -0.8096 0.8096 -0.5869 78.4356 191.9098)" class="st23" cx="88.2" cy="75.9" rx="1.2" ry="1.2"/>
				
					<ellipse transform="matrix(-0.5869 -0.8096 0.8096 -0.5869 81.2219 126.4551)" class="st23" cx="72.9" cy="42.5" rx="1.2" ry="1.2"/>
				
					<ellipse transform="matrix(-0.5869 -0.8096 0.8096 -0.5869 67.0199 88.8157)" class="st23" cx="56.2" cy="27.3" rx="1.2" ry="1.2"/>
				
					<ellipse transform="matrix(-0.5869 -0.8097 0.8097 -0.5869 83.3163 185.2196)" class="st23" cx="88.9" cy="71.4" rx="0.9" ry="0.8"/>
				
					<ellipse transform="matrix(-0.5869 -0.8097 0.8097 -0.5869 90.9385 188.4922)" class="st23" cx="93.6" cy="71" rx="1.3" ry="1.2"/>
				
					<ellipse transform="matrix(-0.587 -0.8096 0.8096 -0.587 101.1799 183.3977)" class="st23" cx="97.4" cy="65.9" rx="1.2" ry="1.1"/>
				<circle class="st23" cx="79.2" cy="70.4" r="1.5"/>
				
					<ellipse transform="matrix(-0.5869 -0.8096 0.8096 -0.5869 79.3461 171.9794)" class="st23" cx="83.5" cy="65.7" rx="1.3" ry="1.3"/>
				
					<ellipse transform="matrix(0.5869 0.8097 -0.8097 0.5869 49.733 -10.0171)" class="st23" cx="34.7" cy="43.7" rx="0.7" ry="0.6"/>
				
					<ellipse transform="matrix(0.5869 0.8097 -0.8097 0.5869 81.7181 -23.9605)" class="st23" cx="64.3" cy="68.1" rx="1.2" ry="1.1"/>
				<ellipse transform="matrix(0.587 0.8096 -0.8096 0.587 50.7128 -18.1438)" class="st23" cx="43.1" cy="40.6" rx="1.1" ry="1"/>
				
					<ellipse transform="matrix(0.5869 0.8097 -0.8097 0.5869 52.1225 -18.6613)" class="st23" cx="44.3" cy="41.7" rx="1.4" ry="1.4"/>
				
					<ellipse transform="matrix(0.5869 0.8097 -0.8097 0.5869 46.8163 -8.4511)" class="st23" cx="31.7" cy="41.7" rx="0.8" ry="0.7"/>
				<ellipse transform="matrix(0.5869 0.8097 -0.8097 0.5869 58.0712 -9.1129)" class="st23" cx="38" cy="52.3" rx="1.5" ry="1.4"/>
				
					<ellipse transform="matrix(0.5869 0.8097 -0.8097 0.5869 58.6824 -21.6181)" class="st23" cx="50.5" cy="46.7" rx="1.3" ry="1.2"/>
				
					<ellipse transform="matrix(0.5869 0.8096 -0.8096 0.5869 57.3127 -11.8578)" class="st23" cx="40.3" cy="50.2" rx="1.3" ry="1.3"/>
				
					<ellipse transform="matrix(0.5869 0.8097 -0.8097 0.5869 51.9789 -15.8412)" class="st23" cx="41.5" cy="43" rx="0.9" ry="0.8"/>
				
					<ellipse transform="matrix(0.5869 0.8096 -0.8096 0.5869 39.3711 -14.2633)" class="st23" cx="33.7" cy="31.5" rx="0.9" ry="0.8"/>
				<ellipse transform="matrix(0.5869 0.8096 -0.8096 0.5869 53.9603 -7.1614)" class="st23" cx="34" cy="49.3" rx="1.2" ry="1.1"/>
				
					<ellipse transform="matrix(0.5869 0.8097 -0.8097 0.5869 68.0747 -18.5142)" class="st23" cx="52.2" cy="57.5" rx="0.9" ry="0.8"/>
				
					<ellipse transform="matrix(0.5869 0.8096 -0.8096 0.5869 57.2496 -20.584)" class="st23" cx="48.8" cy="45.8" rx="1.2" ry="1.2"/>
				<ellipse transform="matrix(0.5869 0.8097 -0.8097 0.5869 61.567 -12.7317)" class="st23" cx="43.3" cy="54" rx="1.4" ry="1.3"/>
				
					<ellipse transform="matrix(0.5869 0.8097 -0.8097 0.5869 97.3653 -27.5222)" class="st23" cx="75.7" cy="81.7" rx="0.9" ry="0.8"/>
				<ellipse transform="matrix(0.587 0.8096 -0.8096 0.587 63.7347 -24.8798)" class="st23" cx="56.3" cy="50" rx="0.8" ry="0.6"/>
				
					<ellipse transform="matrix(0.5869 0.8096 -0.8096 0.5869 69.7737 -19.7726)" class="st23" cx="54.3" cy="58.5" rx="1.2" ry="1.2"/>
				
					<ellipse transform="matrix(0.5869 0.8096 -0.8096 0.5869 68.4441 -11.0874)" class="st23" cx="45.1" cy="61.5" rx="0.9" ry="0.8"/>
				
					<ellipse transform="matrix(0.5869 0.8097 -0.8097 0.5869 72.3509 -10.1448)" class="st23" cx="46.1" cy="65.8" rx="0.7" ry="0.6"/>
				<ellipse transform="matrix(0.587 0.8096 -0.8096 0.587 70.9632 -25.9069)" class="st23" cx="60.9" cy="56.6" rx="1.1" ry="1"/>
				
					<ellipse transform="matrix(0.5869 0.8096 -0.8096 0.5869 68.1798 -18.9244)" class="st23" cx="52.6" cy="57.4" rx="1" ry="0.9"/>
				
					<ellipse transform="matrix(0.5869 0.8097 -0.8097 0.5869 77.4808 -10.9842)" class="st23" cx="49.5" cy="70.4" rx="0.7" ry="0.5"/>
				
					<ellipse transform="matrix(0.5869 0.8096 -0.8096 0.5869 71.1782 -13.3791)" class="st23" cx="48.7" cy="63.1" rx="0.9" ry="0.9"/>
				
					<ellipse transform="matrix(0.5869 0.8096 -0.8096 0.5869 100.8299 -28.8332)" class="st23" cx="78.7" cy="84.4" rx="0.9" ry="0.9"/>
				
					<ellipse transform="matrix(0.5869 0.8097 -0.8097 0.5869 79.5275 -24.604)" class="st23" cx="63.9" cy="65.6" rx="1.2" ry="1.2"/>
				
					<ellipse transform="matrix(0.5869 0.8096 -0.8096 0.5869 69.3933 -20.1101)" class="st23" cx="54.4" cy="58" rx="1.5" ry="1.5"/>
				<ellipse transform="matrix(0.5869 0.8097 -0.8097 0.5869 71.8132 -19.4792)" class="st23" cx="55" cy="60.6" rx="1" ry="1"/>
				
					<ellipse transform="matrix(0.5869 0.8097 -0.8097 0.5869 44.9875 -3.1245)" class="st23" cx="25.6" cy="42.5" rx="0.9" ry="0.8"/>
				<ellipse transform="matrix(0.5869 0.8097 -0.8097 0.5869 74.4273 -22.2244)" class="st23" cx="59" cy="61.8" rx="1.1" ry="1"/>
				
					<ellipse transform="matrix(0.5869 0.8096 -0.8096 0.5869 80.4543 -18.6684)" class="st23" cx="58.5" cy="69.5" rx="1.3" ry="1.2"/>
				
					<ellipse transform="matrix(0.5869 0.8097 -0.8097 0.5869 84.1767 -13.25)" class="st23" cx="55.1" cy="75.9" rx="1.1" ry="1.1"/>
				
					<ellipse transform="matrix(0.5869 0.8097 -0.8097 0.5869 89.1402 -10.0434)" class="st23" cx="54.4" cy="82.3" rx="1.1" ry="1.1"/>
				<ellipse transform="matrix(0.5869 0.8097 -0.8097 0.5869 76.6277 -14.232)" class="st23" cx="52.3" cy="68" rx="1.1" ry="1.1"/>
				
					<ellipse transform="matrix(0.5869 0.8097 -0.8097 0.5869 85.3314 -13.5268)" class="st23" cx="55.9" cy="76.9" rx="0.7" ry="0.6"/>
				
					<ellipse transform="matrix(0.5869 0.8097 -0.8097 0.5869 80.5933 -28.2069)" class="st23" cx="67.9" cy="64.9" rx="1.3" ry="1.3"/>
				
					<ellipse transform="matrix(0.5869 0.8096 -0.8096 0.5869 87.6772 -20.1596)" class="st23" cx="63.6" cy="75.8" rx="1.5" ry="1.5"/>
				
					<ellipse transform="matrix(0.5869 0.8097 -0.8097 0.5869 92.454 -30.9396)" class="st23" cx="76.5" cy="75.1" rx="1.5" ry="1.5"/>
				
					<ellipse transform="matrix(0.5869 0.8097 -0.8097 0.5869 91.5271 -45.6057)" class="st23" cx="90.5" cy="66.9" rx="1.5" ry="1.5"/>
				<ellipse transform="matrix(0.5869 0.8097 -0.8097 0.5869 84.574 -50.6913)" class="st23" cx="92" cy="57.5" rx="1.5" ry="1.5"/>
				
					<ellipse transform="matrix(0.5869 0.8096 -0.8096 0.5869 79.2681 -52.1668)" class="st23" cx="90.8" cy="51.6" rx="1.5" ry="1.5"/>
				
					<ellipse transform="matrix(0.5869 0.8096 -0.8096 0.5869 90.4847 -17.2263)" class="st23" cx="62.1" cy="80.1" rx="0.7" ry="0.6"/>
				
					<ellipse transform="matrix(0.5869 0.8096 -0.8096 0.5869 88.5621 -27.4248)" class="st23" cx="71.2" cy="73.1" rx="1.4" ry="1.4"/>
				
					<ellipse transform="matrix(0.5868 0.8097 -0.8097 0.5868 84.1847 -35.2413)" class="st23" cx="76.6" cy="64.9" rx="1.1" ry="1"/>
				
					<ellipse transform="matrix(0.5869 0.8096 -0.8096 0.5869 77.5333 -35.2638)" class="st23" cx="73.3" cy="58.4" rx="0.9" ry="0.8"/>
				<ellipse transform="matrix(0.5869 0.8097 -0.8097 0.5869 83.0835 -34.1123)" class="st23" cx="75" cy="64.4" rx="1" ry="0.9"/>
			</g>
		</g>
		<g>
			<path class="st25" d="M104.8,95.7c-0.8-0.6-1.1-1.7-0.6-2.5l0,0l23.4-35.5l0,0c0.6-0.8,1.7-1,2.6-0.5c0.8,0.6,1.1,1.7,0.6,2.5
				l0,0l-23.4,35.5l0,0C106.7,96.1,105.6,96.3,104.8,95.7z"/>
			<path class="st26" d="M48.2,74.5c0-3.2,2.5-5.8,5.7-5.9l14.8-0.1L53,58.6L31.5,44.5c-1.9-1.3-2.4-3.8-1.2-5.7
				c1.3-1.9,3.8-2.4,5.7-1.2l21.5,14.2l1.5-2.3L34.1,33c-1.9-1.3-2.4-3.8-1.2-5.7c1.3-1.9,3.8-2.4,5.7-1.2l24.9,16.5l1.5-2.3
				L43.6,26.1c-1.9-1.3-2.4-3.8-1.2-5.7c1.3-1.9,3.8-2.4,5.7-1.2l21.5,14.2l1.5-2.3L57.3,22c-1.9-1.3-2.4-3.8-1.2-5.7
				c1.3-1.9,3.8-2.4,5.7-1.2l13.8,9.1l51.6,34l-22.7,34.4L86.9,81l-32.8-0.9C50.9,80.2,48.2,77.7,48.2,74.5z"/>
		</g>
	</g>
</g>
</svg>
