<?xml version="1.0" encoding="utf-8"?>
<!-- Generator: Adobe Illustrator 19.0.0, SVG Export Plug-In . SVG Version: 6.00 Build 0)  -->
<svg version="1.1" xmlns="http://www.w3.org/2000/svg" xmlns:xlink="http://www.w3.org/1999/xlink" x="0px" y="0px"
	 viewBox="0 0 500 500" style="enable-background:new 0 0 500 500;" xml:space="preserve">
<style type="text/css">
	.st0{fill:#FFFFFF;}
	.st1{fill:#43B3DF;}
	.st2{font-family:'Furore';}
	.st3{font-size:50.9204px;}
	.st4{fill:#1E284B;}
	.st5{fill:#0098D3;}
	.st6{fill:#D4ECF8;}
	.st7{fill:#F08C95;}
	.st8{fill:#EC7083;}
	.st9{fill:#252C5D;}
	.st10{fill:#EF8135;}
	.st11{fill:#E95F79;}
	.st12{fill:#EB6C16;}
</style>
<g id="BACKGROUND">
	<rect x="-1.4" y="2.1" class="st0" width="500" height="500"/>
	<text id="ON_DEMAND_CAR_WASH_1_" transform="matrix(1 0 0 1 222.0619 424.4836)" class="st1 st2 st3">CAR WASH</text>
</g>
<g id="OBJECTS">
	<text id="ON_DEMAND_CAR_WASH" transform="matrix(1 0 0 1 32.8192 371.1501)" class="st4 st2 st3">ON DEMAND</text>
	<g>
		<g>
			<g>
				<path class="st5" d="M427.4,181.5c0.4-1.3,0.6-2.6,0.6-4c0-7.7-5.8-14-13.3-14.8c2.1-6.6,3-13.7,2.3-21.2
					c-2.4-26.7-24.9-47.7-51.7-48.5c-24.9-0.7-46.1,15.7-52.8,38.3c-1.6-1.2-3.4-2.1-5.3-2.7c3.3-3,4-8,1.3-11.8
					c-2.8-4.1-8.4-5.1-12.5-2.2c-4.1,2.8-5.1,8.4-2.2,12.5c0.5,0.8,1.2,1.4,1.8,1.9c-6.4,2.5-11,8.8-11,16.1c0,0.1,0,0.2,0,0.3
					c-1.2,0.1-2.4,0.3-3.6,0.5c-10.3-7.6-22.8-12.3-36.3-13c-10.4-0.5-20.3,1.3-29.2,5c-2.8-5.9-8.8-10-15.7-10
					c-3.9,0-7.5,1.3-10.4,3.5c-6.9-23.4-29.4-40.1-55.4-38.1c-25.7,2-46.6,22.6-48.9,48.3c-0.7,7.4,0.2,14.6,2.3,21.1
					c-7.4,0.8-13.2,7.1-13.2,14.8c0,0.6,0.1,1.2,0.1,1.8l-0.4,0c-20,0-36.3,16.3-36.3,36.3v0.2c0,5.8,1.4,11.4,3.8,16.3
					c1.7-2.2,4.4-3.7,7.4-3.7c2.4,0,4.6,0.9,6.3,2.4c4.7-5.3,11.5-8.7,19.2-8.7c7.9,0,15,3.6,19.7,9.3c0.1-0.1,0.2-0.2,0.3-0.3
					c16.5-16.6,53-41.7,53-41.7s0.6-2.6,3.7-3.7c3-1,28.9-14.4,68.6-14.4h24.7c29.2,0,53.1,6.9,56.8,8.3c0,0,0,0,0,0
					c0,0,0.1,0,0.1,0c0.6,0.2,1.1,0.5,1.6,0.7c0.2,0.1,0.4,0.2,0.6,0.3c0.2,0.1,0.4,0.2,0.6,0.3c0.4,0.2,0.9,0.5,1.2,0.7
					c0.4,0.2,0.7,0.5,1.1,0.7c0.1,0.1,0.2,0.2,0.4,0.3c0.2,0.2,0.5,0.4,0.7,0.5c0.1,0.1,0.3,0.2,0.4,0.3c0.2,0.2,0.5,0.4,0.7,0.6
					c0.1,0.1,0.3,0.2,0.4,0.4c0.2,0.2,0.5,0.4,0.7,0.6c0.1,0.1,0.3,0.3,0.4,0.4c0.3,0.2,0.5,0.5,0.8,0.7c0.1,0.1,0.2,0.2,0.4,0.4
					c0.3,0.3,0.6,0.6,1,1c0.1,0.1,0.1,0.1,0.2,0.2c0.4,0.4,0.8,0.8,1.2,1.2c0.1,0.1,0.1,0.1,0.2,0.2c0.3,0.3,0.6,0.7,0.9,1
					c0.1,0.1,0.2,0.3,0.3,0.4c0.3,0.3,0.5,0.6,0.8,0.9c0.1,0.1,0.2,0.3,0.4,0.4c0.3,0.3,0.5,0.6,0.8,0.9c0.1,0.1,0.2,0.3,0.3,0.4
					c0.3,0.3,0.5,0.7,0.8,1c0.1,0.1,0.2,0.2,0.3,0.4c0.3,0.4,0.6,0.8,0.9,1.2c0,0.1,0.1,0.1,0.1,0.2c0.7,0.9,1.5,1.9,2.2,2.8
					c0.1,0.1,0.1,0.1,0.2,0.2c0.3,0.4,0.6,0.8,0.9,1.2c0.1,0.1,0.2,0.2,0.2,0.3c0.3,0.4,0.5,0.7,0.8,1c0.1,0.1,0.2,0.2,0.3,0.4
					c0.2,0.3,0.5,0.7,0.7,1c0.1,0.1,0.2,0.2,0.2,0.3c0.3,0.4,0.5,0.7,0.8,1.1c0.1,0.1,0.1,0.1,0.2,0.2c0.6,0.9,1.2,1.8,1.7,2.6
					c0,0.1,0.1,0.1,0.1,0.2c0.2,0.3,0.5,0.7,0.7,1c0.1,0.1,0.1,0.2,0.2,0.3c0.2,0.3,0.4,0.6,0.6,0.8c0.1,0.1,0.1,0.2,0.2,0.3
					c0.2,0.3,0.3,0.5,0.5,0.8c0.1,0.1,0.1,0.2,0.2,0.3c0.1,0.2,0.3,0.5,0.4,0.7c0.1,0.1,0.1,0.2,0.2,0.3c0.1,0.2,0.3,0.4,0.4,0.6
					c0.1,0.1,0.1,0.2,0.2,0.3c0.2,0.3,0.3,0.5,0.5,0.8c0.1,0.2,0.2,0.3,0.3,0.5c0,0.1,0.1,0.1,0.1,0.2c0.1,0.2,0.2,0.4,0.3,0.5
					c0,0,0,0,0,0c0.5,0.9,0.8,1.4,0.8,1.4c7.8,0,29,1.4,50.9,7.2c14.1,3.7,28.6,9.3,39.9,17.7c0.3,0.2,0.6,0.4,0.9,0.6
					c0,0-0.1,0-0.1-0.1c0.1,0.1,0.2,0.1,0.3,0.2c0,0,0.2,0.1,0.6,0.2c0,0,0.1,0,0.1,0c0.2,0.1,0.4,0.1,0.6,0.2c0.1,0,0.1,0,0.2,0.1
					c0.2,0.1,0.5,0.2,0.8,0.2c0.1,0,0.1,0,0.2,0c0.3,0.1,0.7,0.2,1,0.3c0,0,0.1,0,0.1,0c0.4,0.1,0.8,0.2,1.2,0.4c0,0,0.1,0,0.1,0
					c0.4,0.1,0.8,0.3,1.3,0.4c0.1,0,0.1,0,0.2,0.1c0.4,0.1,0.9,0.3,1.3,0.4c0,0,0.1,0,0.1,0h0c2.8,1,5.9,2.1,8.3,3.2
					c10.8-6,18.3-17.1,18.5-30.2C459.9,198.6,445.6,183.1,427.4,181.5z"/>
			</g>
			<circle class="st5" cx="415.4" cy="111.4" r="5.8"/>
			<circle class="st5" cx="70.2" cy="118" r="13.5"/>
			<circle class="st5" cx="322.9" cy="89.1" r="14.5"/>
			<circle class="st5" cx="192.3" cy="107.1" r="7"/>
			<circle class="st5" cx="87.8" cy="96.6" r="6.4"/>
			<path class="st5" d="M222.1,85.2c0,10.6-12,18.4-12,18.4s12,7.8,12,18.4l0-18.4v18.4c0-10.6,12-18.4,12-18.4
				S222.1,95.9,222.1,85.2z"/>
			<path class="st5" d="M433.7,154.8c0,5.3-6,9.2-6,9.2s6,3.9,6,9.2V164v9.2c0-5.3,6-9.2,6-9.2S433.7,160.1,433.7,154.8z"/>
			<path class="st5" d="M141.5,74.3c0,3.3-3.8,5.8-3.8,5.8s3.8,2.4,3.8,5.8v-5.8v5.8c0-3.3,3.8-5.8,3.8-5.8S141.5,77.7,141.5,74.3z"
				/>
		</g>
		<g>
			<circle class="st0" cx="125.1" cy="207.4" r="4.9"/>
			<circle class="st0" cx="374.6" cy="171.5" r="3.7"/>
			<circle class="st0" cx="358.1" cy="182.5" r="9.4"/>
			<path class="st0" d="M358.1,202.2c-2.8,0-5.5,0.6-8,1.6c-1.2-8.2-8.3-14.5-16.8-14.5c-9.4,0-17,7.6-17,17c0,9.4,7.6,17,17,17
				c1.3,0,2.5-0.2,3.7-0.4c0,0.1,0,0.3,0,0.4c0,11.6,9.4,21.1,21.1,21.1c11.6,0,21.1-9.4,21.1-21.1
				C379.1,211.7,369.7,202.2,358.1,202.2z"/>
			<path class="st0" d="M152.2,154.6c0,5.3-6,9.2-6,9.2s6,3.9,6,9.2c0-5.3,6-9.2,6-9.2S152.2,159.9,152.2,154.6z"/>
			<path class="st0" d="M325.8,176.5c0-3.3,3.8-5.8,3.8-5.8s-3.8-2.4-3.8-5.8c0,3.3-3.8,5.8-3.8,5.8S325.8,173.2,325.8,176.5z"/>
			<circle class="st0" cx="87.8" cy="207.9" r="9"/>
		</g>
		<g>
			<path class="st0" d="M334.6,231c0.3,0.5,0.5,1.1,0.6,1.6c0,0,0,0.1,0,0.1c0,0,0-0.1,0-0.1c0,0,0,0.1,0,0.1h0c0,0,0,0,0,0.1
				c0,0.1,0,0.1,0,0.1v0c0,0,0-0.1,0-0.1c0,0,0,0,0-0.1l0,0c0,0,0,0,0,0c0,0,0-0.1,0-0.1C335.1,232.1,334.9,231.5,334.6,231
				c-0.8-1.5-2.2-3.8-2.7-4.8c-0.6-1-1.2-2.2-1.9-3.4c0.7,1.2,1.3,2.3,1.9,3.4C332.5,227.2,333.8,229.6,334.6,231z"/>
			<path class="st0" d="M272.2,199.7c1.1,0.1,2.1,0.3,3,0.4C274.3,199.9,273.3,199.8,272.2,199.7z"/>
			<path class="st0" d="M349.9,271.6c1.2-1.7,2.3-3.3,3.5-4.6c1.6-1.8,3.2-3.5,4.7-5c-1.5,1.5-3.1,3.2-4.7,5
				C352.2,268.3,351,269.8,349.9,271.6z"/>
			<path class="st0" d="M310,194.5c-1.2-1.2-2.3-2.3-3.4-3.1c-0.2-0.1-0.4-0.3-0.5-0.4c0.2,0.1,0.3,0.3,0.5,0.4
				C307.7,192.2,308.8,193.3,310,194.5z"/>
			<path class="st0" d="M313.1,198c0.4,0.5,0.8,1,1.3,1.5C313.9,199,313.5,198.5,313.1,198c-0.6-0.8-1.2-1.5-1.8-2.1
				c-0.4-0.5-0.8-0.9-1.2-1.3c0.4,0.4,0.8,0.8,1.2,1.3C311.8,196.5,312.5,197.2,313.1,198z"/>
			<path class="st0" d="M351.7,265.8c0.2-0.2,0.4-0.5,0.6-0.7c1.1-1.2,2.1-2.3,3.2-3.4c-1,1.1-2.1,2.2-3.2,3.4
				C352,265.4,351.8,265.6,351.7,265.8z"/>
			<path class="st0" d="M322.5,210.9c0.4,0.6,0.8,1.2,1.2,1.8c0.2,0.3,0.4,0.6,0.6,0.9c-0.2-0.3-0.4-0.6-0.6-0.9
				C323.4,212.2,323,211.5,322.5,210.9c-0.4-0.6-0.8-1.2-1.2-1.8c-0.4-0.6-0.8-1.2-1.3-1.8c0.4,0.6,0.8,1.2,1.3,1.8
				C321.7,209.7,322.1,210.3,322.5,210.9z"/>
			<path class="st0" d="M344.3,281.4c0.3-0.7,0.7-1.3,1-2c0.4-0.7,0.8-1.4,1.1-2.1c-0.4,0.7-0.8,1.4-1.1,2.1
				C344.9,280.1,344.6,280.8,344.3,281.4z"/>
			<path class="st0" d="M333.4,294c0,0.2,0,0.3-0.1,0.5C333.3,294.3,333.4,294.1,333.4,294L333.4,294z"/>
			<path class="st0" d="M236.8,199.4L236.8,199.4c0-0.2,0.1-0.3,0.2-0.4C236.9,199.1,236.8,199.3,236.8,199.4z"/>
			<path class="st0" d="M450.1,272.9C450.1,272.9,450.1,272.9,450.1,272.9C450.1,272.9,450.1,272.9,450.1,272.9
				C449.8,272.5,449.8,272.5,450.1,272.9z"/>
			<path class="st0" d="M262.7,198.8c-4.1-0.3-8.7-0.6-13.8-0.9c-0.6,0-1.3-0.1-2-0.1c0.8,0,1.4,0.1,2,0.1
				C254,198.3,258.6,198.5,262.7,198.8z"/>
			<path class="st0" d="M285.6,222.2L285.6,222.2c-0.1-0.3-0.2-0.7-0.3-1.2C285.4,221.5,285.5,221.9,285.6,222.2z"/>
			<path class="st0" d="M282.1,204c-0.1-0.4-0.1-0.7-0.2-0.9c0-0.2-0.1-0.4-0.3-0.6c0.1,0.2,0.2,0.4,0.3,0.6
				C281.9,203.3,282,203.6,282.1,204z"/>
			<path class="st0" d="M423.3,244.9c-0.3-0.1-0.6-0.2-0.9-0.3C422.7,244.7,423,244.8,423.3,244.9z"/>
			<path class="st0" d="M295.8,222.2L295.8,222.2c0-0.7-0.2-1.6-0.3-2.6C295.7,220.6,295.8,221.5,295.8,222.2z"/>
			<path class="st0" d="M143.4,235.1c1.9,0.3,3.7,0.7,5.4,1.2C147.1,235.8,145.3,235.4,143.4,235.1z"/>
			<path class="st0" d="M135.6,234.4c2,0,4,0.2,5.9,0.4C139.6,234.6,137.6,234.5,135.6,234.4z"/>
			<path class="st0" d="M90.8,257.9c0.7-0.6,1.4-1.3,2.1-1.9l0,0l0,0C92.2,256.7,91.5,257.3,90.8,257.9z"/>
			<path class="st0" d="M186.8,271.2c0.9,1.8,1.7,3.5,2.5,5.3c0.4,0.9,0.7,1.7,1.1,2.5c-0.3-0.8-0.7-1.7-1.1-2.5
				C188.5,274.7,187.7,273,186.8,271.2c-0.9-1.8-1.9-3.6-2.9-5.4c-0.5-0.9-1.1-1.8-1.6-2.7c0.6,0.9,1.1,1.8,1.6,2.7
				C184.9,267.6,185.9,269.4,186.8,271.2z"/>
			<path class="st0" d="M195.9,296.4C195.9,296.4,195.9,296.4,195.9,296.4c-0.1-0.6-0.3-1.3-0.4-2
				C195.6,295.1,195.8,295.8,195.9,296.4C195.9,296.4,195.9,296.4,195.9,296.4z"/>
			<path class="st0" d="M194.3,290.2c0.2,0.6,0.4,1.2,0.5,1.8c0.1,0.4,0.2,0.8,0.3,1.2c-0.1-0.4-0.2-0.8-0.3-1.2
				C194.7,291.4,194.5,290.8,194.3,290.2c-0.4-1.3-0.8-2.7-1.3-4.1c-0.2-0.7-0.5-1.5-0.8-2.3c0.3,0.8,0.5,1.5,0.8,2.3
				C193.5,287.5,194,288.9,194.3,290.2z"/>
			<path class="st0" d="M192.2,283.8c-0.3-0.8-0.6-1.6-0.9-2.4c-0.3-0.8-0.6-1.6-1-2.5c0.3,0.8,0.7,1.7,1,2.5
				C191.7,282.3,192,283,192.2,283.8z"/>
			<path class="st0" d="M108.1,242.8c-1,0.6-2,1.2-3,1.9c-0.8,0.5-1.6,1.1-2.3,1.6c0.8-0.5,1.5-1.1,2.3-1.6
				C106.1,244.1,107.1,243.4,108.1,242.8z"/>
			<path class="st0" d="M94.2,253.3L94.2,253.3c-1.4,1.2-2.8,2.5-4,3.8C91.4,255.8,92.8,254.5,94.2,253.3L94.2,253.3z"/>
			<path class="st0" d="M100.6,248c0.7-0.6,1.5-1.1,2.3-1.7C102.1,246.9,101.3,247.4,100.6,248c-0.7,0.6-1.5,1.1-2.2,1.7
				c-0.7,0.6-1.4,1.2-2.1,1.8c0.7-0.6,1.4-1.2,2.1-1.8C99.1,249.1,99.8,248.6,100.6,248z"/>
			<path class="st0" d="M335.3,287.1c0,0.9,0,1.8,0,2.6C335.3,288.8,335.3,288,335.3,287.1c0-0.9,0-1.8,0-2.8c0-2.3,0-4.8,0-7.3
				c0,2.5,0,4.9,0,7.3C335.3,285.2,335.3,286.2,335.3,287.1z"/>
			<path class="st0" d="M195.9,296.4C195.9,296.4,195.9,296.4,195.9,296.4C195.9,296.4,195.9,296.4,195.9,296.4
				C195.9,296.4,195.9,296.4,195.9,296.4L195.9,296.4z"/>
			<path class="st0" d="M256,179.7c0.3,0,0.5,0,0.8,0.1C256.5,179.7,256.3,179.7,256,179.7c-0.4,0-0.8-0.1-1.2-0.1
				c-0.2,0-0.5,0-0.7-0.1c0.2,0,0.5,0,0.7,0.1C255.2,179.6,255.6,179.6,256,179.7z"/>
			<path class="st0" d="M248.9,179.2c-0.3,0-0.5,0-0.8,0c-0.3,0-0.7,0-1-0.1c0.3,0,0.7,0,1,0.1C248.4,179.1,248.7,179.2,248.9,179.2
				z"/>
			<path class="st0" d="M252.3,179.4c0.2,0,0.5,0,0.7,0.1C252.8,179.4,252.5,179.4,252.3,179.4c-0.5,0-1-0.1-1.6-0.1
				c-0.2,0-0.5,0-0.7,0c0.2,0,0.5,0,0.7,0C251.2,179.3,251.8,179.4,252.3,179.4z"/>
			<path class="st0" d="M258.7,179.9c0.3,0,0.7,0.1,1,0.1c0.2,0,0.5,0,0.7,0.1c0.5,0,1,0.1,1.5,0.1c-0.5-0.1-1-0.1-1.5-0.1
				c-0.2,0-0.5,0-0.7-0.1C259.4,180,259.1,179.9,258.7,179.9c-0.2,0-0.5,0-0.7-0.1c-0.4,0-0.8-0.1-1.2-0.1c0.4,0,0.8,0.1,1.2,0.1
				C258.3,179.9,258.5,179.9,258.7,179.9z"/>
			<path class="st0" d="M241.1,178.8c0.4,0,0.7,0,1.1,0c0.3,0,0.5,0,0.8,0c0.4,0,0.7,0,1.1,0c-0.4,0-0.7,0-1.1,0c-0.3,0-0.5,0-0.8,0
				C241.8,178.8,241.4,178.8,241.1,178.8c-0.2,0-0.5,0-0.7,0c-0.6,0-1.1,0-1.7,0c0.6,0,1.1,0,1.7,0
				C240.6,178.8,240.8,178.8,241.1,178.8z"/>
			<path class="st0" d="M236.9,178.7c-0.3,0-0.5,0-0.8,0c-0.4,0-0.8,0-1.3,0c0.4,0,0.8,0,1.3,0C236.3,178.7,236.6,178.7,236.9,178.7
				z"/>
			<path class="st0" d="M263.6,180.4c-0.4,0-0.7-0.1-1.1-0.1c-0.2,0-0.4,0-0.6-0.1c0.2,0,0.4,0,0.6,0.1
				C262.8,180.3,263.2,180.3,263.6,180.4z"/>
			<path class="st0" d="M238.7,178.7c-0.3,0-0.5,0-0.8,0c-0.4,0-0.7,0-1.1,0c0.4,0,0.7,0,1.1,0C238.2,178.7,238.5,178.7,238.7,178.7
				z"/>
			<path class="st0" d="M284.9,183.6c-0.4-0.1-0.8-0.2-1.2-0.2c-0.1,0-0.3,0-0.4-0.1c0.1,0,0.3,0,0.4,0.1
				C284.1,183.4,284.5,183.5,284.9,183.6z"/>
			<path class="st0" d="M233.9,178.7c0.3,0,0.6,0,1,0C234.5,178.7,234.2,178.7,233.9,178.7c-0.4,0-0.9,0-1.3,0c-0.3,0-0.5,0-0.8,0
				c0.3,0,0.5,0,0.8,0C233,178.6,233.4,178.7,233.9,178.7z"/>
			<path class="st0" d="M280.9,182.8c-0.1,0-0.2,0-0.3-0.1c-0.4-0.1-0.9-0.2-1.3-0.2c0.4,0.1,0.9,0.2,1.3,0.2
				C280.7,182.8,280.8,182.8,280.9,182.8z"/>
			<path class="st0" d="M278.8,182.5c0.2,0,0.3,0.1,0.5,0.1C279.1,182.5,278.9,182.5,278.8,182.5c-0.3-0.1-0.6-0.1-0.9-0.2
				c-0.2,0-0.3-0.1-0.5-0.1c0.2,0,0.3,0.1,0.5,0.1C278.2,182.3,278.5,182.4,278.8,182.5z"/>
			<path class="st0" d="M286.1,183.9c-0.3-0.1-0.6-0.1-0.9-0.2c-0.1,0-0.2-0.1-0.4-0.1c0.1,0,0.2,0.1,0.4,0.1
				C285.6,183.7,285.8,183.8,286.1,183.9z"/>
			<path class="st0" d="M265.2,180.6c-0.3,0-0.7-0.1-1-0.1c-0.2,0-0.5,0-0.7-0.1c0.2,0,0.5,0,0.7,0.1
				C264.6,180.5,264.9,180.5,265.2,180.6z"/>
			<path class="st0" d="M267.3,180.8c-0.5-0.1-1-0.1-1.5-0.2c-0.2,0-0.4,0-0.6-0.1c0.2,0,0.4,0,0.6,0.1
				C266.3,180.7,266.8,180.7,267.3,180.8z"/>
			<path class="st0" d="M275.7,182c0.1,0,0.3,0,0.4,0.1C276,182,275.9,182,275.7,182c-0.4-0.1-0.8-0.1-1.2-0.2
				c-0.2,0-0.4-0.1-0.6-0.1c0.2,0,0.4,0.1,0.6,0.1C274.9,181.8,275.3,181.9,275.7,182z"/>
			<path class="st0" d="M272.4,181.5c-0.5-0.1-0.9-0.1-1.4-0.2c-0.1,0-0.3,0-0.5-0.1c0.2,0,0.3,0,0.5,0.1
				C271.5,181.3,272,181.4,272.4,181.5z"/>
			<path class="st0" d="M229.9,178.6c0.3,0,0.5,0,0.8,0c0.4,0,0.7,0,1.1,0c-0.4,0-0.7,0-1.1,0C230.4,178.6,230.1,178.6,229.9,178.6
				c-0.6,0-1.1,0-1.7,0c-1.4,0-2.9,0-4.4,0.1c1.5,0,2.9-0.1,4.4-0.1C228.7,178.6,229.3,178.6,229.9,178.6z"/>
			<path class="st0" d="M288.9,184.5c0.1,0,0.2,0.1,0.3,0.1C289.1,184.5,289,184.5,288.9,184.5c-0.4-0.1-0.7-0.2-1.1-0.3
				c-0.1,0-0.2,0-0.2-0.1c0.1,0,0.2,0,0.2,0.1C288.1,184.3,288.5,184.4,288.9,184.5z"/>
			<path class="st0" d="M428.4,293.6c0,1.6-0.2,3.1-0.5,4.7C428.2,296.8,428.4,295.2,428.4,293.6c0-12.9-10.5-23.4-23.4-23.4
				c-1.5,0-3,0.1-4.4,0.4c1.4-0.3,2.9-0.4,4.4-0.4C417.9,270.2,428.4,280.7,428.4,293.6z"/>
			<path class="st0" d="M121.5,224.4c0.5-0.5,1-1,1.5-1.5c0.3-0.3,0.7-0.7,1-1c-0.3,0.3-0.7,0.7-1,1
				C122.5,223.4,122,223.9,121.5,224.4z"/>
			<path class="st0" d="M317.2,203.3c1,1.3,1.9,2.6,2.9,4C319.1,205.9,318.2,204.6,317.2,203.3z"/>
			<path class="st0" d="M305.1,190.4C305.1,190.4,305.1,190.4,305.1,190.4c0.3,0.2,0.7,0.4,1,0.6
				C305.8,190.8,305.5,190.6,305.1,190.4z"/>
			<path class="st0" d="M118.5,227.4c0.1-0.1,0.3-0.3,0.4-0.4c0.6-0.6,1.1-1.1,1.7-1.7c-0.5,0.6-1.1,1.1-1.7,1.7
				C118.8,227.2,118.6,227.3,118.5,227.4z"/>
			<path class="st0" d="M183.4,205c-1.1,0.4-2.2,0.9-3.3,1.3C181.2,205.9,182.3,205.4,183.4,205c13.2-5.1,28.1-8.1,42.3-7.5v0
				C211.5,197,196.6,199.9,183.4,205z"/>
			<path class="st0" d="M335.3,232.8C335.3,232.8,335.3,232.8,335.3,232.8C335.3,232.8,335.3,232.8,335.3,232.8
				C335.3,232.8,335.3,232.8,335.3,232.8z"/>
			<path class="st0" d="M335.2,272.5c0-1.5,0-3.1,0-4.6l0,0C335.2,269.5,335.2,271,335.2,272.5z"/>
			<path class="st0" d="M296.5,209.1L296.5,209.1C296.5,209.1,296.5,209.1,296.5,209.1C296.5,209.1,296.5,209.1,296.5,209.1z"/>
			<path class="st0" d="M315.8,214.6c0.2,0.5,0.4,1,0.5,1.4C316.2,215.6,316,215.1,315.8,214.6z"/>
			<path class="st0" d="M316.4,217.4c0.1-0.1,0.1-0.1,0.1-0.2c0-0.2-0.1-0.6-0.3-1.2c0.2,0.5,0.3,1,0.3,1.2
				C316.6,217.3,316.5,217.3,316.4,217.4z"/>
			<path class="st0" d="M302.1,201.7c0.1-0.1,0.3-0.1,0.6-0.2C302.4,201.6,302.2,201.7,302.1,201.7z"/>
			<path class="st0" d="M291.5,185.1c0.3,0.1,0.7,0.2,1,0.3C292.2,185.3,291.8,185.2,291.5,185.1
				C291.5,185.1,291.4,185.1,291.5,185.1c-0.4-0.1-0.8-0.2-1.1-0.3C290.7,184.9,291.1,185,291.5,185.1
				C291.4,185.1,291.5,185.1,291.5,185.1z"/>
			<path class="st0" d="M192.4,181.4c2.9-0.5,5.8-0.8,8.8-1.2C198.2,180.5,195.3,180.9,192.4,181.4z"/>
			<path class="st0" d="M184.5,185.3c-1.2,0.3-2.5,0.7-3.7,1.1C182,186,183.3,185.6,184.5,185.3c1.2-0.3,2.5-0.7,3.7-1
				c0.3-0.1,0.5-0.1,0.8-0.2c-0.3,0.1-0.5,0.1-0.8,0.2C187,184.6,185.7,184.9,184.5,185.3z"/>
			<path class="st0" d="M226.8,180.2c1.3,0,2.6,0,3.9-0.1c0,0,0,0,0,0c0,0,0,0,0,0C229.4,180.1,228.1,180.2,226.8,180.2z"/>
			<path class="st0" d="M293.8,185.7c0.3,0.1,0.6,0.2,0.9,0.3c0.1,0,0.1,0,0.2,0.1c0.3,0.1,0.5,0.2,0.8,0.2c0.1,0,0.2,0.1,0.3,0.1
				c0.2,0.1,0.5,0.1,0.7,0.2c-0.2-0.1-0.4-0.1-0.7-0.2c-0.1,0-0.2-0.1-0.3-0.1c-0.2-0.1-0.5-0.2-0.8-0.2c-0.1,0-0.1,0-0.2-0.1
				C294.5,185.9,294.1,185.8,293.8,185.7c-0.1,0-0.2-0.1-0.3-0.1c-0.2-0.1-0.5-0.1-0.7-0.2c0.3,0.1,0.5,0.1,0.7,0.2
				C293.6,185.7,293.7,185.7,293.8,185.7z"/>
			<path class="st0" d="M298.5,187.3c0.1,0,0.2,0.1,0.2,0.1C298.6,187.3,298.5,187.3,298.5,187.3c-0.2-0.1-0.4-0.2-0.6-0.2
				c-0.1,0-0.1,0-0.2-0.1c0.1,0,0.1,0,0.2,0.1C298,187.1,298.3,187.2,298.5,187.3z"/>
			<path class="st0" d="M299.4,187.6c0,0-0.1,0-0.1,0c-0.2-0.1-0.4-0.2-0.6-0.2c0.2,0.1,0.4,0.2,0.6,0.2
				C299.3,187.6,299.4,187.6,299.4,187.6z"/>
			<path class="st0" d="M305.8,200.5c0.2-0.3,0.2-0.6,0.2-0.9C306,199.9,305.9,200.2,305.8,200.5c-0.1,0.2-0.4,0.4-0.8,0.5
				C305.3,200.9,305.6,200.7,305.8,200.5z"/>
			<path class="st6" d="M301.8,182.3c4.9,3.1,10.3,9,14.9,15c1.8,2.3,3.5,4.6,5,6.7c1.2,1.7,2.3,3.3,3.3,4.7c2.4,3.6,3.8,6,3.8,6
				s1.5,2.8,3,2.8c0,0,0,0,0,0c-0.1-0.2-0.2-0.3-0.3-0.5c0-0.1-0.1-0.1-0.1-0.2c-0.1-0.2-0.2-0.3-0.3-0.5c-0.1-0.2-0.3-0.5-0.5-0.8
				c-0.1-0.1-0.1-0.2-0.2-0.3c-0.1-0.2-0.3-0.4-0.4-0.6c-0.1-0.1-0.1-0.2-0.2-0.3c-0.1-0.2-0.3-0.5-0.4-0.7
				c-0.1-0.1-0.1-0.2-0.2-0.3c-0.2-0.3-0.3-0.5-0.5-0.8c-0.1-0.1-0.1-0.2-0.2-0.3c-0.2-0.3-0.4-0.6-0.5-0.9
				c-0.1-0.1-0.1-0.2-0.2-0.3c-0.2-0.3-0.4-0.7-0.7-1c0-0.1-0.1-0.1-0.1-0.2c-0.5-0.8-1.1-1.7-1.7-2.6c-0.1-0.1-0.1-0.2-0.2-0.2
				c-0.2-0.4-0.5-0.7-0.8-1.1c-0.1-0.1-0.2-0.2-0.2-0.3c-0.2-0.3-0.5-0.7-0.7-1.1c-0.1-0.1-0.2-0.3-0.3-0.4
				c-0.2-0.4-0.5-0.7-0.7-1.1c-0.1-0.1-0.2-0.2-0.2-0.3c-0.3-0.4-0.6-0.8-0.9-1.2c-0.1-0.1-0.1-0.1-0.2-0.2c-0.7-1-1.4-1.9-2.2-2.9
				c0-0.1-0.1-0.1-0.1-0.2c-0.3-0.4-0.6-0.8-0.9-1.2c-0.1-0.1-0.2-0.2-0.3-0.4c-0.3-0.3-0.5-0.7-0.8-1c-0.1-0.1-0.2-0.3-0.3-0.4
				c-0.3-0.3-0.5-0.6-0.8-0.9c-0.1-0.1-0.2-0.3-0.4-0.4c-0.3-0.3-0.5-0.6-0.8-0.9c-0.1-0.1-0.2-0.3-0.3-0.4
				c-0.3-0.4-0.6-0.7-0.9-1.1c-0.1-0.1-0.1-0.1-0.2-0.2c-0.4-0.4-0.8-0.8-1.1-1.2c-0.1-0.1-0.1-0.1-0.2-0.2c-0.3-0.3-0.6-0.7-1-1
				c-0.1-0.1-0.2-0.2-0.4-0.4c-0.3-0.2-0.5-0.5-0.8-0.7c-0.1-0.1-0.3-0.3-0.4-0.4c-0.2-0.2-0.5-0.4-0.7-0.6
				c-0.1-0.1-0.3-0.3-0.4-0.4c-0.2-0.2-0.5-0.4-0.7-0.6c-0.1-0.1-0.3-0.2-0.4-0.3c-0.2-0.2-0.5-0.4-0.7-0.6
				c-0.1-0.1-0.2-0.2-0.4-0.3c-0.4-0.3-0.7-0.5-1.1-0.7c-0.4-0.2-0.8-0.5-1.2-0.7c-0.2-0.1-0.4-0.2-0.6-0.3
				c-0.2-0.1-0.4-0.2-0.6-0.3c-0.5-0.2-1.1-0.5-1.6-0.7c0,0,0,0-0.1,0C301.1,182,301.5,182.1,301.8,182.3z"/>
			<path class="st6" d="M297,187.2c0.3,0.1,0.6,0.2,0.9,0.3c0.1,0,0.1,0,0.2,0.1c0.3,0.1,0.5,0.2,0.8,0.2c0.1,0,0.2,0.1,0.3,0.1
				c0.2,0.1,0.5,0.1,0.7,0.2c0.1,0,0.1,0,0.2,0.1c0.3,0.1,0.6,0.2,0.8,0.3c0.1,0,0.1,0,0.2,0.1c0.2,0.1,0.4,0.2,0.6,0.2
				c0.1,0,0.2,0.1,0.2,0.1c0.1,0,0.2,0.1,0.3,0.1c-0.2-0.1-0.4-0.2-0.6-0.3c-0.2-0.1-0.4-0.2-0.6-0.3c-0.1,0-0.1-0.1-0.2-0.1
				c-0.2-0.1-0.3-0.1-0.5-0.2c-0.1,0-0.1-0.1-0.2-0.1c-0.2-0.1-0.4-0.2-0.7-0.3c0,0-0.1,0-0.1,0c-0.2-0.1-0.4-0.2-0.6-0.2
				c-0.1,0-0.2-0.1-0.2-0.1c-0.2-0.1-0.4-0.2-0.6-0.2c-0.1,0-0.1,0-0.2-0.1c-0.3-0.1-0.5-0.2-0.8-0.3c-0.1,0-0.1,0-0.2-0.1
				c-0.2-0.1-0.4-0.1-0.7-0.2c-0.1,0-0.2-0.1-0.3-0.1c-0.2-0.1-0.5-0.2-0.8-0.2c-0.1,0-0.1,0-0.2-0.1c-0.3-0.1-0.6-0.2-0.9-0.3
				c-0.1,0-0.2-0.1-0.3-0.1c-0.2-0.1-0.5-0.1-0.7-0.2c-0.1,0-0.2-0.1-0.3-0.1c-0.3-0.1-0.7-0.2-1-0.3c0,0,0,0-0.1,0
				c-0.3-0.1-0.7-0.2-1-0.3c-0.1,0-0.2-0.1-0.3-0.1c-0.3-0.1-0.5-0.1-0.8-0.2c-0.1,0-0.2-0.1-0.3-0.1c-0.4-0.1-0.7-0.2-1.1-0.3
				c-0.1,0-0.2,0-0.2-0.1c-0.3-0.1-0.6-0.1-1-0.2c-0.1,0-0.3-0.1-0.4-0.1c-0.3-0.1-0.6-0.1-0.9-0.2c-0.1,0-0.2-0.1-0.4-0.1
				c-0.4-0.1-0.8-0.2-1.2-0.2c-0.1,0-0.3,0-0.4-0.1c-0.3-0.1-0.6-0.1-0.9-0.2c-0.2,0-0.3-0.1-0.5-0.1c-0.3-0.1-0.7-0.1-1-0.2
				c-0.1,0-0.2,0-0.3-0.1c-0.4-0.1-0.9-0.2-1.3-0.2c-0.2,0-0.3-0.1-0.5-0.1c-0.3-0.1-0.6-0.1-0.9-0.2c-0.2,0-0.3-0.1-0.5-0.1
				c-0.4-0.1-0.8-0.1-1.2-0.2c-0.1,0-0.3,0-0.4-0.1c-0.4-0.1-0.8-0.1-1.2-0.2c-0.2,0-0.4-0.1-0.6-0.1c-0.3,0-0.6-0.1-1-0.1
				c-0.2,0-0.4-0.1-0.6-0.1c-0.5-0.1-0.9-0.1-1.4-0.2c-0.1,0-0.3,0-0.5-0.1c-0.4,0-0.7-0.1-1.1-0.1c-0.2,0-0.4-0.1-0.6-0.1
				c-0.3,0-0.7-0.1-1-0.1c-0.2,0-0.4,0-0.6-0.1c-0.5-0.1-1-0.1-1.5-0.2c-0.2,0-0.4,0-0.6-0.1c-0.3,0-0.7-0.1-1-0.1
				c-0.2,0-0.5,0-0.7-0.1c-0.4,0-0.7-0.1-1.1-0.1c-0.2,0-0.4,0-0.6-0.1c-0.5-0.1-1-0.1-1.5-0.1c-0.2,0-0.5,0-0.7-0.1
				c-0.3,0-0.7-0.1-1-0.1c-0.2,0-0.5,0-0.7-0.1c-0.4,0-0.8-0.1-1.2-0.1c-0.3,0-0.5,0-0.8-0.1c-0.4,0-0.8-0.1-1.2-0.1
				c-0.2,0-0.5,0-0.7-0.1c-0.3,0-0.7-0.1-1-0.1c-0.2,0-0.5,0-0.7-0.1c-0.5,0-1-0.1-1.6-0.1c-0.2,0-0.4,0-0.7,0c-0.4,0-0.7,0-1.1-0.1
				c-0.3,0-0.5,0-0.8,0c-0.3,0-0.7,0-1-0.1c-0.2,0-0.5,0-0.7,0c-0.5,0-1.1-0.1-1.6-0.1c-0.2,0-0.5,0-0.7,0c-0.4,0-0.7,0-1.1,0
				c-0.3,0-0.5,0-0.8,0c-0.4,0-0.7,0-1.1,0c-0.2,0-0.5,0-0.7,0c-0.6,0-1.1,0-1.7,0c-0.3,0-0.5,0-0.8,0c-0.4,0-0.7,0-1.1,0
				c-0.3,0-0.5,0-0.8,0c-0.4,0-0.8,0-1.3,0c-0.3,0-0.6,0-1,0c-0.4,0-0.9,0-1.3,0c-0.3,0-0.5,0-0.8,0c-0.4,0-0.7,0-1.1,0
				c-0.3,0-0.5,0-0.8,0c-0.6,0-1.1,0-1.7,0c-1.4,0-2.9,0-4.4,0.1c-1.5,0-3,0.1-4.5,0.1c-1.7,0.1-3.3,0.1-5,0.2
				c-2.9,0.2-5.8,0.4-8.7,0.6c-1.5,0.1-3,0.3-4.5,0.5c-3,0.3-5.9,0.7-8.8,1.2c-1.2,0.2-2.4,0.4-3.6,0.7c-3.6,0.7-7.2,1.7-10.9,3
				c-3.6,1.2-7.3,2.7-10.9,4.4c-2.1,1-4.1,2-6.1,3.1c-2,1.1-4.1,2.2-6.1,3.5c-1.2,0.7-2.4,1.4-3.5,2.2c-1.9,1.2-3.8,2.4-5.7,3.7
				c-2.3,1.6-4.7,3.3-7,5c-1.2,0.9-2.3,1.8-3.4,2.6c-0.4,0.3-0.9,0.7-1.4,1.2c-0.5,0.4-1,0.9-1.6,1.4c-0.3,0.3-0.6,0.5-0.8,0.8
				c-4.5,4.3-10.4,10.8-16.8,17.9c-0.4,0.4-0.8,0.9-1.2,1.3c-4.4,4.9-9,10-13.5,14.9h0c0.7-0.8,1.5-1.6,2.2-2.4c1.8-2,3.7-4,5.6-6
				c0.1-0.1,0.2-0.2,0.2-0.2c0.8-0.8,1.6-1.7,2.4-2.5c0.1-0.1,0.2-0.2,0.3-0.3c0.8-0.8,1.6-1.6,2.3-2.4c0.1-0.1,0.3-0.3,0.4-0.4
				c0.7-0.7,1.3-1.4,2-2.1c0.1-0.1,0.1-0.1,0.2-0.2c0.2-0.2,0.4-0.5,0.7-0.7c0.6-0.6,1.2-1.3,1.9-1.9c0.1-0.1,0.3-0.3,0.4-0.4
				c0.1-0.1,0.3-0.3,0.4-0.4c0.6-0.6,1.1-1.1,1.7-1.7c0.3-0.3,0.6-0.6,0.9-0.9c0.5-0.5,1-1,1.5-1.5c0.3-0.3,0.7-0.7,1-1
				c0.4-0.4,0.9-0.9,1.3-1.3c0.4-0.4,0.7-0.7,1-1c0.4-0.4,0.8-0.8,1.2-1.2c0.4-0.3,0.7-0.7,1-1c0.4-0.3,0.7-0.7,1.1-1
				c0.4-0.3,0.7-0.7,1.1-1c0.3-0.3,0.6-0.6,0.9-0.8c0.4-0.3,0.7-0.6,1-0.9c0.3-0.2,0.5-0.5,0.8-0.7c0.4-0.3,0.7-0.6,1-0.9
				c0.2-0.2,0.4-0.4,0.6-0.5c0.5-0.4,1-0.8,1.4-1.2c1.6-1.2,3.2-2.4,4.8-3.6c11.3-8.2,23.6-14.8,35.7-19.1c1.3-0.4,2.5-0.9,3.8-1.3
				c1.3-0.4,2.5-0.8,3.7-1.1c1.2-0.3,2.5-0.7,3.7-1c0.3-0.1,0.5-0.1,0.8-0.2c2.2-0.5,4.4-0.9,6.5-1.3c0.8-0.1,1.7-0.2,2.5-0.4
				c1.6-0.2,3.2-0.4,4.8-0.6c0.5-0.1,1-0.1,1.5-0.2c5.7-0.6,11.5-1.1,17.2-1.3c0.3,0,0.5,0,0.8,0c1.1,0,2.2-0.1,3.2-0.1
				c0.4,0,0.9,0,1.3,0c1.3,0,2.6,0,3.9-0.1c0,0,0,0,0,0c0.2,0,0.4,0,0.6,0v0c0,0,0,0,0,0c0.6,0,1.1,0,1.7,0c0.3,0,0.5,0,0.8,0
				c0.4,0,0.7,0,1.1,0c0.3,0,0.5,0,0.8,0c0.4,0,0.9,0,1.3,0c0.3,0,0.6,0,1,0c0.4,0,0.8,0,1.3,0c0.3,0,0.5,0,0.8,0c0.4,0,0.7,0,1.1,0
				c0.3,0,0.5,0,0.8,0c0.6,0,1.1,0,1.7,0c0.2,0,0.5,0,0.7,0c0.4,0,0.7,0,1.1,0c0.3,0,0.5,0,0.8,0c0.4,0,0.7,0,1.1,0
				c0.2,0,0.5,0,0.7,0c0.5,0,1.1,0.1,1.6,0.1c0.2,0,0.5,0,0.7,0c0.3,0,0.7,0,1,0.1c0.3,0,0.5,0,0.8,0c0.4,0,0.7,0,1.1,0.1
				c0.2,0,0.5,0,0.7,0c0.5,0,1,0.1,1.6,0.1c0.2,0,0.5,0,0.7,0.1c0.3,0,0.7,0,1,0.1c0.2,0,0.5,0,0.7,0.1c0.4,0,0.8,0.1,1.2,0.1
				c0.3,0,0.5,0,0.8,0.1c0.4,0,0.8,0.1,1.2,0.1c0.2,0,0.5,0,0.7,0.1c0.3,0,0.7,0.1,1,0.1c0.2,0,0.5,0,0.7,0.1c0.5,0,1,0.1,1.5,0.1
				c0.2,0,0.4,0,0.6,0.1c0.4,0,0.7,0.1,1.1,0.1c0.2,0,0.5,0,0.7,0.1c0.3,0,0.7,0.1,1,0.1c0.2,0,0.4,0,0.6,0.1c0.5,0.1,1,0.1,1.5,0.2
				c0.2,0,0.4,0,0.6,0.1c0.3,0,0.7,0.1,1,0.1c0.2,0,0.4,0.1,0.6,0.1c0.4,0,0.7,0.1,1.1,0.1c0.2,0,0.3,0,0.5,0.1
				c0.5,0.1,0.9,0.1,1.4,0.2c0.2,0,0.4,0.1,0.6,0.1c0.3,0,0.6,0.1,1,0.1c0.2,0,0.4,0.1,0.6,0.1c0.4,0.1,0.8,0.1,1.2,0.2
				c0.1,0,0.3,0,0.4,0.1c0.4,0.1,0.8,0.1,1.2,0.2c0.2,0,0.3,0.1,0.5,0.1c0.3,0.1,0.6,0.1,0.9,0.2c0.2,0,0.3,0.1,0.5,0.1
				c0.4,0.1,0.9,0.2,1.3,0.2c0.1,0,0.2,0,0.3,0.1c0.3,0.1,0.7,0.1,1,0.2c0.2,0,0.3,0.1,0.5,0.1c0.3,0.1,0.6,0.1,0.9,0.2
				c0.1,0,0.3,0,0.4,0.1c0.4,0.1,0.8,0.2,1.2,0.2c0.1,0,0.2,0.1,0.4,0.1c0.3,0.1,0.6,0.1,0.9,0.2c0.1,0,0.3,0.1,0.4,0.1
				c0.3,0.1,0.6,0.1,1,0.2c0.1,0,0.2,0,0.2,0.1c0.4,0.1,0.8,0.2,1.1,0.3c0.1,0,0.2,0.1,0.3,0.1c0.3,0.1,0.6,0.1,0.8,0.2
				c0.1,0,0.2,0.1,0.3,0.1c0.4,0.1,0.7,0.2,1,0.3c0,0,0,0,0.1,0c0.3,0.1,0.7,0.2,1,0.3c0.1,0,0.2,0.1,0.3,0.1
				c0.3,0.1,0.5,0.1,0.7,0.2C296.8,187.2,296.9,187.2,297,187.2z"/>
			<path class="st7" d="M335.2,232.7C335.2,232.7,335.2,232.7,335.2,232.7C335.2,232.7,335.2,232.7,335.2,232.7
				C335.2,232.7,335.2,232.7,335.2,232.7z"/>
			<path class="st7" d="M335.3,232.8c0,0.1,0,0.1,0,0.2c0,0,0,0,0,0C335.3,232.9,335.3,232.8,335.3,232.8
				C335.3,232.8,335.3,232.8,335.3,232.8z"/>
			<path class="st8" d="M335.3,232.7L335.3,232.7C335.2,232.8,335.2,232.8,335.3,232.7C335.3,232.8,335.3,232.8,335.3,232.7
				C335.3,232.8,335.3,232.8,335.3,232.7z"/>
			<path class="st9" d="M383.4,226.3c14.2,3.8,28.6,9.6,39.7,18.1C411.8,235.8,397.4,230.1,383.4,226.3z"/>
			<path class="st9" d="M341.3,286c0.2-0.4,0.3-0.8,0.5-1.3c0.3-0.9,0.7-1.7,1-2.6c1.7-4.2,3.7-8.5,5.9-12.2
				c0.6-0.9,1.1-1.8,1.7-2.6c0.1-0.2,0.3-0.4,0.4-0.5c0.3-0.3,0.5-0.7,0.8-1c0.2-0.2,0.4-0.5,0.6-0.7c1.1-1.2,2.1-2.3,3.2-3.4
				c2.6-2.7,5-5,7.3-7c0.9-0.8,1.8-1.6,2.7-2.3c0.9-0.7,1.8-1.4,2.7-2c0.9-0.6,1.7-1.2,2.6-1.7c0.8-0.5,1.7-1,2.5-1.5
				c0.4-0.2,0.8-0.4,1.2-0.6c0.8-0.4,1.6-0.8,2.4-1.1c1.2-0.5,2.4-1,3.6-1.4c1.2-0.4,2.4-0.7,3.5-1c0.4-0.1,0.8-0.2,1.2-0.3
				c0.8-0.2,1.6-0.3,2.4-0.5c2-0.3,4-0.6,6-0.8c3-0.3,6.1-0.3,9.2-0.2c0.9,0,1.7,0.1,2.6,0.2c1.7,0.2,3.4,0.4,5,0.6
				c1.2,0.2,2.4,0.4,3.5,0.6c1.3,0.2,2.5,0.5,3.6,0.7c1.1,0.2,2.1,0.5,3,0.7c0.7,0.2,1.4,0.4,1.9,0.5c0.4,0.1,0.7,0.2,0.9,0.3
				c0.5,0.2,0.8,0.3,0.9,0.3c-0.1-0.1-0.2-0.1-0.3-0.2c0,0,0,0,0,0c-27.7-19.7-73.4-24-90.5-24.6c-0.2-0.4-0.6-1.1-0.8-1.4l0,0
				c0,0-0.3-0.5-0.8-1.4c-1.5-0.1-3-2.8-3-2.8s-1.5-2.4-3.8-6c-1-1.4-2.1-3-3.3-4.7c-1.5-2.1-3.2-4.4-5-6.7
				c-4.7-5.9-10-11.9-14.9-15c-0.3-0.2-0.6-0.4-1-0.5c0,0,0,0,0.1,0c0,0-0.1,0-0.1,0c0,0,0,0,0,0c-3.7-1.5-27.5-8.5-56.6-8.5h-24.5
				c-39.5,0-65.3,13.6-68.3,14.7c-3,1-3.6,3.7-3.6,3.7s-36.4,25.6-52.8,42.6c-6.4,6.6-10.3,12.2-12.6,16.4c-1.7,0.3-3.5,0.8-4.3,1.7
				c-0.1,0.1-0.2,0.3-0.4,0.5c0,0.1-0.1,0.1-0.1,0.2c-0.1,0.2-0.2,0.3-0.3,0.5c0,0.1-0.1,0.1-0.1,0.2c-0.1,0.2-0.2,0.5-0.3,0.8
				c0,0.1,0,0.1-0.1,0.2c-0.1,0.2-0.1,0.5-0.2,0.7c0,0.1,0,0.2-0.1,0.3c-0.1,0.3-0.1,0.6-0.2,0.9c0,0,0,0,0,0.1
				c-0.1,0.3-0.1,0.7-0.2,1c0,0.1,0,0.2,0,0.2c-0.1,0.3-0.1,0.5-0.2,0.8c0,0.1,0,0.1,0,0.2c-0.1,0.3-0.1,0.7-0.2,1
				c-0.2,1.2-0.3,2.2-0.4,2.8c0,0.4,0.1,0.7,0.4,0.9c0.2,0.1,0.3,0.2,0.5,0.3c-0.2,0.3-0.5,0.6-0.7,0.9c1.8,0.5,3.3,1.7,4.4,3.2
				c0,0,0.1-0.1,0.1-0.1c0.4-0.5,0.9-1.1,1.4-1.6c1.5-1.7,3.1-3.4,4.8-5.3c1.2-1.2,2.4-2.5,3.7-3.7c1.3-1.2,2.6-2.5,4-3.8l0,0
				c0.7-0.6,1.4-1.2,2.1-1.8c0.7-0.6,1.4-1.2,2.1-1.8c0.7-0.6,1.5-1.2,2.2-1.7c0.7-0.6,1.5-1.1,2.3-1.7c0.8-0.5,1.5-1.1,2.3-1.6
				c1-0.7,2-1.3,3-1.9c1-0.6,2-1.2,3.1-1.8c1-0.6,2.1-1.1,3.2-1.6c0.6-0.3,1.3-0.6,1.9-0.9c0.5-0.2,1-0.4,1.5-0.6
				c0.7-0.3,1.5-0.6,2.2-0.8c4.4-1.6,9-2.5,13.6-2.6c0.7,0,1.4,0,2.1,0c2,0,4,0.2,5.9,0.4c0.6,0.1,1.3,0.2,1.9,0.3
				c1.9,0.3,3.7,0.7,5.4,1.2c1.2,0.3,2.3,0.7,3.4,1.1c0.6,0.2,1.3,0.5,1.9,0.7c1.8,0.8,3.6,1.6,5.3,2.5c2.3,1.3,4.4,2.7,6.4,4.2
				c0.8,0.6,1.5,1.2,2.3,1.8c1.5,1.3,2.9,2.6,4.3,4c0.7,0.7,1.3,1.4,2,2.1c2.2,2.5,4.2,5,6,7.7c0.6,0.9,1.2,1.8,1.8,2.7
				c0.6,0.9,1.1,1.8,1.6,2.7c1.1,1.8,2,3.6,2.9,5.4c0.9,1.8,1.7,3.5,2.5,5.3c0.4,0.9,0.7,1.7,1.1,2.5c0.3,0.8,0.7,1.7,1,2.5
				c0.3,0.8,0.6,1.6,0.9,2.4c0.3,0.8,0.5,1.5,0.8,2.3c0.5,1.5,0.9,2.9,1.3,4.1c0.2,0.6,0.4,1.2,0.5,1.8c0.1,0.4,0.2,0.8,0.3,1.2
				c0.1,0.4,0.2,0.8,0.3,1.1c0.2,0.7,0.3,1.4,0.4,1.9c0,0,0,0,0,0c0,0,0,0,0,0c0,0,0,0,0,0c0,0,0,0,0,0c0,0,0,0,0,0c0,0,0,0,0,0v0v0
				l0,0c0,0,0,0,0,0c-1.5-5.9-4.8-15.8-10.6-25.9c-0.7-1.3-1.5-2.5-2.3-3.8c-0.8-1.3-1.6-2.5-2.5-3.7c-0.3-0.4-0.6-0.8-0.9-1.2
				c-1.2-1.6-2.5-3.2-3.9-4.8c-2.4-2.7-5-5.3-7.9-7.7c-0.8-0.7-1.7-1.3-2.5-2c-1.7-1.3-3.5-2.4-5.4-3.5c-0.9-0.5-1.9-1-2.9-1.5
				c-6.9-3.4-15-5.3-24.2-5.1c-1.9,0-3.7,0.2-5.5,0.5c-1.8,0.3-3.6,0.7-5.4,1.2c-1.1,0.3-2.3,0.7-3.4,1.1c-1.3,0.5-2.5,1-3.7,1.5
				c-2,0.9-3.9,1.9-5.8,2.9c-2.5,1.4-4.9,2.9-7.2,4.6c-3.1,2.2-6,4.5-8.8,6.9l0,0c-0.7,0.6-1.4,1.2-2.1,1.9c-2.1,1.9-4,3.8-5.8,5.6
				c-1.6,1.7-3.2,3.3-4.5,4.9c0.7,1.3,1,2.8,0.9,4.3c0,0,0,0.1,0,0.1c0.5,0.1,1.1,0.2,1.6,0.3c4.9-3.1,10.8-4.9,16.9-4.8
				c4.7,0.1,9.2,1.2,13.1,3.2c1.5-2.6,4.3-4.2,7.4-4c1.8,0.1,3.4,0.8,4.6,1.9c3.9-10.4,14.6-17.3,26.4-15.5
				c11.6,1.7,20.5,11.8,20.7,23.5c0.1,3.4-0.5,6.6-1.7,9.5c3.4,0.6,5.8,3.7,5.5,7.1c0,0.3-0.1,0.5-0.1,0.8l0.2,0
				c6.9,0.5,12.5,5.2,14.6,11.4l11,0c3.3-1.8,7.3-2.6,11.3-2l0.2,0c0-0.3,0-0.6,0.1-0.9c0.5-3.2,3.1-5.6,6.1-6.1
				c-0.2-1.3-0.3-2.7-0.3-4.1c0-14.8,12-26.8,26.8-26.8c5.5,0,10.5,1.6,14.8,4.4c6.7,4.1,11.3,11.1,12.3,19c1.6-0.8,3.4-1.2,5.3-0.9
				c3.4,0.5,6,3,6.9,6.1c4.6-1.1,9.6-1.2,14.6-0.2c1.3,0.3,2.6,0.7,3.9,1.1l27.7-0.2c0.5,0,1-0.2,1.4-0.6c0.2-0.2,0.4-0.5,0.5-0.9
				c0-0.2,0.1-0.3,0.1-0.5l0-0.8c0-1.5,0-3.2,0-4.9c0-0.9,0-1.7,0-2.6c0-0.9,0-1.8,0-2.8c0-2.3,0-4.8,0-7.3c0-1.5,0-3,0-4.5
				c0-1.5,0-3.1,0-4.6c0-2.8,0-5.6,0-8.4c0-1.4,0-2.7,0-4.1c0-1.3,0-2.7,0-3.9c0-3.2,0-6.9,0-10.2c0-0.4,0-0.8,0-1.2
				c0-1.2,0-2.3,0-3.3c0-1.3,0-2.5,0-3.3c0-0.2,0-0.4,0-0.6c0-0.4-0.2-0.8-0.3-1.2c-0.1-0.2-0.2-0.4-0.3-0.6
				c-0.2-0.4-0.4-0.8-0.7-1.2c-0.8-1.4-1.7-3-2.1-3.8c-1.2-2.1-2.6-4.5-4.2-7.1c-0.7-1.2-1.4-2.3-2.2-3.6c-0.4-0.6-0.8-1.2-1.2-1.8
				c-0.2-0.3-0.4-0.6-0.6-0.9c-0.4-0.6-0.8-1.2-1.2-1.8c-0.4-0.6-0.8-1.2-1.2-1.8c-0.4-0.6-0.8-1.2-1.3-1.8
				c-1.9-2.7-3.8-5.4-5.7-7.7c-0.4-0.5-0.8-1-1.3-1.5c-0.3-0.4-0.6-0.7-0.9-1.1c-0.3-0.4-0.6-0.7-0.9-1c-1.4-1.6-2.8-3-4.1-4
				c0,0,0,0,0,0c0,0,0,0,0,0c0.3,0.2,0.7,0.4,1,0.6c0.2,0.1,0.3,0.3,0.5,0.4c1.1,0.8,2.2,1.9,3.4,3.1c0.4,0.4,0.8,0.8,1.2,1.3
				c0.6,0.7,1.2,1.4,1.8,2.1c0.4,0.5,0.8,1,1.3,1.5c0.9,1.2,1.9,2.4,2.9,3.7c1,1.3,1.9,2.6,2.9,4c0.4,0.6,0.8,1.2,1.3,1.8
				c0.4,0.6,0.8,1.2,1.2,1.8c0.4,0.6,0.8,1.2,1.2,1.8c0.2,0.3,0.4,0.6,0.6,0.9c0.4,0.6,0.8,1.2,1.2,1.8c0.8,1.2,1.5,2.4,2.2,3.6
				c0.8,1.3,1.5,2.6,2.3,3.7c0.7,1.2,1.3,2.3,1.9,3.4c0.6,1,1.9,3.4,2.7,4.8c0.3,0.5,0.5,1.1,0.6,1.6c0,0,0,0.1,0,0.1c0,0,0,0,0,0
				l0,0c0,0,0,0,0,0.1c0,0.1,0,0.1,0,0.1v0c0,0,0,0,0,0c0,0.2,0,0.5,0,0.7c0,0.4,0,0.9,0,1.5c0,3.9-0.1,10.9-0.1,16.4
				c0,5.1,0,10.8,0,16.4c0,1.5,0,3.1,0,4.6c0,1.5,0,3,0,4.5c0,2.5,0,4.9,0,7.3c0,0.9,0,1.9,0,2.8c0,0.9,0,1.8,0,2.6c0,1.5,0,3,0,4.4
				c1.4-1.4,3-2.8,4.6-4c0,0,0,0,0,0C340.3,288.8,340.8,287.4,341.3,286z M126.3,264.6c-1.1,1.5-3.1,1.9-4.7,0.8
				c-1.5-1.1-1.9-3.1-0.8-4.7c1.1-1.5,3.1-1.9,4.7-0.8C127,261,127.4,263.1,126.3,264.6z M303,196.8c0,0.2,0.1,0.5,0.1,0.8
				c0,0.3,0,0.5,0,0.8c0,0.5,0,1,0,1.3c0,0.2,0,0.3-0.1,0.3c-0.1,0.1-0.4,0.3-1,0.5c-0.4,0.1-0.8,0.3-1.3,0.4c-0.1,0-0.2,0-0.2,0.1
				c-0.3,0.1-0.6,0.1-0.8,0.2c-0.2,0.1-0.4,0.1-0.6,0.1c-1,0.2-1.8,0.3-1.9,0.1c-0.2-0.5-0.4-2.2-0.4-3.3c0-0.2,0-0.4,0-0.5
				c0-0.2,0.1-0.4,0.1-0.4c0,0,0.1-0.1,0.1-0.1c0.1-0.1,0.2-0.1,0.4-0.2c0.1,0,0.2-0.1,0.3-0.1c0.1-0.1,0.3-0.1,0.4-0.2
				c0.2-0.1,0.4-0.1,0.6-0.2c0.2-0.1,0.3-0.1,0.5-0.2c0.5-0.2,1.1-0.3,1.7-0.4c0.1,0,0.3-0.1,0.4-0.1c0.3-0.1,0.5-0.1,0.7-0.1
				c0.1,0,0.2,0,0.3,0C302.6,195.5,302.8,196.1,303,196.8z M180.1,206.3c-0.7-0.1-1.3-0.1-2-0.1
				C178.8,206.2,179.5,206.2,180.1,206.3C180.1,206.3,180.1,206.3,180.1,206.3z M225.8,197.5V216c0,1.5-0.5,2.8-1.4,3.9
				c-1.1,1.4-2.8,2.2-4.7,2.2h-22c-1-1.2-1.8-2.5-2.7-3.9c-0.7-1.1-1.3-2.3-1.9-3.4c-0.3-0.6-0.6-1.1-1-1.6c-0.3-0.5-0.7-1.1-1-1.6
				c-0.4-0.5-0.8-1-1.2-1.4c-1.3-1.3-2.8-2.4-4.9-3c-0.8-0.2-1.6-0.4-2.4-0.6c-0.8-0.1-1.6-0.3-2.4-0.3c1.1-0.4,2.2-0.9,3.3-1.3
				C196.6,199.9,211.5,197,225.8,197.5L225.8,197.5z M231.3,265.4l-1.9-26.2c-0.7-10.3-0.7-20.6,0.1-30.9l1.8-23.2V265.4z
				 M277.7,286.5c-1.9,0.7-4-0.2-4.7-2c-0.7-1.9,0.2-4,2-4.7c1.9-0.7,4,0.2,4.7,2C280.4,283.7,279.5,285.8,277.7,286.5z
				 M285.6,222.2L285.6,222.2l-45.2,0c-2,0-3.6-1.6-3.6-3.6v0v-19.1v0c0-0.2,0.1-0.3,0.2-0.4c0.1-0.1,0.1-0.1,0.2-0.2
				c0.2-0.1,0.4-0.2,0.6-0.3c0.3-0.1,0.8-0.3,1.2-0.3c0.5-0.1,1.1-0.2,1.7-0.2c0.6-0.1,1.2-0.1,1.9-0.1c0.6,0,1.3,0,2,0
				c0.8,0,1.6,0,2.4,0.1c0.8,0,1.4,0.1,2,0.1c5,0.3,9.7,0.6,13.8,0.9c0.6,0,1.2,0.1,1.7,0.1c1.5,0.1,2.9,0.2,4.3,0.4
				c0.8,0.1,1.6,0.2,2.4,0.2c0.4,0,0.7,0.1,1.1,0.1c1.1,0.1,2.1,0.3,3,0.4c0.9,0.2,1.8,0.3,2.5,0.5c0.2,0.1,0.5,0.1,0.7,0.2
				c0.7,0.2,1.3,0.4,1.8,0.6c0.7,0.3,1.1,0.7,1.4,1c0.1,0.2,0.2,0.4,0.3,0.6c0,0.2,0.1,0.5,0.2,0.9c0,0.1,0.1,0.3,0.1,0.4
				c0.1,0.4,0.2,1,0.3,1.5c0,0.2,0.1,0.4,0.1,0.6c0.1,0.4,0.2,0.8,0.2,1.3c0,0.2,0.1,0.5,0.1,0.7c0.1,0.5,0.2,1,0.3,1.5
				c0.1,0.5,0.2,1,0.3,1.5c0.1,0.5,0.2,1,0.3,1.5c0.1,0.5,0.2,1,0.3,1.5c0.2,1,0.4,2,0.6,2.9c0.1,0.5,0.2,1,0.3,1.5
				c0.1,0.5,0.2,0.9,0.3,1.3c0,0.2,0.1,0.5,0.1,0.7C285.4,221.5,285.5,221.9,285.6,222.2L285.6,222.2z M295.8,222.2L295.8,222.2
				l-8.2,0c-0.3-1.4-0.7-3.2-1.1-5.1c-0.1-0.4-0.2-0.8-0.2-1.2c-0.2-0.8-0.3-1.6-0.5-2.5c-0.2-0.8-0.3-1.7-0.5-2.6
				c-0.3-1.7-0.7-3.5-1-5.2c-0.2-0.9-0.3-1.7-0.4-2.5c0-0.2,0.1-0.3,0.3-0.3c0.1,0,0.2,0,0.4,0c0.5,0,1.1,0.1,1.9,0.3
				c0.3,0.1,0.5,0.1,0.8,0.2c0.5,0.2,1.1,0.4,1.6,0.6c0.5,0.2,1.1,0.5,1.6,0.7c0.5,0.2,0.9,0.5,1.3,0.7c0.6,0.4,0.9,0.7,1,1.1
				c0.1,0.2,0.2,0.8,0.4,1.6c0.1,0.5,0.3,1.1,0.4,1.8c0.2,0.7,0.3,1.5,0.5,2.2c0.3,1.3,0.6,2.8,0.9,4.2c0.2,1.2,0.4,2.3,0.6,3.3
				S295.8,221.5,295.8,222.2L295.8,222.2z M295.6,186.8c-0.3-0.1-0.7-0.2-1-0.3c0,0,0,0-0.1,0c-0.3-0.1-0.7-0.2-1-0.3
				c-0.1,0-0.2-0.1-0.3-0.1c-0.3-0.1-0.5-0.1-0.8-0.2c-0.1,0-0.2-0.1-0.3-0.1c-0.4-0.1-0.7-0.2-1.1-0.3c-0.1,0-0.2,0-0.2-0.1
				c-0.3-0.1-0.6-0.1-1-0.2c-0.1,0-0.3-0.1-0.4-0.1c-0.3-0.1-0.6-0.1-0.9-0.2c-0.1,0-0.2,0-0.4-0.1c-0.4-0.1-0.8-0.2-1.2-0.2
				c-0.1,0-0.3,0-0.4-0.1c-0.3-0.1-0.6-0.1-0.9-0.2c-0.2,0-0.3-0.1-0.5-0.1c-0.3-0.1-0.7-0.1-1-0.2c-0.1,0-0.2,0-0.3-0.1
				c-0.4-0.1-0.9-0.2-1.3-0.2c-0.2,0-0.3-0.1-0.5-0.1c-0.3-0.1-0.6-0.1-0.9-0.2c-0.2,0-0.3-0.1-0.5-0.1c-0.4-0.1-0.8-0.1-1.2-0.2
				c-0.1,0-0.3,0-0.4-0.1c-0.4-0.1-0.8-0.1-1.2-0.2c-0.2,0-0.4-0.1-0.6-0.1c-0.3,0-0.6-0.1-1-0.1c-0.2,0-0.4-0.1-0.6-0.1
				c-0.5-0.1-0.9-0.1-1.4-0.2c-0.1,0-0.3,0-0.5-0.1c-0.4,0-0.7-0.1-1.1-0.1c-0.2,0-0.4-0.1-0.6-0.1c-0.3,0-0.7-0.1-1-0.1
				c-0.2,0-0.4,0-0.6-0.1c-0.5-0.1-1-0.1-1.5-0.2c-0.2,0-0.4,0-0.6-0.1c-0.3,0-0.7-0.1-1-0.1c-0.2,0-0.5,0-0.7-0.1
				c-0.4,0-0.7-0.1-1.1-0.1c-0.2,0-0.4,0-0.6-0.1c-0.5-0.1-1-0.1-1.5-0.1c-0.2,0-0.5,0-0.7-0.1c-0.3,0-0.7-0.1-1-0.1
				c-0.2,0-0.5,0-0.7-0.1c-0.4,0-0.8-0.1-1.2-0.1c-0.3,0-0.5,0-0.8-0.1c-0.4,0-0.8-0.1-1.2-0.1c-0.2,0-0.5,0-0.7-0.1
				c-0.3,0-0.7-0.1-1-0.1c-0.2,0-0.5,0-0.7-0.1c-0.5,0-1-0.1-1.6-0.1c-0.2,0-0.5,0-0.7,0c-0.4,0-0.7,0-1.1-0.1c-0.3,0-0.5,0-0.8,0
				c-0.3,0-0.7,0-1-0.1c-0.2,0-0.5,0-0.7,0c-0.5,0-1.1-0.1-1.6-0.1c-0.2,0-0.5,0-0.7,0c-0.4,0-0.7,0-1.1,0c-0.3,0-0.5,0-0.8,0
				c-0.4,0-0.7,0-1.1,0c-0.2,0-0.5,0-0.7,0c-0.6,0-1.1,0-1.7,0c-0.3,0-0.5,0-0.8,0c-0.4,0-0.7,0-1.1,0c-0.3,0-0.5,0-0.8,0
				c-0.4,0-0.8,0-1.3,0c-0.3,0-0.6,0-1,0c-0.4,0-0.9,0-1.3,0c-0.3,0-0.5,0-0.8,0c-0.4,0-0.7,0-1.1,0c-0.3,0-0.5,0-0.8,0
				c-0.6,0-1.1,0-1.7,0c0,0,0,0,0,0v0c-0.2,0-0.4,0-0.6,0c0,0,0,0,0,0c-1.3,0-2.6,0-3.9,0.1c-0.4,0-0.9,0-1.3,0
				c-1.1,0-2.2,0.1-3.2,0.1c-0.3,0-0.5,0-0.8,0c-5.8,0.2-11.5,0.7-17.2,1.3c-0.5,0.1-1,0.1-1.5,0.2c-1.6,0.2-3.2,0.4-4.8,0.6
				c-0.8,0.1-1.7,0.2-2.5,0.4c-2.1,0.3-4.3,0.8-6.5,1.3c-0.3,0.1-0.5,0.1-0.8,0.2c-1.2,0.3-2.5,0.6-3.7,1c-1.2,0.3-2.5,0.7-3.7,1.1
				c-1.3,0.4-2.5,0.8-3.8,1.3c-12.1,4.3-24.4,10.9-35.7,19.1c-1.6,1.2-3.2,2.4-4.8,3.6c-0.4,0.4-0.9,0.7-1.4,1.2
				c-0.2,0.2-0.4,0.4-0.6,0.5c-0.3,0.3-0.7,0.6-1,0.9c-0.3,0.2-0.5,0.5-0.8,0.7c-0.3,0.3-0.7,0.6-1,0.9c-0.3,0.3-0.6,0.6-0.9,0.8
				c-0.4,0.3-0.7,0.6-1.1,1c-0.3,0.3-0.7,0.7-1.1,1c-0.3,0.3-0.7,0.6-1,1c-0.4,0.4-0.8,0.8-1.2,1.2c-0.3,0.3-0.7,0.7-1,1
				c-0.4,0.4-0.9,0.9-1.3,1.3c-0.3,0.3-0.7,0.7-1,1c-0.5,0.5-1,1-1.5,1.5c-0.3,0.3-0.6,0.6-0.9,0.9c-0.5,0.6-1.1,1.1-1.7,1.7
				c-0.1,0.1-0.3,0.3-0.4,0.4c-0.1,0.1-0.3,0.3-0.4,0.4c-0.6,0.6-1.2,1.3-1.9,1.9c-0.2,0.2-0.4,0.5-0.7,0.7
				c-0.1,0.1-0.1,0.1-0.2,0.2c-0.7,0.7-1.3,1.4-2,2.1c-0.1,0.1-0.3,0.3-0.4,0.4c-0.8,0.8-1.5,1.6-2.3,2.4c-0.1,0.1-0.2,0.2-0.3,0.3
				c-0.8,0.8-1.6,1.7-2.4,2.5c-0.1,0.1-0.2,0.2-0.2,0.2c-1.9,2-3.7,4-5.6,6c-0.8,0.8-1.5,1.6-2.2,2.4h0c4.5-4.9,9.1-10,13.5-14.9
				c0.4-0.4,0.8-0.9,1.2-1.3c6.4-7.1,12.3-13.6,16.8-17.9c0.3-0.3,0.6-0.5,0.8-0.8c0.6-0.5,1.1-1,1.6-1.4c0.5-0.4,1-0.8,1.4-1.2
				c1.1-0.9,2.3-1.8,3.4-2.6c2.3-1.7,4.6-3.4,7-5c1.9-1.3,3.8-2.5,5.7-3.7c1.2-0.7,2.3-1.5,3.5-2.2c2-1.2,4.1-2.4,6.1-3.5
				c2-1.1,4.1-2.1,6.1-3.1c3.6-1.7,7.2-3.2,10.9-4.4c3.6-1.2,7.2-2.3,10.9-3c1.2-0.2,2.4-0.5,3.6-0.7c2.9-0.5,5.8-0.8,8.8-1.2
				c1.5-0.2,3-0.3,4.5-0.5c2.9-0.3,5.8-0.5,8.7-0.6c1.7-0.1,3.3-0.2,5-0.2c1.5-0.1,3-0.1,4.5-0.1c1.5,0,2.9-0.1,4.4-0.1
				c0.6,0,1.1,0,1.7,0c0.3,0,0.5,0,0.8,0c0.4,0,0.7,0,1.1,0c0.3,0,0.5,0,0.8,0c0.4,0,0.9,0,1.3,0c0.3,0,0.6,0,1,0c0.4,0,0.8,0,1.3,0
				c0.3,0,0.5,0,0.8,0c0.4,0,0.7,0,1.1,0c0.3,0,0.5,0,0.8,0c0.6,0,1.1,0,1.7,0c0.2,0,0.5,0,0.7,0c0.4,0,0.7,0,1.1,0
				c0.3,0,0.5,0,0.8,0c0.4,0,0.7,0,1.1,0c0.2,0,0.5,0,0.7,0c0.5,0,1.1,0.1,1.6,0.1c0.2,0,0.5,0,0.7,0c0.3,0,0.7,0,1,0.1
				c0.3,0,0.5,0,0.8,0c0.4,0,0.7,0,1.1,0.1c0.2,0,0.5,0,0.7,0c0.5,0,1,0.1,1.6,0.1c0.2,0,0.5,0,0.7,0.1c0.3,0,0.7,0,1,0.1
				c0.2,0,0.5,0,0.7,0.1c0.4,0,0.8,0.1,1.2,0.1c0.3,0,0.5,0,0.8,0.1c0.4,0,0.8,0.1,1.2,0.1c0.2,0,0.5,0,0.7,0.1c0.3,0,0.7,0.1,1,0.1
				c0.2,0,0.5,0,0.7,0.1c0.5,0,1,0.1,1.5,0.1c0.2,0,0.4,0,0.6,0.1c0.4,0,0.7,0.1,1.1,0.1c0.2,0,0.5,0,0.7,0.1c0.3,0,0.7,0.1,1,0.1
				c0.2,0,0.4,0,0.6,0.1c0.5,0.1,1,0.1,1.5,0.2c0.2,0,0.4,0,0.6,0.1c0.3,0,0.7,0.1,1,0.1c0.2,0,0.4,0.1,0.6,0.1
				c0.4,0,0.7,0.1,1.1,0.1c0.2,0,0.3,0,0.5,0.1c0.5,0.1,0.9,0.1,1.4,0.2c0.2,0,0.4,0.1,0.6,0.1c0.3,0,0.6,0.1,1,0.1
				c0.2,0,0.4,0.1,0.6,0.1c0.4,0.1,0.8,0.1,1.2,0.2c0.1,0,0.3,0,0.4,0.1c0.4,0.1,0.8,0.1,1.2,0.2c0.2,0,0.3,0.1,0.5,0.1
				c0.3,0.1,0.6,0.1,0.9,0.2c0.2,0,0.3,0.1,0.5,0.1c0.4,0.1,0.9,0.2,1.3,0.2c0.1,0,0.2,0,0.3,0.1c0.3,0.1,0.7,0.1,1,0.2
				c0.2,0,0.3,0.1,0.5,0.1c0.3,0.1,0.6,0.1,0.9,0.2c0.1,0,0.3,0,0.4,0.1c0.4,0.1,0.8,0.2,1.2,0.2c0.1,0,0.2,0.1,0.4,0.1
				c0.3,0.1,0.6,0.1,0.9,0.2c0.1,0,0.3,0.1,0.4,0.1c0.3,0.1,0.6,0.1,1,0.2c0.1,0,0.2,0,0.2,0.1c0.4,0.1,0.8,0.2,1.1,0.3
				c0.1,0,0.2,0.1,0.3,0.1c0.3,0.1,0.6,0.1,0.8,0.2c0.1,0,0.2,0.1,0.3,0.1c0.4,0.1,0.7,0.2,1,0.3c0,0,0,0,0.1,0
				c0.3,0.1,0.7,0.2,1,0.3c0.1,0,0.2,0.1,0.3,0.1c0.3,0.1,0.5,0.1,0.7,0.2c0.1,0,0.2,0.1,0.3,0.1c0.3,0.1,0.6,0.2,0.9,0.3
				c0.1,0,0.1,0,0.2,0.1c0.3,0.1,0.5,0.2,0.8,0.2c0.1,0,0.2,0.1,0.3,0.1c0.2,0.1,0.5,0.1,0.7,0.2c0.1,0,0.1,0,0.2,0.1
				c0.3,0.1,0.6,0.2,0.8,0.3c0.1,0,0.1,0,0.2,0.1c0.2,0.1,0.4,0.2,0.6,0.2c0.1,0,0.2,0.1,0.2,0.1c0.2,0.1,0.4,0.2,0.6,0.2
				c0,0,0.1,0,0.1,0c0.2,0.1,0.5,0.2,0.7,0.3c0.1,0,0.1,0.1,0.2,0.1c0.2,0.1,0.3,0.1,0.5,0.2c0.1,0,0.1,0.1,0.2,0.1
				c0.2,0.1,0.4,0.2,0.6,0.3c0.2,0.1,0.4,0.2,0.6,0.3c-0.1,0-0.2-0.1-0.3-0.1c-0.1,0-0.2-0.1-0.2-0.1c-0.2-0.1-0.4-0.2-0.6-0.2
				c-0.1,0-0.1,0-0.2-0.1c-0.3-0.1-0.5-0.2-0.8-0.3c-0.1,0-0.1,0-0.2-0.1c-0.2-0.1-0.4-0.1-0.7-0.2c-0.1,0-0.2-0.1-0.3-0.1
				c-0.2-0.1-0.5-0.2-0.8-0.2c-0.1,0-0.1,0-0.2-0.1c-0.3-0.1-0.6-0.2-0.9-0.3c-0.1,0-0.2-0.1-0.3-0.1c-0.2-0.1-0.5-0.1-0.7-0.2
				C295.8,186.9,295.7,186.9,295.6,186.8z M300.6,219.2c-0.2,0.2-0.3,0.3-0.5,0.4c-0.2,0.2-0.4,0.3-0.6,0.4
				c-0.1,0.1-0.3,0.2-0.4,0.2c-0.2,0.1-0.4,0.1-0.4-0.1c-0.1-0.2-0.1-0.5-0.2-0.9c0-0.2-0.1-0.4-0.2-0.6c-0.7-2.9-2-8.7-1.9-9.6l0,0
				c0-0.1,0-0.1,0.1-0.1c0,0,0.1,0.1,0.2,0.1c1.1,1,5.6,7.3,5.6,7.9C302.3,217.4,301.5,218.4,300.6,219.2z M305.8,200.5
				c0.2-0.3,0.2-0.6,0.2-0.9c0-0.8-0.3-1.5-0.3-1.8c0-0.1,0-0.1,0-0.1c0.8,0.7,1.7,1.4,2.4,2.2c0.2,0.2,0.4,0.5,0.6,0.8
				c0.6,0.8,1.2,1.9,1.8,3c0.3,0.6,0.7,1.3,1.1,2c0.4,0.7,0.7,1.4,1.1,2.1c0.5,1,1,2.1,1.5,3.1c0.5,1.1,1,2.2,1.4,3.1
				c0.1,0.2,0.2,0.4,0.2,0.6c0.2,0.5,0.4,1,0.5,1.4c0.2,0.5,0.3,1,0.3,1.2c0,0.1,0,0.1-0.1,0.2c0,0,0,0,0,0
				c-0.1,0.1-0.4,0.2-0.6,0.3c-0.2,0.1-0.5,0.1-0.7,0.2c-0.2,0.1-0.5,0.1-0.8,0.1c-0.1,0-0.2,0-0.4,0c-0.5,0-1,0-1.4-0.2
				c-0.1,0-0.2-0.1-0.3-0.1c-0.1,0-0.4-0.4-0.7-1c-0.4-0.7-1-1.7-1.7-2.8c-0.1-0.2-0.3-0.4-0.4-0.7c-0.4-0.7-0.8-1.3-1.2-2
				c-0.4-0.6-0.7-1.2-1-1.7c-0.3-0.6-0.8-1.4-1.4-2.3c-1-1.6-2.3-3.6-3.9-5.5c0,0,0-0.1,0.1-0.1c0.1-0.1,0.3-0.1,0.6-0.2
				c0.1,0,0.2,0,0.3-0.1c0.2,0,0.4-0.1,0.7-0.1c0.1,0,0.2,0,0.3-0.1c0.3-0.1,0.7-0.2,1-0.3C305.3,200.9,305.6,200.7,305.8,200.5z"/>
			<path class="st9" d="M331.6,298.3c0.3-0.3,0.5-0.7,0.8-1l-2.9,0C330.3,297.5,331,297.9,331.6,298.3z"/>
			<path class="st9" d="M450.8,262.7c-0.5-4.7-1.8-6.7-2.2-7c-0.4-0.4-4-0.8-4-0.8c0,0,0,0,0,0c1.8,3.9,3.9,11.3,5.2,16.9
				c0.1,0.4,0,0,0,0l-3-9.3c-1-2.5-2.3-6.3-3.1-7.7c-2-3.4-18.5-7.9-18.5-7.9c-0.2-0.2-6.8-2.1-15-3.2c-1.2-0.2-2.5-0.3-3.8-0.4
				c-0.9-0.1-1.7-0.1-2.6-0.2c-3.1-0.2-6.2-0.2-9.2,0.2c-1.8,0.2-3.7,0.4-5.4,0.7c-0.4,0.1-0.8,0.1-1.2,0.2
				c-1.3,0.2-2.5,0.5-3.8,0.9c-0.4,0.1-0.9,0.2-1.3,0.4c-0.6,0.2-1.2,0.4-1.8,0.6c-0.5,0.2-1,0.3-1.4,0.5c-1.4,0.6-2.9,1.2-4.4,2
				c-1.1,0.6-2.2,1.2-3.4,1.9c-0.4,0.2-0.8,0.5-1.2,0.7c-0.8,0.5-1.6,1.1-2.4,1.6c-0.8,0.6-1.6,1.2-2.4,1.9c-1.2,1-2.5,2.1-3.8,3.3
				c-1.3,1.2-2.6,2.5-4,3.9c-1.5,1.5-3.1,3.2-4.7,5c-1.2,1.3-2.3,2.9-3.5,4.6c-1,1.5-1.9,3-2.9,4.7c-0.2,0.4-0.4,0.8-0.6,1.1
				c-0.4,0.7-0.8,1.4-1.1,2.1c-0.3,0.7-0.7,1.3-1,2c-1,2-1.9,3.9-2.7,5.8c-0.4,0.8-0.7,1.6-1,2.3c7.6-5.7,17.1-9,27.4-9
				c5.6,0,11,1,16,2.9c1-2,2.2-3.9,3.7-5.5c0.5-0.5,1-1.1,1.6-1.6c1-0.9,2.2-1.8,3.4-2.5c1.2-0.7,2.5-1.4,3.8-1.9
				c1.3-0.5,2.7-0.9,4.2-1.2c1.4-0.3,2.9-0.4,4.4-0.4c12.9,0,23.4,10.5,23.4,23.4c0,1.6-0.2,3.1-0.5,4.7c-0.1,0.5-0.2,1-0.4,1.5
				c-0.2,0.7-0.4,1.3-0.6,1.9c-0.3,0.7-0.6,1.4-0.9,2.1c-1.2,2.4-2.7,4.6-4.6,6.4c-2.5,2.5-5.5,4.4-8.9,5.6c0.4,1.8,0.7,3.6,0.9,5.4
				c2.7-5,7.9-8.4,13.9-8.6c-0.1-0.6-0.2-1.2-0.1-1.8c0.2-3.5,3.1-6.2,6.5-6.3c-0.7-3.1-0.9-6.3-0.4-9.7c1.5-9.4,8.5-16.8,17.3-19.4
				c0,0,0,0,0,0c0-0.2-0.1-0.3-0.1-0.5c0,0,0-0.1,0-0.1c0-0.2-0.1-0.3-0.1-0.5c0,0,0-0.1,0-0.1c0-0.2-0.1-0.3-0.1-0.5
				c0,0,0-0.1,0-0.1c0-0.2-0.1-0.4-0.1-0.5c0,0,0,0,0,0c-0.3-0.4-0.3-0.5,0,0c-0.1-0.4-0.2-0.8-0.3-1.1l0.7,0c0,0,0.2-1.3,0.4-3.4
				c0-0.2,0-0.3,0-0.5C451,266.4,451,264.6,450.8,262.7z M436.6,277.2c-2.6,1-5.5-0.2-6.6-2.8c-1-2.6,0.2-5.5,2.8-6.6
				c2.6-1,5.5,0.2,6.6,2.8C440.4,273.3,439.1,276.2,436.6,277.2z"/>
			<polygon class="st9" points="450.1,272.9 450.1,272.9 450.1,272.9 450.1,272.9 			"/>
			<path class="st9" d="M316.5,304.1c0.6,0,1.2,0,1.8,0c0,0,0-0.1,0-0.1c0.5-3.3,2.9-5.8,5.8-6.8l-17.8-0.1
				C310.2,298.8,313.7,301.2,316.5,304.1z"/>
			<path class="st6" d="M335.3,287.1c0-0.9,0-1.8,0-2.8c0-2.3,0-4.8,0-7.3c0-1.5,0-3,0-4.5c0-1.5,0-3.1,0-4.6l0,0
				c0-5.6,0-11.2,0-16.4c0-5.5,0-12.5,0.1-16.4c0-0.6,0-1,0-1.5c0-0.2,0-0.5,0-0.7c0-0.1,0-0.1,0-0.2c0,0,0,0,0,0c0,0,0,0,0,0
				c0,0,0-0.1,0-0.1c0,0,0,0,0,0c-0.1-0.6-0.3-1.1-0.6-1.6c-0.8-1.5-2.2-3.8-2.7-4.8c-0.6-1-1.2-2.2-1.9-3.4
				c-0.7-1.2-1.5-2.4-2.3-3.7c-0.7-1.2-1.4-2.3-2.2-3.6c-0.4-0.6-0.8-1.2-1.2-1.8c-0.2-0.3-0.4-0.6-0.6-0.9
				c-0.4-0.6-0.8-1.2-1.2-1.8c-0.4-0.6-0.8-1.2-1.2-1.8c-0.4-0.6-0.8-1.2-1.3-1.8c-0.9-1.4-1.9-2.7-2.9-4c-1-1.3-1.9-2.6-2.9-3.7
				c-0.4-0.5-0.8-1-1.3-1.5c-0.6-0.8-1.2-1.5-1.8-2.1c-0.4-0.5-0.8-0.9-1.2-1.3c-1.2-1.2-2.3-2.3-3.4-3.1c-0.2-0.1-0.4-0.3-0.5-0.4
				c-0.3-0.2-0.7-0.5-1-0.6c0,0,0,0,0,0c1.3,1.1,2.7,2.4,4.1,4c0.3,0.3,0.6,0.7,0.9,1c0.3,0.4,0.6,0.7,0.9,1.1
				c0.4,0.5,0.8,1,1.3,1.5c1.9,2.4,3.8,5,5.7,7.7c0.4,0.6,0.8,1.2,1.3,1.8c0.4,0.6,0.8,1.2,1.2,1.8c0.4,0.6,0.8,1.2,1.2,1.8
				c0.2,0.3,0.4,0.6,0.6,0.9c0.4,0.6,0.8,1.2,1.2,1.8c0.8,1.2,1.5,2.4,2.2,3.6c1.6,2.6,3,5,4.2,7.1c0.4,0.8,1.3,2.4,2.1,3.8
				c0.3,0.5,0.5,0.9,0.7,1.2c0.1,0.2,0.2,0.4,0.3,0.6c0.2,0.4,0.3,0.8,0.3,1.2c0,0.2,0,0.4,0,0.6c0,0.8,0,1.9,0,3.3c0,1,0,2.1,0,3.3
				c0,0.4,0,0.8,0,1.2c0,3.3,0,7,0,10.2c0,1.3,0,2.6,0,3.9c0,1.3,0,2.7,0,4.1c0,2.7,0,5.6,0,8.4c0,1.5,0,3.1,0,4.6c0,1.5,0,3,0,4.5
				c0,2.5,0,4.9,0,7.3c0,0.9,0,1.9,0,2.8c0,0.9,0,1.8,0,2.6c0,1.7,0,3.4,0,4.9l0,0.8v0c0,0.2,0,0.3-0.1,0.5
				c-0.1,0.3-0.3,0.6-0.5,0.9c-0.3,0.3-0.8,0.6-1.4,0.6l-27.7,0.2c0.9,0.3,1.8,0.7,2.7,1l17.8,0.1c1.2-0.4,2.6-0.5,4-0.3
				c0.5,0.1,1,0.2,1.4,0.4l2.9,0c0.9-1.1,1.9-2.2,2.9-3.2c0-1.4,0-2.8,0-4.4C335.3,288.8,335.3,288,335.3,287.1z"/>
			<path class="st10" d="M431.9,247.6C431.9,247.6,431.9,247.6,431.9,247.6C431.9,247.6,431.9,247.6,431.9,247.6
				C431.9,247.6,431.9,247.6,431.9,247.6z"/>
			<path class="st6" d="M333.4,220.4c17,0.6,62.8,4.9,90.5,24.6c0,0,0,0,0,0c0,0,0.1,0,0.1,0.1c-0.3-0.2-0.6-0.4-0.9-0.6
				c-11.2-8.5-25.6-14.2-39.7-18.1c-21.8-5.9-43-7.4-50.7-7.4l0,0C332.8,219.3,333.2,220,333.4,220.4z"/>
			<path class="st6" d="M183.4,205c-1.1,0.4-2.2,0.9-3.3,1.3c0.8,0.1,1.6,0.2,2.4,0.3c0.8,0.1,1.6,0.3,2.4,0.6
				c2.1,0.6,3.6,1.7,4.9,3c0.4,0.4,0.8,0.9,1.2,1.4c0.4,0.5,0.7,1,1,1.6c0.3,0.5,0.7,1.1,1,1.6c0.6,1.1,1.3,2.3,1.9,3.4
				c0.8,1.4,1.7,2.7,2.7,3.9h22c1.9,0,3.6-0.9,4.7-2.2c0.9-1.1,1.4-2.4,1.4-3.9v-18.6C211.5,197,196.6,199.9,183.4,205z"/>
			<path class="st11" d="M180.1,206.3C180.1,206.3,180.1,206.3,180.1,206.3c-0.7-0.1-1.3-0.1-2-0.1
				C178.8,206.2,179.5,206.3,180.1,206.3z"/>
			<path class="st6" d="M426.1,303.8c0.3-0.7,0.6-1.4,0.9-2.1c0.2-0.6,0.4-1.3,0.6-1.9c0.1-0.5,0.2-1,0.4-1.5
				c0.3-1.5,0.5-3.1,0.5-4.7c0-12.9-10.5-23.4-23.4-23.4c-1.5,0-3,0.1-4.4,0.4c-1.4,0.3-2.8,0.7-4.2,1.2c-1.3,0.5-2.6,1.2-3.8,1.9
				c-1.2,0.7-2.3,1.6-3.4,2.5c-0.5,0.5-1.1,1-1.6,1.6c-1.5,1.6-2.7,3.5-3.7,5.5c4.7,1.7,9,4.2,12.8,7.3c1.2-3.4,4.5-5.8,8.2-5.8
				c4.9,0,8.8,3.9,8.8,8.8c0,4.2-2.9,7.7-6.8,8.6c2.6,4.1,4.5,8.7,5.7,13.6c3.4-1.2,6.4-3.1,8.9-5.6
				C423.4,308.3,424.9,306.2,426.1,303.8z"/>
			<path class="st9" d="M413.7,293.6c0-4.9-3.9-8.8-8.8-8.8c-3.8,0-7,2.4-8.2,5.8c4,3.2,7.5,7.1,10.2,11.5
				C410.8,301.3,413.7,297.8,413.7,293.6z"/>
			<path class="st6" d="M294.9,216.2c-0.3-1.4-0.6-2.9-0.9-4.2c-0.2-0.8-0.3-1.6-0.5-2.2c-0.2-0.7-0.3-1.3-0.4-1.8
				c-0.2-0.8-0.3-1.3-0.4-1.6c-0.1-0.3-0.5-0.7-1-1.1c-0.4-0.3-0.8-0.5-1.3-0.7c-0.5-0.2-1-0.5-1.6-0.7c-0.5-0.2-1.1-0.4-1.6-0.6
				c-0.3-0.1-0.5-0.2-0.8-0.2c-0.8-0.2-1.4-0.3-1.9-0.3c-0.2,0-0.3,0-0.4,0c-0.2,0-0.3,0.2-0.3,0.3c0.1,0.8,0.3,1.7,0.4,2.5
				c0.3,1.7,0.6,3.5,1,5.2c0.2,0.9,0.3,1.7,0.5,2.6c0.2,0.8,0.3,1.7,0.5,2.5c0.1,0.4,0.2,0.8,0.2,1.2c0.4,1.9,0.8,3.7,1.1,5.1h8.2v0
				c0-0.7-0.2-1.6-0.3-2.6S295.2,217.4,294.9,216.2z"/>
			<path class="st6" d="M285.2,220.3c-0.1-0.4-0.2-0.8-0.3-1.3c-0.1-0.5-0.2-1-0.3-1.5c-0.2-0.9-0.4-1.9-0.6-2.9
				c-0.1-0.5-0.2-1-0.3-1.5c-0.1-0.5-0.2-1-0.3-1.5c-0.1-0.5-0.2-1-0.3-1.5c-0.1-0.5-0.2-1-0.3-1.5c0-0.2-0.1-0.5-0.1-0.7
				c-0.1-0.5-0.2-0.9-0.2-1.3c0-0.2-0.1-0.4-0.1-0.6c-0.1-0.6-0.2-1.1-0.3-1.5c0-0.1-0.1-0.3-0.1-0.4c-0.1-0.4-0.1-0.7-0.2-0.9
				c0-0.2-0.1-0.4-0.3-0.6c-0.3-0.4-0.8-0.7-1.4-1c-0.5-0.2-1.1-0.4-1.8-0.6c-0.2-0.1-0.5-0.1-0.7-0.2c-0.7-0.2-1.6-0.4-2.5-0.5
				c-0.9-0.2-1.9-0.3-3-0.4c-0.4,0-0.7-0.1-1.1-0.1c-0.8-0.1-1.5-0.2-2.4-0.2c-1.3-0.1-2.8-0.2-4.3-0.4c-0.6,0-1.1-0.1-1.7-0.1
				c-4.1-0.3-8.7-0.6-13.8-0.9c-0.6,0-1.3-0.1-2-0.1c-0.8,0-1.6-0.1-2.4-0.1c-0.7,0-1.3,0-2,0c-0.6,0-1.3,0.1-1.9,0.1
				c-0.6,0.1-1.2,0.1-1.7,0.2c-0.5,0.1-0.9,0.2-1.2,0.3c-0.2,0.1-0.4,0.2-0.6,0.3c-0.1,0.1-0.2,0.1-0.2,0.2
				c-0.1,0.1-0.2,0.3-0.2,0.4v19.1v0c0,2,1.6,3.6,3.6,3.6h45.2v0c-0.1-0.3-0.2-0.7-0.3-1.2C285.3,220.7,285.2,220.5,285.2,220.3z"/>
			<path class="st6" d="M301.3,195.7c-0.1,0-0.3,0.1-0.4,0.1c-0.5,0.1-1.1,0.3-1.7,0.4c-0.2,0.1-0.3,0.1-0.5,0.2
				c-0.2,0.1-0.4,0.1-0.6,0.2c-0.1,0.1-0.3,0.1-0.4,0.2c-0.1,0-0.2,0.1-0.3,0.1c-0.2,0.1-0.3,0.1-0.4,0.2c0,0-0.1,0.1-0.1,0.1
				c-0.1,0.1-0.1,0.2-0.1,0.4c0,0.2,0,0.3,0,0.5c0,1.1,0.2,2.8,0.4,3.3c0.1,0.2,0.9,0.1,1.9-0.1c0.2,0,0.4-0.1,0.6-0.1
				c0.3-0.1,0.6-0.1,0.8-0.2c0.1,0,0.2,0,0.2-0.1c0.5-0.1,0.9-0.3,1.3-0.4c0.5-0.2,0.9-0.4,1-0.5c0-0.1,0-0.2,0.1-0.3
				c0-0.3,0-0.8,0-1.3c0-0.3,0-0.5,0-0.8c0-0.3-0.1-0.5-0.1-0.8c-0.1-0.7-0.3-1.3-0.7-1.3c-0.1,0-0.2,0-0.3,0
				C301.8,195.6,301.5,195.7,301.3,195.7z"/>
			<path class="st6" d="M296.7,209.2c-0.1-0.1-0.1-0.1-0.2-0.1c0,0-0.1,0-0.1,0.1c-0.1,0.9,1.2,6.7,1.9,9.6c0.1,0.2,0.1,0.4,0.2,0.6
				c0.1,0.4,0.2,0.7,0.2,0.9c0,0.2,0.2,0.2,0.4,0.1c0.1-0.1,0.3-0.1,0.4-0.2c0.2-0.1,0.4-0.3,0.6-0.4c0.2-0.1,0.3-0.3,0.5-0.4
				c0.8-0.8,1.7-1.8,1.7-2.1C302.3,216.5,297.9,210.2,296.7,209.2z"/>
			<path class="st6" d="M305,201c-0.3,0.1-0.6,0.2-1,0.3c-0.1,0-0.2,0.1-0.3,0.1c-0.2,0-0.5,0.1-0.7,0.1c-0.1,0-0.2,0-0.3,0.1
				c-0.3,0.1-0.5,0.1-0.6,0.2c-0.1,0-0.1,0.1-0.1,0.1c1.6,2,2.9,3.9,3.9,5.5c0.6,1,1.1,1.8,1.4,2.3c0.3,0.5,0.7,1.1,1,1.7
				c0.4,0.6,0.8,1.3,1.2,2c0.1,0.2,0.3,0.4,0.4,0.7c0.6,1.1,1.2,2.1,1.7,2.8c0.4,0.6,0.6,0.9,0.7,1c0.1,0,0.2,0.1,0.3,0.1
				c0.4,0.1,0.9,0.2,1.4,0.2c0.1,0,0.2,0,0.4,0c0.3,0,0.5-0.1,0.8-0.1c0.3-0.1,0.5-0.1,0.7-0.2c0.3-0.1,0.5-0.2,0.6-0.3c0,0,0,0,0,0
				c0.1-0.1,0.1-0.1,0.1-0.2c0-0.2-0.1-0.6-0.3-1.2c-0.1-0.4-0.3-0.9-0.5-1.4c-0.1-0.2-0.1-0.4-0.2-0.6c-0.4-0.9-0.9-2-1.4-3.1
				c-0.5-1-1-2-1.5-3.1c-0.3-0.7-0.7-1.4-1.1-2.1c-0.4-0.7-0.7-1.3-1.1-2c-0.6-1.2-1.3-2.2-1.8-3c-0.2-0.3-0.4-0.6-0.6-0.8
				c-0.8-0.8-1.6-1.5-2.4-2.2c0,0,0,0.1,0,0.1c0,0.3,0.3,1,0.3,1.8c0,0.3-0.1,0.6-0.2,0.9C305.6,200.7,305.3,200.9,305,201z"/>
			<path class="st6" d="M344.3,281.4c0.3-0.7,0.7-1.3,1-2c0.4-0.7,0.8-1.4,1.1-2.1c0.2-0.4,0.4-0.8,0.6-1.1c0.9-1.6,1.9-3.2,2.9-4.7
				c1.2-1.7,2.3-3.3,3.5-4.6c1.6-1.8,3.2-3.5,4.7-5c1.4-1.4,2.7-2.7,4-3.9c1.3-1.2,2.6-2.3,3.8-3.3c0.8-0.7,1.6-1.3,2.4-1.9
				c0.8-0.6,1.6-1.1,2.4-1.6c0.4-0.3,0.8-0.5,1.2-0.7c1.2-0.7,2.3-1.4,3.4-1.9c1.5-0.8,2.9-1.4,4.4-2c0.5-0.2,1-0.4,1.4-0.5
				c0.6-0.2,1.2-0.4,1.8-0.6c0.5-0.1,0.9-0.3,1.3-0.4c1.3-0.3,2.5-0.6,3.8-0.9c0.4-0.1,0.8-0.2,1.2-0.2c1.8-0.3,3.6-0.5,5.4-0.7
				c3-0.3,6.1-0.3,9.2-0.2c0.9,0,1.7,0.1,2.6,0.2c1.3,0.1,2.6,0.3,3.8,0.4c8.2,1.1,14.8,3,15,3.2c0,0,16.5,4.5,18.5,7.9
				c0.8,1.4,2.1,5.2,3.1,7.7l3,9.3c-1.3-5.6-3.4-13-5.2-16.9c-0.2-0.4-0.4-0.8-0.6-1.2c-1.1-1.9-7-4.3-12.1-6.1c0,0-0.1,0-0.1,0
				c-0.5-0.2-0.9-0.3-1.3-0.5c-0.1,0-0.1,0-0.2-0.1c-0.4-0.1-0.9-0.3-1.3-0.4c0,0-0.1,0-0.1,0c-0.4-0.1-0.8-0.3-1.2-0.4
				c0,0-0.1,0-0.1,0c-0.4-0.1-0.7-0.2-1-0.3c-0.1,0-0.1,0-0.2,0c-0.3-0.1-0.6-0.2-0.8-0.2c-0.1,0-0.1,0-0.2-0.1
				c-0.2-0.1-0.4-0.1-0.6-0.2c0,0-0.1,0-0.1,0c-0.4-0.1-0.6-0.2-0.6-0.2c0,0-0.3-0.1-0.9-0.3c-0.3-0.1-0.6-0.2-0.9-0.3
				c-0.5-0.1-1.2-0.3-1.9-0.5c-0.9-0.2-1.9-0.4-3-0.7c-1.1-0.2-2.3-0.5-3.6-0.7c-1.1-0.2-2.3-0.4-3.5-0.6c-1.6-0.2-3.3-0.4-5-0.6
				c-0.9-0.1-1.7-0.1-2.6-0.2c-3.1-0.2-6.2-0.2-9.2,0.2c-2,0.2-4,0.5-6,0.8c-0.8,0.1-1.6,0.3-2.4,0.5c-0.4,0.1-0.8,0.2-1.2,0.3
				c-1.2,0.3-2.4,0.6-3.5,1c-1.2,0.4-2.4,0.8-3.6,1.4c-0.8,0.3-1.6,0.7-2.4,1.1c-0.4,0.2-0.8,0.4-1.2,0.6c-0.8,0.5-1.7,0.9-2.5,1.5
				c-0.8,0.5-1.7,1.1-2.6,1.7c-0.9,0.6-1.8,1.3-2.7,2c-0.9,0.7-1.8,1.5-2.7,2.3c-2.3,2-4.8,4.3-7.3,7c-1,1.1-2.1,2.2-3.2,3.4
				c-0.2,0.2-0.4,0.5-0.6,0.7c-0.3,0.3-0.5,0.7-0.8,1c-0.1,0.2-0.3,0.4-0.4,0.5c-0.6,0.8-1.2,1.7-1.7,2.6c-2.2,3.7-4.3,8-5.9,12.2
				c-0.4,0.9-0.7,1.8-1,2.6c-0.2,0.4-0.3,0.9-0.5,1.3c-0.5,1.4-1,2.7-1.4,4c0,0,0,0,0,0c0.2-0.2,0.4-0.3,0.7-0.5
				c0.3-0.7,0.6-1.5,1-2.3C342.4,285.4,343.3,283.4,344.3,281.4z"/>
			<polygon class="st12" points="450.1,272.9 450.1,272.9 450.1,272.9 			"/>
			<polygon class="st12" points="450.1,272.9 450.1,272.9 450.1,272.9 450.1,272.9 450.1,272.9 			"/>
			<path class="st6" d="M449.8,271.8C449.8,271.8,449.9,272.1,449.8,271.8L449.8,271.8z"/>
			<path class="st6" d="M195.9,296.4L195.9,296.4C195.9,296.4,195.9,296.4,195.9,296.4C195.9,296.4,195.9,296.4,195.9,296.4
				C195.9,296.4,195.9,296.4,195.9,296.4L195.9,296.4z"/>
			<path class="st6" d="M90.8,257.9c0.7-0.6,1.4-1.3,2.1-1.9l0,0c2.7-2.4,5.7-4.7,8.8-6.9c2.3-1.6,4.7-3.2,7.2-4.6
				c1.9-1.1,3.9-2.1,5.8-2.9c1.2-0.5,2.5-1,3.7-1.5c1.1-0.4,2.3-0.8,3.4-1.1c1.8-0.5,3.6-0.9,5.4-1.2c1.8-0.3,3.7-0.5,5.5-0.5
				c9.2-0.2,17.3,1.8,24.2,5.1c1,0.5,2,1,2.9,1.5c1.9,1.1,3.7,2.2,5.4,3.5c0.9,0.6,1.7,1.3,2.5,2c2.9,2.3,5.5,4.9,7.9,7.7
				c1.4,1.6,2.7,3.2,3.9,4.8c0.3,0.4,0.6,0.8,0.9,1.2c0.9,1.2,1.7,2.5,2.5,3.7c0.8,1.3,1.6,2.5,2.3,3.8c5.8,10.1,9.1,20,10.6,25.9
				c0,0,0,0,0,0c0,0,0,0,0,0c0,0,0,0,0,0c-0.1-0.6-0.3-1.2-0.4-1.9c-0.1-0.4-0.2-0.7-0.3-1.1c-0.1-0.4-0.2-0.8-0.3-1.2
				c-0.2-0.6-0.3-1.2-0.5-1.8c-0.4-1.3-0.8-2.7-1.3-4.1c-0.2-0.7-0.5-1.5-0.8-2.3c-0.3-0.8-0.6-1.6-0.9-2.4c-0.3-0.8-0.6-1.6-1-2.5
				c-0.3-0.8-0.7-1.7-1.1-2.5c-0.8-1.7-1.6-3.5-2.5-5.3c-0.9-1.8-1.9-3.6-2.9-5.4c-0.5-0.9-1.1-1.8-1.6-2.7
				c-0.6-0.9-1.2-1.8-1.8-2.7c-1.8-2.6-3.8-5.2-6-7.7c-0.6-0.7-1.3-1.4-2-2.1c-1.4-1.4-2.8-2.7-4.3-4c-0.7-0.6-1.5-1.2-2.3-1.8
				c-2-1.5-4.1-2.9-6.4-4.2c-1.7-0.9-3.5-1.8-5.3-2.5c-0.6-0.3-1.2-0.5-1.9-0.7c-1.1-0.4-2.3-0.8-3.4-1.1c-1.8-0.5-3.6-0.9-5.4-1.2
				c-0.6-0.1-1.3-0.2-1.9-0.3c-1.9-0.2-3.9-0.4-5.9-0.4c-0.7,0-1.4,0-2.1,0c-4.6,0.1-9.2,1.1-13.6,2.6c-0.7,0.3-1.5,0.5-2.2,0.8
				c-0.5,0.2-1,0.4-1.5,0.6c-0.6,0.3-1.3,0.6-1.9,0.9c-1.1,0.5-2.1,1-3.2,1.6c-1,0.6-2.1,1.2-3.1,1.8c-1,0.6-2,1.2-3,1.9
				c-0.8,0.5-1.6,1.1-2.3,1.6c-0.8,0.5-1.5,1.1-2.3,1.7c-0.7,0.6-1.5,1.1-2.2,1.7c-0.7,0.6-1.4,1.2-2.1,1.8
				c-0.7,0.6-1.4,1.2-2.1,1.8l0,0c-1.4,1.2-2.8,2.5-4,3.8c-1.3,1.2-2.5,2.5-3.7,3.7c-1.8,1.8-3.4,3.6-4.8,5.3
				c-0.5,0.6-1,1.1-1.4,1.6c0,0-0.1,0.1-0.1,0.1c0.1,0.2,0.3,0.4,0.4,0.6c1.4-1.6,2.9-3.2,4.5-4.9C86.8,261.7,88.7,259.8,90.8,257.9
				z"/>
			<circle class="st0" cx="123.6" cy="262.7" r="3.3"/>
			<path class="st0" d="M451.8,259c-0.5-4.6-1.8-6.5-2.2-6.9c-0.4-0.4-4-0.8-4-0.8c0,0,0,0,0,0c-0.2-0.4-0.4-0.8-0.6-1.1
				c-0.5-0.8-2-1.8-3.9-2.7c-2.4-1.1-5.4-2.3-8.3-3.2h0c0,0-0.1,0-0.1,0c-0.5-0.2-0.9-0.3-1.3-0.4c-0.1,0-0.1,0-0.2-0.1
				c-0.4-0.1-0.9-0.3-1.3-0.4c0,0-0.1,0-0.1,0c-0.4-0.1-0.8-0.3-1.2-0.4c0,0-0.1,0-0.1,0c-0.4-0.1-0.7-0.2-1-0.3c-0.1,0-0.1,0-0.2,0
				c-0.3-0.1-0.6-0.2-0.8-0.2c-0.1,0-0.1,0-0.2-0.1c-0.2-0.1-0.4-0.1-0.6-0.2c0,0-0.1,0-0.1,0c-0.4-0.1-0.6-0.2-0.6-0.2
				c-0.1-0.1-0.2-0.1-0.3-0.2c0,0,0.1,0,0.1,0.1c-0.3-0.2-0.6-0.4-0.9-0.6c-11.4-8.4-25.9-14-39.9-17.7c-21.9-5.8-43.2-7.2-50.9-7.2
				c0,0-0.3-0.5-0.8-1.4c0,0,0,0,0,0c-0.1-0.2-0.2-0.3-0.3-0.5c0-0.1-0.1-0.1-0.1-0.2c-0.1-0.1-0.2-0.3-0.3-0.5
				c-0.1-0.2-0.3-0.5-0.5-0.8c-0.1-0.1-0.1-0.2-0.2-0.3c-0.1-0.2-0.3-0.4-0.4-0.6c-0.1-0.1-0.1-0.2-0.2-0.3
				c-0.1-0.2-0.3-0.4-0.4-0.7c-0.1-0.1-0.1-0.2-0.2-0.3c-0.2-0.2-0.3-0.5-0.5-0.8c-0.1-0.1-0.1-0.2-0.2-0.3
				c-0.2-0.3-0.4-0.6-0.6-0.8c-0.1-0.1-0.1-0.2-0.2-0.3c-0.2-0.3-0.4-0.7-0.7-1c0-0.1-0.1-0.1-0.1-0.2c-0.6-0.8-1.1-1.7-1.7-2.6
				c-0.1-0.1-0.1-0.1-0.2-0.2c-0.3-0.4-0.5-0.7-0.8-1.1c-0.1-0.1-0.2-0.2-0.2-0.3c-0.2-0.3-0.5-0.7-0.7-1c-0.1-0.1-0.2-0.2-0.3-0.4
				c-0.2-0.3-0.5-0.7-0.8-1c-0.1-0.1-0.2-0.2-0.2-0.3c-0.3-0.4-0.6-0.8-0.9-1.2c-0.1-0.1-0.1-0.1-0.2-0.2c-0.7-1-1.4-1.9-2.2-2.8
				c0-0.1-0.1-0.1-0.1-0.2c-0.3-0.4-0.6-0.8-0.9-1.2c-0.1-0.1-0.2-0.2-0.3-0.4c-0.3-0.3-0.5-0.7-0.8-1c-0.1-0.1-0.2-0.3-0.3-0.4
				c-0.3-0.3-0.5-0.6-0.8-0.9c-0.1-0.1-0.2-0.3-0.4-0.4c-0.3-0.3-0.5-0.6-0.8-0.9c-0.1-0.1-0.2-0.3-0.3-0.4c-0.3-0.4-0.6-0.7-0.9-1
				c-0.1-0.1-0.1-0.1-0.2-0.2c-0.4-0.4-0.8-0.8-1.2-1.2c-0.1-0.1-0.1-0.1-0.2-0.2c-0.3-0.3-0.6-0.6-1-1c-0.1-0.1-0.2-0.2-0.4-0.4
				c-0.3-0.2-0.5-0.5-0.8-0.7c-0.1-0.1-0.3-0.3-0.4-0.4c-0.2-0.2-0.5-0.4-0.7-0.6c-0.1-0.1-0.3-0.2-0.4-0.4
				c-0.2-0.2-0.5-0.4-0.7-0.6c-0.1-0.1-0.3-0.2-0.4-0.3c-0.2-0.2-0.5-0.4-0.7-0.5c-0.1-0.1-0.2-0.2-0.4-0.3
				c-0.4-0.3-0.7-0.5-1.1-0.7c-0.4-0.2-0.8-0.5-1.2-0.7c-0.2-0.1-0.4-0.2-0.6-0.3c-0.2-0.1-0.4-0.2-0.6-0.3
				c-0.5-0.2-1.1-0.5-1.6-0.7c0,0-0.1,0-0.1,0c0,0,0,0,0,0c-3.7-1.5-27.7-8.3-56.8-8.3h-24.7c-39.7,0-65.6,13.4-68.6,14.4
				c-3,1-3.7,3.7-3.7,3.7s-36.6,25-53,41.7c-6.4,6.5-10.3,11.9-12.7,16.1c-1.7,0.3-3.5,0.8-4.3,1.6c-0.6,0.6-1.1,1.8-1.5,3.2
				c-0.7,2.4-1.1,5.4-1.2,6.7c0,0.3,0.1,0.7,0.4,0.9c0,0,0,0,0,0h0.8c0,0,0,0,0,0c0-0.3,0.1-0.6,0.2-1c0-0.1,0-0.1,0-0.2
				c0-0.3,0.1-0.5,0.2-0.8c0-0.1,0-0.2,0-0.2c0.1-0.3,0.1-0.7,0.2-1c0,0,0,0,0-0.1c0.1-0.3,0.1-0.6,0.2-0.9c0-0.1,0-0.2,0.1-0.3
				c0.1-0.2,0.1-0.5,0.2-0.7c0-0.1,0-0.1,0.1-0.2c0.1-0.3,0.2-0.5,0.3-0.8c0-0.1,0.1-0.1,0.1-0.2c0.1-0.2,0.2-0.3,0.3-0.5
				c0-0.1,0.1-0.1,0.1-0.2c0.1-0.2,0.2-0.3,0.4-0.5c0.8-0.8,2.6-1.4,4.3-1.7c2.3-4.3,6.2-9.8,12.6-16.4c16.4-17,52.8-42.6,52.8-42.6
				s0.6-2.7,3.6-3.7c3-1,28.8-14.7,68.3-14.7h24.5c29,0,52.9,7,56.6,8.5c0,0,0,0,0,0c0,0,0.1,0,0.1,0c0.6,0.2,1.1,0.5,1.6,0.7
				c0.2,0.1,0.4,0.2,0.6,0.3c0.2,0.1,0.4,0.2,0.6,0.3c0.4,0.2,0.9,0.5,1.2,0.7c0.4,0.2,0.7,0.5,1.1,0.7c0.1,0.1,0.2,0.2,0.4,0.3
				c0.2,0.2,0.5,0.4,0.7,0.6c0.1,0.1,0.3,0.2,0.4,0.3c0.2,0.2,0.5,0.4,0.7,0.6c0.1,0.1,0.3,0.2,0.4,0.4c0.2,0.2,0.5,0.4,0.7,0.6
				c0.1,0.1,0.3,0.3,0.4,0.4c0.3,0.2,0.5,0.5,0.8,0.7c0.1,0.1,0.2,0.2,0.4,0.4c0.3,0.3,0.6,0.6,1,1c0.1,0.1,0.1,0.1,0.2,0.2
				c0.4,0.4,0.8,0.8,1.1,1.2c0.1,0.1,0.1,0.1,0.2,0.2c0.3,0.3,0.6,0.7,0.9,1.1c0.1,0.1,0.2,0.3,0.3,0.4c0.3,0.3,0.5,0.6,0.8,0.9
				c0.1,0.1,0.2,0.3,0.4,0.4c0.3,0.3,0.5,0.6,0.8,0.9c0.1,0.1,0.2,0.3,0.3,0.4c0.3,0.3,0.5,0.7,0.8,1c0.1,0.1,0.2,0.2,0.3,0.4
				c0.3,0.4,0.6,0.8,0.9,1.2c0,0.1,0.1,0.1,0.1,0.2c0.7,1,1.5,1.9,2.2,2.9c0.1,0.1,0.1,0.1,0.2,0.2c0.3,0.4,0.6,0.8,0.9,1.2
				c0.1,0.1,0.2,0.2,0.2,0.3c0.3,0.4,0.5,0.7,0.7,1.1c0.1,0.1,0.2,0.3,0.3,0.4c0.2,0.4,0.5,0.7,0.7,1.1c0.1,0.1,0.2,0.2,0.2,0.3
				c0.3,0.4,0.5,0.8,0.8,1.1c0.1,0.1,0.1,0.2,0.2,0.2c0.6,0.9,1.2,1.8,1.7,2.6c0,0.1,0.1,0.1,0.1,0.2c0.2,0.4,0.5,0.7,0.7,1
				c0.1,0.1,0.1,0.2,0.2,0.3c0.2,0.3,0.4,0.6,0.5,0.9c0.1,0.1,0.1,0.2,0.2,0.3c0.2,0.3,0.3,0.5,0.5,0.8c0.1,0.1,0.1,0.2,0.2,0.3
				c0.1,0.2,0.3,0.5,0.4,0.7c0.1,0.1,0.1,0.2,0.2,0.3c0.1,0.2,0.3,0.4,0.4,0.6c0.1,0.1,0.1,0.2,0.2,0.3c0.2,0.3,0.3,0.5,0.5,0.8
				c0.1,0.2,0.2,0.3,0.3,0.5c0,0.1,0.1,0.2,0.1,0.2c0.1,0.2,0.2,0.4,0.3,0.5c0,0,0,0,0,0c0.5,0.9,0.8,1.4,0.8,1.4
				c7.7,0,28.9,1.5,50.7,7.4c14,3.8,28.4,9.5,39.7,18.1c0.3,0.2,0.6,0.4,0.9,0.6c0,0-0.1,0-0.1-0.1c0.1,0.1,0.2,0.1,0.3,0.2
				c0,0,0.2,0.1,0.6,0.2c0,0,0.1,0,0.1,0c0.2,0.1,0.4,0.1,0.6,0.2c0.1,0,0.1,0,0.2,0.1c0.2,0.1,0.5,0.2,0.8,0.2c0.1,0,0.1,0,0.2,0
				c0.3,0.1,0.7,0.2,1,0.3c0,0,0.1,0,0.1,0c0.4,0.1,0.8,0.2,1.2,0.4c0,0,0.1,0,0.1,0c0.4,0.1,0.8,0.3,1.3,0.4c0.1,0,0.1,0,0.2,0.1
				c0.4,0.1,0.9,0.3,1.3,0.5c0,0,0.1,0,0.1,0c0,0,0,0,0,0c5.1,1.8,11,4.2,12.1,6.1c0.2,0.3,0.4,0.7,0.6,1.2c0,0,0,0,0,0
				c0,0,3.6,0.5,4,0.8c0.4,0.4,1.7,2.3,2.2,7c0.2,1.9,0.2,3.7,0.1,5.2l0.6,0C451.5,267.9,452.3,263.6,451.8,259z"/>
			<circle class="st0" cx="434.7" cy="272.6" r="5"/>
			<circle class="st0" cx="276.3" cy="283.2" r="3.6"/>
			<path class="st6" d="M229.4,239.2l1.9,26.2v-80.3l-1.8,23.2C228.7,218.6,228.6,228.9,229.4,239.2z"/>
		</g>
	</g>
</g>
<g id="DESIGNED_BY_FREEPIK">
</g>
</svg>
